<svg xmlns="http://www.w3.org/2000/svg"><defs> <path id="video-production-SVGID_1_" d="M433.1,38.2c-0.1,0-1.7,0.6-3.2,1.1c0.3-1.9,0.5-3.4,0.5-3.7c0-1.3-1-2.4-2.3-2.5c0,0,0,0,0,0
				c4.3-2.1,7.3-6.6,7.3-11.7c0-7.2-5.9-13.1-13.1-13.1c-5.1,0-9.5,2.9-11.7,7.2c-1.4-6.6-7.3-11.6-14.3-11.6
				c-8.1,0-14.7,6.6-14.7,14.7c0,7.5,5.6,13.6,12.8,14.5H389v0c-0.1,0-0.2,0-0.2,0c-1.8,0-3.3,1.5-3.3,3.3c0,0.1,0,0.1,0,0.2v1.7
				h-6.7c0,0-17.1-5.3-17.5-5.3c-1.8,0-3.3,1.5-3.3,3.3c0,0.2,0,0.3,0,0.5c0,0,0,0,0,0v16.2c0,0,0,0,0,0c0,0.2,0,0.3,0,0.5
				c0,1.8,1.5,3.3,3.3,3.3c0.6,0,17.5-5.4,17.5-5.4h6.7v1.7c0,0.1,0,0.1,0,0.2c0,1.8,1.5,3.3,3.3,3.3c0,0,0.1,0,0.1,0c0,0,0,0,0,0
				h36.2c0,0,0,0,0,0c0,0,0,0,0,0c1.3,0,2.4-1,2.5-2.4c0,0,0,0,0,0c0,0,0.6-4.1,1.3-8.4c1.3,0.5,2.8,1.2,2.9,1.2
				c0.7,0.2,1.4-0.4,1.4-1.1c0-0.7,0.2-2,0.4-3.5s0.6-2.2,0.6-2.8C434.3,38.8,434.1,38.2,433.1,38.2z M401.9,32.3H419
				c0.6,0,1,0.4,1,1c0,0.5-0.5,1-1,1h-17.1c-0.6,0-1-0.4-1-1C400.9,32.7,401.3,32.3,401.9,32.3z M395.8,54.2c-0.9,0-1.6-0.7-1.6-1.6
				c0-0.9,0.7-1.6,1.6-1.6s1.6,0.7,1.6,1.6C397.4,53.5,396.7,54.2,395.8,54.2z M396.7,21.1c-1.4,0-2.6-1.1-2.6-2.6s1.1-2.6,2.6-2.6
				c1.4,0,2.6,1.1,2.6,2.6S398.1,21.1,396.7,21.1z M400.9,54.2c-1.3,0-2.3-1-2.3-2.3c0-1.3,1-2.3,2.3-2.3s2.3,1,2.3,2.3
				C403.2,53.2,402.2,54.2,400.9,54.2z M424.9,50.1c0,1.4-1.1,2.5-2.5,2.5h-4.2c-1.4,0-2.5-1.1-2.5-2.5v-4.2c0-1.4,1.1-2.5,2.5-2.5
				h4.2c1.4,0,2.5,1.1,2.5,2.5V50.1z M422.4,23.8c-1.4,0-2.6-1.1-2.6-2.6c0-1.4,1.1-2.6,2.6-2.6c1.4,0,2.6,1.1,2.6,2.6
				C424.9,22.6,423.8,23.8,422.4,23.8z"/> </defs><symbol viewBox="360.9 80.5 70 52.5" id="icon-development"><title>development</title> <g> <polygon fill="#FFFFFF" points="395.8,80.5 387.2,132.3 387,133 396.1,133 404.7,81.2 404.8,80.5 	"/> <polygon fill="#5CBADE" points="382.8,88.4 380.5,90 363,100.9 360.9,102.1 360.9,111.4 363,112.6 380.5,123.6 382.8,125.1 
		382.8,114.7 370.1,106.8 382.8,98.8 	"/> <polygon fill="#5CBADE" points="409,88.4 409,98.8 421.7,106.8 409,114.7 409,125.1 411.4,123.6 428.8,112.6 430.9,111.4 
		430.9,102.1 428.8,100.9 411.4,90 	"/> </g> </symbol><symbol viewBox="247.6 80.2 63.5 54.2" id="icon-events"><title>events</title> <g id="events-Your_Icon"> <path fill="#FFFFFF" d="M311.1,134.4c-9.8-11.8-8.8-24.9-8.8-24.9h-0.9l-1,4l-1-4h-3.5l-1,4l-1-4h-4l-1,4l-1-4h-3.9l-1,4l-1-4h-2.4
		h-0.5h-1.5l-1,4l-1-4h-4.1l-1,4l-1-4h-4.3l-1,4l-1-4h-4.3l-1,4l-1-4h-1c0,0,1,13.2-8.8,24.9c25.4-1,30.9-14.4,32-21.2
		C280.5,119.9,285.7,133.4,311.1,134.4z"/> <polygon fill="#FFFFFF" points="252.6,109.1 251.6,109.1 252.6,113.3 253.7,109.1 	"/> <polygon fill="#FFFFFF" points="306.4,109.1 305.4,109.1 306.4,113.3 307.5,109.1 	"/> <path fill="#ED3C95" d="M279.3,86.8c-10.9,20.1-29.8,21.1-29.8,21.1h29.8h29.8C309.1,107.9,290.2,106.9,279.3,86.8z"/> <polygon fill="#F0AC1E" points="279.3,83.2 279.3,86.2 291.3,83.2 279.3,80.2 	"/> </g> </symbol><symbol viewBox="25.8 81.3 51 51" id="icon-media-buying"><title>media-buying</title> <g> <path fill="#FFFFFF" d="M51.3,132.3c-14.1,0-25.5-11.4-25.5-25.5s11.4-25.5,25.5-25.5c14.1,0,25.5,11.4,25.5,25.5
		S65.4,132.3,51.3,132.3z M51.3,88.5c-10.1,0-18.2,8.2-18.2,18.2S41.3,125,51.3,125s18.2-8.2,18.2-18.2S61.4,88.5,51.3,88.5z"/> <path fill="#F0AC1E" d="M51.3,121.1c-7.9,0-14.4-6.4-14.4-14.4c0-7.9,6.4-14.4,14.4-14.4s14.4,6.4,14.4,14.4
		C65.7,114.7,59.2,121.1,51.3,121.1z M51.3,97.6c-5.1,0-9.2,4.1-9.2,9.2s4.1,9.2,9.2,9.2s9.2-4.1,9.2-9.2S56.4,97.6,51.3,97.6z"/> <circle fill="#EC5337" cx="51.3" cy="106.8" r="6"/> </g> </symbol><symbol viewBox="494.3 5.2 40 49.8" id="icon-mobile-apps"><title>mobile-apps</title> <g> <g> <path fill="#FFFFFF" d="M523.3,50.2h-0.5c-0.5,0-0.9,0.4-0.9,0.9v0.5c0,0.5,0.4,0.9,0.9,0.9h0.5c0.5,0,0.9-0.4,0.9-0.9v-0.5
			C524.2,50.6,523.8,50.2,523.3,50.2z M524,51.5c0,0.4-0.3,0.7-0.7,0.7h-0.5c-0.4,0-0.7-0.3-0.7-0.7v-0.5c0-0.4,0.3-0.7,0.7-0.7h0.5
			c0.4,0,0.7,0.3,0.7,0.7V51.5z"/> <path fill="#FFFFFF" d="M532.3,10.4h-0.5c0-0.1-0.1-0.1-0.2-0.1H529c-0.1,0-0.2,0.1-0.2,0.1h-14.9c-1.2,0-2.1,0.9-2.1,2.1V18
			c-0.1,0.1-0.2,0.2-0.2,0.4v0.8c0,0.1,0.1,0.3,0.2,0.4v0.9c-0.1,0.1-0.2,0.2-0.2,0.4v0.8c0,0.1,0.1,0.3,0.2,0.4v31
			c0,1.2,0.9,2.1,2.1,2.1h18.4c1.2,0,2.1-0.9,2.1-2.1V12.5C534.3,11.3,533.4,10.4,532.3,10.4z M521.3,13.7h3.5
			c0.2,0,0.4,0.2,0.4,0.4c0,0.2-0.2,0.4-0.4,0.4h-3.5c-0.2,0-0.4-0.2-0.4-0.4C520.9,13.9,521.1,13.7,521.3,13.7z M518.9,13.6
			c0.3,0,0.5,0.2,0.5,0.5c0,0.3-0.2,0.5-0.5,0.5c-0.3,0-0.5-0.2-0.5-0.5C518.4,13.8,518.6,13.6,518.9,13.6z M523.1,53.5
			c-1.2,0-2.2-1-2.2-2.2c0-1.2,1-2.2,2.2-2.2c1.2,0,2.2,1,2.2,2.2C525.3,52.5,524.3,53.5,523.1,53.5z M532.9,47.8h-19.6v-30h19.6
			V47.8z"/> <g> <g> <g> <path fill="#5CBADE" d="M528.6,46.1h2.6c0.3,0,0.5-0.2,0.5-0.5v-2.6c0-0.3-0.2-0.5-0.5-0.5h-2.6c-0.3,0-0.5,0.2-0.5,0.5v2.6
						C528,45.8,528.3,46.1,528.6,46.1z"/> </g> <g> <path fill="#5CBADE" d="M524,23.9h2.6c0.3,0,0.5-0.2,0.5-0.5v-2.6c0-0.3-0.2-0.5-0.5-0.5H524c-0.3,0-0.5,0.2-0.5,0.5v2.6
						C523.5,23.6,523.7,23.9,524,23.9z"/> </g> <g> <path fill="#5CBADE" d="M528.6,23.9h2.6c0.3,0,0.5-0.2,0.5-0.5v-2.6c0-0.3-0.2-0.5-0.5-0.5h-2.6c-0.3,0-0.5,0.2-0.5,0.5v2.6
						C528,23.6,528.3,23.9,528.6,23.9z"/> </g> <g> <path fill="#5CBADE" d="M514.8,46.1h2.6c0.3,0,0.5-0.2,0.5-0.5v-2.6c0-0.3-0.2-0.5-0.5-0.5h-2.6c-0.3,0-0.5,0.2-0.5,0.5v2.6
						C514.3,45.8,514.5,46.1,514.8,46.1z"/> </g> <g> <path fill="#5CBADE" d="M514.8,23.9h2.6c0.3,0,0.5-0.2,0.5-0.5v-2.6c0-0.3-0.2-0.5-0.5-0.5h-2.6c-0.3,0-0.5,0.2-0.5,0.5v2.6
						C514.3,23.6,514.5,23.9,514.8,23.9z"/> </g> <g> <path fill="#5CBADE" d="M514.8,29.2h2.6c0.3,0,0.5-0.2,0.5-0.5V26c0-0.3-0.2-0.5-0.5-0.5h-2.6c-0.3,0-0.5,0.2-0.5,0.5v2.6
						C514.3,28.9,514.5,29.2,514.8,29.2z"/> </g> <g> <path fill="#5CBADE" d="M519.4,23.9h2.6c0.3,0,0.5-0.2,0.5-0.5v-2.6c0-0.3-0.2-0.5-0.5-0.5h-2.6c-0.3,0-0.5,0.2-0.5,0.5v2.6
						C518.9,23.6,519.1,23.9,519.4,23.9z"/> </g> <g> <path fill="#5CBADE" d="M524,46.1h2.6c0.3,0,0.5-0.2,0.5-0.5v-2.6c0-0.3-0.2-0.5-0.5-0.5H524c-0.3,0-0.5,0.2-0.5,0.5v2.6
						C523.5,45.8,523.7,46.1,524,46.1z"/> </g> <g> <path fill="#5CBADE" d="M519.4,29.2h2.6c0.3,0,0.5-0.2,0.5-0.5V26c0-0.3-0.2-0.5-0.5-0.5h-2.6c-0.3,0-0.5,0.2-0.5,0.5v2.6
						C518.9,28.9,519.1,29.2,519.4,29.2z"/> </g> <g> <path fill="#5CBADE" d="M519.4,46.1h2.6c0.3,0,0.5-0.2,0.5-0.5v-2.6c0-0.3-0.2-0.5-0.5-0.5h-2.6c-0.3,0-0.5,0.2-0.5,0.5v2.6
						C518.9,45.8,519.1,46.1,519.4,46.1z"/> </g> </g> </g> </g> <g> <path fill="#FFFFFF" d="M510.5,46.7h-14.3c-0.1,0-0.3-0.1-0.3-0.3V12.2c0-0.1,0.1-0.3,0.3-0.3h14.3v-0.4c0-1.3,1-2.3,2.3-2.3h4.3
			v-1c0-1.6-1.3-2.9-2.9-2.9h-0.7c0-0.1-0.1-0.2-0.2-0.2h-2.5c-0.1,0-0.2,0.1-0.2,0.2h-13.2c-1.6,0-2.9,1.3-2.9,2.9V12
			c-0.1,0-0.2,0.1-0.2,0.2v1c0,0.1,0.1,0.2,0.2,0.2v1.1c-0.1,0-0.2,0.1-0.2,0.2v1c0,0.1,0.1,0.2,0.2,0.2v34.3c0,1.6,1.3,2.9,2.9,2.9
			h13.1V46.7z M505.7,7.2c0.2,0,0.4,0.2,0.4,0.4c0,0.2-0.2,0.4-0.4,0.4c-0.2,0-0.4-0.2-0.4-0.4S505.5,7.2,505.7,7.2z M504.2,9.3h3.3
			c0.1,0,0.3,0.1,0.3,0.3c0,0.1-0.1,0.3-0.3,0.3h-3.3c-0.1,0-0.3-0.1-0.3-0.3C503.9,9.4,504,9.3,504.2,9.3z M506,52
			c-1.3,0-2.3-1-2.3-2.3c0-1.3,1-2.3,2.3-2.3s2.3,1,2.3,2.3C508.2,51,507.2,52,506,52z"/> <path fill="#FFFFFF" d="M506,48c-1,0-1.7,0.8-1.7,1.7c0,1,0.8,1.7,1.7,1.7s1.7-0.8,1.7-1.7C507.7,48.8,506.9,48,506,48z"/> <g> <g> <path fill="#5CBADE" d="M500.3,41.5h-2.6c-0.3,0-0.5,0.2-0.5,0.5v2.6c0,0.3,0.2,0.5,0.5,0.5h2.6c0.3,0,0.5-0.2,0.5-0.5V42
					C500.8,41.7,500.5,41.5,500.3,41.5z"/> <path fill="#5CBADE" d="M500.8,14.3c0-0.3-0.2-0.5-0.5-0.5h-2.6c-0.3,0-0.5,0.2-0.5,0.5v2.6c0,0.3,0.2,0.5,0.5,0.5h2.6
					c0.3,0,0.5-0.2,0.5-0.5V14.3z"/> <path fill="#5CBADE" d="M500.8,19.6c0-0.3-0.2-0.5-0.5-0.5h-2.6c-0.3,0-0.5,0.2-0.5,0.5v2.6c0,0.3,0.2,0.5,0.5,0.5h2.6
					c0.3,0,0.5-0.2,0.5-0.5V19.6z"/> <path fill="#5CBADE" d="M504.8,41.5h-2.6c-0.3,0-0.5,0.2-0.5,0.5v2.6c0,0.3,0.2,0.5,0.5,0.5h2.6c0.3,0,0.5-0.2,0.5-0.5V42
					C505.4,41.7,505.1,41.5,504.8,41.5z"/> <path fill="#5CBADE" d="M509.9,14.3c0-0.3-0.2-0.5-0.5-0.5h-2.6c-0.3,0-0.5,0.2-0.5,0.5v2.6c0,0.3,0.2,0.5,0.5,0.5h2.6
					c0.3,0,0.5-0.2,0.5-0.5V14.3z"/> <path fill="#5CBADE" d="M505.4,14.3c0-0.3-0.2-0.5-0.5-0.5h-2.6c-0.3,0-0.5,0.2-0.5,0.5v2.6c0,0.3,0.2,0.5,0.5,0.5h2.6
					c0.3,0,0.5-0.2,0.5-0.5V14.3z"/> <path fill="#5CBADE" d="M505.4,19.6c0-0.3-0.2-0.5-0.5-0.5h-2.6c-0.3,0-0.5,0.2-0.5,0.5v2.6c0,0.3,0.2,0.5,0.5,0.5h2.6
					c0.3,0,0.5-0.2,0.5-0.5V19.6z"/> <path fill="#5CBADE" d="M509.4,41.5h-2.6c-0.3,0-0.5,0.2-0.5,0.5v2.6c0,0.3,0.2,0.5,0.5,0.5h2.6c0.3,0,0.5-0.2,0.5-0.5V42
					C509.9,41.7,509.7,41.5,509.4,41.5z"/> </g> </g> </g> </g> </symbol><symbol viewBox="125 80.2 77.4 53" id="icon-social-media"><title>social-media</title> <g> <path fill="#FFFFFF" d="M149.8,90.6c-13.7,0-24.9,8.3-24.9,18.5c0,5.4,3.1,10.2,8,13.6c-0.4,7.7-6.6,10.7-6.6,10.7
		c8.3,0.2,12.6-3.6,14.8-6.9c2.7,0.7,5.6,1.1,8.6,1.1c13.7,0,24.9-8.3,24.9-18.5C174.7,98.8,163.6,90.6,149.8,90.6z"/> <g> <path fill="#FFFFFF" d="M195.2,110.6c4.4-3.2,7.2-7.7,7.2-12.7c0-9.8-10.7-17.7-23.8-17.7c-8.9,0-16.7,3.7-20.8,9.1
			c11,2.6,19.1,10.5,19.1,19.7c0,2.2-0.5,4.4-1.3,6.4c1,0.1,2,0.2,3.1,0.2c3.2,0,6.2-0.5,9-1.3c1.9,3,5.9,6.7,13.5,6.5
			C201.1,120.8,195.3,118,195.2,110.6z"/> </g> <path fill="#2A2F3D" d="M158.3,104.7c-0.6,0.3-1.3,0.5-2,0.5c0.7-0.4,1.3-1.1,1.5-1.9c-0.7,0.4-1.4,0.7-2.2,0.8
		c-0.6-0.7-1.5-1.1-2.5-1.1c-1.9,0-3.5,1.6-3.5,3.5c0,0.3,0,0.5,0.1,0.8c-2.9-0.1-5.5-1.5-7.2-3.6c-0.3,0.5-0.5,1.1-0.5,1.7
		c0,1.2,0.6,2.3,1.5,2.9c-0.6,0-1.1-0.2-1.6-0.4c0,0,0,0,0,0c0,1.7,1.2,3.1,2.8,3.4c-0.3,0.1-0.6,0.1-0.9,0.1c-0.2,0-0.4,0-0.7-0.1
		c0.4,1.4,1.7,2.4,3.2,2.4c-1.2,0.9-2.7,1.5-4.3,1.5c-0.3,0-0.6,0-0.8,0c1.5,1,3.4,1.6,5.3,1.6c6.4,0,9.9-5.3,9.9-9.9
		c0-0.2,0-0.3,0-0.5C157.2,106,157.8,105.4,158.3,104.7z"/> <path fill="#5CBADE" d="M181.2,94.5v-1.4c0-0.6,0.1-0.9,1.1-0.9h1.2v-2.3h-2c-2.5,0-3.3,1.1-3.3,3.1v1.5h-1.6v2.3h1.6v6.9h3v-6.9h2
		l0.3-2.3H181.2z"/> </g> </symbol><symbol viewBox="117.9 7.8 91.6 45.8" id="icon-training-consulting"><title>training-consulting</title> <g> <path fill="#FFFFFF" d="M209.5,43h-60V7.8h60V43z M152.3,40.1h54.4V10.6h-54.4V40.1z"/> <g> <g> <path fill="#79BF42" d="M138.3,27.7c3.9,0,7.1-3.2,7.1-7.1c0-3.9-3.2-7.1-7.1-7.1c-3.9,0-7.1,3.2-7.1,7.1
				C131.2,24.5,134.4,27.7,138.3,27.7z"/> <path fill="#79BF42" d="M153,33.4l19.9-9.6c1.5-0.7,2.2-2.6,1.5-4.1l-0.2-0.4c-0.7-1.5-2.6-2.2-4.1-1.5l-23.8,11.4l-2.6,0h-10.3
				l-4.5,0c-1.4-0.1-2.7,0.9-3.2,2.3l-7.7,22h7.1l3.9-11v11h19.2l0-17.7c0.1,0,0.1,0,0.2-0.1L153,33.4z"/> </g> </g> <g> <path fill="#79BF42" d="M185.6,36.6c-3.9,0-7-3.2-7-7s3.2-7,7-7s7,3.2,7,7S189.4,36.6,185.6,36.6z M185.6,24.4
			c-2.8,0-5.2,2.3-5.2,5.2c0,2.8,2.3,5.2,5.2,5.2s5.2-2.3,5.2-5.2C190.7,26.8,188.4,24.4,185.6,24.4z"/> <path fill="#79BF42" d="M191.7,33.1c-3.9,0-7-3.2-7-7s3.2-7,7-7s7,3.2,7,7S195.5,33.1,191.7,33.1z M191.7,20.9
			c-2.8,0-5.2,2.3-5.2,5.2c0,2.8,2.3,5.2,5.2,5.2s5.2-2.3,5.2-5.2C196.8,23.2,194.5,20.9,191.7,20.9z"/> <path fill="#79BF42" d="M185.6,29.8c-3.9,0-7-3.2-7-7c0-3.9,3.2-7,7-7s7,3.2,7,7C192.6,26.7,189.4,29.8,185.6,29.8z M185.6,17.6
			c-2.8,0-5.2,2.3-5.2,5.2s2.3,5.2,5.2,5.2s5.2-2.3,5.2-5.2S188.4,17.6,185.6,17.6z"/> </g> </g> </symbol><symbol viewBox="356.1 2.5 96.2 60.8" id="icon-video-production"><title>video-production</title> <g> <path d="M433.1,38.2c-0.1,0-1.7,0.6-3.2,1.1c0.3-1.9,0.5-3.4,0.5-3.7c0-1.3-1-2.4-2.3-2.5c0,0,0,0,0,0c4.3-2.1,7.3-6.6,7.3-11.7
		c0-7.2-5.9-13.1-13.1-13.1c-5.1,0-9.5,2.9-11.7,7.2c-1.4-6.6-7.3-11.6-14.3-11.6c-8.1,0-14.7,6.6-14.7,14.7
		c0,7.5,5.6,13.6,12.8,14.5H389v0c-0.1,0-0.2,0-0.2,0c-1.8,0-3.3,1.5-3.3,3.3c0,0.1,0,0.1,0,0.2v1.7h-6.7c0,0-17.1-5.3-17.5-5.3
		c-1.8,0-3.3,1.5-3.3,3.3c0,0.2,0,0.3,0,0.5c0,0,0,0,0,0v16.2c0,0,0,0,0,0c0,0.2,0,0.3,0,0.5c0,1.8,1.5,3.3,3.3,3.3
		c0.6,0,17.5-5.4,17.5-5.4h6.7v1.7c0,0.1,0,0.1,0,0.2c0,1.8,1.5,3.3,3.3,3.3c0,0,0.1,0,0.1,0c0,0,0,0,0,0h36.2c0,0,0,0,0,0
		c0,0,0,0,0,0c1.3,0,2.4-1,2.5-2.4c0,0,0,0,0,0c0,0,0.6-4.1,1.3-8.4c1.3,0.5,2.8,1.2,2.9,1.2c0.7,0.2,1.4-0.4,1.4-1.1
		c0-0.7,0.2-2,0.4-3.5c0.2-1.5,0.6-2.2,0.6-2.8C434.3,38.8,434.1,38.2,433.1,38.2z M401.9,32.3H419c0.6,0,1,0.4,1,1c0,0.5-0.5,1-1,1
		h-17.1c-0.6,0-1-0.4-1-1C400.9,32.7,401.3,32.3,401.9,32.3z M395.8,54.2c-0.9,0-1.6-0.7-1.6-1.6s0.7-1.6,1.6-1.6s1.6,0.7,1.6,1.6
		S396.7,54.2,395.8,54.2z M396.7,21.1c-1.4,0-2.6-1.1-2.6-2.6c0-1.4,1.1-2.6,2.6-2.6c1.4,0,2.6,1.1,2.6,2.6
		C399.3,19.9,398.1,21.1,396.7,21.1z M400.9,54.2c-1.3,0-2.3-1-2.3-2.3c0-1.3,1-2.3,2.3-2.3s2.3,1,2.3,2.3
		C403.2,53.2,402.2,54.2,400.9,54.2z M424.9,50.1c0,1.4-1.1,2.5-2.5,2.5h-4.2c-1.4,0-2.5-1.1-2.5-2.5v-4.2c0-1.4,1.1-2.5,2.5-2.5
		h4.2c1.4,0,2.5,1.1,2.5,2.5V50.1z M422.4,23.8c-1.4,0-2.6-1.1-2.6-2.6c0-1.4,1.1-2.6,2.6-2.6c1.4,0,2.6,1.1,2.6,2.6
		C424.9,22.6,423.8,23.8,422.4,23.8z"/> <g>  <clipPath id="video-production-SVGID_2_"> <use xlink:href="#video-production-SVGID_1_" overflow="visible"/> </clipPath> <rect x="368.8" y="2.5" clip-path="url(#video-production-SVGID_2_)" fill="#F0AC1E" width="83.5" height="30.7"/> <polygon clip-path="url(#video-production-SVGID_2_)" fill="#FFFFFF" points="439.6,63.2 356.1,63.2 356.1,32.6 393.9,33 428,33 439.6,32.6 		"/> <rect x="429.4" y="36.8" transform="matrix(0.99 0.1408 -0.1408 0.99 10.3964 -60.4759)" clip-path="url(#video-production-SVGID_2_)" fill="#F0AC1E" width="6.7" height="13"/> </g> <g> <g> <path fill="#FFFFFF" d="M404.2,14.5c0,0,0.3,0.3,0.5,0.6c0.2,0.3,0.4,0.7,0.4,0.7l-0.4,0.1c0,0-0.1-0.3-0.3-0.7
				c-0.2-0.3-0.4-0.6-0.4-0.6L404.2,14.5z"/> <path fill="#FFFFFF" d="M405.4,16.8c0,0,0.1,0.2,0.1,0.5c0.1,0.3,0.1,0.6,0.2,1c0.1,0.8,0.1,1.5,0.1,1.5l-0.8-0.1
				c0,0,0.1-0.7,0-1.4c0-0.7-0.2-1.4-0.2-1.4L405.4,16.8z"/> <path fill="#FFFFFF" d="M405.7,20.8c0,0,0,0.2-0.1,0.5c-0.1,0.3-0.2,0.7-0.3,1c-0.2,0.8-0.6,1.5-0.6,1.5l-1-0.6
				c0,0,0.4-0.6,0.7-1.3c0.3-0.7,0.4-1.3,0.4-1.3L405.7,20.8z"/> <path fill="#FFFFFF" d="M404.1,24.7c0,0-0.1,0.1-0.3,0.4c-0.2,0.2-0.5,0.5-0.8,0.8c-0.6,0.6-1.3,1-1.3,1l-0.7-1.2
				c0,0,0.6-0.3,1.2-0.8c0.6-0.4,1-1,1-1L404.1,24.7z"/> <path fill="#FFFFFF" d="M400.7,27.5c0,0,0,0-0.1,0.1c-0.1,0-0.2,0.1-0.4,0.2c-0.3,0.1-0.7,0.3-1.1,0.4c-0.8,0.2-1.6,0.3-1.6,0.3
				l-0.1-1.6c0,0,0.7,0,1.4-0.2c0.7-0.1,1.4-0.4,1.4-0.4L400.7,27.5z"/> <path fill="#FFFFFF" d="M396.4,28.4c0,0,0,0-0.1,0c-0.1,0-0.2,0-0.4,0c-0.3,0-0.7-0.1-1.1-0.1c-0.8-0.1-1.6-0.4-1.6-0.4l0.6-1.7
				c0,0,0.7,0.2,1.4,0.4c0.7,0.1,1.4,0.2,1.4,0.2L396.4,28.4z"/> <path fill="#FFFFFF" d="M392,27.5c0,0-0.2-0.1-0.4-0.2c-0.1,0-0.1-0.1-0.2-0.1l-0.1,0l-0.1-0.1l-0.1-0.1
				c-0.2-0.1-0.4-0.2-0.6-0.3c-0.8-0.5-1.4-1.1-1.4-1.1l1.5-1.4c0,0,0.5,0.5,1.1,0.9c0.1,0.1,0.3,0.2,0.4,0.3c0.1,0,0.1,0.1,0.2,0.1
				c0.1,0,0.1,0.1,0.2,0.1c0.2,0.1,0.4,0.2,0.4,0.2L392,27.5z"/> <path fill="#FFFFFF" d="M388.2,24.7C388.2,24.7,388.2,24.7,388.2,24.7c-0.1-0.2-0.2-0.3-0.3-0.4c-0.2-0.3-0.4-0.7-0.6-1
				c-0.4-0.8-0.7-1.6-0.7-1.6l2.1-0.6c0,0,0.2,0.7,0.5,1.3c0.3,0.6,0.7,1.2,0.7,1.2L388.2,24.7z"/> <path fill="#FFFFFF" d="M386.3,20.4c0,0,0,0,0-0.1c0-0.1,0-0.2-0.1-0.4c-0.1-0.3-0.1-0.8-0.1-1.2c-0.1-0.9,0.1-1.8,0.1-1.8
				l2.4,0.4c0,0-0.1,0.7-0.1,1.4c0,0.7,0.1,1.4,0.1,1.4L386.3,20.4z"/> <path fill="#FFFFFF" d="M386.4,15.5c0,0,0.1-0.2,0.1-0.4c0-0.1,0-0.1,0.1-0.2l0-0.1l0,0l0.1-0.2l0-0.1c0.1-0.2,0.2-0.4,0.3-0.6
				c0.4-0.8,0.9-1.6,0.9-1.6l2.1,1.5c0,0-0.4,0.6-0.7,1.2c-0.1,0.2-0.2,0.3-0.2,0.5c0,0.1-0.1,0.1-0.1,0.2c0,0.1-0.1,0.1-0.1,0.2
				c-0.1,0.3-0.2,0.4-0.2,0.4L386.4,15.5z"/> <path fill="#FFFFFF" d="M388.6,11.3C388.6,11.3,388.7,11.3,388.6,11.3c0.2-0.2,0.3-0.3,0.4-0.4c0.2-0.3,0.6-0.6,0.9-0.9
				c0.7-0.6,1.6-1,1.6-1l1.2,2.3c0,0-0.6,0.3-1.2,0.8c-0.6,0.4-1,1-1,1L388.6,11.3z"/> <path fill="#FFFFFF" d="M392.7,8.5c0,0,0,0,0.1,0c0.1,0,0.2-0.1,0.4-0.1c0.3-0.1,0.8-0.2,1.3-0.3c0.9-0.2,1.9-0.2,1.9-0.2
				l-0.1,2.7c0,0-0.7,0-1.4,0.1c-0.7,0.1-1.4,0.4-1.4,0.4L392.7,8.5z"/> <path fill="#FFFFFF" d="M397.6,7.9c0,0,0.2,0,0.5,0.1c0.3,0,0.7,0.1,1.1,0.2c0.8,0.2,1.7,0.5,1.7,0.5l-1,2.6c0,0-0.7-0.3-1.3-0.4
				c-0.7-0.2-1.4-0.3-1.4-0.3L397.6,7.9z"/> <path fill="#FFFFFF" d="M402.2,9.2c0,0,0,0,0.1,0.1c0.1,0.1,0.2,0.1,0.4,0.2c0.3,0.2,0.7,0.5,1.1,0.8c0.2,0.2,0.4,0.3,0.5,0.5
				c0.1,0.1,0.2,0.2,0.2,0.2c0.1,0.1,0.2,0.2,0.2,0.2c0.2,0.2,0.3,0.3,0.3,0.3l-2.2,1.9c0,0-0.1-0.1-0.3-0.3
				c-0.2-0.2-0.4-0.4-0.7-0.7c-0.5-0.5-1.2-0.8-1.2-0.8L402.2,9.2z"/> <polygon fill="#FFFFFF" points="405.9,12.6 407.5,15 405.1,16.6 403.5,14.2 			"/> <path fill="#FFFFFF" d="M408,15.8c0,0,0.4,0.6,0.8,1.2l0.2,0.2l0,0.1l0,0l0,0l0,0c-0.2-0.3-0.1-0.1-0.1-0.1l0,0l0,0l0,0l0.1,0.1
				c0.1,0.1,0.2,0.3,0.3,0.4c0.2,0.2,0.3,0.3,0.3,0.3l-2.3,1.9c0,0-0.1-0.1-0.3-0.4c-0.1-0.1-0.2-0.2-0.3-0.4c0-0.1-0.1-0.2-0.2-0.2
				l-0.2-0.2c-0.4-0.6-0.8-1.2-0.8-1.2L408,15.8z"/> <polygon fill="#FFFFFF" points="410.1,18.5 412.1,20.5 410,22.6 407.9,20.5 			"/> <polygon fill="#FFFFFF" points="412.6,21 414.8,22.9 412.9,25.1 410.7,23.3 			"/> <polygon fill="#FFFFFF" points="415.5,23.4 417.7,25.2 416,27.5 413.7,25.7 			"/> <path fill="#FFFFFF" d="M418.2,25.5c0,0,0.1,0.1,0.3,0.2c0.2,0.1,0.4,0.2,0.7,0.3c0.5,0.2,1,0.3,1,0.3l-0.7,2.8
				c0,0-0.7-0.2-1.4-0.4c-0.3-0.1-0.7-0.3-0.9-0.4c-0.2-0.1-0.4-0.2-0.4-0.2L418.2,25.5z"/> <path fill="#FFFFFF" d="M420.9,26.4c0,0,0.1,0,0.4,0.1c0.2,0,0.5,0,0.7,0.1c0.5,0,1.1,0,1.1,0l0.4,2.8c0,0-0.7,0.1-1.5,0.1
				c-0.7,0-1.5-0.1-1.5-0.1L420.9,26.4z"/> <path fill="#FFFFFF" d="M423.6,26.5c0,0,0.7-0.2,1.4-0.4l0.1,0l0,0c-0.8,0.3-0.2,0.1-0.4,0.2l0,0l0,0l0,0l0,0l0,0l0.1,0
				c0.1,0,0.2-0.1,0.2-0.1c0.2-0.1,0.3-0.1,0.4-0.2c0.2-0.1,0.4-0.2,0.4-0.2l1.3,2.4c0,0-0.2,0.1-0.4,0.2c-0.1,0.1-0.3,0.1-0.4,0.2
				c-0.1,0-0.2,0.1-0.2,0.1c-0.1,0,0,0-0.2,0.1l-0.1,0c-0.7,0.2-1.4,0.4-1.4,0.4L423.6,26.5z"/> <path fill="#FFFFFF" d="M426.2,25.3c0,0,0.1-0.1,0.3-0.2c0.1-0.1,0.3-0.3,0.5-0.5c0.4-0.4,0.6-0.8,0.6-0.8l2.3,1.4
				c0,0-0.4,0.6-0.9,1.2c-0.2,0.3-0.5,0.5-0.7,0.7c-0.2,0.2-0.4,0.3-0.4,0.3L426.2,25.3z"/> <path fill="#FFFFFF" d="M428,23.3c0,0,0.1-0.1,0.1-0.3c0.1-0.2,0.2-0.4,0.2-0.7c0.1-0.5,0.2-1,0.2-1l2.6,0.2c0,0,0,0.7-0.2,1.5
				c-0.1,0.4-0.2,0.7-0.3,1c-0.1,0.3-0.2,0.4-0.2,0.4L428,23.3z"/> <path fill="#FFFFFF" d="M428.6,20.6c0,0,0-0.1,0-0.4c0-0.2,0-0.5-0.1-0.7c0-0.1-0.1-0.3-0.1-0.4c0-0.1,0-0.1,0-0.2l0-0.1l0,0l0,0
				l0,0c0,0,0.1,0.2,0,0.1l0,0l0,0l0,0l0,0c-0.1-0.3-0.1-0.4-0.1-0.4l2.3-0.8c0,0,0.1,0.2,0.2,0.4c0.1,0.3,0.2,0.6,0.3,1
				c0.2,0.7,0.2,1.5,0.2,1.5L428.6,20.6z"/> <path fill="#FFFFFF" d="M428,17.9c0,0-0.1-0.1-0.2-0.3c-0.1-0.2-0.2-0.4-0.4-0.6c-0.3-0.4-0.7-0.8-0.7-0.8l1.4-1.7
				c0,0,0.6,0.5,1.1,1c0.2,0.3,0.5,0.6,0.6,0.8c0.1,0.2,0.2,0.4,0.2,0.4L428,17.9z"/> <path fill="#FFFFFF" d="M426.2,15.8c0,0-0.1-0.1-0.3-0.2c-0.2-0.1-0.4-0.3-0.7-0.4c-0.5-0.2-1-0.4-1-0.4l0.5-2.1
				c0,0,0.7,0.2,1.4,0.5c0.7,0.3,1.3,0.7,1.3,0.7L426.2,15.8z"/> <path fill="#FFFFFF" d="M423.5,14.6c0,0-0.1,0-0.4-0.1c-0.2,0-0.5,0-0.8,0c-0.6,0-1.2,0.1-1.2,0.1l-0.4-1.9c0,0,0.7-0.2,1.5-0.2
				c0.7-0.1,1.5,0,1.5,0L423.5,14.6z"/> <path fill="#FFFFFF" d="M420.4,14.8c0,0-0.2,0-0.4,0.1c-0.2,0.1-0.5,0.2-0.8,0.3c-0.6,0.2-1.1,0.5-1.1,0.5l-0.9-1.4
				c0,0,0.6-0.4,1.3-0.7c0.7-0.3,1.4-0.6,1.4-0.6L420.4,14.8z"/> <path fill="#FFFFFF" d="M417.4,16.1c0,0-0.1,0.1-0.3,0.2c-0.2,0.1-0.4,0.3-0.6,0.5c-0.4,0.4-0.7,0.9-0.7,0.9l-1.3-0.6
				c0,0,0.3-0.7,0.8-1.3c0.5-0.6,1-1.1,1-1.1L417.4,16.1z"/> <path fill="#FFFFFF" d="M415.5,18.5c0,0-0.1,0.1-0.1,0.4c-0.1,0.2-0.2,0.5-0.2,0.8C415,20.3,415,21,415,21l-1.2,0.1
				c0,0,0-0.7,0-1.5c0.1-0.7,0.3-1.4,0.3-1.4L415.5,18.5z"/> <path fill="#FFFFFF" d="M415,21.8c0,0,0,0.2,0.1,0.4c0,0.1,0,0.3,0.1,0.5c0,0.1,0,0.2,0,0.3l0,0.1l0,0.1l0,0l0,0l0,0l0,0
				c-0.1-0.2,0-0.1,0-0.1l0,0l0,0c0.2,0.7,0.4,1.4,0.4,1.4l-0.8,0.3c0,0-0.2-0.7-0.5-1.4c0-0.1,0-0.2-0.1-0.3c0-0.1,0-0.2-0.1-0.3
				c0-0.2-0.1-0.3-0.1-0.5c-0.1-0.3-0.1-0.4-0.1-0.4L415,21.8z"/> <path fill="#FFFFFF" d="M415.8,25.3c0,0,0.1,0.1,0.2,0.4c0.1,0.2,0.3,0.5,0.5,0.8c0.4,0.6,0.9,1,0.9,1l-0.3,0.4
				c0,0-0.6-0.4-1.1-1c-0.5-0.5-0.9-1.2-0.9-1.2L415.8,25.3z"/> <path fill="#FFFFFF" d="M418.2,28c0,0,0.3,0.2,0.6,0.4c0.2,0.1,0.3,0.2,0.4,0.2c0.1,0,0.2,0,0.1,0l0.1,0.3c0,0-0.2,0-0.3,0
				c-0.2,0-0.3-0.1-0.5-0.2c-0.4-0.1-0.7-0.3-0.7-0.3L418.2,28z"/> </g> </g> <rect x="378.9" y="38.2" fill="#F0AC1E" width="6.7" height="13"/> </g> </symbol><symbol viewBox="235.8 10.7 94 37.7" id="icon-web-and-games"><title>web-and-games</title> <g> <circle fill="#FFFFFF" cx="317.2" cy="24.6" r="1.9"/> <circle fill="#FFFFFF" cx="303.3" cy="24.6" r="1.9"/> <path fill="#FFFFFF" d="M312.4,11.2c-9.4,0-17.4,7.6-17.4,17v19.4c1.9-2,3.6-3.3,6.1-3.3c2.4,0,4.6,1.2,5.8,3c1.2-1.8,3.4-3,5.7-3
		c2.4,0,4.5,1.2,5.7,3c1.2-1.8,3.4-3,5.8-3c2.3,0,3.8,1.1,5.7,2.9v-19C329.8,18.8,321.8,11.2,312.4,11.2z M304.4,28.1
		c-2.1,0-3.8-1.7-3.8-3.8s1.7-3.8,3.8-3.8c2.1,0,3.8,1.7,3.8,3.8S306.5,28.1,304.4,28.1z M318.3,28.1c-2.1,0-3.8-1.7-3.8-3.8
		s1.7-3.8,3.8-3.8c2.1,0,3.8,1.7,3.8,3.8S320.4,28.1,318.3,28.1z"/> <circle fill="#EE3696" cx="284.8" cy="29.5" r="3.9"/> <circle fill="#EE3696" cx="270.4" cy="29.5" r="3.9"/> <path fill="#FFFFFF" d="M268.3,16.5c-3.4-3.6-8.3-5.8-13.6-5.8c-10.4,0-18.9,8.4-18.9,18.9s8.4,18.9,18.9,18.9c5,0,9.6-2,13-5.2
		l-13-13L268.3,16.5z M252.1,24.6c-2.2,0-3.9-1.8-3.9-3.9s1.8-3.9,3.9-3.9c2.2,0,3.9,1.8,3.9,3.9S254.2,24.6,252.1,24.6z"/> </g> </symbol><symbol viewBox="10.6 6.4 78.4 48" id="icon-websites"><title>websites</title> <g> <rect x="17" y="12.5" fill="#F7941E" width="12.7" height="3.7"/> <rect x="60.2" y="12.4" fill="#F7941E" width="3.7" height="3.7"/> <rect x="16.9" y="21.9" fill="#F7941E" width="36" height="3.7"/> <rect x="17" y="27.8" fill="#F7941E" width="36" height="3.7"/> <rect x="17" y="33.5" fill="#FFFFFF" width="10.5" height="3.7"/> <path fill="#FFFFFF" d="M78.3,21.8h-7.8V8.2c0-1-0.8-1.8-1.8-1.8H12.4c-1,0-1.8,0.8-1.8,1.8v37.5c0,1,0.8,1.8,1.8,1.8h21.4L33,52.9
		l-2.5,0.8v0.8h20.3v-0.8L48,53l-0.6-5.5h7.2V53c0,0.7,0.6,1.2,1.2,1.2h22.5c0.7,0,1.2-0.6,1.2-1.2V23.1
		C79.5,22.4,79,21.8,78.3,21.8z M41.3,42.3c0,0,0.1,0,0.1,0c0.1,0,0.2,0.1,0.3,0.2c0.4,0.3,0.6,0.8,0.6,1.3c0,0.9-0.7,1.6-1.6,1.6
		c-0.9,0-1.6-0.7-1.6-1.6c0-0.5,0.3-1,0.6-1.3c0.1-0.1,0.2-0.1,0.3-0.2c0,0,0,0,0,0c0.2-0.1,0.4-0.1,0.6-0.1
		C41,42.2,41.1,42.3,41.3,42.3z M13.8,39.9V9.5h53.4v12.4H55.8c-0.7,0-1.2,0.6-1.2,1.2v16.9H13.8z M67,53.4c-0.5,0-0.9-0.4-0.9-0.9
		c0-0.5,0.4-0.9,0.9-0.9s0.9,0.4,0.9,0.9C67.9,53,67.5,53.4,67,53.4z M77.3,50.7H57.2V39.9V24.5h10h10.1V50.7z"/> <rect x="29.7" y="33.6" fill="#FFFFFF" width="10.5" height="3.7"/> <rect x="42.5" y="33.7" fill="#FFFFFF" width="10.5" height="3.7"/> <path fill="#FFFFFF" d="M87.9,39.2h-5.7c-0.6,0-1.1,0.5-1.1,1.1v13c0,0.6,0.5,1.1,1.1,1.1h5.7c0.6,0,1.1-0.5,1.1-1.1v-13
		C89,39.7,88.5,39.2,87.9,39.2z M85.2,53.7C85.2,53.7,85.2,53.7,85.2,53.7c-0.3,0-0.6-0.3-0.6-0.6s0.3-0.6,0.6-0.6c0,0,0,0,0,0
		c0.3,0,0.6,0.3,0.6,0.6S85.5,53.7,85.2,53.7z M88.2,52h-6.1V41.2h6.1V52z"/> <rect x="59.1" y="26.7" fill="#F7941E" width="7.3" height="2"/> <rect x="71" y="26.7" fill="#F7941E" width="3.9" height="1.9"/> <polygon fill="#F7941E" points="59,31.2 59,33.4 67.2,33.4 75,33.4 75,31.2 67.2,31.2 	"/> <polygon fill="#F7941E" points="59,34.5 59,36.6 67.2,36.6 74.9,36.6 74.9,34.5 67.2,34.5 	"/> <polygon fill="#FFFFFF" points="63.5,39.9 63.5,37.7 59,37.7 59,39.9 59,41.7 63.5,41.7 	"/> <polygon fill="#FFFFFF" points="67.2,37.7 64.9,37.7 64.9,39.9 64.9,41.7 69.2,41.7 69.2,37.7 	"/> <rect x="70.3" y="37.7" fill="#FFFFFF" width="4.6" height="4"/> <rect x="59.1" y="42.9" fill="#F7941E" width="15.7" height="2.1"/> <rect x="59.1" y="46.3" fill="#F7941E" width="15.7" height="2.1"/> <rect x="82.7" y="42.3" fill="#F7941E" width="4.9" height="0.8"/> <rect x="82.7" y="44.7" fill="#F7941E" width="4.4" height="1.2"/> <rect x="82.7" y="46.9" fill="#FFFFFF" width="2.2" height="1.8"/> <rect x="82.8" y="49.9" fill="#F7941E" width="5" height="1"/> </g> </symbol></svg>