<?xml version="1.0" encoding="iso-8859-1"?>
<!-- Generator: Adobe Illustrator 18.1.1, SVG Export Plug-In . SVG Version: 6.00 Build 0)  -->
<svg version="1.1" xmlns="http://www.w3.org/2000/svg" xmlns:xlink="http://www.w3.org/1999/xlink" x="0px" y="0px"
	 viewBox="0 0 125.078 81.357" style="enable-background:new 0 0 125.078 81.357;" xml:space="preserve">
<g id="future-city">
	<g>
		<g>
			<g>
				<path style="fill:#FFFFFF;" d="M1.774,62.79v4.017h4.789v1.013H1.774v5.435H0.166V61.761h7.096v1.029H1.774z"/>
				<path style="fill:#FFFFFF;" d="M16.343,73.256v-1.709c-1.042,1.351-2.233,2.049-3.959,2.049c-1.545,0-3.172-0.652-3.709-2.213
					c-0.18-0.519-0.194-1.236-0.194-2.116v-7.506h1.562v7.134c0,1.409,0,2.519,1.219,3.203c0.494,0.277,1.044,0.392,1.595,0.392
					c1.335,0,2.574-0.817,3.486-1.79v-8.939h1.562v11.495H16.343z"/>
				<path style="fill:#FFFFFF;" d="M23.989,62.8v10.456h-1.61V62.8h-3.618v-1.039h8.828V62.8H23.989z"/>
				<path style="fill:#FFFFFF;" d="M36.216,73.256v-1.709c-1.044,1.351-2.232,2.049-3.96,2.049c-1.543,0-3.175-0.652-3.709-2.213
					c-0.18-0.519-0.197-1.236-0.197-2.116v-7.506h1.564v7.134c0,1.409,0,2.519,1.22,3.203c0.49,0.277,1.041,0.392,1.598,0.392
					c1.333,0,2.569-0.817,3.484-1.79v-8.939h1.559v11.495H36.216z"/>
				<path style="fill:#FFFFFF;" d="M44.38,61.761c2.755,0,3.65,1.482,3.65,2.931c0,1.316-0.867,2.555-2.136,2.947l3.275,5.617h-1.71
					l-3.08-5.294c-0.403,0.067-0.826,0.097-1.234,0.097c-0.324,0-0.67-0.016-0.994-0.03v5.227h-1.565V61.761H44.38z M42.153,67.442
					h0.21c1.678,0,4.054-0.568,4.054-2.67c0-0.795-0.538-2.013-2.309-2.013h-1.955V67.442z"/>
				<path style="fill:#FFFFFF;" d="M50.516,73.256V61.761h7.031v0.997h-5.469v3.999h4.837v0.994h-4.837v4.508h6.207v0.997H50.516z"
					/>
				<path style="fill:#FFFFFF;" d="M72.507,64.676c-0.8-1.355-2.051-2.132-3.631-2.132c-2.949,0-4.197,2.296-4.197,4.962
					c0,3.42,2.178,4.948,4.214,4.948c1.595,0,2.815-0.793,3.697-2.095l0.435,0.18c-0.34,1.3-1.561,3.057-4.428,3.057
					c-3.528,0-5.566-2.669-5.566-6.039c0-3.449,2.084-6.136,5.7-6.136c2.034,0,3.874,1.024,4.199,3.045L72.507,64.676z"/>
				<path style="fill:#FFFFFF;" d="M74.373,73.256V61.761h1.565v11.495H74.373z"/>
				<path style="fill:#FFFFFF;" d="M82.009,62.8v10.456H80.4V62.8h-3.618v-1.039h8.825V62.8H82.009z"/>
				<path style="fill:#FFFFFF;" d="M89.597,77.137c-0.913,2.086-2.215,2.899-4.51,2.899h-0.454v-0.538
					c2.309-0.166,3.042-1.303,3.955-3.176l1.589-3.832l-4.463-10.729h1.677l3.584,8.827l3.874-8.827h1.366L89.597,77.137z"/>
			</g>
		</g>
	</g>
	<g>
		<path style="fill:#FFFFFF;" d="M34.925,79.605c0,0.033,0,0.067,0,0.104c0,1.006-0.616,1.605-1.574,1.605
			c-0.312,0-0.582-0.074-0.795-0.185c-0.515-0.287-0.811-0.801-0.811-1.444c0-0.522,0.171-0.946,0.507-1.266
			c0.286-0.277,0.667-0.41,1.12-0.41c0.599,0,1.044,0.215,1.34,0.661l-0.315,0.253c-0.226-0.385-0.567-0.573-1.009-0.573
			c-0.733,0-1.238,0.543-1.238,1.336c0,0.758,0.516,1.291,1.238,1.291c0.62,0,1.092-0.419,1.135-1.036h-0.899v-0.334H34.925z"/>
		<path style="fill:#FFFFFF;" d="M35.486,78.079h0.373v2.796h1.193v0.356h-1.566V78.079z"/>
		<path style="fill:#FFFFFF;" d="M40.067,80.83c-0.319,0.311-0.751,0.484-1.19,0.484c-0.45,0-0.878-0.176-1.194-0.484
			c-0.321-0.312-0.492-0.717-0.492-1.171c0-0.445,0.171-0.856,0.492-1.172c0.316-0.307,0.744-0.479,1.194-0.479
			c0.443,0,0.875,0.172,1.19,0.479c0.323,0.316,0.492,0.726,0.492,1.172C40.559,80.113,40.386,80.517,40.067,80.83z M39.79,80.575
			c0.243-0.247,0.375-0.562,0.375-0.916c0-0.35-0.132-0.679-0.375-0.927c-0.251-0.245-0.567-0.375-0.913-0.375
			c-0.352,0-0.672,0.13-0.913,0.375c-0.249,0.256-0.383,0.576-0.383,0.927c0,0.355,0.133,0.67,0.383,0.916
			c0.251,0.255,0.561,0.388,0.913,0.388C39.221,80.963,39.535,80.83,39.79,80.575z"/>
		<path style="fill:#FFFFFF;" d="M41.179,78.079h0.654c0.348,0,0.597,0.012,0.793,0.157c0.199,0.146,0.32,0.387,0.32,0.668
			c0,0.338-0.171,0.567-0.467,0.657c0.369,0.056,0.603,0.351,0.603,0.777c0,0.256-0.099,0.498-0.259,0.654
			c-0.23,0.226-0.538,0.238-0.99,0.238h-0.654V78.079z M41.548,79.458h0.286c0.509,0,0.73-0.123,0.73-0.509
			c0-0.451-0.23-0.547-0.73-0.547h-0.286V79.458z M41.548,80.906h0.286c0.302,0,0.509-0.01,0.646-0.106
			c0.13-0.094,0.207-0.267,0.207-0.462c0-0.228-0.088-0.401-0.261-0.503c-0.133-0.072-0.285-0.081-0.481-0.081
			c-0.031,0-0.07,0-0.112,0h-0.286V80.906z"/>
		<path style="fill:#FFFFFF;" d="M46.088,81.23h-0.402l-0.413-0.967h-1.228l-0.409,0.967h-0.41l1.434-3.275L46.088,81.23z
			 M44.152,79.943h1.008L44.66,78.78L44.152,79.943z"/>
		<path style="fill:#FFFFFF;" d="M46.421,78.079h0.376v2.796h1.189v0.356h-1.565V78.079z"/>
		<path style="fill:#FFFFFF;" d="M49.743,78.079h0.374v3.151h-0.374V78.079z"/>
		<path style="fill:#FFFFFF;" d="M50.88,77.955l2.306,2.52v-2.396h0.36v3.278l-2.305-2.492v2.365H50.88V77.955z"/>
		<path style="fill:#FFFFFF;" d="M53.875,78.079h0.403l0.927,2.411l0.922-2.411h0.406l-1.328,3.278L53.875,78.079z"/>
		<path style="fill:#FFFFFF;" d="M56.864,78.079h1.663v0.343h-1.286v0.903h1.286v0.348h-1.286v1.21h1.286v0.347h-1.663V78.079z"/>
		<path style="fill:#FFFFFF;" d="M60.939,80.344c0,0.58-0.404,0.966-1.012,0.966c-0.5,0-0.848-0.263-0.966-0.735l0.34-0.165
			c0.09,0.385,0.308,0.582,0.627,0.582c0.376,0,0.627-0.24,0.627-0.585c0-0.28-0.161-0.489-0.486-0.63l-0.383-0.161
			c-0.421-0.178-0.623-0.454-0.623-0.838c0-0.439,0.364-0.777,0.884-0.777c0.381,0,0.666,0.162,0.82,0.475l-0.309,0.203
			c-0.141-0.241-0.312-0.363-0.534-0.363c-0.281,0-0.484,0.191-0.484,0.455c0,0.229,0.142,0.383,0.426,0.506l0.446,0.203
			C60.731,79.654,60.939,79.95,60.939,80.344z"/>
		<path style="fill:#FFFFFF;" d="M61.989,78.434h-0.89v-0.355h2.155v0.355h-0.886v2.796h-0.379V78.434z"/>
		<path style="fill:#FFFFFF;" d="M64.166,79.086l-0.397,2.144h-0.364l0.639-3.275l1.102,2.604l1.101-2.604l0.642,3.275h-0.364
			l-0.405-2.144l-0.974,2.271L64.166,79.086z"/>
		<path style="fill:#FFFFFF;" d="M67.376,78.079h1.666v0.343h-1.287v0.903h1.287v0.348h-1.287v1.21h1.287v0.347h-1.666V78.079z"/>
		<path style="fill:#FFFFFF;" d="M69.681,77.955l2.302,2.52v-2.396h0.361v3.278l-2.305-2.492v2.365h-0.358V77.955z"/>
		<path style="fill:#FFFFFF;" d="M73.649,78.434h-0.889v-0.355h2.157v0.355h-0.886v2.796h-0.382V78.434z"/>
		<path style="fill:#FFFFFF;" d="M76.645,78.079h0.374v2.796h1.189v0.356h-1.564V78.079z"/>
		<path style="fill:#FFFFFF;" d="M78.656,78.079h0.378v2.796h1.189v0.356h-1.567V78.079z"/>
		<path style="fill:#FFFFFF;" d="M82.179,78.351c-0.33,0-0.667,0.144-0.9,0.38c-0.239,0.256-0.364,0.563-0.364,0.935
			c0,0.287,0.074,0.535,0.222,0.743c0.249,0.357,0.635,0.563,1.059,0.563c0.398,0,0.745-0.163,1.034-0.498v0.498
			c-0.312,0.225-0.677,0.341-1.065,0.341c-0.335,0-0.657-0.101-0.929-0.288c-0.458-0.32-0.708-0.793-0.708-1.356
			c0-0.49,0.162-0.881,0.495-1.2c0.319-0.314,0.707-0.469,1.169-0.469c0.375,0,0.709,0.116,1.038,0.344v0.485
			C82.923,78.504,82.591,78.351,82.179,78.351z"/>
	</g>
	<rect y="79.506" style="fill:#FFFFFF;" width="30.109" height="0.536"/>
	<g>
		<path style="fill:#FFFFFF;" d="M90.338,9.305c0,0,8.22,3.809,15.644,9.425c7.419,5.617,26.473,21.261,16.045,40.708
			c0,0,6.615-14.436-8.626-28.878C98.16,16.122,90.739,11.914,90.338,9.305z"/>
		<path style="fill:#FFFFFF;" d="M89.336,9.503c0,0-3.807,0.806-0.402,4.21c3.411,3.412,52.546,43.925,19.05,61.576
			c0,0,11.236-6.621,7.024-17.854c-4.209-11.23-14.237-22.861-20.459-30.083C88.331,20.133,78.709,11.309,89.336,9.503z"/>
		<path style="fill:#FFFFFF;" d="M85.727,9.908c0,0-11.232,3.005-4.813,12.032c6.414,9.024,25.979,35.778,27.675,40.107
			c1.806,4.616,6.418,13.639-15.237,17.45c0,0,17.446-2.806,10.423-13.637L78.709,31.566C78.709,31.566,65.669,16.122,85.727,9.908z
			"/>
	</g>
	<g>
		<path style="fill:#FFFFFF;" d="M96.991,0c0,0-1.694,0.523-1.909,2.244c-0.229,1.832,0.093,7.228-0.368,9.226
			c0,0-0.338-2.645-0.338-5.134C94.376,3.844,94.069,0.123,96.991,0z"/>
		<path style="fill:#FFFFFF;" d="M96.734,1.44c0,0,1.827,0.563,2.059,2.421c0.245,1.974-0.101,7.795,0.398,9.952
			c0,0,0.366-2.852,0.366-5.54C99.557,5.586,99.886,1.571,96.734,1.44z"/>
		<path style="fill:#FFFFFF;" d="M99.218,3.155c0,0,1.816,0.56,2.048,2.407c0.243,1.963-0.101,7.751,0.395,9.894
			c0,0,0.363-2.837,0.363-5.507C102.024,7.277,102.353,3.287,99.218,3.155z"/>
		<path style="fill:#FFFFFF;" d="M101.722,5.485c0,0,1.698,0.527,1.916,2.258c0.228,1.842-0.093,7.269,0.371,9.28
			c0,0,0.34-2.66,0.34-5.165S104.657,5.61,101.722,5.485z"/>
		<path style="fill:#FFFFFF;" d="M94.122,2.331c0,0-1.161,0.36-1.309,1.54c-0.158,1.257,0.063,4.958-0.253,6.329
			c0,0-0.232-1.815-0.232-3.524C92.328,4.969,92.119,2.416,94.122,2.331z"/>
		<path style="fill:#FFFFFF;" d="M92.22,3.913c0,0-0.837,0.259-0.943,1.111c-0.112,0.907,0.046,3.576-0.183,4.564
			c0,0-0.167-1.307-0.167-2.539C90.927,5.816,90.775,3.974,92.22,3.913z"/>
		<g>
			<rect x="95.928" y="3.29" style="fill:#FFFFFF;" width="0.701" height="1.468"/>
			<rect x="97.293" y="3.29" style="fill:#FFFFFF;" width="0.698" height="1.468"/>
			<rect x="95.928" y="5.527" style="fill:#FFFFFF;" width="0.701" height="1.468"/>
			<rect x="97.293" y="5.527" style="fill:#FFFFFF;" width="0.698" height="1.468"/>
			<rect x="95.928" y="7.764" style="fill:#FFFFFF;" width="0.701" height="1.468"/>
			<rect x="97.293" y="7.764" style="fill:#FFFFFF;" width="0.698" height="1.468"/>
			<rect x="95.928" y="10.21" style="fill:#FFFFFF;" width="0.701" height="1.47"/>
			<rect x="97.293" y="10.21" style="fill:#FFFFFF;" width="0.698" height="1.47"/>
		</g>
		<rect x="97.293" y="3.29" style="fill:#FFFFFF;" width="0.698" height="1.468"/>
		<rect x="97.293" y="5.527" style="fill:#FFFFFF;" width="0.698" height="1.468"/>
		<rect x="97.293" y="7.764" style="fill:#FFFFFF;" width="0.698" height="1.468"/>
		<rect x="97.293" y="10.21" style="fill:#FFFFFF;" width="0.698" height="1.47"/>
		<g>
			<rect x="100.031" y="5.535" style="fill:#FFFFFF;" width="0.6" height="1.258"/>
			<rect x="100.031" y="7.453" style="fill:#FFFFFF;" width="0.6" height="1.258"/>
			<rect x="100.031" y="9.371" style="fill:#FFFFFF;" width="0.6" height="1.259"/>
			<rect x="100.031" y="11.469" style="fill:#FFFFFF;" width="0.6" height="1.258"/>
		</g>
		<g>
			<rect x="102.479" y="7.515" style="fill:#FFFFFF;" width="0.597" height="1.26"/>
			<rect x="102.479" y="9.433" style="fill:#FFFFFF;" width="0.597" height="1.26"/>
			<rect x="102.479" y="11.353" style="fill:#FFFFFF;" width="0.597" height="1.258"/>
			<rect x="102.479" y="13.449" style="fill:#FFFFFF;" width="0.597" height="1.26"/>
		</g>
		<g>
			<rect x="93.37" y="3.844" style="fill:#FFFFFF;" width="0.477" height="1.002"/>
			<rect x="93.37" y="5.37" style="fill:#FFFFFF;" width="0.477" height="1.002"/>
			<rect x="93.37" y="6.895" style="fill:#FFFFFF;" width="0.477" height="1"/>
			<rect x="93.37" y="8.564" style="fill:#FFFFFF;" width="0.477" height="1"/>
		</g>
		<g>
			<rect x="91.596" y="4.621" style="fill:#FFFFFF;" width="0.346" height="0.728"/>
			<rect x="91.596" y="5.732" style="fill:#FFFFFF;" width="0.346" height="0.73"/>
			<rect x="91.596" y="6.843" style="fill:#FFFFFF;" width="0.346" height="0.729"/>
			<rect x="91.596" y="8.058" style="fill:#FFFFFF;" width="0.346" height="0.729"/>
		</g>
	</g>
</g>
<g id="Layer_1">
</g>
</svg>
