<?xml version="1.0" encoding="iso-8859-1"?>
<!-- Generator: Adobe Illustrator 18.1.1, SVG Export Plug-In . SVG Version: 6.00 Build 0)  -->
<svg version="1.1" xmlns="http://www.w3.org/2000/svg" xmlns:xlink="http://www.w3.org/1999/xlink" x="0px" y="0px"
	 viewBox="0 0 94.78 94.849" style="enable-background:new 0 0 94.78 94.849;" xml:space="preserve">
<g id="huawei">
	<g>
		<g>
			<path style="fill:#FFFFFF;" d="M3.499,85.614h7.731v-6.179h3.473v15.246H11.23V88.31H3.499v6.371H0.024V79.435h3.475V85.614z"/>
			<path style="fill:#FFFFFF;" d="M21.002,88.568c0,2.696,0.851,3.819,3.723,3.819c2.872,0,3.699-1.123,3.699-3.819v-9.133h3.476
				v9.217c0,1.95-0.235,3.289-0.969,4.094c-1.357,1.489-3.334,2.103-6.206,2.103c-2.872,0-4.873-0.614-6.23-2.103
				c-0.758-0.823-0.944-2.164-0.944-4.094v-9.217h3.451V88.568z"/>
			<path style="fill:#FFFFFF;" d="M43.242,79.435l7.033,15.246h-3.862l-1.519-3.631h-7.172l-1.471,3.631h-3.677l6.985-15.246H43.242
				z M38.851,88.334h4.922l-2.504-5.86L38.851,88.334z"/>
			<path style="fill:#FFFFFF;" d="M51.853,79.435l3.817,11.724l3.217-11.724h4.093l3.7,11.724l3.562-11.724h3.564l-5.101,15.246
				h-4.253l-3.521-11.379l-3.078,11.379h-4.229l-5.496-15.246H51.853z"/>
			<path style="fill:#FFFFFF;" d="M78.483,85.636h9.606v2.653h-9.627c0.021,2.741,1.192,3.737,3.927,3.737h5.7v2.656h-5.861
				c-1.998,0-3.538-0.15-5.148-1.339c-1.7-1.251-2.527-3.247-2.527-6.009c0-5.389,2.459-7.899,7.77-7.899h5.766v2.657h-5.7
				C79.885,82.092,78.621,83.236,78.483,85.636z"/>
			<path style="fill:#FFFFFF;" d="M91.15,94.681V79.435h3.631v15.246H91.15z"/>
		</g>
		<g>
			<path style="fill:#FFFFFF;" d="M40.783,55.685c0,0,0.171-0.132,0.081-0.354h0.003C29.735,31.014,14.507,12.576,14.507,12.576
				s-8.285,7.863-7.695,15.74c0.315,5.959,4.8,9.489,4.8,9.489c7.225,7.039,24.718,15.929,28.782,17.947
				C40.451,55.773,40.661,55.841,40.783,55.685z"/>
			<path style="fill:#FFFFFF;" d="M38.078,61.706c-0.072-0.261-0.374-0.261-0.374-0.261v-0.009L8.583,62.451
				c3.159,5.632,8.477,10.005,14.018,8.661c3.825-0.954,12.485-6.996,15.343-9.039l-0.008-0.006
				C38.157,61.869,38.078,61.706,38.078,61.706z"/>
			<path style="fill:#FFFFFF;" d="M38.519,59.092c0.141-0.229-0.109-0.433-0.109-0.433l0.001-0.004
				C25.621,50.027,0.832,36.78,0.832,36.78c-2.253,6.978,0.784,12.598,0.784,12.598c3.157,6.678,9.19,8.7,9.19,8.7
				c2.785,1.144,5.571,1.222,5.571,1.222c0.436,0.081,17.319,0.009,21.842-0.012C38.411,59.285,38.519,59.092,38.519,59.092z"/>
			<path style="fill:#FFFFFF;" d="M40.451,0c-1.267,0.112-4.688,0.891-4.688,0.891c-7.71,1.992-9.531,8.989-9.531,8.989
				c-1.408,4.403,0.036,9.236,0.036,9.236c2.573,11.42,15.237,30.183,17.959,34.123c0.193,0.193,0.346,0.122,0.346,0.122
				c0.293-0.082,0.271-0.364,0.271-0.364l0.004,0.003C49.038,11.105,40.451,0,40.451,0z"/>
			<path style="fill:#FFFFFF;" d="M50.093,53.351c0.281,0.11,0.423-0.162,0.423-0.162l0.003,0.003
				c2.793-4.041,15.384-22.702,17.945-34.077c0,0,1.39-5.507,0.048-9.236c0,0-1.904-7.105-9.625-8.983c0,0-2.224-0.563-4.585-0.897
				c0,0-8.629,11.111-4.434,53.031h0.004C49.903,53.295,50.093,53.351,50.093,53.351z"/>
			<path style="fill:#FFFFFF;" d="M56.987,61.463c0,0-0.256,0.033-0.328,0.225c0,0-0.06,0.26,0.112,0.393l-0.005,0.003
				c2.788,1.998,11.238,7.908,15.313,9.055c0,0,7.527,2.565,14.066-8.668l-29.157-1.015L56.987,61.463z"/>
			<path style="fill:#FFFFFF;" d="M93.895,36.72c0,0-24.752,13.284-37.551,21.916l0.003,0.004c0,0-0.231,0.152-0.15,0.424
				c0,0,0.12,0.218,0.3,0.218v0.003c4.58,0.006,21.929,0.027,22.366-0.053c0,0,2.242-0.089,5.014-1.153c0,0,6.168-1.962,9.373-8.968
				C93.25,49.11,96.107,43.395,93.895,36.72z"/>
			<path style="fill:#FFFFFF;" d="M54.005,55.685c0,0,0.202,0.15,0.393,0.028v0.001C58.57,53.644,75.93,44.812,83.12,37.806
				c0,0,4.551-3.657,4.793-9.528c0.524-8.155-7.683-15.702-7.683-15.702S65.045,30.955,53.918,55.222l0.006-0.001
				C53.924,55.221,53.794,55.502,54.005,55.685z"/>
		</g>
	</g>
</g>
<g id="Layer_1">
</g>
</svg>
