<?xml version="1.0" encoding="iso-8859-1"?>
<!-- Generator: Adobe Illustrator 18.1.1, SVG Export Plug-In . SVG Version: 6.00 Build 0)  -->
<svg version="1.1" id="Layer_1" xmlns="http://www.w3.org/2000/svg" xmlns:xlink="http://www.w3.org/1999/xlink" x="0px" y="0px"
	 viewBox="0 0 131.393 40.331" style="enable-background:new 0 0 131.393 40.331;" xml:space="preserve">
<g>
	<path style="fill:#FFFFFF;" d="M125.834,3.256c0-1.467,1.198-2.667,2.676-2.667c0.707,0,1.37,0.285,1.873,0.781
		c0.502,0.512,0.772,1.18,0.772,1.886c0,0.707-0.27,1.385-0.772,1.878c-0.503,0.506-1.166,0.788-1.873,0.788
		C127.031,5.922,125.834,4.727,125.834,3.256z M125.608,3.256c0,1.596,1.302,2.895,2.901,2.895c0.773,0,1.487-0.299,2.039-0.847
		c0.55-0.55,0.844-1.272,0.844-2.048c0-0.777-0.295-1.499-0.844-2.05c-0.552-0.544-1.266-0.847-2.039-0.847
		C126.91,0.36,125.608,1.659,125.608,3.256z M127.424,4.961h0.404V3.616h0.918c0.158,0,0.274,0.012,0.359,0.054
		c0.134,0.077,0.206,0.208,0.212,0.419l0.037,0.526c0,0.12,0.003,0.203,0.003,0.244c0.021,0.042,0.036,0.077,0.039,0.103h0.512
		V4.888c-0.066-0.023-0.095-0.088-0.134-0.191c-0.02-0.055-0.02-0.145-0.024-0.264l-0.018-0.422c0-0.182-0.041-0.321-0.091-0.395
		c-0.063-0.081-0.166-0.151-0.284-0.199c0.137-0.066,0.241-0.173,0.327-0.289c0.07-0.125,0.11-0.271,0.11-0.457
		c0-0.36-0.139-0.609-0.422-0.744c-0.148-0.071-0.345-0.104-0.567-0.104h-1.382V4.961z M127.829,3.256V2.182h0.978
		c0.143,0,0.258,0.024,0.342,0.065c0.139,0.08,0.228,0.232,0.228,0.455c0,0.214-0.058,0.357-0.172,0.44
		c-0.107,0.078-0.255,0.114-0.44,0.114H127.829z M11.901,7.242L0,25.669h8.134l11.44-17.616L11.901,7.242z M60.846,6.829V0h-23.13
		c-3.146,0.196-4.522,1.68-5.554,2.75c-1.1,1.136-1.725,3.529-1.725,3.529V0.045c0,0-11.353,0-12.279,0
		c-0.927,0-1.81,0.389-2.476,1.303c-0.696,0.903-3.505,5.482-3.505,5.482H60.846z M123.738,6.835V0H98.99
		c-3.136,0.196-4.52,1.68-5.554,2.75c-1.1,1.136-1.719,3.529-1.719,3.529v0.55L123.738,6.835z M68.969,0.033h-6.915v6.796h6.915
		V0.033z M91.667,0.033h-6.908v6.796h6.908V0.033z M91.667,9.282l-6.793-0.401v7.884c0,0-0.02,2.271-2.239,2.271
		c-2.199,0-11.676,0-11.676,0s-1.977-0.161-1.977-2.25c0-2.084,0-8.976,0-8.976l-6.861-0.491v12.092
		c1.109,5.8,6.401,6.246,6.401,6.246s0.539,0.036,0.627,0.045h15.77c0,0,6.748-0.538,6.748-6.949
		C91.667,12.341,91.667,9.282,91.667,9.282z M23.419,25.673h32.344c5.634-1.118,6.222-6.179,6.222-6.179
		c0.265-1.504,0.11-2.721,0.11-2.721c-0.17-1.014-2.117-5.49-6.345-5.88c-2.521-0.232-24.958-1.995-24.958-1.995
		c0.434,2.225,1.445,3.348,2.117,3.99c1.558,1.48,4.037,1.9,4.037,1.9c0.598,0.056,17.293,1.424,17.293,1.424
		c0.532,0.027,1.54,0.161,1.528,1.465c0,0.158-0.146,1.308-1.427,1.308c-1.558,0-24.195,0-24.195,0V8.842l-6.725-0.487V25.673z
		 M91.717,25.732h24.745c6.208-0.354,7.085-6.181,7.085-6.181c0.22-1.531,0.039-2.777,0.039-2.777
		c-0.178-1.379-2.161-5.523-6.394-5.924c-2.507-0.232-25.072-1.549-25.072-1.549c0.669,2.295,1.566,2.99,2.244,3.626
		c1.561,1.486,3.901,1.843,3.901,1.843c0.588,0.047,17.468,1.442,17.468,1.442c0.545,0.027,1.629,0.084,1.629,1.386
		c0,0.392-0.202,0.799-0.453,1.022c0,0-0.597,0.324-1.15,0.324c-1.56,0-24.027,0-24.027,0L91.717,25.732z"/>
	<path style="fill:#FFFFFF;" d="M0.323,40.192V30.148h1.725v10.044H0.323z"/>
	<path style="fill:#FFFFFF;" d="M3.606,40.192V30.148h1.6l2.1,5.746h0.028v-5.746h1.558v10.044H7.39l-2.199-6.273H5.164v6.273H3.606
		z"/>
	<path style="fill:#FFFFFF;" d="M16.113,32.625c-0.019-0.213-0.058-0.392-0.119-0.536c-0.06-0.144-0.134-0.257-0.223-0.341
		c-0.088-0.083-0.183-0.143-0.285-0.181c-0.103-0.037-0.2-0.056-0.293-0.056c-0.278,0-0.492,0.086-0.64,0.257
		c-0.149,0.172-0.223,0.415-0.223,0.73c0,0.287,0.086,0.552,0.258,0.793c0.171,0.242,0.387,0.483,0.647,0.723
		c0.259,0.242,0.543,0.485,0.849,0.731c0.306,0.246,0.589,0.517,0.849,0.814c0.259,0.297,0.475,0.624,0.647,0.981
		c0.172,0.357,0.257,0.763,0.257,1.217c0,0.418-0.067,0.786-0.201,1.106c-0.135,0.32-0.321,0.589-0.557,0.807
		c-0.236,0.218-0.524,0.383-0.862,0.494c-0.339,0.111-0.707,0.167-1.106,0.167c-0.399,0-0.756-0.074-1.071-0.223
		c-0.315-0.148-0.582-0.35-0.8-0.605c-0.218-0.255-0.387-0.549-0.508-0.883c-0.12-0.334-0.19-0.691-0.208-1.071l1.641-0.237
		c0.037,0.511,0.149,0.891,0.334,1.141c0.186,0.25,0.417,0.375,0.696,0.375c0.297,0,0.538-0.078,0.723-0.236
		c0.185-0.158,0.278-0.385,0.278-0.682c0-0.334-0.086-0.631-0.257-0.89c-0.172-0.26-0.388-0.51-0.647-0.752
		c-0.26-0.241-0.542-0.482-0.848-0.723c-0.307-0.241-0.589-0.505-0.849-0.792c-0.26-0.288-0.475-0.612-0.647-0.974
		c-0.172-0.362-0.258-0.784-0.258-1.266c0-0.807,0.232-1.427,0.696-1.857c0.464-0.431,1.122-0.647,1.976-0.647
		c0.352,0,0.668,0.06,0.946,0.181c0.278,0.121,0.517,0.29,0.716,0.508c0.199,0.218,0.362,0.475,0.487,0.772
		c0.125,0.297,0.206,0.621,0.243,0.974L16.113,32.625z"/>
	<path style="fill:#FFFFFF;" d="M18.811,40.192V30.148h4.619v1.502h-2.894v2.588h2.226v1.502h-2.226v2.949h3.089v1.502H18.811z"/>
	<path style="fill:#FFFFFF;" d="M25.655,40.192h-1.67l1.851-10.044h2.142l1.851,10.044h-1.67l-0.306-2.225h-1.892L25.655,40.192z
		 M26.212,36.464h1.391l-0.681-4.312h-0.028L26.212,36.464z"/>
	<path style="fill:#FFFFFF;" d="M32.221,40.192h-1.725V30.148h2.421c0.964,0,1.693,0.227,2.184,0.681
		c0.491,0.455,0.737,1.215,0.737,2.282c0,0.408-0.035,0.756-0.104,1.043c-0.069,0.287-0.162,0.531-0.278,0.73
		c-0.117,0.2-0.246,0.359-0.39,0.48c-0.144,0.121-0.29,0.213-0.438,0.278l1.461,4.549h-1.753l-1.224-4.159
		c-0.111,0.019-0.248,0.03-0.41,0.034c-0.162,0.005-0.322,0.007-0.48,0.007V40.192z M32.221,34.655h0.612
		c0.232,0,0.429-0.023,0.591-0.07c0.162-0.046,0.294-0.129,0.396-0.25c0.102-0.12,0.176-0.28,0.223-0.48
		c0.046-0.199,0.07-0.447,0.07-0.744c0-0.594-0.097-0.999-0.292-1.218c-0.195-0.218-0.524-0.327-0.988-0.327h-0.612V34.655z"/>
	<path style="fill:#FFFFFF;" d="M40.582,33.501v-0.779c0-0.427-0.084-0.735-0.25-0.926c-0.167-0.19-0.362-0.285-0.584-0.285
		c-0.353,0-0.594,0.091-0.724,0.272c-0.13,0.181-0.194,0.461-0.194,0.842v5.091c0,0.38,0.065,0.661,0.194,0.841
		c0.13,0.181,0.371,0.271,0.724,0.271c0.315,0,0.533-0.088,0.654-0.264c0.121-0.176,0.181-0.426,0.181-0.751v-1.21h1.725v1.154
		c0,0.353-0.053,0.686-0.16,1.001c-0.107,0.316-0.264,0.589-0.472,0.821c-0.209,0.232-0.476,0.415-0.801,0.549
		c-0.325,0.135-0.7,0.202-1.127,0.202c-0.455,0-0.847-0.067-1.176-0.202c-0.329-0.134-0.603-0.317-0.821-0.549
		c-0.218-0.232-0.38-0.505-0.487-0.821c-0.107-0.315-0.159-0.649-0.159-1.001v-5.175c0-0.353,0.053-0.687,0.159-1.002
		c0.107-0.315,0.269-0.589,0.487-0.821c0.218-0.231,0.492-0.414,0.821-0.549c0.329-0.135,0.721-0.202,1.176-0.202
		c0.427,0,0.802,0.074,1.127,0.222c0.325,0.149,0.592,0.348,0.801,0.598c0.208,0.25,0.366,0.543,0.472,0.877
		c0.107,0.334,0.16,0.687,0.16,1.057v0.737H40.582z"/>
	<path style="fill:#FFFFFF;" d="M43.712,40.192V30.148h1.725v4.09h1.836v-4.09h1.725v10.044h-1.725v-4.452h-1.836v4.452H43.712z"/>
	<path style="fill:#FFFFFF;" d="M53.075,32.583c0-0.353,0.053-0.687,0.159-1.002c0.107-0.315,0.269-0.589,0.487-0.821
		c0.217-0.231,0.491-0.414,0.821-0.549c0.329-0.135,0.722-0.202,1.175-0.202c0.455,0,0.846,0.067,1.176,0.202
		c0.329,0.134,0.603,0.318,0.82,0.549c0.218,0.232,0.38,0.506,0.487,0.821c0.106,0.315,0.16,0.649,0.16,1.002v5.175
		c0,0.353-0.053,0.686-0.16,1.001c-0.107,0.316-0.269,0.589-0.487,0.821c-0.218,0.232-0.492,0.415-0.82,0.549
		c-0.33,0.135-0.721,0.202-1.176,0.202c-0.454,0-0.846-0.067-1.175-0.202c-0.329-0.134-0.603-0.317-0.821-0.549
		c-0.218-0.232-0.38-0.505-0.487-0.821c-0.106-0.315-0.159-0.649-0.159-1.001V32.583z M54.799,37.716
		c0,0.38,0.065,0.661,0.195,0.841c0.13,0.181,0.371,0.271,0.723,0.271c0.353,0,0.594-0.09,0.724-0.271
		c0.13-0.181,0.195-0.461,0.195-0.841v-5.091c0-0.38-0.065-0.661-0.195-0.842c-0.13-0.181-0.371-0.272-0.724-0.272
		c-0.352,0-0.593,0.091-0.723,0.272c-0.13,0.181-0.195,0.461-0.195,0.842V37.716z"/>
	<path style="fill:#FFFFFF;" d="M59.696,40.192V30.148h4.813v1.502h-3.088v2.588h2.309v1.502h-2.309v4.452H59.696z"/>
	<path style="fill:#FFFFFF;" d="M67.873,40.192V30.149h1.725v10.044H67.873z"/>
	<path style="fill:#FFFFFF;" d="M71.156,40.192V30.149h1.6l2.101,5.745h0.027v-5.745h1.558v10.044H74.94l-2.198-6.273h-0.028v6.273
		H71.156z"/>
	<path style="fill:#FFFFFF;" d="M81.242,33.501v-0.779c0-0.426-0.084-0.735-0.25-0.925c-0.167-0.19-0.363-0.285-0.584-0.285
		c-0.353,0-0.594,0.09-0.723,0.271c-0.13,0.181-0.195,0.461-0.195,0.842v5.091c0,0.38,0.065,0.661,0.195,0.842
		c0.13,0.181,0.37,0.271,0.723,0.271c0.315,0,0.533-0.088,0.654-0.264c0.12-0.176,0.181-0.426,0.181-0.751v-1.21h1.725v1.154
		c0,0.353-0.053,0.687-0.16,1.001c-0.107,0.316-0.264,0.589-0.473,0.821c-0.209,0.232-0.476,0.415-0.8,0.549
		c-0.325,0.135-0.7,0.202-1.127,0.202c-0.455,0-0.847-0.067-1.176-0.202c-0.329-0.134-0.603-0.317-0.82-0.549
		c-0.218-0.232-0.38-0.505-0.487-0.821c-0.106-0.314-0.16-0.649-0.16-1.001v-5.175c0-0.353,0.053-0.687,0.16-1.002
		c0.107-0.315,0.269-0.589,0.487-0.821c0.218-0.231,0.491-0.415,0.82-0.549c0.329-0.134,0.721-0.202,1.176-0.202
		c0.426,0,0.802,0.074,1.127,0.223c0.324,0.148,0.591,0.348,0.8,0.598c0.209,0.25,0.366,0.542,0.473,0.876
		c0.107,0.334,0.16,0.687,0.16,1.057v0.737H81.242z"/>
	<path style="fill:#FFFFFF;" d="M86.11,40.192h-1.725V30.149h2.421c0.964,0,1.692,0.227,2.184,0.682
		c0.491,0.454,0.737,1.215,0.737,2.281c0,0.408-0.035,0.756-0.105,1.043c-0.07,0.287-0.162,0.531-0.278,0.731
		c-0.116,0.199-0.245,0.359-0.389,0.48c-0.144,0.121-0.29,0.213-0.438,0.278l1.461,4.549h-1.753l-1.224-4.159
		c-0.111,0.019-0.248,0.03-0.41,0.035c-0.162,0.005-0.322,0.007-0.48,0.007V40.192z M86.11,34.656h0.612
		c0.231,0,0.429-0.023,0.592-0.07c0.162-0.046,0.294-0.13,0.397-0.251c0.102-0.12,0.175-0.28,0.222-0.48
		c0.047-0.199,0.07-0.447,0.07-0.744c0-0.594-0.097-0.999-0.292-1.218c-0.196-0.217-0.524-0.327-0.988-0.327H86.11V34.656z"/>
	<path style="fill:#FFFFFF;" d="M91.008,40.192V30.149h4.618v1.502h-2.893v2.588h2.226v1.503h-2.226v2.949h3.088v1.502H91.008z"/>
	<path style="fill:#FFFFFF;" d="M96.85,30.149h2.559c0.9,0,1.579,0.246,2.038,0.737c0.459,0.492,0.688,1.257,0.688,2.295v3.979
		c0,1.039-0.229,1.804-0.688,2.296c-0.459,0.492-1.139,0.737-2.038,0.737H96.85V30.149z M98.575,38.773h0.599
		c0.463,0,0.785-0.102,0.967-0.306c0.181-0.204,0.271-0.571,0.271-1.099v-4.396c0-0.528-0.09-0.895-0.271-1.099
		c-0.181-0.204-0.503-0.307-0.967-0.307h-0.599V38.773z"/>
	<path style="fill:#FFFFFF;" d="M103.695,40.192V30.149h1.725v10.044H103.695z"/>
	<path style="fill:#FFFFFF;" d="M106.978,30.149h2.56c0.927,0,1.604,0.227,2.031,0.682c0.426,0.454,0.639,1.113,0.639,1.975
		c0,0.214-0.023,0.429-0.069,0.647c-0.046,0.218-0.117,0.42-0.216,0.605c-0.096,0.186-0.222,0.353-0.375,0.501
		c-0.154,0.148-0.332,0.264-0.535,0.348c0.445,0.195,0.788,0.478,1.029,0.849c0.241,0.371,0.362,0.881,0.362,1.53
		c0,0.417-0.049,0.802-0.146,1.155c-0.097,0.352-0.253,0.658-0.466,0.918c-0.214,0.26-0.492,0.464-0.835,0.612
		c-0.343,0.149-0.76,0.222-1.252,0.222h-2.727V30.149z M108.703,34.266h0.626c0.324,0,0.598-0.109,0.821-0.327
		c0.222-0.217,0.334-0.535,0.334-0.952c0-0.946-0.375-1.42-1.127-1.42h-0.654V34.266z M108.703,38.773h0.724
		c0.463,0,0.788-0.13,0.973-0.389c0.186-0.26,0.278-0.644,0.278-1.155c0-0.52-0.106-0.907-0.32-1.162
		c-0.213-0.255-0.58-0.382-1.099-0.382h-0.557V38.773z"/>
	<path style="fill:#FFFFFF;" d="M113.502,40.192V30.149h1.725v8.541h2.712v1.502H113.502z"/>
	<path style="fill:#FFFFFF;" d="M118.664,40.192V30.149h4.618v1.502h-2.894v2.588h2.226v1.503h-2.226v2.949h3.088v1.502H118.664z"/>
</g>
</svg>
