<?xml version="1.0" encoding="iso-8859-1"?>
<!-- Generator: Adobe Illustrator 18.1.1, SVG Export Plug-In . SVG Version: 6.00 Build 0)  -->
<svg version="1.1" id="Layer_1" xmlns="http://www.w3.org/2000/svg" xmlns:xlink="http://www.w3.org/1999/xlink" x="0px" y="0px"
	 viewBox="0 0 124.654 47.813" style="enable-background:new 0 0 124.654 47.813;" xml:space="preserve">
<path style="fill:#FFFFFF;" d="M124.654,0H0v47.813h124.654V0z M122.191,2.464c0,2.267,0,40.619,0,42.885
	c-2.39,0-117.337,0-119.727,0c0-2.267,0-40.618,0-42.885C4.854,2.464,119.801,2.464,122.191,2.464z"/>
<path style="fill:#FFFFFF;" d="M13.038,27.623l-2.991-19.71H7.106l5.105,33.794c0.471-0.356,0.953-0.709,1.443-1.057l5.558-32.737
	h-2.879L13.038,27.623 M94.955,7.849v18.295h-0.001c-0.002,0.546-0.444,0.989-0.991,0.989c-0.004,0-0.009-0.002-0.015-0.002v0.002
	l-1.292-0.341c-0.542-0.117-0.965-0.477-0.986-1.005l-0.004,0.151V7.849h-2.877v18.045l0.006,0.291v0.129
	c0,1.635,1.145,2.895,2.792,3.296l3.338,0.908c1.641,0,2.971-1.226,2.971-2.867v-19.8l-0.727-0.002H94.955z M51.233,7.905
	c-0.035-0.003-0.071-0.004-0.1-0.004c-0.732,0-5.862,0-5.862,0V28.1c0,0,2.097-0.419,6.092-0.932
	c1.532-0.117,2.741-1.29,2.741-2.853c0-0.014-0.001-0.026-0.001-0.041h0.001v-4.535c-0.003-1.195-0.712-2.221-1.73-2.691
	c1.013-0.467,1.72-1.486,1.729-2.673h0.001v-3.529h-0.001C54.089,9.25,52.818,7.959,51.233,7.905z M51.495,23.387
	c-0.003,0.545-0.398,0.919-0.989,0.998l-2.37,0.274v-6.17h2.37v0.009c0.511,0.003,0.928,0.394,0.979,0.891h0.01V23.387z
	 M51.495,14.627c-0.003,0.545-0.444,0.986-0.989,0.988v0.01h-2.37v-4.833h2.37v0.009c0.513,0.002,0.928,0.391,0.979,0.891h0.01
	V14.627z M29.859,7.9h-2.893v25.52c2.285-0.944,4.671-1.805,7.148-2.577v-3.082c-2.312,0.668-4.255,1.4-4.255,1.4V7.9z
	 M38.447,19.911l3.017-0.262v-2.902l-3.017,0.091v-6.054h4.305V7.9h-7.147v22.493c2.311-0.676,4.697-1.275,7.147-1.792V25.6
	c-1.849,0.382-4.306,0.978-4.306,0.978V19.911z M100.353,32.302c0.991,0.366,1.965,0.748,2.92,1.143V7.891h-2.92V32.302z
	 M114.705,7.9v22.679l-6.036-22.63V7.938L108.657,7.9h-2.901v26.624c0.988,0.45,1.956,0.916,2.901,1.397V18.93l0.012,0.044v-0.039
	l5.274,19.987c1.277,0.807,2.495,1.646,3.658,2.514V7.9H114.705z M83.455,7.882h-3.178v0.001c-1.634,0.007-2.957,1.333-2.959,2.969
	V24.17l0,0.127c0,0.005,0-0.004,0,0c0,1.636,1.26,2.822,2.888,3.057l0.36,0.056l0.087,0.014l0,1.16c0,0.005,0-0.003,0,0
	c0,1.426,1.098,2.458,2.516,2.663l0.313,0.049l0.511,0.056v-2.389c-0.766,0-0.811-0.677-0.829-1.129v-0.02l0.29,0.045
	c1.642,0,2.973-1.1,2.973-2.742c0-0.005-0.001-0.01-0.002-0.015l0.002-0.128v-14.14h-0.002C86.415,9.201,85.089,7.882,83.455,7.882z
	 M83.486,23.645L83.486,23.645c-0.002,0.544-0.442,0.986-0.988,0.989l-1.346-0.191c-0.484-0.067-0.932-0.489-0.952-1.007
	l-0.003-0.241V11.701h0.006c0.02-0.523,0.444-0.941,0.97-0.951v-0.003h1.281v0.003c0.014,0,0.026-0.003,0.039-0.003
	c0.542,0,0.98,0.434,0.991,0.973h0.002V23.645z M21.181,36.094c0.943-0.487,1.911-0.958,2.898-1.414V7.9h-2.898V36.094z
	 M68.083,26.365c2.408,0.063,4.785,0.201,7.121,0.412v-2.986l-4.317-0.288v-5.1h2.889v-2.77h-2.889V10.79h4.318V7.9h-7.123V26.365z
	 M62.702,7.905C62.665,7.902,62.631,7.9,62.6,7.9c-0.731,0-5.86,0-5.86,0v18.731c0.95-0.071,1.904-0.128,2.866-0.175v-8.015h2.37
	v0.009c0.511,0.003,0.928,0.394,0.98,0.891h0.009v7.005c0.704-0.014,1.412-0.024,2.123-0.024c0.161,0,0.322,0.003,0.484,0.004
	c0-0.821-0.003-2.043-0.003-2.053h0.003v-4.535c-0.003-1.195-0.712-2.221-1.73-2.691c1.015-0.467,1.72-1.486,1.73-2.673h0v-3.529h0
	C65.557,9.25,64.287,7.959,62.702,7.905z M62.965,14.627c-0.003,0.545-0.443,0.986-0.989,0.988v0.01h-2.37v-4.833h2.37v0.009
	c0.511,0.002,0.928,0.391,0.98,0.891h0.009V14.627z"/>
<path style="fill:#FFFFFF;" d="M66.26,36.359c0-2.478-1.851-3.919-3.94-3.919c-2.082-0.007-3.926,1.426-3.926,3.904
	c-0.015,2.485,1.844,3.919,3.912,3.919C64.388,40.264,66.239,38.83,66.26,36.359z M61.672,35.963V34.94l0.634,0.022
	c0.346,0,0.792,0.015,0.792,0.461c0,0.461-0.23,0.54-0.627,0.54H61.672z M61.672,36.691h0.418l0.973,1.765h1.066l-1.066-1.844
	c0.555-0.036,1.009-0.317,1.009-1.081c0-0.98-0.641-1.304-1.722-1.304h-1.578v4.229h0.9V36.691z M65.115,36.359
	c0,1.809-1.289,3.004-2.81,3.004v-0.015c-1.549,0.015-2.802-1.196-2.788-3.004c0-1.794,1.254-2.997,2.802-2.997
	C63.833,33.348,65.115,34.551,65.115,36.359z"/>
</svg>
