<?xml version="1.0" encoding="iso-8859-1"?>
<!-- Generator: Adobe Illustrator 18.1.1, SVG Export Plug-In . SVG Version: 6.00 Build 0)  -->
<svg version="1.1" xmlns="http://www.w3.org/2000/svg" xmlns:xlink="http://www.w3.org/1999/xlink" x="0px" y="0px"
	 viewBox="0 0 140.478 53.383" style="enable-background:new 0 0 140.478 53.383;" xml:space="preserve">
<g id="agthia">
	<g>
		<path style="fill:#FFFFFF;" d="M8.47,29.949c-0.005-1.728,0.425-3.452,1.287-5l15.374,12.636
			c-1.901,1.665-4.216,2.496-6.541,2.508c-2.549,0.008-5.103-0.964-7.11-2.953C9.483,35.154,8.483,32.558,8.47,29.949"/>
		<path style="fill:#FFFFFF;" d="M44.409,29.807c0.008,2.611-0.97,5.212-2.955,7.214c-1.99,2.006-4.533,2.999-7.083,3.011
			c-2.313,0.007-4.623-0.797-6.531-2.433l15.283-12.711C43.969,26.412,44.402,28.104,44.409,29.807"/>
		<path style="fill:#FFFFFF;" d="M27.567,34.886l-0.038-9.506l9.041-7.492l4.835,4.734c0.139,0.139,0.271,0.28,0.397,0.422
			L27.567,34.886z"/>
	</g>
	<polygon style="fill:#FFFFFF;" points="27.518,22.453 27.466,8.98 34.943,16.301 	"/>
	<polygon style="fill:#FFFFFF;" points="25.257,22.375 17.858,16.34 25.203,9.033 	"/>
	<g>
		<path style="fill:#FFFFFF;" d="M16.246,17.944l9.021,7.356l0.04,9.501L11.076,23.104c0.114-0.124,0.23-0.247,0.349-0.367
			L16.246,17.944z"/>
		<path style="fill:#FFFFFF;" d="M7.744,7.893C12.56,3.042,19.213,0.031,26.584,0c7.376-0.03,14.056,2.931,18.907,7.744
			c4.848,4.815,7.863,11.47,7.891,18.844c0.026,7.374-2.93,14.051-7.744,18.904c-4.628,4.663-10.962,7.618-18,7.865l-0.05-13.118
			c2.062,1.372,4.428,2.064,6.789,2.05c3.135-0.008,6.274-1.243,8.68-3.678c2.42-2.438,3.627-5.633,3.615-8.813
			c-0.011-3.181-1.242-6.368-3.68-8.787L26.343,4.718L9.825,21.137c-2.422,2.441-3.629,5.64-3.617,8.821
			c0.012,3.182,1.244,6.369,3.683,8.785c2.429,2.412,5.574,3.626,8.708,3.61c2.346-0.007,4.691-0.705,6.729-2.074l0.05,13.072
			C18.57,53.02,12.431,50.142,7.892,45.64C3.04,40.823,0.03,34.171,0,26.797C-0.028,19.424,2.929,12.746,7.744,7.893"/>
		<path style="fill:#FFFFFF;" d="M139.303,26.923h0.524c0.419,0,0.65-0.256,0.65-0.663v-0.318h-1.218
			c-1.113,0-1.714,0.595-1.714,1.603c0,0.372,0.289,0.706,0.523,0.85h-0.248c-0.362,0-0.625,0.225-0.625,0.689v0.305h2.632
			c0.397,0,0.65-0.21,0.65-0.668v-0.32h-1.147c-0.688,0-0.92-0.401-0.92-0.703C138.411,27.27,138.664,26.923,139.303,26.923
			 M137.562,14.026c0-2.969-2.416-5.385-5.387-5.385c-2.968,0-5.384,2.416-5.384,5.385c0,2.972,2.416,5.387,5.384,5.387
			C135.147,19.414,137.562,16.998,137.562,14.026 M140.269,14.327l0.013,0.082v0.984v5.712v0.551
			c-0.248,0.117-0.521,0.186-0.814,0.186c-1.009,0-1.603-1.025-1.688-2.008c-1.343,1.502-3.618,2.299-5.605,2.299
			c-4.468,0-8.105-3.636-8.105-8.107c0-4.468,3.637-8.106,8.105-8.106c4.471,0,8.107,3.637,8.107,8.106
			c0,0.088-0.005,0.175-0.01,0.259C140.269,14.298,140.269,14.314,140.269,14.327 M74.956,13.255v-0.373h0.013
			c0-3.463-2.818-6.281-6.281-6.281c-3.464,0-6.279,2.818-6.279,6.281s2.814,6.281,6.279,6.281
			C72.028,19.163,74.763,16.544,74.956,13.255 M77.834,12.882v8.826c-0.263,0.122-0.548,0.195-0.855,0.195
			c-1.117,0-2.022-0.905-2.022-2.02V19.53c-1.638,1.545-3.844,2.496-6.268,2.496c-5.043,0-9.143-4.102-9.143-9.144
			c0-5.042,4.1-9.144,9.143-9.144C73.732,3.738,77.834,7.84,77.834,12.882 M123.242,27.692c0-0.983-0.785-1.765-1.738-1.765
			c-0.956,0-1.739,0.783-1.739,1.765c0,0.955,0.783,1.713,1.739,1.713C122.457,29.405,123.242,28.648,123.242,27.692 M111.534,6.027
			c-1.4,0-2.626,0.325-3.625,0.922V2.021c0-1.116-0.907-2.021-2.022-2.021c-0.306,0-0.594,0.073-0.855,0.195v21.831h2.877V11.601
			c0.42-2.394,2.394-2.784,3.625-2.784c1.388,0,3.709,0.49,3.709,3.762v9.447h2.791v-9.447
			C118.035,8.599,115.485,6.027,111.534,6.027 M100.238,6.029V2.021c0-1.116-0.905-2.021-2.02-2.021
			c-0.309,0-0.597,0.073-0.857,0.195v21.831h2.877V8.906h1.648c1.117,0,2.019-0.907,2.019-2.022c0-0.308-0.071-0.595-0.194-0.856
			H100.238z M92.697,14.026c0-2.969-2.418-5.385-5.387-5.385c-2.97,0-5.386,2.416-5.386,5.385c0,2.972,2.416,5.387,5.386,5.387
			C90.279,19.414,92.697,16.998,92.697,14.026 M95.403,14.327l0.013,0.082v6.695c0,4.41-3.635,8.001-8.108,8.001l-6.923-0.064
			l-0.03-0.061c-0.119-0.256-0.18-0.524-0.18-0.792c0-0.821,0.53-1.535,1.317-1.783c0.145-0.046,0.294-0.073,0.447-0.083
			c0.011,0,0.023-0.002,0.035-0.005c0.025-0.002,0.053-0.005,0.076-0.005l3.584,0.061v0.011h1.674c3.021,0,5.387-2.318,5.387-5.278
			v-1.033c-1.493,1.332-3.394,2.062-5.387,2.062c-4.469,0-8.104-3.636-8.104-8.107c0-4.468,3.635-8.106,8.104-8.106
			c4.472,0,8.108,3.637,8.108,8.106c0,0.088-0.005,0.175-0.012,0.259C95.403,14.298,95.403,14.314,95.403,14.327 M75.403,39.422
			c0-3.546-2.886-6.43-6.432-6.43c-3.547,0-6.431,2.884-6.431,6.43c0,3.546,2.884,6.43,6.431,6.43
			C72.517,45.851,75.403,42.967,75.403,39.422 M91.993,31.533v1.25v4.551v2.087c0,5.162-4.203,9.364-9.365,9.364H69.416v-0.022
			c-0.149,0.005-0.294,0.022-0.445,0.022c-5.167,0-9.365-4.202-9.365-9.364c0-5.161,4.198-9.362,9.365-9.362
			c5.161,0,9.36,4.202,9.36,9.362c0,2.491-0.981,4.753-2.573,6.43h6.87c3.546,0,6.431-2.884,6.431-6.43v-2.087h-0.013v-3.934
			c0-0.043,0.011-0.083,0.013-0.126c0.01-0.17,0.041-0.332,0.091-0.491c0.263-0.841,1.039-1.452,1.966-1.452
			C91.431,31.331,91.725,31.406,91.993,31.533 M134.01,45.654h-11.846c-3.241,0-5.876-2.662-5.876-5.93
			c0-3.241,2.634-5.878,5.876-5.878c2.52,0,4.753,1.61,5.564,4c0.033,0.19,0.08,0.347,0.141,0.488
			c0.346,0.81,1.137,1.335,2.017,1.335c0.443,0,0.87-0.136,1.238-0.386c-0.069-1.415-0.477-2.804-1.176-4.019
			c-1.602-2.789-4.585-4.522-7.783-4.522c-4.951,0-8.98,4.029-8.98,8.982c0,2.138,0.77,4.212,2.164,5.838l0.078,0.092h-5.97
			l0.08-0.092c1.39-1.63,2.154-3.699,2.154-5.828c0-4.961-4.036-8.998-8.999-8.998c-0.124,0-0.247,0.005-0.367,0.013l-0.068,0.002
			c-0.25,0.012-0.475,0.032-0.688,0.058c-0.974,0.244-1.659,1.117-1.659,2.123c0,0.487,0.165,0.954,0.476,1.349
			c1.153-0.484,2.391-0.608,3.681-0.299c2.677,0.639,4.547,3.006,4.547,5.754c0,3.24-2.636,5.894-5.877,5.92l-0.665,0.002
			l-7.79-0.002c-1.209,0-2.192,0.977-2.192,2.182c0,0.304,0.068,0.604,0.198,0.894h10.462l29.266,0.003
			c1.209,0,2.194-0.978,2.194-2.182C134.208,46.244,134.142,45.943,134.01,45.654 M120.707,6.997c-0.306,0-0.592,0.073-0.855,0.196
			v14.833h2.879V9.018C122.731,7.901,121.824,6.997,120.707,6.997 M121.291,6.165c0.857,0,1.564-0.681,1.564-1.541
			c0-0.883-0.706-1.588-1.564-1.588c-0.855,0-1.562,0.705-1.562,1.588C119.729,5.484,120.436,6.165,121.291,6.165 M138.411,31.096
			c-0.316,0-0.61,0.075-0.879,0.202v17.511h2.945V33.165C140.478,32.022,139.553,31.096,138.411,31.096 M102.518,29.421
			c0.953,0,1.736-0.756,1.736-1.713c0-0.981-0.783-1.765-1.736-1.765c-0.956,0-1.741,0.784-1.741,1.765
			C100.778,28.664,101.562,29.421,102.518,29.421 M83.006,50.179c-0.875,0-1.6,0.721-1.6,1.626c0,0.878,0.725,1.578,1.6,1.578
			c0.878,0,1.601-0.7,1.601-1.578C84.607,50.9,83.884,50.179,83.006,50.179 M78.824,50.179c-0.875,0-1.6,0.721-1.6,1.626
			c0,0.878,0.725,1.578,1.6,1.578c0.88,0,1.6-0.7,1.6-1.578C80.425,50.9,79.705,50.179,78.824,50.179 M70.899,29.124
			c0.877,0,1.602-0.698,1.602-1.575c0-0.905-0.725-1.626-1.602-1.626c-0.879,0-1.6,0.721-1.6,1.626
			C69.299,28.425,70.02,29.124,70.899,29.124 M65.181,27.548c0-0.905,0.721-1.626,1.598-1.626c0.879,0,1.6,0.721,1.6,1.626
			c0,0.877-0.721,1.575-1.6,1.575C65.902,29.124,65.181,28.425,65.181,27.548"/>
	</g>
</g>
<g id="Layer_1">
</g>
</svg>
