<?xml version="1.0" encoding="iso-8859-1"?>
<!-- Generator: Adobe Illustrator 18.1.1, SVG Export Plug-In . SVG Version: 6.00 Build 0)  -->
<svg version="1.1" xmlns="http://www.w3.org/2000/svg" xmlns:xlink="http://www.w3.org/1999/xlink" x="0px" y="0px"
	 viewBox="0 0 145.411 73.822" style="enable-background:new 0 0 145.411 73.822;" xml:space="preserve">
<g id="moe">
	<g>
		<g>
			<path style="fill:#FFFFFF;" d="M83.674,15.62c0.73,0.779,0.734,0.767-0.005-0.025c-2.818-3.017-6.849-4.924-11.302-4.924
				c-2.018,0-3.946,0.385-5.71,1.093c1.957-2.303,4.913-3.443,8.144-3.513h0.01c1.01-0.021,2.045,0.062,3.087,0.245
				c3.228,0.529,6.162,1.892,8.559,3.848l2.209-2.617L82.48,0.97c-0.09-0.022-0.178-0.047-0.269-0.068
				c-0.463-0.106-1.203-0.252-1.859-0.343c-0.943-0.124-1.906-0.226-2.909-0.226c-2.065,0-3.569,0.366-5.299,0.945
				c-1.235,0.414-2.461,0.921-4.219,2.022c-1.913,1.188-3.548,2.637-4.931,4.272l-0.198,0.343l0.371,0.644l0.373-0.644l-0.28-0.482
				l0.067-0.106l0.124-0.003l0.213,0.372l0.242-0.417l0.13-0.009l0.06,0.119l-0.241,0.416h0.429l0.058,0.11l-0.058,0.109h-0.555
				l-0.373,0.643h0.744l0.277-0.481l0.125,0.004l0.065,0.106l-0.215,0.371h0.481l0.075,0.11l-0.075,0.11h-0.481l0.215,0.37
				l-0.065,0.106l-0.125,0.004l-0.277-0.481h-0.744l0.373,0.643h0.555l0.058,0.109l-0.058,0.109h-0.429l0.241,0.416l-0.06,0.12
				l-0.13-0.01l-0.242-0.417l-0.213,0.372l-0.124-0.005l-0.067-0.104l0.28-0.482l-0.373-0.643L62.797,9.64l0.278,0.482l-0.066,0.104
				l-0.124,0.005l-0.214-0.372l-0.242,0.417l-0.131,0.01l-0.058-0.12l0.24-0.416h-0.429L61.994,9.64l0.058-0.109h0.557l0.37-0.643
				h-0.743l-0.276,0.481l-0.125-0.004l-0.065-0.106l0.213-0.37h-0.018c-3.229,4.459-4.792,10.037-5.017,15.497
				c-0.018,0.462-0.027,0.926-0.027,1.382l0.001-0.001c-0.001,0.046-0.007,0.278-0.007,0.355v20.285
				c1.067-0.785,2.138-1.642,3.287-2.564c0.63-0.505,1.282-1.028,1.97-1.569c1.585-1.245,3.003-2.425,4.301-3.65v-2.323
				l-5.709,4.362c-0.294,0.195-0.534,0.387-1.171,0.633c-0.679,0.261-1.188-0.047-1.397-0.151c-0.208-0.107-0.03-0.336,0.305-0.222
				c0.18,0.093,0.68,0.184,1.058,0.039c0.363-0.141,0.572-0.298,0.764-0.432l6.017-4.572l-3.919-0.566c0,0-0.875,0.867-1.065,1.041
				c-0.191,0.175-0.694,0.111-0.498-0.156c0.192-0.262,0.963-1.304,0.963-1.304l0.377-0.44c-0.382,0.134-1.334,0.381-1.453,0.402
				c-0.769,0.14-1.081-0.576-0.813-1.279c0.601-1.196,1.686-2.282,2.967-2.772c0.703-0.27,1.324-0.137,1.732-0.029l0.693-0.923
				l-0.003-0.015l-0.103-0.492l0.286-0.06l0.053,0.256l0.193-0.257l0.276,0.153l-0.218,0.298l0.291-0.061l0.06,0.286l-0.608,0.127
				l-0.607,0.831c0.097,0.065,0.31,0.223,0.404,0.467c0.347,0.895-0.495,1.89-0.922,2.627c0,0-0.08,0.179-0.023,0.325
				c0.064,0.163,0.256,0.206,0.256,0.206l1.813,0.493V26.12c0-1.822,0.825-3.446,2.122-4.528l3.77,4.528l3.768-4.526
				c0.488,0.407,0.909,0.891,1.245,1.434L83.674,15.62z M67.561,5.739h0.646l-0.29-0.5l0.089-0.141l0.165-0.006l0.374,0.647h0.999
				l-0.498-0.865h-0.748L68.22,4.728l0.078-0.148h0.577l-0.323-0.558l0.078-0.161l0.177,0.013l0.324,0.56l0.288-0.501l0.165,0.007
				l0.09,0.141L69.3,4.728l0.499,0.865l0.5-0.865l-0.374-0.646l0.089-0.141l0.166-0.007l0.287,0.501l0.324-0.56l0.178-0.013
				l0.078,0.161L70.723,4.58H71.3l0.079,0.148L71.3,4.874h-0.749l-0.496,0.865h0.997l0.373-0.647l0.167,0.006l0.088,0.141
				l-0.288,0.5h0.646l0.099,0.148l-0.099,0.146h-0.646l0.288,0.501l-0.088,0.14l-0.167,0.007l-0.373-0.648h-0.997l0.496,0.866H71.3
				l0.079,0.146L71.3,7.191h-0.577l0.323,0.562l-0.078,0.16l-0.178-0.015L70.467,7.34l-0.287,0.5l-0.166-0.007l-0.089-0.14
				l0.374-0.648l-0.5-0.865L69.3,7.045l0.373,0.648l-0.09,0.14L69.419,7.84l-0.288-0.5l-0.324,0.559L68.63,7.914l-0.078-0.16
				l0.323-0.562h-0.577L68.22,7.045l0.078-0.146h0.748l0.498-0.866h-0.999l-0.374,0.648l-0.165-0.007l-0.089-0.14l0.29-0.501h-0.646
				L67.46,5.887L67.561,5.739z M59.916,36.001c-0.02,0.625-0.541,1.115-1.165,1.095c-0.624-0.02-1.116-0.54-1.094-1.165
				c0.017-0.623,0.538-1.113,1.163-1.093C59.444,34.858,59.934,35.378,59.916,36.001z M62.343,19.576h-0.647l0.289,0.5l-0.089,0.14
				l-0.166,0.006l-0.372-0.646h-0.999l0.499,0.863h0.746l0.08,0.148l-0.08,0.147h-0.575l0.322,0.56l-0.077,0.16l-0.177-0.013
				l-0.323-0.559l-0.289,0.501l-0.166-0.006l-0.088-0.141l0.372-0.648l-0.498-0.864l-0.5,0.864l0.373,0.648l-0.088,0.141
				l-0.167,0.006l-0.288-0.501L59.11,21.44l-0.175,0.013l-0.078-0.16l0.323-0.56h-0.577l-0.079-0.147l0.079-0.148h0.747l0.499-0.863
				H58.85l-0.374,0.646l-0.166-0.006l-0.09-0.14l0.29-0.5h-0.647l-0.1-0.147l0.1-0.148h0.647l-0.29-0.5l0.09-0.14l0.166-0.006
				l0.374,0.646h0.999l-0.499-0.863h-0.747l-0.079-0.149l0.079-0.146h0.577l-0.323-0.559l0.078-0.16l0.175,0.011l0.324,0.562
				l0.288-0.501l0.167,0.005l0.088,0.142l-0.373,0.647l0.5,0.866l0.498-0.866l-0.372-0.647l0.088-0.142l0.166-0.005l0.289,0.501
				l0.323-0.562l0.177-0.011l0.077,0.16l-0.322,0.559h0.575l0.08,0.146l-0.08,0.149h-0.746l-0.499,0.863h0.999l0.372-0.646
				l0.166,0.006l0.089,0.14l-0.289,0.5h0.647l0.1,0.148L62.343,19.576z M66.129,14.996h-0.481l0.216,0.372l-0.066,0.105
				l-0.125,0.004l-0.277-0.482h-0.744l0.372,0.645h0.557l0.057,0.109l-0.057,0.11h-0.43l0.24,0.416l-0.058,0.119l-0.131-0.009
				l-0.241-0.417l-0.215,0.373l-0.124-0.004l-0.066-0.104l0.277-0.482l-0.371-0.643L64.09,15.75l0.278,0.482l-0.066,0.104
				l-0.124,0.004l-0.214-0.373l-0.241,0.417l-0.132,0.009l-0.057-0.119l0.24-0.416h-0.43l-0.057-0.11l0.057-0.109h0.557l0.37-0.645
				H63.53l-0.279,0.482l-0.123-0.004l-0.066-0.105l0.215-0.372h-0.48l-0.075-0.109l0.075-0.11h0.48l-0.215-0.37l0.066-0.106
				l0.123-0.004l0.279,0.481h0.743l-0.37-0.643h-0.557l-0.057-0.109l0.057-0.11h0.43l-0.24-0.416l0.057-0.12l0.132,0.01l0.241,0.417
				l0.214-0.372l0.124,0.003l0.066,0.105l-0.278,0.483l0.371,0.644l0.371-0.644l-0.277-0.483l0.066-0.105l0.124-0.003l0.215,0.372
				l0.241-0.417l0.131-0.01l0.058,0.12l-0.24,0.416h0.43l0.057,0.11l-0.057,0.109h-0.557l-0.372,0.643h0.744l0.277-0.481
				l0.125,0.004l0.066,0.106l-0.216,0.37h0.481l0.074,0.11L66.129,14.996z"/>
			<path style="fill:#FFFFFF;" d="M86.265,47.311c0.185-0.023,0.363-0.18,0.534-0.467c0.222-0.379,0.311-0.527,0.363-0.614
				c0.071-0.119,0.07-0.119,0.26-0.451l0.251-0.443c0.216-0.379,0.141-0.926-0.185-1.331c-1.061-1.318-8.788-10.785-8.866-10.881
				c-0.142-0.174-0.142-0.421,0-0.594l6.394-7.797c0.086-0.105,0.214-0.168,0.35-0.175c0.137-0.006,0.269,0.044,0.365,0.141
				l2.08,2.088V26.12c0-2.511-0.603-4.88-1.667-6.976l-7.887,6.978v13.743c2.366,2.374,6.094,6.106,6.094,6.106
				C84.902,46.529,85.745,47.369,86.265,47.311z"/>
			<path style="fill:#FFFFFF;" d="M82.077,46.218c-0.013,0-0.025-0.004-0.038-0.004c-0.379,0-0.736,0.145-1.006,0.408
				c-0.275,0.265-0.428,0.621-0.43,0.999c-0.004,0.378,0.143,0.734,0.411,1.002c0.28,0.281,0.669,0.416,1.055,0.408
				c-0.356-0.011-0.708-0.146-0.965-0.408c-0.265-0.268-0.409-0.624-0.405-1.002c0.002-0.378,0.153-0.734,0.424-0.999
				C81.38,46.369,81.718,46.228,82.077,46.218z"/>
			<path style="fill:#FFFFFF;" d="M62.235,8.667h0.743l-0.365-0.635c-0.145,0.181-0.288,0.364-0.427,0.549L62.235,8.667z"/>
			<path style="fill:#FFFFFF;" d="M95.318,10.969l6.955,12.402c-0.509-5.229-2.4-9.922-5.49-13.708L95.318,10.969z"/>
			<polygon style="fill:#FFFFFF;" points="85.824,31.547 85.826,31.546 84.43,30.149 84.426,30.157 82.98,28.718 81.195,30.896 
				82.608,32.313 84.268,30.703 84.951,31.367 83.28,32.988 85.143,34.858 86.826,33.227 87.511,33.891 85.816,35.534 
				87.679,37.404 87.811,37.277 87.811,33.525 86.857,32.576 			"/>
			<path style="fill:#FFFFFF;" d="M62.774,43.023c-0.685,0.538-1.335,1.06-1.962,1.562c-1.366,1.096-2.625,2.104-3.895,3.009v7.387
				h9.558V39.933C65.34,40.961,64.115,41.97,62.774,43.023z"/>
			<path style="fill:#FFFFFF;" d="M87.627,47.32c-0.327,0.558-0.746,0.87-1.245,0.93c-0.058,0.007-0.116,0.01-0.175,0.01
				c-0.638,0-1.249-0.416-1.802-0.911c0.086,0.703-0.137,1.435-0.687,1.969c-0.449,0.436-1.045,0.678-1.678,0.678
				c-0.649,0-1.257-0.251-1.712-0.709c-0.446-0.448-0.69-1.043-0.685-1.674c0.006-0.631,0.26-1.224,0.717-1.667
				c0.45-0.437,1.047-0.678,1.678-0.678c0.103,0,0.202,0.016,0.301,0.029c-1.035-1.041-2.594-2.605-4.083-4.099v13.782h9.553v-7.972
				C87.762,47.092,87.705,47.188,87.627,47.32z"/>
			<polygon style="fill:#FFFFFF;" points="83.587,27.977 85.309,29.691 87.033,28.02 87.716,28.685 85.984,30.364 87.811,32.181 
				87.811,28.142 85.423,25.741 			"/>
			<path style="fill:#FFFFFF;" d="M101.334,37.942l-8.442,4.435l-0.001-1.069l1.733-0.911l-1.31-1.321l0.007-0.002l-0.43-0.436
				l-0.001-1.341l1.549-1.526l0.674,0.664L93.55,37.97l1.951,1.967l2.579-1.355l-2.09-2.124l0.008-0.003l-1.377-1.397l-0.001,0.004
				l-1.577-1.603l-0.151,0.149l-0.001-1.653l5.953,6.055c0.036,0.037,0.061,0.082,0.083,0.127l2.276-1.196
				c0.184-0.096,0.411-0.062,0.558,0.087l0.649,0.661c0.002-3.519,0.004-6.79,0.005-8.92l-0.031,0.248l-10.6-14.901l-2.012,1.793
				c-0.033-0.048,0.034,0.047,0,0c1.981,2.775,3.043,5.993,3.057,9.615c0.015,0.324,0.023,0.656,0.023,0.989v28.466h9.547
				c0,0,0.005-8.277,0.009-15.942L101.334,37.942z"/>
			<path style="fill:#FFFFFF;" d="M87.811,38.877l-1.199-1.199l-0.001,0.004l-1.095-1.1l-1.375-1.379l-1.148-1.153l0.003-0.001
				l-1.396-1.397l-1.012-1.016l-0.976,1.191c0.23,0.282,0.613,0.751,1.09,1.335l0.866-0.837l0.683,0.664l-0.943,0.915
				c0.508,0.622,1.079,1.323,1.675,2.053l1.143-1.107l0.684,0.664l-1.222,1.185c0.565,0.692,1.135,1.391,1.675,2.055l1.383-1.34
				l0.685,0.664l-1.463,1.418c0.654,0.803,1.235,1.518,1.672,2.056l0.273-0.265V38.877z"/>
		</g>
		<g>
			<path style="fill:#FFFFFF;" d="M48.023,47.383c-0.34-1.266-0.079-2.408,0.582-2.55c0.037-0.008,0.074-0.011,0.111-0.013
				c-0.05-0.001-0.1,0.002-0.149,0.013c-0.661,0.143-0.921,1.284-0.582,2.55c0.321,1.194,1.063,2.072,1.702,2.047
				C49.057,49.42,48.337,48.553,48.023,47.383z"/>
			<path style="fill:#FFFFFF;" d="M53.292,19.627c0.061-0.247,0.128-0.49,0.196-0.733h-0.62L53.292,19.627z"/>
			<path style="fill:#FFFFFF;" d="M43.914,49.324c-0.102-0.793,0.203-1.464,0.684-1.507c-0.009,0-0.018-0.003-0.027-0.003
				c-0.487,0.033-0.798,0.711-0.694,1.51c0.103,0.804,0.582,1.425,1.069,1.39c0.004,0,0.007-0.002,0.01-0.002
				C44.478,50.721,44.015,50.112,43.914,49.324z"/>
			<path style="fill:#FFFFFF;" d="M52.402,29.071l-0.018,0.025l-4.105,5.114c-1.122,1.377-1.781,1.951-2.964,1.951h-2.32v16.214
				l0.001-0.96c0.284-0.014,0.549-0.036,0.822-0.054c-0.001-0.003-0.006-0.004-0.005-0.008l0.1-0.052
				c0.136-0.046,0.41-0.154,0.545-0.199c-0.444-0.418-0.687-0.911-0.925-1.461c-0.247-0.571-0.231-1.114-0.204-1.726
				c0.026-0.623,0.199-1.138,0.571-1.627c0.15-0.197,0.333-0.37,0.537-0.525c0.068-0.052,0.081-0.108,0.085-0.189
				c0.01-0.255,0.051-0.333-0.303-0.732c-0.058-0.065-0.198-0.201-0.196-0.287c0-0.021,0.019-0.157,0.058-0.137
				c0.065,0.032,0.233,0.12,0.293,0.163c0.209,0.147,0.37,0.018,0.604,0.088c0.519,0.153,0.581,0.416,0.695,0.962
				c0.08,0.384,0.228,0.706,0.505,0.999c0.369,0.392,0.578,0.897,0.754,1.42c0.06,0.181,0.075,0.372,0.143,0.548
				c0.072,0.185,0.2,0.345,0.264,0.535c0.01,0.024-0.055,0.004-0.146-0.039c-0.182-0.081-0.683-0.501-0.683-0.503
				c0.207,0.575,0.128,0.998,0.025,1.33c-0.113,0.367-0.292,0.707-0.522,1.013c0.137,0.014,0.407,0.037,0.545,0.051l0.16,0.02
				c0.017,0.017,0.021,0.03,0.02,0.042c0.641-0.098,1.254-0.211,1.836-0.341c-0.101,0.001-0.175-0.013-0.175-0.06l0.124-0.102
				c0.176-0.098,0.525-0.32,0.704-0.415c-0.715-0.593-1.173-1.338-1.636-2.179c-0.479-0.871-0.707-1.724-0.822-2.711
				c-0.115-1.002,0.032-1.582,0.376-2.492c0.134-0.354,0.369-0.603,0.61-0.89c0.08-0.095,0.129-0.327,0.112-0.458
				c-0.048-0.41-0.048-1.049-0.766-1.446c-0.154-0.085-0.279-0.222-0.376-0.333c-0.02-0.024-0.031-0.189,0.044-0.205
				c0.109-0.02,0.308,0.112,0.405,0.161c0.846,0.419,0.839,0.069,1.178,0.137c0.753,0.155,0.901,0.563,1.193,1.42
				c0.206,0.6,0.49,1.09,0.942,1.51c0.608,0.566,1.02,1.336,1.39,2.144c0.128,0.282,0.197,0.581,0.333,0.854
				c0.092,0.185,0.211,0.352,0.323,0.523v0.267c-0.012-0.004-0.024-0.008-0.037-0.012c-0.271-0.099-0.709-0.306-0.709-0.306
				c-0.101,0.511,0.066,1.196,0.005,1.749c-0.065,0.608-0.227,1.188-0.467,1.719c0.19-0.002,0.568-0.016,0.76-0.016l0.135,0.002
				c0.105-0.044,0.215-0.084,0.318-0.129l0,1.055c-2.518,1.035-5.503,1.695-9.54,1.885v2.607h9.562c0,0-0.006-13.674-0.007-26.105
				C52.51,28.924,52.464,28.982,52.402,29.071z"/>
			<path style="fill:#FFFFFF;" d="M47.394,11.801h0.998l-0.498-0.865h-0.199c-0.15,0.207-0.295,0.417-0.438,0.629L47.394,11.801z"/>
			<path style="fill:#FFFFFF;" d="M51.922,24.897c-0.615,0-0.804,0.21-1.504,1.102c-0.094,0.119-0.194,0.247-0.303,0.383
				l-4.247,5.241c-0.413,0.532-0.621,0.704-1.5,0.704h-1.372v2.874h2.32c0.744,0,1.158-0.298,2.214-1.594l4.093-5.099
				c0.297-0.421,0.554-0.66,0.928-0.715c0-0.663,0-1.321,0-1.972c0-0.311,0.011-0.618,0.022-0.926H51.922z"/>
			<path style="fill:#FFFFFF;" d="M73.801,0h-2.809c-9.693,0-17.661,3.843-22.586,10.001l0.027,0.001l0.089,0.141l-0.374,0.647
				l0.499,0.865l0.499-0.865l-0.374-0.647l0.089-0.141l0.166-0.007l0.287,0.5l0.324-0.56l0.178-0.013l0.078,0.161l-0.323,0.559
				h0.578l0.078,0.148l-0.078,0.146h-0.748l-0.497,0.865h0.998l0.373-0.646l0.167,0.005l0.089,0.141l-0.289,0.5h0.646l0.099,0.148
				l-0.099,0.146h-0.646l0.289,0.501l-0.089,0.14l-0.167,0.007l-0.373-0.648h-0.998l0.497,0.866h0.748l0.078,0.146l-0.078,0.146
				h-0.578l0.323,0.562l-0.078,0.16l-0.178-0.015l-0.324-0.558l-0.287,0.5l-0.166-0.007l-0.089-0.14l0.374-0.648l-0.499-0.866
				l-0.499,0.866l0.374,0.648l-0.089,0.14l-0.165,0.007l-0.289-0.5l-0.324,0.558l-0.177,0.015l-0.078-0.16l0.323-0.562h-0.577
				l-0.078-0.146l0.078-0.146h0.749l0.498-0.866h-0.998l-0.374,0.648l-0.165-0.007l-0.088-0.14l0.289-0.501h-0.151
				c-2.513,3.934-3.91,8.62-3.91,13.747v5.528h1.372c0.48,0,0.48,0,0.739-0.333l0.129-0.164l0.807-0.995v-3.157
				c0-0.623,0.507-1.13,1.135-1.13c0.625,0,1.135,0.507,1.135,1.13v0.358l1.051-1.296c0.105-0.131,0.204-0.257,0.296-0.374
				c0.696-0.885,1.155-1.47,2.263-1.47h0.702c0.083-1.168,0.24-2.305,0.468-3.408L52.994,20.7l-0.165-0.007l-0.09-0.141l0.373-0.646
				l-0.497-0.865l-0.501,0.865l0.375,0.646l-0.09,0.141L52.233,20.7l-0.288-0.501l-0.324,0.561l-0.176,0.012l-0.079-0.159
				l0.323-0.561h-0.578l-0.077-0.146l0.077-0.149h0.747l0.499-0.864h-0.998l-0.374,0.648l-0.166-0.007l-0.089-0.14l0.289-0.5h-0.646
				l-0.098-0.147l0.098-0.148h0.646l-0.289-0.5l0.089-0.141l0.166-0.006l0.374,0.646h0.998l-0.499-0.865h-0.747l-0.077-0.147
				l0.077-0.148h0.578l-0.323-0.559l0.079-0.16l0.176,0.012l0.324,0.559l0.288-0.5l0.165,0.006l0.09,0.142l-0.375,0.646l0.501,0.866
				l0.497-0.866l-0.373-0.646l0.09-0.142l0.165-0.006l0.288,0.5l0.324-0.559l0.177-0.012l0.078,0.16l-0.323,0.559h0.393
				c0.542-1.58,1.233-3.071,2.041-4.472l-0.335-0.58l-0.406,0.703L55,13.082l-0.126-0.199l0.524-0.909l-0.699-1.213l-0.704,1.213
				l0.526,0.909l-0.125,0.199l-0.234,0.008l-0.402-0.703l-0.456,0.786l-0.249,0.018l-0.11-0.225l0.455-0.786H52.59l-0.11-0.208
				l0.11-0.204h1.049l0.701-1.216h-1.401l-0.525,0.908l-0.233-0.009l-0.125-0.198l0.407-0.701h-0.909l-0.14-0.207l0.14-0.206h0.909
				l-0.407-0.703l0.125-0.198l0.233-0.008l0.525,0.908h1.401l-0.701-1.214H52.59L52.48,8.72l0.11-0.206h0.811l-0.455-0.786
				l0.11-0.224l0.249,0.018l0.456,0.785l0.402-0.703l0.234,0.01l0.125,0.197L53.996,8.72l0.704,1.215l0.699-1.215l-0.524-0.909
				L55,7.614l0.231-0.01l0.406,0.703l0.455-0.785l0.248-0.018l0.109,0.224l-0.453,0.786h0.81l0.109,0.206l-0.109,0.207h-1.05
				l-0.701,1.214h1.402l0.525-0.908l0.233,0.008l0.125,0.198l-0.407,0.703h0.91l0.007,0.01c3.995-5.231,9.753-8.752,15.525-9.927
				C73.795,0.133,74.295,0,73.801,0z M47.197,24.951c-0.625,0-1.13-0.506-1.13-1.13c0-0.624,0.505-1.13,1.13-1.13
				c0.622,0,1.13,0.506,1.13,1.13C48.327,24.445,47.819,24.951,47.197,24.951z M48.802,17.77h-0.481l0.215,0.371l-0.066,0.106
				l-0.124,0.004l-0.277-0.481h-0.743l0.371,0.644h0.555l0.06,0.109l-0.06,0.109h-0.428l0.24,0.416l-0.058,0.12l-0.132-0.01
				l-0.24-0.417l-0.214,0.373l-0.124-0.006l-0.067-0.104l0.28-0.482l-0.372-0.643l-0.371,0.643l0.278,0.482l-0.066,0.104
				l-0.126,0.006l-0.213-0.373l-0.24,0.417l-0.133,0.01l-0.058-0.12l0.241-0.416h-0.429l-0.059-0.109l0.059-0.109h0.556l0.371-0.644
				h-0.743l-0.278,0.481l-0.123-0.004l-0.066-0.106l0.214-0.371h-0.481l-0.074-0.11l0.074-0.11h0.481l-0.214-0.372l0.066-0.105
				l0.123-0.005l0.278,0.482h0.743l-0.371-0.643h-0.556l-0.059-0.109l0.059-0.11h0.429l-0.241-0.416l0.058-0.119l0.133,0.009
				l0.24,0.417l0.213-0.373l0.126,0.004l0.066,0.106l-0.278,0.482l0.371,0.644l0.372-0.644l-0.28-0.482l0.067-0.106l0.124-0.004
				l0.214,0.373l0.24-0.417l0.132-0.009l0.058,0.119l-0.24,0.416h0.428l0.06,0.11l-0.06,0.109h-0.555l-0.371,0.643h0.743
				l0.277-0.482l0.124,0.005l0.066,0.105l-0.215,0.372h0.481l0.075,0.11L48.802,17.77z"/>
			<path style="fill:#FFFFFF;" d="M55.055,10.554l0.701,1.216h0.953c0.08-0.123,0.157-0.247,0.239-0.368l-0.491-0.848H55.055z"/>
			<path style="fill:#FFFFFF;" d="M57.209,11.028c0.111-0.159,0.223-0.318,0.338-0.474h-0.612L57.209,11.028z"/>
			<path style="fill:#FFFFFF;" d="M53.367,17.735l-0.499,0.865h0.698c0.085-0.292,0.178-0.578,0.272-0.865H53.367z"/>
			<path style="fill:#FFFFFF;" d="M55.997,12.181l0.217,0.377c0.076-0.126,0.15-0.253,0.227-0.377H55.997z"/>
		</g>
		<path style="fill:#FFFFFF;" d="M96.895,9.939c-0.039-0.073-5.729-7.583-14.886-8.963l0.014-0.093
			c4.745,0.715,8.554,3.113,10.913,4.998c2.551,2.039,4.049,3.966,4.049,4.039h-0.094h0.047L96.895,9.939z"/>
		<path style="fill:#FFFFFF;" d="M87.314,22.189l-0.043-0.019l-0.047,0.001c-0.005-0.052-1.421-5.733-6.253-8.748l0.05-0.08
			C85.885,16.379,87.331,22.15,87.314,22.189z"/>
		<path style="fill:#FFFFFF;" d="M92.647,22.051l-0.084-0.041l0.042,0.02l-0.047-0.001c-0.004-0.064-1.548-7.036-7.693-10.788
			l0.049-0.08c3.185,1.945,5.12,4.783,6.183,6.821C92.247,20.187,92.672,21.999,92.647,22.051z"/>
		<path style="fill:#FFFFFF;" d="M93.241,16.203c-0.064,0-0.276-0.29-4.178-5.772c-1.028-1.443-2.22-3.119-3.546-4.978l0.076-0.055
			c1.327,1.86,2.519,3.535,3.546,4.978c2.424,3.405,4.025,5.655,4.124,5.742l-0.028,0.032l0.015,0.051
			C93.248,16.202,93.245,16.203,93.241,16.203z"/>
		<path style="fill:#FFFFFF;" d="M78.42,27.505l-0.036-0.03l-0.046-0.01c0.005-0.035,0.096-4-2.567-6.823l0.068-0.065
			C78.532,23.433,78.438,27.483,78.42,27.505z"/>
		
			<rect x="87.473" y="5.502" transform="matrix(0.6648 0.747 -0.747 0.6648 42.6974 -59.379)" style="fill:#FFFFFF;" width="0.094" height="24.78"/>
		
			<rect x="84.778" y="2.698" transform="matrix(0.7634 0.6459 -0.6459 0.7634 29.2601 -51.4257)" style="fill:#FFFFFF;" width="0.094" height="23.056"/>
		<path style="fill:#FFFFFF;" d="M102.307,33.093l-0.068-0.065l0.034,0.032l-0.046-0.01c0.013-0.088,0.38-10.609-0.519-12.256
			l0.083-0.045c0.471,0.864,0.594,4.161,0.613,6.775C102.422,29.909,102.352,33.046,102.307,33.093z"/>
	</g>
	<path style="fill:#FFFFFF;" d="M12.058,61.478c0.151-0.428,0.287-0.832,0.287-1.26v-0.02h3.337v0.062
		c-0.462,0.141-0.598,0.731-0.598,1.198l1.271,9.97c0.117,0.953,0.213,1.501,0.988,2.069v0.061h-3.725v-0.061
		c0.676-0.222,0.791-0.83,0.791-1.523l-1.099-9.786L8.989,73.822c-0.966-0.773-1.236-1.322-1.698-2.457l-3.665-9.156l-1.098,8.729
		c-0.156,1.241-0.289,2.132,0.615,2.559v0.061H0v-0.061c0.812-0.753,0.927-1.746,1.08-2.843l1.099-8.505
		c0.078-0.569,0.291-1.381-0.596-1.889v-0.062h3.375v0.02c0,0.327,0.153,0.63,0.269,0.914l3.627,8.953L12.058,61.478z"/>
	<path style="fill:#FFFFFF;" d="M25.923,73.822c-1.273-0.081-2.546-0.489-2.546-2.11v-3.21c-0.56,0.308-1.215,0.468-1.851,0.632
		c-0.928,0.222-1.969,0.447-1.969,1.683c0,1.26,1.079,1.665,2.104,1.665c0.463,0,0.924-0.142,1.389-0.284l-1.139,1.52
		c-0.327,0.064-0.674,0.104-1.003,0.104c-1.946,0-3.295-1.299-3.295-2.985c0-3.775,5.765-2.028,5.765-4.242
		c0-0.974-1.137-1.3-1.851-1.3c-0.984,0-1.755,0.382-2.626,0.814l1.295-2.034l1.251-0.117c2.082,0,3.667,0.628,3.685,3.087v3.042
		c0,1.606,0.039,2.212,1.64,2.397L25.923,73.822z"/>
	<path style="fill:#FFFFFF;" d="M28.373,60.198c0.445,0,0.945,0.02,1.235-0.326h0.057v11.433c0,0.932-0.134,1.686,0.716,2.192v0.062
		h-3.186v-0.062c0.833-0.506,0.717-1.26,0.717-2.192v-8.852c0-0.935,0.116-1.686-0.717-2.196v-0.06H28.373z"/>
	<path style="fill:#FFFFFF;" d="M33.003,60.198c0.441,0,0.945,0.02,1.233-0.326h0.058v11.433c0,0.932-0.132,1.686,0.716,2.192v0.062
		h-3.183v-0.062c0.829-0.506,0.709-1.26,0.709-2.192v-8.852c0-0.935,0.12-1.686-0.709-2.196v-0.06H33.003z"/>
	<path style="fill:#FFFFFF;" d="M39.186,70.359c0-2.126,1.627-3.5,3.565-3.5c0.862,0,1.604,0.239,2.247,0.834
		c0.687,0.64,1.106,1.573,1.106,2.535c0,2.041-1.617,3.513-3.514,3.513C40.747,73.741,39.186,72.368,39.186,70.359 M44.744,70.526
		c0-1.372-0.7-2.733-2.14-2.733c-1.251,0-2.058,1.035-2.058,2.307c0,1.303,0.741,2.708,2.113,2.708
		C43.896,72.808,44.744,71.801,44.744,70.526"/>
	<path style="fill:#FFFFFF;" d="M48.51,71.506c0,0.693-0.08,1.641,0.58,2.01v0.043h-2.316v-0.043
		c0.594-0.355,0.513-0.878,0.513-1.517v-4.022h-0.673l0.673-0.933v-0.342c0-0.794-0.028-1.231,0.498-1.855
		c0.621-0.737,1.507-0.907,2.398-0.907l0.914,0.086l-0.942,1.09c-0.231-0.155-0.419-0.239-0.684-0.239
		c-0.797,0-0.959,0.392-0.959,1.232v0.935h1.564l0.227-0.086h0.043v1.246h-0.043c-0.107-0.184-0.281-0.227-0.498-0.227H48.51V71.506
		z"/>
	<path style="fill:#FFFFFF;" d="M56.048,70.811c0,0.54-0.163,1.997,1.28,1.997c0.188,0,0.362-0.072,0.537-0.141l-0.714,1.008
		c-0.133,0.039-0.282,0.066-0.431,0.066c-2.085,0-1.898-2.264-1.898-2.817v-2.947h-0.914V67.47c1.267-0.23,1.603-1.222,1.603-2.539
		h0.537v2.112h1.266c0.173,0,0.376,0,0.51-0.086h0.041v1.289h-0.041c-0.213-0.297-0.619-0.271-0.968-0.271h-0.807V70.811z"/>
	<path style="fill:#FFFFFF;" d="M59.237,64.235c0.311,0,0.633,0,0.821-0.225h0.042v3.74c0.404-0.608,1.316-0.893,1.976-0.893
		c1.86,0,2.301,1.177,2.301,2.55v2.579c0,0.65-0.08,1.174,0.513,1.529v0.043h-2.234v-0.043c0.594-0.355,0.501-0.878,0.501-1.529
		v-2.155c0-1.147-0.352-2.038-1.509-2.038c-1.184,0-1.548,0.693-1.548,1.955v2.238c0,0.65-0.081,1.174,0.511,1.529v0.043h-2.247
		v-0.043c0.593-0.355,0.511-0.878,0.511-1.529V65.81c0-0.65,0.081-1.175-0.511-1.53v-0.045H59.237z"/>
	<path style="fill:#FFFFFF;" d="M67.042,70.073c0.029,1.727,1.172,2.734,2.691,2.734c0.809,0,1.588-0.243,2.207-0.75h0.041
		l-0.675,1.331c-0.575,0.255-1.22,0.351-1.852,0.351c-2.289,0-3.866-1.514-3.866-3.482c0-1.97,1.361-3.4,3.364-3.4
		c1.831,0,3.082,1.389,3.029,3.216H67.042z M70.568,69.253c-0.146-0.994-0.767-1.46-1.736-1.46c-0.904,0-1.576,0.566-1.735,1.46
		H70.568z"/>
	<path style="fill:#FFFFFF;" d="M78.462,71.852l2.451,0.241c1.272,0.124,2.603-0.301,3.566-1.195h0.057l-0.866,2.659h-8.045v-0.061
		c0.984-0.368,0.867-1.864,0.867-2.782v-7.656c0-0.931,0.117-2.413-0.867-2.799v-0.062h6.172c0.33,0,0.657,0.04,0.907-0.102h0.059
		v2.376h-0.059c-0.597-0.733-1.387-0.814-2.277-0.814c-0.675,0-1.346,0.022-1.965,0.143v3.778h2.297c0.305,0,0.614,0,0.845-0.123
		h0.058v2.152h-0.058c-0.305-0.589-1.116-0.565-1.718-0.565h-1.424V71.852z"/>
	<path style="fill:#FFFFFF;" d="M86.542,64.218c0.424,0,0.888-0.019,1.197-0.263h0.056v1.603c0.678-1.097,1.43-1.603,2.721-1.603
		c1.37,0,2.297,0.568,3.009,1.767c0.753-1.099,1.659-1.767,3.085-1.767c2.74,0,3.455,1.644,3.455,4.223v3.126
		c0,0.875-0.116,1.868,0.85,2.193v0.062h-3.339v-0.062c0.848-0.506,0.731-1.258,0.731-2.193v-2.617c0-2.071-0.615-3.394-2.159-3.394
		c-1.736,0-2.219,1.159-2.219,3.069v2.942c0,0.935-0.117,1.686,0.735,2.193v0.062h-3.221v-0.062c0.85-0.506,0.73-1.258,0.73-2.193
		v-2.803c0-2.13-1.003-3.208-2.196-3.208c-1.468,0-2.181,0.956-2.181,2.904v3.107c0,0.935-0.115,1.665,0.713,2.193v0.062H85.31
		v-0.062c0.848-0.506,0.732-1.258,0.732-2.193v-4.852c0-0.935,0.117-1.668-0.732-2.172v-0.062H86.542z"/>
	<path style="fill:#FFFFFF;" d="M103.246,64.218c0.443,0,0.927-0.019,1.256-0.325h0.056v7.411c0,0.935-0.116,1.686,0.734,2.193
		v0.061h-3.223v-0.061c0.85-0.506,0.733-1.258,0.733-2.193v-4.852c0-0.935,0.116-1.668-0.733-2.172v-0.062H103.246z M103.614,63
		c-0.714,0-1.256-0.588-1.256-1.341c0-0.71,0.62-1.196,1.256-1.196c0.653,0,1.156,0.588,1.156,1.258
		C104.77,62.39,104.267,63,103.614,63"/>
	<path style="fill:#FFFFFF;" d="M108.03,64.218c0.441,0,0.905-0.019,1.175-0.263h0.059v1.542c0.425-0.913,1.312-1.542,2.276-1.542
		l0.693,0.061v1.869c-0.212-0.246-0.557-0.326-0.885-0.326c-1.466,0-2.083,0.813-2.083,2.904v2.841c0,0.935-0.117,1.686,0.733,2.193
		v0.062h-3.223v-0.062c0.848-0.506,0.733-1.258,0.733-2.193v-4.852c0-0.935,0.115-1.668-0.714-2.172v-0.062H108.03z"/>
	<path style="fill:#FFFFFF;" d="M120.837,73.822c-1.271-0.081-2.546-0.489-2.546-2.11v-3.21c-0.559,0.308-1.213,0.468-1.853,0.632
		c-0.924,0.222-1.968,0.447-1.968,1.683c0,1.26,1.082,1.665,2.104,1.665c0.464,0,0.926-0.142,1.387-0.284l-1.135,1.52
		c-0.33,0.064-0.677,0.104-1.004,0.104c-1.95,0-3.297-1.299-3.297-2.985c0-3.775,5.766-2.028,5.766-4.242
		c0-0.974-1.138-1.3-1.853-1.3c-0.982,0-1.755,0.382-2.621,0.814l1.291-2.034l1.254-0.117c2.082,0,3.664,0.628,3.685,3.087v3.042
		c0,1.606,0.038,2.212,1.641,2.397L120.837,73.822z"/>
	<path style="fill:#FFFFFF;" d="M124.888,69.619c0,0.771-0.233,2.865,1.832,2.865c0.269,0,0.521-0.104,0.772-0.206l-1.023,1.441
		c-0.192,0.063-0.404,0.104-0.615,0.104c-2.994,0-2.722-3.247-2.722-4.04v-4.223h-1.311v-0.73c1.813-0.325,2.297-1.749,2.297-3.634
		h0.769v3.026h1.811c0.25,0,0.542,0,0.736-0.122h0.057v1.848h-0.057c-0.312-0.429-0.888-0.388-1.39-0.388h-1.158V69.619z"/>
	<path style="fill:#FFFFFF;" d="M130.233,68.562c0.039,2.477,1.674,3.921,3.856,3.921c1.158,0,2.277-0.346,3.162-1.079h0.057
		l-0.962,1.91c-0.83,0.365-1.755,0.508-2.663,0.508c-3.278,0-5.535-2.17-5.535-4.993c0-2.822,1.949-4.874,4.823-4.874
		c2.623,0,4.416,1.988,4.337,4.608H130.233z M135.283,67.387c-0.212-1.422-1.098-2.093-2.488-2.093
		c-1.293,0-2.258,0.813-2.488,2.093H135.283z"/>
	<path style="fill:#FFFFFF;" d="M144.348,65.943c-0.712-0.403-1.522-0.648-2.37-0.648c-0.638,0-1.793,0.162-1.793,0.974
		c0,1.808,5.226,1.159,5.226,4.385c0,1.889-1.831,3.168-4.321,3.168c-0.867,0-1.697-0.142-2.509-0.489l-0.674-1.988
		c1.121,0.748,2.295,1.137,3.625,1.137c0.792,0,2.124-0.284,2.124-1.321c0-2.048-5.227-1.399-5.227-4.488
		c0-2.149,2.121-2.717,3.779-2.717c0.714,0,1.448,0.059,2.14,0.262V65.943z"/>
</g>
<g id="Layer_1">
</g>
</svg>
