<?xml version="1.0" encoding="iso-8859-1"?>
<!-- Generator: Adobe Illustrator 18.1.1, SVG Export Plug-In . SVG Version: 6.00 Build 0)  -->
<svg version="1.1" xmlns="http://www.w3.org/2000/svg" xmlns:xlink="http://www.w3.org/1999/xlink" x="0px" y="0px"
	 viewBox="0 0 146.369 27.317" style="enable-background:new 0 0 146.369 27.317;" xml:space="preserve">
<g id="reed-exhibitions">
	<path style="fill:#FFFFFF;" d="M23.518,0c0.98,0.294,1.993,0.508,2.934,0.898c3.003,1.247,4.041,4.009,2.695,6.979
		c-0.947,2.088-2.436,3.761-4.254,5.072c-2.106,1.519-4.354,2.842-6.545,4.243c-0.142,0.091-0.322,0.125-0.564,0.215
		c-0.793-0.546-1.608-1.108-2.49-1.716c0.344-1.013,0.632-1.969,1.005-2.89c0.108-0.266,0.442-0.464,0.708-0.639
		c2.01-1.328,3.998-2.692,5.628-4.483c0.649-0.713,1.244-1.52,1.671-2.38c0.773-1.557,0.261-2.814-1.364-3.443
		c-0.733-0.283-1.547-0.433-2.335-0.486c-3.939-0.263-7.354,1.216-10.557,3.311c-2.431,1.59-4.476,3.566-5.66,6.272
		c-1.058,2.418-1.047,4.787,0.731,6.915c1.082,1.295,2.543,2.016,4.141,2.452c3.528,0.961,6.998,0.537,10.434-0.499
		c0.43-0.13,0.856-0.272,1.349-0.429c1.008,0.706,2.026,1.418,3.118,2.182c-0.539,1.305-1.04,2.554-1.581,3.785
		c-0.075,0.172-0.331,0.303-0.532,0.375c-4.512,1.631-9.115,2.125-13.797,0.889c-2.653-0.7-4.965-2.026-6.58-4.333
		c-1.74-2.486-2.076-5.202-1.228-8.091c1.144-3.903,3.669-6.792,6.825-9.184c3.424-2.594,7.327-4.083,11.541-4.8
		C19.131,0.162,19.444,0.073,19.759,0C21.012,0,22.265,0,23.518,0z"/>
	<path style="fill:#FFFFFF;" d="M145.918,19.398c-1.306,1.576-4.208,1.862-5.744,0.486c0.177-0.383,0.367-0.794,0.57-1.235
		c0.466,0.17,0.828,0.356,1.21,0.427c0.459,0.086,0.952,0.16,1.398,0.074c0.276-0.053,0.666-0.396,0.691-0.64
		c0.03-0.289-0.203-0.724-0.457-0.897c-0.489-0.333-1.081-0.51-1.617-0.779c-0.945-0.474-1.411-1.237-1.332-2.31
		c0.077-1.038,0.705-1.619,1.627-1.938c1.173-0.406,2.302-0.233,3.459,0.266c0,0.492,0,0.951,0,1.453
		c-1.111-0.007-3.564-0.784-3.409,0.392c0.072,0.544,0.748,0.645,1.121,0.826c0.9,0.436,1.853,0.775,2.483,1.62
		c0.23,0.451,0.451,0.785,0.451,1.203C146.369,18.679,146.148,19.197,145.918,19.398z"/>
	<path style="fill:#FFFFFF;" d="M38.199,20.539c-0.772,0-1.328,0-1.97,0c0-3.86,0-7.667,0-11.589
		c1.91-0.074,3.799-0.398,5.496,0.689c1.46,0.936,1.697,3.347,0.51,4.665c-0.33,0.366-0.729,0.67-1.094,1
		c1.033,1.693,2.067,3.387,3.193,5.233c-0.9,0-1.579,0-2.292,0c-0.768-1.276-1.524-2.541-2.289-3.8
		c-0.313-0.515-0.683-0.95-1.553-0.684C38.199,17.468,38.199,18.943,38.199,20.539z M38.194,14.266
		c1.059,0.258,1.98-0.053,2.441-0.781c0.407-0.644,0.408-1.581,0.002-2.124c-0.475-0.635-1.402-0.842-2.442-0.512
		C38.194,11.962,38.194,13.095,38.194,14.266z"/>
	<path style="fill:#FFFFFF;" d="M65.473,12.299c0-1.065,0-2.148,0-3.325c0.706,0,1.274,0,1.908,0c0,3.734,0,7.375,0,11.003
		c-1.163,0.985-3.833,1.051-5.348,0.145c-1.389-0.831-2.122-2.635-1.752-4.309C60.789,13.523,62.09,12.621,65.473,12.299z
		 M65.406,18.905c0-1.569,0-3.123,0-4.645c-0.928-0.436-2.017-0.172-2.688,0.604c-0.672,0.778-0.743,2.335-0.146,3.239
		C63.125,18.943,64.197,19.274,65.406,18.905z"/>
	<path style="fill:#FFFFFF;" d="M103.035,12.489c0.735-0.046,1.288-0.159,1.821-0.098c1.414,0.161,2.556,0.828,3.07,2.202
		c0.609,1.628,0.45,3.218-0.684,4.602c-1.34,1.634-4.128,2.076-6.054,0.938c0-3.659,0-7.368,0-11.167c0.613,0,1.162,0,1.848,0
		C103.035,10.166,103.035,11.3,103.035,12.489z M103.139,18.919c1.254,0.347,2.235-0.007,2.782-0.926
		c0.622-1.045,0.506-2.409-0.184-3.235c-0.499-0.597-1.789-0.864-2.598-0.336C103.139,15.888,103.139,17.394,103.139,18.919z"/>
	<path style="fill:#FFFFFF;" d="M90.387,15.111c0,1.749,0,3.538,0,5.412c-0.665,0-1.216,0-1.853,0c0-3.847,0-7.654,0-11.554
		c0.574,0,1.127,0,1.847,0c0,1.368,0,2.718,0,4.121c0.851-0.26,1.521-0.533,2.218-0.662c1.179-0.219,2.296,0.404,2.57,1.549
		c0.51,2.137,0.137,4.314,0.238,6.554c-0.691,0-1.241,0-1.856,0c-0.041-0.354-0.1-0.644-0.103-0.934
		c-0.011-1.226-0.005-2.452-0.005-3.678c0-0.633,0.039-1.317-0.63-1.65c-0.69-0.343-1.309,0.03-1.894,0.382
		C90.772,14.74,90.655,14.877,90.387,15.111z"/>
	<path style="fill:#FFFFFF;" d="M75.053,18.908c0.735,0,1.382,0,2.028,0c0.621,0,1.243,0,1.963,0c0,0.585,0,1.077,0,1.636
		c-2,0-3.913,0-5.806,0c-0.073-0.446-0.098-10.26-0.101-11.562c1.913,0,3.853,0,5.946,0c-0.197,0.601-0.356,1.082-0.555,1.687
		c-1.162,0-2.295,0-3.489,0c0,1.083,0,2.02,0,3.095c1.122,0,2.231,0,3.432,0c0,0.611,0,1.085,0,1.702c-1.126,0-2.234,0-3.419,0
		C75.053,16.66,75.053,17.714,75.053,18.908z"/>
	<path style="fill:#FFFFFF;" d="M126.909,20.755c-2.322-0.016-3.875-1.696-3.858-4.172c0.017-2.419,1.752-4.271,3.963-4.228
		c2.235,0.043,3.891,1.851,3.873,4.229C130.867,19.037,129.212,20.772,126.909,20.755z M125.057,16.614
		c0.01,0.61,0.142,1.186,0.424,1.691c0.672,1.202,2.35,1.183,3-0.031c0.592-1.106,0.591-2.279-0.022-3.375
		c-0.686-1.227-2.399-1.203-3.047,0.041C125.155,15.433,125.046,15.994,125.057,16.614z"/>
	<path style="fill:#FFFFFF;" d="M139.088,20.543c-0.66,0-1.193,0-1.804,0c-0.037-0.33-0.095-0.617-0.097-0.905
		c-0.01-1.302,0.002-2.604-0.007-3.906c-0.009-1.481-0.853-1.993-2.162-1.308c-0.306,0.16-0.583,0.376-0.957,0.62
		c0,0.885,0,1.781,0,2.677c0,0.897,0,1.794,0,2.789c-0.646,0-1.196,0-1.952,0c-0.027-2.584-0.029-5.158,0.013-7.84
		c0.554-0.027,0.988-0.049,1.426-0.071c0.177,0.23,0.325,0.422,0.453,0.588c0.693-0.258,1.349-0.578,2.041-0.744
		c1.414-0.338,2.786,0.494,2.946,1.933c0.182,1.634,0.125,3.295,0.16,4.944C139.157,19.688,139.114,20.057,139.088,20.543z"/>
	<path style="fill:#FFFFFF;" d="M50.664,18.682c0.142,0.366,0.273,0.705,0.447,1.153c-0.353,0.202-0.65,0.421-0.982,0.552
		c-1.523,0.599-3.038,0.607-4.324-0.49c-1.267-1.081-1.585-2.579-1.328-4.177c0.216-1.346,0.801-2.488,2.145-3.056
		c1.868-0.79,3.807,0.074,4.452,2.048c0.232,0.709,0.241,1.491,0.38,2.428c-1.797,0-3.376,0-4.954,0
		C46.561,18.914,47.748,19.329,50.664,18.682z M49.258,15.536c-0.037-1.046-0.511-1.553-1.383-1.549
		c-0.869,0.003-1.39,0.558-1.383,1.549C47.412,15.536,48.334,15.536,49.258,15.536z"/>
	<path style="fill:#FFFFFF;" d="M59.382,17.145c-1.779,0-3.34,0-4.886,0c-0.137,1.685,1.254,2.192,4.069,1.556
		c0.147,0.327,0.304,0.675,0.496,1.101c-1.008,0.811-2.12,1.051-3.321,0.926c-1.251-0.131-2.231-0.73-2.81-1.874
		c-0.86-1.7-0.824-3.405,0.217-4.996c0.72-1.1,1.813-1.634,3.164-1.446c1.513,0.21,2.427,1.139,2.813,2.564
		C59.297,15.608,59.288,16.289,59.382,17.145z M57.256,15.552c-0.128-1.17-0.665-1.655-1.604-1.556
		c-0.785,0.083-1.247,0.672-1.167,1.556C55.388,15.552,56.296,15.552,57.256,15.552z"/>
	<path style="fill:#FFFFFF;" d="M30.591,23.929c-0.414-0.143-1.242-0.351-2.002-0.705c-1.905-0.889-3.569-2.111-4.838-3.817
		c-0.431-0.579-0.833-1.242-0.408-1.928c0.434-0.701,1.203-0.505,1.849-0.319c2.633,0.759,4.754,2.286,6.444,4.424
		c0.184,0.232,0.32,0.51,0.437,0.784C32.487,23.33,32.071,23.938,30.591,23.929z"/>
	<path style="fill:#FFFFFF;" d="M82.347,16.463c-0.845-1.257-1.635-2.432-2.529-3.76c0.789,0,1.389,0,2.117,0
		c0.515,0.751,1.088,1.586,1.747,2.547c0.642-0.934,1.202-1.749,1.775-2.584c0.619,0,1.203,0,2.007,0
		c-0.92,1.371-1.746,2.603-2.619,3.905c0.855,1.277,1.705,2.547,2.655,3.966c-0.825,0-1.431,0-2.107,0
		c-0.592-0.86-1.199-1.743-1.91-2.777c-0.492,0.729-0.929,1.377-1.365,2.025c-0.3,0.445-0.402,0.665-0.402,0.665
		s-1.46,0.186-2.069-0.039C80.543,19.101,81.425,17.811,82.347,16.463z"/>
	<path style="fill:#FFFFFF;" d="M114.212,14.135c-0.465-0.079-0.923-0.031-1.335-0.1c0-0.459,0-0.866,0-1.327
		c0.414-0.064,0.859,0.029,1.294-0.038c0.043-0.52,0.001-1.181,0.052-1.796c0.518-0.164,1.049-0.332,1.737-0.55
		c0.045,0.798-0.058,1.608-0.015,2.36c0.769,0.039,1.618-0.06,2.495-0.015c-0.194,0.527-0.349,0.949-0.517,1.402
		c-0.618,0.048-1.083-0.017-1.794,0.038c0,0.528-0.098,1.125-0.098,1.614c0,0.776-0.011,1.553,0.005,2.329
		c0.019,0.907,0.376,1.155,1.257,0.896c0.237-0.07,0.468-0.157,0.799-0.268c0.165,0.368,0.322,0.717,0.465,1.037
		c-0.758,0.922-2.505,1.31-3.473,0.823c-0.657-0.33-0.921-0.882-0.92-1.594c0.001-1.277,0-2.555-0.006-3.832
		C114.156,14.843,114.229,14.464,114.212,14.135z"/>
	<path style="fill:#FFFFFF;" d="M109.617,12.673c0.654,0,1.188,0,1.802,0c0,2.638,0,5.21,0,7.861c-0.612,0-1.162,0-1.802,0
		C109.617,17.892,109.617,15.322,109.617,12.673z"/>
	<path style="fill:#FFFFFF;" d="M121.643,20.547c-0.581,0-1.09,0-1.684,0c0-2.64,0-5.216,0-7.867c0.568,0,1.078,0,1.684,0
		C121.643,15.278,121.643,17.856,121.643,20.547z"/>
	<path style="fill:#FFFFFF;" d="M99.115,20.546c-0.6,0-1.108,0-1.704,0c0-2.633,0-5.21,0-7.863c0.579,0,1.106,0,1.704,0
		C99.115,15.309,99.115,17.87,99.115,20.546z"/>
	<path style="fill:#FFFFFF;" d="M121.988,10.316c-0.013,0.612-0.543,1.11-1.183,1.111c-0.667,0.001-1.219-0.543-1.195-1.177
		c0.025-0.647,0.583-1.136,1.261-1.103C121.507,9.177,122.002,9.695,121.988,10.316z"/>
	<path style="fill:#FFFFFF;" d="M99.438,10.326c-0.02,0.612-0.554,1.106-1.192,1.101c-0.665-0.004-1.217-0.557-1.186-1.187
		c0.032-0.646,0.594-1.129,1.272-1.093C98.966,9.182,99.458,9.706,99.438,10.326z"/>
	<path style="fill:#FFFFFF;" d="M111.705,10.275c-0.018,0.667-0.549,1.168-1.216,1.147c-0.632-0.02-1.132-0.533-1.126-1.156
		c0.007-0.696,0.481-1.133,1.213-1.119C111.241,9.16,111.723,9.641,111.705,10.275z"/>
</g>
<g id="Layer_1">
</g>
</svg>
