<?xml version="1.0" encoding="iso-8859-1"?>
<!-- Generator: Adobe Illustrator 18.1.1, SVG Export Plug-In . SVG Version: 6.00 Build 0)  -->
<svg version="1.1" xmlns="http://www.w3.org/2000/svg" xmlns:xlink="http://www.w3.org/1999/xlink" x="0px" y="0px"
	 viewBox="0 0 138.688 32.187" style="enable-background:new 0 0 138.688 32.187;" xml:space="preserve">
<g id="yahoo">
	<path id="path3223_1_" sodipodi:nodetypes="ccccccc" inkscape:connector-curvature="0" style="fill:#FFFFFF;" d="M136.913,0.37
		c1.064,0.178,1.774,0.829,1.774,1.95c0,0.371-0.152,0.893-0.255,1.335c-0.713,3.142-3.496,14.242-4.668,21.651l-1.078-1.078
		l3.431-22.79L136.913,0.37z"/>
	<path id="path3201_1_" sodipodi:nodetypes="cccc" inkscape:connector-curvature="0" style="fill:#FFFFFF;" d="M67.555,3.387
		c-1.436,0.344-2.846,0.335-4.233,0l2.201,2.286L67.555,3.387z"/>
	<path id="path3193_1_" sodipodi:nodetypes="cccc" inkscape:connector-curvature="0" style="fill:#FFFFFF;" d="M45.55,3.387
		c1.436,0.344,2.846,0.335,4.233,0l-2.201,2.286L45.55,3.387z"/>
	<path id="path3181_1_" sodipodi:nodetypes="ccccc" inkscape:connector-curvature="0" style="fill:#FFFFFF;" d="M33.125,3.378
		c3.246,8.215,8.355,20.65,10.9,25.403l-3.768-1.152L30.932,4.311L33.125,3.378z"/>
	<path id="path3175_1_" sodipodi:nodetypes="cccc" inkscape:connector-curvature="0" style="fill:#FFFFFF;" d="M30.173,3.377
		c1.037,0.348,1.897,0.369,2.952,0l-2.098,1.289L30.173,3.377z"/>
	<path id="path3177_1_" sodipodi:nodetypes="cccccc" inkscape:connector-curvature="0" style="fill:#FFFFFF;" d="M31.664,4.274
		l9.501,23.302c-0.562,0.608-0.813,0.928-1.36,1.213c-2.754-7.092-5.711-14.187-8.217-21.188l-1.237-2.097L31.664,4.274z"/>
	<path id="path3173_1_" sodipodi:nodetypes="cccccc" inkscape:connector-curvature="0" style="fill:#FFFFFF;" d="M23.493,28.78
		l-2.805-0.993l9.876-23.172l1.101-0.341v3.431C30.129,12.136,26.232,21.858,23.493,28.78L23.493,28.78z"/>
	<path id="path3167_1_" sodipodi:nodetypes="ccccc" inkscape:connector-curvature="0" style="fill:#FFFFFF;" d="M21.166,0
		l0.931,2.117l2.371-1.101L25.432,0C23.907,0.346,22.532,0.357,21.166,0L21.166,0z"/>
	<path id="path3165_1_" sodipodi:nodetypes="ccccccc" inkscape:connector-curvature="0" style="fill:#FFFFFF;" d="M14.478,18.457
		l-1.609,0.593l-1.016-1.778L21.928,1.185l0.72-0.247C23.643,0.714,24.727,0.473,25.433,0C23.834,2.161,18.007,12.264,14.478,18.457
		L14.478,18.457z"/>
	<path id="path3163_1_" sodipodi:nodetypes="ccccccc" inkscape:connector-curvature="0" style="fill:#FFFFFF;" d="M12.276,18.203
		L12.7,17.78l9.967-16.845L21.166,0c-1.203,2.241-5.642,9.495-8.466,14.139l-1.355,2.539L12.276,18.203z"/>
	<path id="path3161_1_" sodipodi:nodetypes="cccccc" inkscape:connector-curvature="0" style="fill:#FFFFFF;" d="M4.233,0
		C6.443,3.916,9.835,9.394,12.7,14.139v3.641l-0.677,0.677L2.117,0.847L4.233,0z"/>
	<path id="path3159_1_" sodipodi:nodetypes="ccccc" inkscape:connector-curvature="0" style="fill:#FFFFFF;" d="M2.6,1.065L4.233,0
		C2.481,0.374,1.748,0.398,0,0l0.677,0.762L2.6,1.065z"/>
	<path id="path3157_1_" sodipodi:nodetypes="cccccc" inkscape:connector-curvature="0" style="fill:#FFFFFF;" d="M12.7,17.78
		l-0.762,1.1l-1.016-0.423C9.03,15.188,3.47,5.228,0,0c0.703,0.51,1.654,0.789,2.751,0.968L12.7,17.78z"/>
	<path id="path3155_1_" inkscape:connector-curvature="0" style="fill:#FFFFFF;" d="M14.732,32.088l-2.879-1.355l0.254-12.022
		L12.7,17.78l1.778,0.677L14.732,32.088z"/>
	<path id="path3153_1_" sodipodi:nodetypes="ccccc" inkscape:connector-curvature="0" style="fill:#FFFFFF;" d="M12.7,31.156
		l-2.032,0.932l0.254-13.631L12.7,17.78V31.156z"/>
	<path id="path3171_1_" sodipodi:nodetypes="cccccc" inkscape:connector-curvature="0" style="fill:#FFFFFF;" d="M19.303,28.786
		c3.533-7.2,7.46-16.856,10.869-25.411l1.492,0.899l-9.643,23.589l-1.956,0.668L19.303,28.786z"/>
	<path id="path3179_1_" sodipodi:nodetypes="ccccc" inkscape:connector-curvature="0" style="fill:#FFFFFF;" d="M41.064,27.534
		l2.964,1.248c-1.137-0.287-2.677-0.397-4.223,0.007l0.579-1.425L41.064,27.534z"/>
	<path id="path3185_1_" sodipodi:nodetypes="ccccccc" inkscape:connector-curvature="0" style="fill:#FFFFFF;" d="M25.062,20.457
		l2.084-0.895c3.002,0.106,6.004,0.105,9.006,0l2.114,0.921l-1.968,0.43h-9.743L25.062,20.457z"/>
	<path id="path3183_1_" sodipodi:nodetypes="ccccc" inkscape:connector-curvature="0" style="fill:#FFFFFF;" d="M26.45,21.336
		l-1.399-0.879c4.397-0.067,8.801-0.062,13.212,0.026l-1.399,0.854C33.392,21.224,29.921,21.237,26.45,21.336z"/>
	<path id="path3191_1_" sodipodi:nodetypes="cccccc" inkscape:connector-curvature="0" style="fill:#FFFFFF;" d="M49.783,28.786
		L46.82,27.77V4.995l0.847-0.423l2.116-1.185C49.344,11.838,49.334,20.304,49.783,28.786z"/>
	<path id="path3189_1_" sodipodi:nodetypes="cccccc" inkscape:connector-curvature="0" style="fill:#FFFFFF;" d="M47.666,27.601
		v0.593l-2.117,0.593c0.337-8.453,0.369-16.918,0-25.4l2.117,1.185V27.601z"/>
	<path id="path3199_1_" sodipodi:nodetypes="cccccc" inkscape:connector-curvature="0" style="fill:#FFFFFF;" d="M63.322,28.786
		l2.963-1.016V4.995l-0.847-0.423l-2.117-1.185C63.761,11.838,63.771,20.304,63.322,28.786z"/>
	<path id="path3205_1_" sodipodi:nodetypes="ccccccc" inkscape:connector-curvature="0" style="fill:#FFFFFF;" d="M47.675,16.034
		l1.779-0.793c4.728,0.12,9.461,0.111,14.2,0l1.785,0.793l-2.208,0.528H49.439L47.675,16.034z"/>
	<path id="path3207_1_" inkscape:connector-curvature="0" style="fill:#FFFFFF;" d="M82.498,3.377
		c-8.315,0-12.464,5.199-12.464,12.758c0,9.467,6.28,12.747,12.356,12.747c7.217,0,12.39-4.06,12.39-12.724
		C94.78,7.821,89.883,3.377,82.498,3.377L82.498,3.377z M82.249,4.584c0.078-0.002,0.157,0,0.236,0c5.492,0,9.525,3.74,9.525,11.557
		c0,7.806-4.028,11.546-9.515,11.546c-5.986,0-9.503-4.29-9.503-11.525C72.992,7.978,77.326,4.684,82.249,4.584z"/>
	<path id="path3209_1_" inkscape:connector-curvature="0" style="fill:#FFFFFF;" d="M82.469,3.044
		c-8.981,0-13.692,5.694-13.692,13.076c0,8.079,5.143,13.007,13.679,13.007c9.227,0,13.734-5.553,13.734-12.922
		C96.19,7.988,90.808,3.044,82.469,3.044L82.469,3.044z M82.495,3.885c7.091,0,11.793,4.265,11.793,12.271
		c0,8.319-4.969,12.219-11.898,12.219c-5.834,0-11.864-3.149-11.864-12.24C70.526,8.877,74.512,3.885,82.495,3.885L82.495,3.885z"/>
	<path id="path3213_1_" inkscape:connector-curvature="0" style="fill:#FFFFFF;" d="M113.528,2.078
		c-8.439,0-14.221,4.771-14.221,14.07c0,9.122,5.379,14.219,14.255,14.219c6.723,0,14.089-3.453,14.089-14.089
		C127.651,4.799,119.605,2.078,113.528,2.078L113.528,2.078z M113.482,3.094c6.716,0,11.663,4.08,11.663,13.078
		c0,9.782-5.984,12.954-11.652,12.954c-6.056,0-11.573-3.554-11.573-13.147C101.921,6.036,108.035,3.094,113.482,3.094z"/>
	<path id="path3215_1_" inkscape:connector-curvature="0" style="fill:#FFFFFF;" d="M113.472,1.514
		c-8.943,0-15.779,5.078-15.779,14.52c0,7.779,4.547,14.626,15.854,14.626c9.572,0,15.822-5.263,15.822-14.488
		C129.368,7.472,123.538,1.514,113.472,1.514L113.472,1.514z M113.528,2.462c5.912,0,13.74,2.65,13.74,13.816
		c0,10.347-7.168,13.705-13.708,13.705c-8.636,0-13.867-4.957-13.867-13.832C99.693,7.105,105.318,2.462,113.528,2.462z"/>
	<path id="path3217_1_" sodipodi:nodetypes="ccccc" inkscape:connector-curvature="0" style="fill:#FFFFFF;" d="M130.058,30.239
		c0-1.092,0.665-2.108,1.996-2.108c1.274,0,2.228,0.762,2.228,1.98c0,1.517-1.003,2.076-1.923,2.076
		C131.087,32.187,130.058,31.527,130.058,30.239L130.058,30.239z"/>
	<path id="path3221_1_" sodipodi:nodetypes="ccccccc" inkscape:connector-curvature="0" style="fill:#FFFFFF;" d="M132.185,25.063
		c1.032-7.296,1.66-14.964,2.263-22.61c0-1.524,1.007-2.12,2.023-2.12c0.178,0,0.441,0.037,0.441,0.037l-0.276,1.828l-3.62,22.663
		L132.185,25.063z"/>
	<path id="path3151_1_" sodipodi:nodetypes="cccsc" inkscape:connector-curvature="0" style="fill:#FFFFFF;" d="M10.668,32.088
		l2.035-1.492l2.028,1.492c0,0-1.125-0.205-2.028-0.205C11.888,31.883,10.668,32.088,10.668,32.088z"/>
	<path id="path3169_1_" sodipodi:nodetypes="ccccc" inkscape:connector-curvature="0" style="fill:#FFFFFF;" d="M19.303,28.789
		l2.839-1.228c0.433,0.52,0.819,0.961,1.351,1.221c-1.022-0.276-2.57-0.401-4.19,0.005V28.789z"/>
	<path id="path3187_1_" sodipodi:nodetypes="cccc" inkscape:connector-curvature="0" style="fill:#FFFFFF;" d="M45.55,28.786
		c1.375-0.331,2.782-0.346,4.228,0l-2.111-1.185L45.55,28.786z"/>
	<path id="path3203_1_" sodipodi:nodetypes="cccccc" inkscape:connector-curvature="0" style="fill:#FFFFFF;" d="M49.454,16.973
		l-1.783-0.939c5.922,0.062,11.844,0.072,17.767,0l-1.781,0.934C58.923,16.903,54.188,16.907,49.454,16.973L49.454,16.973z"/>
	<path id="path3197_1_" sodipodi:nodetypes="cccccc" inkscape:connector-curvature="0" style="fill:#FFFFFF;" d="M65.439,27.601
		v0.593l2.116,0.593c-0.337-8.453-0.369-16.918,0-25.4l-2.116,1.185V27.601z"/>
	<path id="path3195_1_" sodipodi:nodetypes="cccc" inkscape:connector-curvature="0" style="fill:#FFFFFF;" d="M67.555,28.786
		c-1.374-0.331-2.782-0.346-4.228,0l2.111-1.185L67.555,28.786z"/>
	<path id="path3219_1_" sodipodi:nodetypes="cccc" inkscape:connector-curvature="0" style="fill:#FFFFFF;" d="M133.119,24.208
		l-0.938,0.856c0.629-0.11,1.114,0.054,1.587,0.244L133.119,24.208z"/>
	
		<path id="path3507_1_" sodipodi:cx="1214.9834" sodipodi:cy="1693.0604" sodipodi:type="arc" sodipodi:rx="22.494734" sodipodi:ry="21.289658" style="fill:#FFFFFF;" d="
		M138.637,2.181c0,0.996-0.924,1.803-2.063,1.803s-2.063-0.807-2.063-1.803c0-0.995,0.924-1.802,2.063-1.802
		S138.637,1.186,138.637,2.181z"/>
</g>
<g id="Layer_1">
</g>
</svg>
