<?xml version="1.0" encoding="iso-8859-1"?>
<!-- Generator: Adobe Illustrator 18.1.1, SVG Export Plug-In . SVG Version: 6.00 Build 0)  -->
<svg version="1.1" xmlns="http://www.w3.org/2000/svg" xmlns:xlink="http://www.w3.org/1999/xlink" x="0px" y="0px"
	 viewBox="0 0 121.023 104.053" style="enable-background:new 0 0 121.023 104.053;" xml:space="preserve">
<g id="nissan">
	<path style="fill:#FFFFFF;" d="M84.044,47.577c-0.967-2.286-0.608-2.033-2.75-2.111c-0.198-0.006-0.628-0.015-1.266-0.015
		c-0.643,0-0.811,0.004-1.295,0.015c-2.026,0.034-1.706-0.105-2.4,1.379c0-0.003-3.472,8.055-4.977,11.407l-0.068,0.144
		c-0.28,0.564-0.075,0.588,0.374,0.588l3.146-0.007c0.204,0,0.334-0.12,0.383-0.235c0,0,0.44-1.048,1.025-2.473h7.642
		c0.577,1.392,1.005,2.413,1.024,2.463c0.067,0.158,0.211,0.255,0.381,0.255l3.245-0.008c0.481,0,0.587,0.064,0.401-0.38
		C88.316,57.172,84.604,48.894,84.044,47.577z M77.394,53.437c0.993-2.397,1.957-4.719,1.982-4.779
		c0.057-0.132,0.159-0.188,0.314-0.207c0.071-0.007,0.234-0.008,0.399-0.008c0.157,0,0.311,0.001,0.365,0.008
		c0.135,0.02,0.264,0.084,0.318,0.234c0.241,0.67,1.064,2.695,1.915,4.752H77.394z"/>
	<path style="fill:#FFFFFF;" d="M35.876,45.161H32.69c-0.251,0-0.321,0.126-0.321,0.349l0.006,12.907
		c0,0.36,0.079,0.423,0.427,0.423h3.015c0.337,0,0.407-0.086,0.407-0.423l-0.006-12.899C36.218,45.266,36.143,45.161,35.876,45.161z
		"/>
	<path style="fill:#FFFFFF;" d="M29.517,45.276l-2.704,0.029c-0.347,0-0.413,0.081-0.413,0.421l0.028,9.928
		c0,0-5.155-8.129-5.838-9.222c-0.792-1.258-1.137-1.174-3.432-1.174c-2.297,0-3.031,0.019-3.031,0.019
		c-0.351,0.003-0.414,0.08-0.414,0.421l0.027,12.838c0,0.351,0.074,0.421,0.416,0.421l2.627-0.003c0.357,0,0.42-0.082,0.42-0.418
		l-0.02-10.059c0,0,4.328,7.001,5.791,9.348c0.74,1.194,0.878,1.128,3.003,1.128h3.549c0.344,0,0.421-0.067,0.421-0.421
		L29.94,45.696C29.94,45.356,29.877,45.276,29.517,45.276z"/>
	<path style="fill:#FFFFFF;" d="M106.517,45.416h-2.596c-0.343,0-0.408,0.08-0.408,0.415v10.128c0,0-5.213-8.321-5.892-9.399
		c-0.785-1.24-1.063-1.162-3.333-1.162c-2.272,0-2.999,0.019-2.999,0.019c-0.347,0.003-0.411,0.08-0.411,0.415l0.007,12.723
		c0.003,0.346,0.076,0.415,0.413,0.415l2.598-0.004c0.353,0,0.418-0.08,0.418-0.412v-9.984c0,0,4.28,6.9,5.728,9.215
		c0.732,1.177,0.862,1.181,2.97,1.181h3.505c0.345,0,0.418-0.066,0.418-0.414V45.831C106.935,45.495,106.873,45.416,106.517,45.416z
		"/>
	<path style="fill:#FFFFFF;" d="M49.103,50.525c-1.253-0.127-4.688-0.462-5.809-0.569c-0.413-0.039-0.515-0.147-0.547-0.424
		c-0.017-0.126-0.017-0.23-0.017-0.309c0-0.125,0.005-0.194,0.017-0.287c0.034-0.393,0.166-0.611,0.57-0.611c0.255,0,9.3,0,9.3,0
		c0.338,0.003,0.419-0.065,0.419-0.425v-2.189c0-0.327-0.097-0.387-0.419-0.388h-9.443c-2.463,0-3.853,0.931-4.228,2.854
		c-0.088,0.431-0.103,0.958-0.103,1.326c0,0.454,0.024,0.915,0.074,1.272c0.148,1.103,0.791,2.393,3.626,2.684
		c2.25,0.231,5.485,0.511,6.579,0.61c0.485,0.044,0.578,0.43,0.608,0.645c0.011,0.083,0.015,0.206,0.015,0.372
		c0,0.146,0.017,0.181,0.002,0.39c-0.027,0.307-0.183,0.374-0.565,0.374c-0.184,0-9.865,0-9.865,0c-0.349,0-0.418,0.072-0.418,0.418
		l0.02,2.26c0,0.355,0.082,0.424,0.417,0.424h9.739c2.412,0,3.988-0.422,4.415-2.592c0.09-0.458,0.091-0.934,0.091-1.354
		c0-0.648-0.048-1.231-0.085-1.45C53.108,51.281,51.452,50.764,49.103,50.525z"/>
	<path style="fill:#FFFFFF;" d="M65.792,50.661c-1.255-0.128-4.688-0.463-5.81-0.57c-0.412-0.038-0.53-0.288-0.561-0.565
		c-0.015-0.125-0.015-0.23-0.015-0.31c0-0.125,0.005-0.194,0.015-0.287c0.039-0.393,0.229-0.548,0.635-0.548
		c0.254,0,9.24-0.005,9.24-0.005c0.336,0.003,0.416-0.066,0.416-0.426v-2.119c0-0.327-0.095-0.387-0.416-0.388h-9.443
		c-2.461,0-3.795,0.867-4.17,2.79c-0.083,0.431-0.106,0.958-0.106,1.327c0,0.453,0.03,0.915,0.08,1.272
		c0.146,1.102,0.79,2.313,3.622,2.605c2.248,0.23,5.488,0.511,6.577,0.609c0.487,0.044,0.578,0.51,0.61,0.725
		c0.013,0.083,0.018,0.207,0.018,0.372c0,0.147-0.04,0.158-0.058,0.368c-0.024,0.307-0.159,0.453-0.542,0.453
		c-0.182,0-9.867,0-9.867,0c-0.347,0-0.416,0.072-0.416,0.418l0.002,2.181c-0.002,0.355,0.081,0.424,0.415,0.424h9.741
		c2.409,0,3.986-0.422,4.414-2.591c0.09-0.458,0.146-0.912,0.146-1.334c0-0.648-0.044-1.23-0.083-1.449
		C69.796,51.34,68.141,50.899,65.792,50.661z"/>
	<g>
		<path style="fill:#FFFFFF;" d="M118.961,41.501c-0.303-1.136-0.535-1.505-1.488-1.767c-0.891-0.243-3.754-0.816-6.622-1.384
			c-1.507-5.328-3.892-10.346-7.091-14.913c-3.142-4.486-6.995-8.435-11.451-11.738c-4.473-3.316-9.437-5.894-14.755-7.663
			c-5.469-1.82-11.194-2.743-17.017-2.743c-5.792,0-11.494,0.926-16.948,2.753c-5.3,1.775-10.257,4.361-14.734,7.687
			c-4.457,3.311-8.323,7.268-11.492,11.763c-3.223,4.573-5.646,9.596-7.203,14.93c-0.532,0.097-4.882,0.89-6.158,1.176
			c-1.281,0.289-1.462,0.67-1.845,1.828c-0.377,1.145-0.863,6.539-0.863,10.699c0,4.355,0.424,8.064,0.628,9.847
			c0.223,1.941,0.763,2.48,1.563,2.722c0.727,0.222,3.984,0.904,6.74,1.301c3.477,11.369,10.404,20.858,20.035,27.443
			c8.791,6.01,19.544,9.319,30.278,9.319c10.697,0,21.457-3.345,30.298-9.422c9.633-6.619,16.534-16.068,19.961-27.329
			c0.859-0.037,4.12-0.701,6.743-1.26l0.077-0.016c0.787-0.167,1.254-0.813,1.385-1.923c0.015-0.124,0.039-0.29,0.07-0.503
			c0.197-1.358,0.659-4.539,0.659-10.213C119.73,45.119,119.192,42.362,118.961,41.501z M118.889,62.28
			c-0.031,0.213-0.056,0.381-0.071,0.508c-0.121,1.023-0.539,1.618-1.242,1.765l-0.076,0.016c-3.801,0.811-6.206,1.258-6.773,1.258
			h-0.068l-0.019,0.066c-3.408,11.248-10.293,20.687-19.909,27.295c-8.811,6.055-19.534,9.389-30.195,9.389
			c-10.698,0-21.414-3.297-30.175-9.287c-9.612-6.571-16.521-16.046-19.981-27.4l-0.017-0.056l-0.058-0.009
			c-2.76-0.395-6.041-1.082-6.77-1.303c-0.622-0.188-1.2-0.525-1.434-2.567c-0.203-1.78-0.626-5.483-0.626-9.827
			c0-4.144,0.481-9.508,0.854-10.642c0.352-1.067,0.471-1.426,1.712-1.707c1.35-0.303,6.157-1.176,6.206-1.185l0.056-0.01
			l0.016-0.054c1.55-5.335,3.97-10.358,7.193-14.93c3.157-4.479,7.01-8.423,11.451-11.722c4.461-3.314,9.401-5.891,14.683-7.66
			c5.435-1.82,11.118-2.743,16.89-2.743c5.803,0,11.51,0.919,16.96,2.733c5.3,1.764,10.246,4.333,14.703,7.637
			c4.44,3.292,8.28,7.227,11.41,11.696c3.198,4.566,5.581,9.583,7.08,14.912l0.015,0.054l0.055,0.011
			c2.884,0.571,5.774,1.149,6.664,1.392c0.872,0.239,1.073,0.564,1.36,1.637c0.229,0.855,0.763,3.593,0.763,10.545
			C119.547,57.755,119.086,60.926,118.889,62.28z"/>
		<path style="fill:#FFFFFF;" d="M60.536,104.053c-10.993,0-22.005-3.389-31.008-9.544C19.875,87.91,12.87,78.464,9.231,67.157
			c-2.55-0.402-5.362-0.99-6.124-1.222c-1.856-0.562-2.291-2.242-2.471-3.812C0.429,60.318,0,56.562,0,52.129
			c0-4.103,0.469-9.707,0.928-11.103c0.457-1.382,0.871-2.252,2.788-2.685c1.018-0.229,3.849-0.754,5.432-1.045
			c1.601-5.185,4.006-10.074,7.157-14.545c3.247-4.607,7.21-8.663,11.778-12.056c4.586-3.407,9.665-6.056,15.095-7.875
			C48.765,0.949,54.605,0,60.536,0c5.962,0,11.825,0.945,17.426,2.809c5.448,1.813,10.534,4.454,15.117,7.851
			c4.569,3.388,8.519,7.437,11.739,12.035c3.129,4.465,5.5,9.353,7.054,14.539c2.699,0.536,5.089,1.02,5.941,1.252
			c1.678,0.461,2.079,1.487,2.398,2.681c0.303,1.13,0.812,4.054,0.812,10.926c0,5.761-0.471,9.008-0.672,10.394
			c-0.03,0.205-0.053,0.362-0.067,0.479c-0.266,2.251-1.619,2.866-2.401,3.031l-0.075,0.016c-3.445,0.735-5.151,1.047-6.028,1.181
			c-3.593,11.188-10.569,20.583-20.212,27.209C82.514,100.627,71.494,104.053,60.536,104.053z M60.536,2.769
			c-5.632,0-11.176,0.9-16.479,2.676c-5.153,1.726-9.972,4.24-14.323,7.472c-4.332,3.218-8.088,7.063-11.165,11.43
			c-3.139,4.454-5.497,9.348-7.008,14.545l-0.225,0.773l-0.928,0.216c-1.137,0.207-4.938,0.904-6.082,1.161
			c-0.407,0.092-0.508,0.159-0.518,0.167c-0.044,0.064-0.158,0.408-0.249,0.684c-0.297,0.903-0.789,6.062-0.789,10.236
			c0,4.268,0.417,7.922,0.618,9.678c0.157,1.367,0.405,1.442,0.525,1.478c0.59,0.179,3.768,0.858,6.578,1.261l0.873,0.133
			l0.238,0.777c3.39,11.128,10.124,20.364,19.491,26.767c8.546,5.843,19.003,9.062,29.444,9.062c10.402,0,20.865-3.254,29.462-9.162
			c9.372-6.44,16.082-15.64,19.404-26.604l0.282-0.984h1.042c0.131-0.002,1.068-0.07,6.503-1.229l0.075-0.016
			c0.033-0.009,0.168-0.135,0.229-0.653c0.015-0.127,0.039-0.29,0.068-0.494c0.2-1.372,0.652-4.476,0.652-10.048
			c0-6.987-0.55-9.582-0.719-10.211c-0.12-0.449-0.186-0.601-0.218-0.653l-0.001,0c-0.013,0-0.082-0.031-0.234-0.072
			c-0.908-0.248-4.318-0.924-6.574-1.371l-0.779-0.154l-0.27-0.775c-1.475-5.242-3.795-10.127-6.909-14.574
			c-3.05-4.354-6.792-8.189-11.122-11.399c-4.347-3.222-9.172-5.728-14.341-7.449C71.771,3.667,66.202,2.769,60.536,2.769z"/>
	</g>
	<g>
		<path style="fill:#FFFFFF;" d="M96.741,36.654c-3.037-6.672-7.901-12.349-14.066-16.416c-6.492-4.282-14.147-6.546-22.138-6.546
			c-7.815,0-15.386,2.244-21.895,6.49c-6.296,4.106-11.25,9.825-14.327,16.538l-0.063,0.136l0.15-0.007
			c8.658-0.393,23.654-0.816,36.117-0.816c12.484,0,30.815,0.574,36.136,0.75l0.148,0.005L96.741,36.654z M24.545,36.66
			c3.068-6.622,7.973-12.265,14.197-16.324c6.479-4.226,14.016-6.46,21.795-6.46c7.955,0,15.576,2.253,22.037,6.515
			c6.095,4.021,10.912,9.622,13.938,16.205c-5.504-0.182-23.619-0.745-35.993-0.745C48.123,35.85,33.227,36.268,24.545,36.66z"/>
		<path style="fill:#FFFFFF;" d="M22.193,38.246l0.947-2.065c3.179-6.935,8.295-12.842,14.796-17.082
			c6.72-4.383,14.535-6.7,22.601-6.7c8.244,0,16.146,2.337,22.851,6.759c6.368,4.201,11.393,10.066,14.531,16.96l0.926,2.034
			l-2.234-0.076c-5.301-0.176-23.575-0.75-36.091-0.75c-12.443,0-27.414,0.422-36.058,0.815L22.193,38.246z M60.536,15.168
			c-7.527,0-14.819,2.161-21.088,6.25c-5.403,3.524-9.783,8.285-12.767,13.856c8.842-0.361,22.424-0.717,33.838-0.717
			c11.09,0,26.832,0.454,33.877,0.677c-2.94-5.542-7.24-10.271-12.534-13.764C75.612,17.347,68.237,15.168,60.536,15.168z"/>
	</g>
	<g>
		<path style="fill:#FFFFFF;" d="M96.846,66.822c-4.645,0.465-30.781,0.773-36.31,0.773c-5.635,0-29.036-0.187-36.308-0.749
			l-0.153-0.011l0.062,0.14c2.983,6.739,7.809,12.483,13.954,16.611c6.536,4.391,14.298,6.713,22.445,6.713
			c8.164,0,15.931-2.319,22.461-6.704c6.151-4.131,10.973-9.887,13.941-16.646l0.062-0.144L96.846,66.822z M82.896,83.444
			c-6.5,4.366-14.232,6.673-22.359,6.673c-8.111,0-15.837-2.311-22.343-6.682c-6.074-4.082-10.851-9.748-13.825-16.394
			c7.444,0.552,30.57,0.737,36.168,0.737c5.472,0,31.127-0.303,36.171-0.76C93.748,73.683,88.975,79.361,82.896,83.444z"/>
		<path style="fill:#FFFFFF;" d="M60.536,91.593c-8.404,0-16.414-2.398-23.166-6.933c-6.348-4.264-11.333-10.198-14.415-17.161
			l-0.935-2.117l2.307,0.176c7.235,0.559,30.585,0.745,36.21,0.745c5.516,0,31.575-0.306,36.181-0.767l2.353-0.249l-0.945,2.178
			c-3.069,6.988-8.05,12.935-14.407,17.204C76.974,89.198,68.958,91.593,60.536,91.593z M26.49,68.464
			c2.897,5.584,7.158,10.359,12.424,13.898c6.293,4.227,13.769,6.462,21.622,6.462c7.87,0,15.352-2.231,21.638-6.453
			c5.271-3.54,9.53-8.325,12.416-13.925c-8.032,0.381-29.232,0.626-34.054,0.626C55.444,69.071,35.564,68.916,26.49,68.464z"/>
	</g>
</g>
<g id="Layer_1">
</g>
</svg>
