<?xml version="1.0" encoding="iso-8859-1"?>
<!-- Generator: Adobe Illustrator 18.1.1, SVG Export Plug-In . SVG Version: 6.00 Build 0)  -->
<svg version="1.1" xmlns="http://www.w3.org/2000/svg" xmlns:xlink="http://www.w3.org/1999/xlink" x="0px" y="0px"
	 viewBox="0 0 113.842 88.35" style="enable-background:new 0 0 113.842 88.35;" xml:space="preserve">
<g id="delmonte">
	<g>
		<g>
			<path style="fill:#FFFFFF;" d="M48.707,58.037l-0.118-0.241c0.361-0.271,0.838-0.57,1.429-0.897c0.244-0.133,0.43-0.2,0.561-0.2
				c0.075,0,0.137,0.028,0.185,0.085c0.05,0.057,0.074,0.134,0.074,0.232c0,0.09-0.032,0.265-0.094,0.523
				c-0.549,2.224-0.824,3.533-0.824,3.924c0,0.09,0.018,0.156,0.052,0.196c0.035,0.041,0.079,0.062,0.133,0.062
				c0.074,0,0.169-0.029,0.285-0.088c0.301-0.153,0.637-0.414,1.009-0.782c0.371-0.368,0.712-0.789,1.022-1.266
				c0.186-0.283,0.348-0.628,0.49-1.038c0.14-0.409,0.278-0.962,0.415-1.659c0.081-0.015,0.295-0.078,0.642-0.188l0.089,0.088
				l-0.21,1.07c-0.101,0.56-0.224,1.168-0.368,1.826c-0.144,0.658-0.242,1.12-0.295,1.389c-0.02,0.133-0.03,0.264-0.03,0.389
				c0,0.099,0.017,0.169,0.053,0.213c0.035,0.043,0.08,0.065,0.135,0.065c0.055,0,0.128-0.026,0.22-0.079
				c0.092-0.052,0.332-0.231,0.719-0.535l0.129,0.242c-0.664,0.536-1.136,0.882-1.413,1.039c-0.204,0.113-0.362,0.17-0.475,0.17
				c-0.075,0-0.142-0.036-0.202-0.109c-0.06-0.072-0.091-0.176-0.091-0.31c0-0.079,0.009-0.178,0.026-0.295
				c0.035-0.185,0.117-0.549,0.248-1.092l0.239-1.038l-0.037-0.017c-0.423,0.573-0.677,0.909-0.759,1.006
				c-0.312,0.362-0.667,0.708-1.068,1.04c-0.4,0.331-0.781,0.578-1.141,0.739c-0.117,0.051-0.218,0.076-0.305,0.076
				c-0.117,0-0.218-0.054-0.305-0.161c-0.087-0.107-0.13-0.275-0.13-0.502c0-0.305,0.076-0.765,0.23-1.379
				c0.224-0.908,0.385-1.625,0.483-2.154c0.064-0.34,0.095-0.565,0.095-0.675c0-0.062-0.014-0.109-0.041-0.141
				c-0.027-0.031-0.065-0.047-0.112-0.047C49.52,57.516,49.205,57.69,48.707,58.037z"/>
			<path style="fill:#FFFFFF;" d="M59.647,61.199l0.065,0.241l-0.835,0.686c-0.264,0.201-0.473,0.337-0.63,0.408
				c-0.052,0.027-0.101,0.041-0.145,0.041c-0.067,0-0.132-0.037-0.195-0.112c-0.063-0.075-0.095-0.167-0.095-0.278
				c0-0.417,0.13-1.111,0.391-2.084l-0.038-0.017c-0.305,0.416-0.546,0.722-0.721,0.918c-0.318,0.366-0.641,0.682-0.969,0.948
				c-0.328,0.268-0.626,0.459-0.895,0.577c-0.078,0.031-0.151,0.047-0.22,0.047c-0.11,0-0.197-0.051-0.263-0.153
				c-0.11-0.165-0.165-0.444-0.165-0.836c0-0.502,0.093-1.092,0.281-1.767c0.187-0.675,0.41-1.262,0.667-1.761
				c0.129-0.251,0.312-0.465,0.55-0.642c0.39-0.29,0.744-0.492,1.057-0.607c0.213-0.074,0.449-0.111,0.706-0.111
				c0.177,0,0.344,0.014,0.499,0.041c0.155,0.028,0.353,0.084,0.595,0.171l0.387-0.231l0.129,0.106
				c-0.252,0.869-0.474,1.69-0.668,2.464c-0.15,0.464-0.252,0.811-0.307,1.044c-0.096,0.365-0.171,0.713-0.226,1.043
				c-0.008,0.063-0.012,0.116-0.012,0.159c0,0.079,0.015,0.14,0.047,0.183c0.027,0.027,0.065,0.041,0.112,0.041
				c0.063,0,0.144-0.024,0.244-0.075C59.095,61.596,59.313,61.447,59.647,61.199z M58.781,57.499
				c-0.152-0.071-0.311-0.123-0.478-0.155c-0.168-0.033-0.344-0.05-0.528-0.05c-0.355,0-0.625,0.057-0.809,0.17
				c-0.086,0.051-0.18,0.18-0.283,0.388c-0.208,0.415-0.388,0.879-0.54,1.391c-0.236,0.798-0.355,1.501-0.355,2.108
				c0,0.105,0.009,0.184,0.027,0.235c0.018,0.05,0.046,0.088,0.082,0.114c0.037,0.025,0.072,0.038,0.105,0.038
				c0.078,0,0.196-0.051,0.355-0.152c0.315-0.208,0.646-0.505,0.994-0.893c0.347-0.387,0.633-0.827,0.858-1.321
				C58.435,58.879,58.625,58.254,58.781,57.499z"/>
			<path style="fill:#FFFFFF;" d="M62.826,61.162l0.1,0.241c-0.102,0.09-0.341,0.27-0.719,0.542
				c-0.377,0.272-0.683,0.456-0.918,0.554c-0.114,0.051-0.22,0.076-0.318,0.076c-0.111,0-0.198-0.041-0.263-0.121
				c-0.064-0.08-0.097-0.206-0.097-0.38c0-0.145,0.013-0.288,0.041-0.43c0.039-0.236,0.227-1.093,0.562-2.573
				c0.252-1.061,0.412-1.753,0.478-2.079c0.167-0.797,0.284-1.439,0.355-1.926c0.016-0.106,0.025-0.21,0.025-0.312
				c0-0.11-0.027-0.187-0.08-0.233c-0.052-0.045-0.161-0.067-0.327-0.067l-0.543-0.006l0.029-0.242
				c0.368-0.04,0.688-0.097,0.96-0.169c0.272-0.073,0.566-0.177,0.885-0.315l0.153,0.094c-0.079,0.358-0.365,1.705-0.86,4.041
				c-0.4,1.89-0.629,3.048-0.688,3.477c-0.012,0.074-0.018,0.139-0.018,0.194c0,0.083,0.019,0.148,0.058,0.194
				c0.039,0.048,0.082,0.071,0.13,0.071c0.035,0,0.075-0.009,0.117-0.029c0.086-0.035,0.238-0.121,0.454-0.261L62.826,61.162z"/>
			<path style="fill:#FFFFFF;" d="M63.791,58.056l-0.101-0.242c0.698-0.48,1.165-0.777,1.402-0.89
				c0.236-0.113,0.423-0.17,0.556-0.17c0.075,0,0.132,0.025,0.172,0.076c0.055,0.074,0.083,0.183,0.083,0.324
				c0,0.067-0.015,0.161-0.042,0.283c-0.051,0.236-0.159,0.665-0.324,1.289c-0.427,1.589-0.641,2.527-0.641,2.814
				c0,0.083,0.016,0.142,0.045,0.18c0.03,0.037,0.07,0.056,0.122,0.056c0.079,0,0.179-0.029,0.3-0.088
				c0.121-0.059,0.342-0.209,0.663-0.452l0.119,0.242c-0.639,0.487-1.121,0.814-1.445,0.979c-0.153,0.079-0.282,0.118-0.385,0.118
				c-0.098,0-0.186-0.046-0.263-0.135c-0.077-0.09-0.115-0.217-0.115-0.377c0-0.126,0.015-0.265,0.042-0.419
				c0.027-0.153,0.096-0.43,0.206-0.831c0.456-1.651,0.684-2.672,0.684-3.066c0-0.083-0.011-0.139-0.033-0.168
				c-0.021-0.029-0.052-0.044-0.092-0.044c-0.047,0-0.105,0.014-0.172,0.042C64.542,57.594,64.28,57.753,63.791,58.056z
				 M65.308,54.714c0-0.221,0.069-0.407,0.208-0.559c0.139-0.151,0.297-0.228,0.475-0.228c0.139,0,0.248,0.042,0.33,0.127
				c0.082,0.085,0.122,0.202,0.122,0.352c0,0.206-0.059,0.394-0.178,0.566c-0.119,0.171-0.278,0.257-0.476,0.257
				c-0.139,0-0.254-0.047-0.344-0.142C65.353,54.992,65.308,54.868,65.308,54.714z"/>
			<path style="fill:#FFFFFF;" d="M69.806,60.994l0.136,0.242c-0.357,0.287-0.712,0.555-1.067,0.803
				c-0.353,0.248-0.614,0.407-0.781,0.477c-0.09,0.039-0.18,0.059-0.267,0.059c-0.103,0-0.192-0.048-0.266-0.144
				c-0.076-0.097-0.113-0.256-0.113-0.476c0-0.095,0.009-0.202,0.024-0.322c0.015-0.12,0.042-0.283,0.082-0.487l0.271-1.21
				c0.092-0.429,0.236-1.155,0.428-2.178l-1.001,0.019l0.03-0.177c0.317-0.118,0.533-0.202,0.649-0.25
				c0.116-0.047,0.25-0.11,0.403-0.187c0.061-0.306,0.106-0.538,0.132-0.698c0.027-0.159,0.089-0.603,0.187-1.333l0.506-0.219
				l0.407-0.206l0.14,0.106c-0.157,0.633-0.242,0.973-0.254,1.02c-0.031,0.137-0.128,0.605-0.289,1.403
				c0.178,0.008,0.321,0.011,0.428,0.011c0.392,0,0.671-0.028,0.838-0.086l0.059,0.049l-0.143,0.602
				c-0.167,0-0.595-0.018-1.283-0.056c-0.071,0.327-0.182,0.883-0.334,1.668c-0.151,0.785-0.251,1.355-0.297,1.71
				c-0.02,0.142-0.029,0.252-0.029,0.33c0,0.09,0.021,0.159,0.064,0.204c0.044,0.045,0.096,0.067,0.16,0.067
				c0.051,0,0.104-0.011,0.159-0.031c0.114-0.049,0.258-0.135,0.432-0.258L69.806,60.994z"/>
			<path style="fill:#FFFFFF;" d="M70.32,64.602l0.583-0.391l0.124,0.042c-0.009,0.074-0.012,0.135-0.012,0.183
				c0,0.243,0.076,0.442,0.227,0.601c0.151,0.156,0.335,0.235,0.551,0.235c0.142,0,0.29-0.036,0.445-0.109
				c0.155-0.072,0.296-0.183,0.422-0.331c0.169-0.195,0.353-0.514,0.554-0.958c0.201-0.444,0.426-1.082,0.678-1.919l0.452-1.629
				c-0.286,0.436-0.579,0.814-0.877,1.136c-0.515,0.566-0.855,0.899-1.022,0.999c-0.167,0.1-0.306,0.15-0.416,0.15
				c-0.125,0-0.232-0.065-0.318-0.194c-0.138-0.197-0.206-0.483-0.206-0.86c0-0.149,0.028-0.463,0.083-0.941
				c0.094-0.86,0.141-1.617,0.141-2.273c0-0.262-0.013-0.453-0.041-0.571c-0.016-0.074-0.044-0.129-0.082-0.165
				c-0.027-0.024-0.061-0.036-0.099-0.036c-0.117,0-0.362,0.15-0.737,0.449c-0.066,0.053-0.115,0.09-0.146,0.109l-0.159-0.242
				c0.454-0.39,0.873-0.706,1.257-0.948c0.217-0.136,0.39-0.205,0.518-0.205c0.113,0,0.203,0.049,0.272,0.148
				c0.069,0.099,0.103,0.299,0.103,0.602c0,0.256-0.035,0.795-0.106,1.618c-0.087,0.964-0.13,1.663-0.13,2.095
				c0,0.201,0.023,0.337,0.071,0.408c0.04,0.051,0.093,0.076,0.161,0.076c0.067,0,0.134-0.017,0.201-0.053
				c0.15-0.083,0.329-0.231,0.537-0.445c0.207-0.214,0.405-0.46,0.591-0.736c0.309-0.451,0.569-0.974,0.783-1.566
				c0.134-0.36,0.313-1.014,0.538-1.959c0.232-0.036,0.53-0.111,0.893-0.225l0.129,0.118c-0.11,0.232-0.218,0.505-0.324,0.819
				c-0.185,0.535-0.438,1.356-0.76,2.463c-0.26,0.899-0.454,1.537-0.584,1.915c-0.242,0.723-0.492,1.312-0.75,1.769
				c-0.259,0.455-0.572,0.86-0.942,1.213c-0.275,0.267-0.551,0.46-0.827,0.58c-0.278,0.12-0.54,0.179-0.787,0.179
				c-0.174,0-0.345-0.042-0.513-0.127c-0.169-0.085-0.295-0.201-0.38-0.349c-0.084-0.148-0.127-0.306-0.127-0.476
				C70.291,64.744,70.3,64.677,70.32,64.602z"/>
		</g>
		<g>
			<path style="fill:#FFFFFF;" d="M38.946,57.726c0.055-0.573,0.162-1.089,0.279-1.552c0.702-2.775,2.397-4.391,5.243-3.853
				c2.171,0.411,2.972,2.484,2.21,5.789c-0.713,3.089-2.993,4.323-5.165,3.874C39.415,61.55,38.738,59.872,38.946,57.726
				 M37.601,57.721c-0.201,1.892,0.332,3.832,2.426,4.616c2.528,0.946,6.005-0.158,7.374-2.896c1.89-3.778,0.9-6.611-1.584-7.491
				c-2.87-1.017-6.025,0.195-7.414,3.012C38.013,55.753,37.707,56.73,37.601,57.721"/>
			<path style="fill:#FFFFFF;" d="M40.603,64.479c0.493-1.055,1.315-1.558,2.641-1.164c0.988,0.294,4.007,1.421,4.47,1.584
				c1.604,0.569,3.697,0.92,4.303-0.156c0.301-0.534,0.479-0.978,0.479-0.978c0.196-0.234,0.019-0.811,0.039-0.695
				c-0.156-0.234-0.293-0.087-0.332,0.031c0.058,0.909-0.323,1.447-2.172,1.408c-0.821-0.017-1.614-0.216-2.758-0.665
				c-0.771-0.303-1.352-0.445-1.536-0.508c-0.88-0.303-2.248-0.681-2.953-0.774c-1.576-0.205-2.127,1.14-2.407,1.614
				C40.251,64.391,40.535,64.625,40.603,64.479z"/>
		</g>
	</g>
	<g>
		<polygon style="fill:#FFDD00;" points="56.888,3.09 56.894,3.097 56.899,3.09 		"/>
		<polygon style="fill:#FFDD00;" points="56.901,11.248 56.895,11.24 56.888,11.248 		"/>
		<g>
			<path style="fill:#FFFFFF;" d="M94.133,8.594c-4.969-2.087-14.16-5.206-26.163-1.206c-2.286-1.27-4.254-1.333-6.414-0.952
				c0.126-2.666-3.429-5.779-4.635-6.786c-1.207,1.007-4.763,4.119-4.635,6.786c-2.16-0.381-4.128-0.318-6.414,0.952
				c-12.002-4-21.194-0.881-26.163,1.206C5.363,14.625-6.332,36.311,3.834,58.507c6.222,13.589,20.066,15.24,27.432,12.318
				c1.399,8.637,7.493,9.969,13.462,11.366c7.006,1.641,10.002,4.159,12.164,6.159h0.057c2.162-2,5.159-4.518,12.164-6.159
				c5.97-1.397,12.063-2.698,13.462-11.335c7.366,2.922,21.209,1.256,27.434-12.333C120.172,36.327,108.479,14.625,94.133,8.594z
				 M59.738,9.748c0.389-0.35,0.722-0.833,2.223-0.969c1.087-0.098,2.673-0.003,4.128,0.271c-3.229,1.273-5.437,2.381-8.626,4.35
				C57.462,13.4,58.502,10.857,59.738,9.748z M55.536,4.85c0.967-1.241,1.33-1.716,1.358-1.753c0.028,0.037,0.391,0.512,1.36,1.753
				c1.283,1.644,0.798,2.999,0.063,4.23c-0.768,1.286-1.191,1.882-1.421,2.16c-0.23-0.277-0.656-0.873-1.423-2.16
				C54.737,7.849,54.252,6.494,55.536,4.85z M51.828,8.779c1.5,0.135,1.833,0.619,2.222,0.969c1.238,1.108,2.277,3.652,2.277,3.652
				c-3.191-1.969-5.397-3.077-8.625-4.35C49.157,8.776,50.74,8.681,51.828,8.779z M107.791,57.71
				c-7.455,14.224-20.961,12.966-26.234,10.967c-1.332,8.223-7.014,10.017-13.66,11.343c-6.709,1.337-8.942,2.073-11.002,4.636
				c-2.061-2.564-4.293-3.299-11.004-4.636c-6.646-1.326-12.328-3.12-13.659-11.343c-5.276,1.998-18.779,3.257-26.234-10.967
				c-8.981-17.133-0.855-40.379,15.721-47.232c6.448-2.667,20.863-5.048,35.176,5.066C71.208,5.43,85.623,7.811,92.069,10.478
				C108.644,17.331,116.773,40.576,107.791,57.71z"/>
		</g>
		<g>
			<path style="fill:none;" d="M100.438,39.629c1.081-1.184-0.203-3.15-0.634-3.58C99.334,35.58,99,35.767,99,36.377v4.7
				C100,40.363,99.999,40.11,100.438,39.629z"/>
			<path style="fill:none;" d="M69.368,36.355c-0.405-0.356-0.595-0.536-1.072-0.263C68.119,36.194,68,36.351,68,36.692
				c0,0.233,0,2.276,0,4.14c0,1.599,0,3.048,0,3.048c0,0.456,0.074,0.509,0.3,0.736c0.229,0.229,0.311,0.226,0.704,0.509
				C69.572,45.534,70,45.104,70,44.659c0,0,0-6.774,0-7.434C70,36.793,69.648,36.604,69.368,36.355z"/>
			<path style="fill:#FFFFFF;" d="M17.594,29.699c-2.206,0.037-4.494,0.321-5.293,0.55l-1.391,3.962
				c0.187-0.095,3.951-1.09,5.455-1.109C16.647,33.099,20,32.5,20,35.837c0,0,0,5.73,0,6.664c0,2.452-1.902,2.17-2.861,2.179
				L17,33.442V33.44l-4,1.73c0,0,0,8.832,0,9.811c0,1.335-1.069,2.368-1.651,3.368c0,0,4.138,0,6.211,0
				c2.82,0,6.44-1.018,6.44-5.859c0,0,0-4.631,0-6.814C24,31.579,21.089,29.644,17.594,29.699z"/>
			<path style="fill:#FFFFFF;" d="M33.197,39.136c0.513-0.543,1.498-1.76,0.601-3.393c-0.527-0.958-0.603-1.05-1.061-1.709
				c-1.156-1.665-2.623-0.938-3.063-0.74c-1.289,0.58-2.678,1.333-3.094,1.571c-1.259,0.719-1.382,1.227-1.457,1.828
				c-0.056,0.444-0.086,1.092-0.1,1.825c-0.041,2.177,0.069,5.108,0.124,5.679c0.136,1.387,0.672,2.129,1.556,2.641
				c0.725,0.42,1.224,0.855,4.629,1.875l2.035-3.073c-1.728-0.413-2.016-0.507-2.876-0.837c-0.563-0.216-1.672-0.546-1.672-1.87
				C30.302,41.917,32.088,40.311,33.197,39.136z M30.386,39.755C29.946,40.238,30,40.489,29,41.204c0,0,0-4.399,0-4.7
				c0-0.61,0.307-0.797,0.775-0.328C30.208,36.607,31.467,38.572,30.386,39.755z"/>
			<path style="fill:#FFFFFF;" d="M39.224,43.149c0-1.002-0.184-13.651-0.184-13.651L35,31.264c0,0,0,11.371,0,12.645
				c0,1.767,0.594,2.697,1.656,3.479c0.92,0.675,2.432,1.342,2.432,1.342l2.056-3.027C40.13,45.15,39.224,44.813,39.224,43.149z"/>
			<path style="fill:#FFFFFF;" d="M61.538,43.438c0,0,0.01-9.44,0.001-10.531c-0.006-0.981-0.016-1.047-0.627-1.714
				c-0.398-0.436-0.932-0.804-1.466-1.126c-0.93-0.565-1.721-0.48-2.809,0.055c-0.556,0.273-1.278,0.639-1.758,0.884
				c-0.443-0.376-0.893-0.649-1.437-0.977c-0.461-0.278-1.274-0.634-2.615,0.141c-0.798,0.461-1.195,0.698-1.833,1.063
				c-1.118-0.838-1.863-1.162-2.387-1.344l-3.129,2.565c0,0,0.734,0.286,1.339,0.592C45.861,33.571,46,33.448,46,34.794
				c0,1.001,0,13.556,0,13.556h3.665l-0.002-14.589c0.109-0.069,0.705-0.416,0.923-0.534C50.988,33.009,52,33.059,52,33.975v14.059
				l-0.177,0.001l3.867-0.001l-0.044-14.426c0,0,0.088-0.266,0.402-0.442C56.519,32.904,57,33.088,57,33.999c0,0,0,9.531,0,10.576
				c0,1.537,0.864,2.11,1.319,2.566c0.181,0.182,0.844,0.595,0.91,0.64c0.308,0.215,0.89,0.646,1.505,0.942l2.529-2.87
				C62.513,45.412,61.538,45.121,61.538,43.438z"/>
			<path style="fill:#FFFFFF;" d="M72.935,34.471c-0.504-0.42-1.15-0.77-1.809-1.188c-0.861-0.546-1.547-0.605-2.986,0.043
				c-0.697,0.314-1.516,0.693-2.501,1.206C64.456,35.146,64,35.713,64,36.715c0,0.471,0,2.2,0,4.119v0.001c0,2.108,0,3.753,0,3.753
				c0,0.78,0.136,1.523,1.208,2.303c0.578,0.421,0.732,0.582,1.953,1.232c1.147,0.608,1.845,0.253,2.916-0.32
				c0.733-0.392,1.912-0.978,2.485-1.429C73.135,45.923,74,45.465,74,44.099c0,0,0-5.295,0-7.233
				C74,35.609,73.701,35.109,72.935,34.471z M70,44.659c0,0.446-0.459,0.875-1.027,0.466c-0.393-0.283-0.392-0.28-0.621-0.509
				C68.125,44.389,68,44.336,68,43.88c0,0,0-1.449,0-3.048c0-1.864,0-3.906,0-4.14c0-0.341,0.068-0.499,0.244-0.6
				c0.477-0.273,0.75-0.093,1.154,0.263c0.28,0.249,0.601,0.438,0.601,0.87C70,37.885,70,44.659,70,44.659z"/>
			<path style="fill:#FFFFFF;" d="M98.919,42.806c1.485-1.017,3.271-2.623,4.379-3.797c0.514-0.545,1.498-1.761,0.602-3.393
				c-0.526-0.96-0.602-1.051-1.062-1.711c-1.157-1.663-2.622-0.937-3.063-0.739c-1.289,0.58-2.678,1.333-3.094,1.57
				c-1.26,0.719-1.381,1.227-1.456,1.829c-0.056,0.444-0.087,1.091-0.1,1.822c-0.041,2.18,0.067,5.11,0.124,5.683
				c0.136,1.385,0.672,2.128,1.554,2.64c0.727,0.422,1.224,0.856,4.63,1.876l2.035-3.074c-1.731-0.413-2.015-0.507-2.876-0.836
				C100.028,44.459,98.919,44.131,98.919,42.806z M99,36.377c0-0.61,0.223-0.797,0.693-0.327c0.431,0.431,1.937,2.396,0.856,3.58
				C100.109,40.11,100,40.363,99,41.076V36.377z"/>
			<path style="fill:#FFFFFF;" d="M84.989,43.699c0,0,0.002-6.331,0.002-7.424c0-0.841-0.035-1.183-0.58-1.774
				c-0.416-0.448-0.798-0.766-1.297-1.132c-0.541-0.398-0.884-0.685-2.151-0.076c-1.036,0.498-1.328,0.66-1.965,1.025
				c-0.481-0.471-1.168-1.022-1.692-1.24l-2.971,2.437c0,0,0.516,0.253,0.62,0.335C75.66,36.406,76,36.344,76,37.64
				c0,1.002,0,10.71,0,10.71h4V36.63c0,0-0.098-0.174,0.231-0.375C80.637,36.012,81,36.093,81,36.776c0,0,0,6.848,0,7.893
				c0,1.022,0.069,1.85,0.744,2.494c0.477,0.455,0.611,0.523,0.885,0.728c0.385,0.289,0.773,0.61,1.338,0.948l2.51-2.887
				C85.237,45.222,84.989,45.184,84.989,43.699z"/>
			<path style="fill:#FFFFFF;" d="M92,43.317V37.35h2v-3h-2v-4.508l-4,1.83v2.678h-2v3h2v7.202c0,1.616,0.916,2.427,2.166,3.178
				l1.987,1.057l2.114-3.032C92.674,45.028,92,44.691,92,43.317z"/>
		</g>
		<g>
			<g>
				<path style="fill:#FFFFFF;" d="M107.069,10.655c0-1.136,0.857-1.984,1.953-1.984c1.083,0,1.935,0.848,1.935,1.984
					c0,1.153-0.852,2.001-1.935,2.001C107.926,12.656,107.069,11.808,107.069,10.655z M109.022,13.055
					c1.305,0,2.419-1.013,2.419-2.401c0-1.376-1.114-2.383-2.419-2.383c-1.318,0-2.437,1.007-2.437,2.383
					C106.585,12.042,107.704,13.055,109.022,13.055z M108.515,10.843h0.481l0.729,1.198h0.47l-0.788-1.217
					c0.408-0.051,0.718-0.265,0.718-0.76c0-0.546-0.324-0.786-0.977-0.786h-1.051v2.763h0.418V10.843z M108.515,10.491V9.633h0.569
					c0.293,0,0.602,0.064,0.602,0.407c0,0.425-0.316,0.451-0.67,0.451H108.515z"/>
				<path style="fill:#FFFFFF;" d="M107.069,10.655c0-1.136,0.857-1.984,1.953-1.984c1.083,0,1.935,0.848,1.935,1.984
					c0,1.153-0.852,2.001-1.935,2.001C107.926,12.656,107.069,11.808,107.069,10.655z M109.022,13.055
					c1.305,0,2.419-1.013,2.419-2.401c0-1.376-1.114-2.383-2.419-2.383c-1.318,0-2.437,1.007-2.437,2.383
					C106.585,12.042,107.704,13.055,109.022,13.055z M108.515,10.843h0.481l0.729,1.198h0.47l-0.788-1.217
					c0.408-0.051,0.718-0.265,0.718-0.76c0-0.546-0.324-0.786-0.977-0.786h-1.051v2.763h0.418V10.843z M108.515,10.491V9.633h0.569
					c0.293,0,0.602,0.064,0.602,0.407c0,0.425-0.316,0.451-0.67,0.451H108.515z"/>
			</g>
		</g>
	</g>
</g>
<g id="Layer_1">
</g>
</svg>
