<?xml version="1.0" encoding="iso-8859-1"?>
<!-- Generator: Adobe Illustrator 18.1.1, SVG Export Plug-In . SVG Version: 6.00 Build 0)  -->
<svg version="1.1" xmlns="http://www.w3.org/2000/svg" xmlns:xlink="http://www.w3.org/1999/xlink" x="0px" y="0px"
	 viewBox="0 0 105.805 61.72" style="enable-background:new 0 0 105.805 61.72;" xml:space="preserve">
<g id="glad">
	<g>
		<defs>
			<path id="SVGID_1_" d="M15.007,61.72c-3.492,0-14.896-0.597-15.007-8.267L0.063,8.815V8.736c0,0,3.138,5.507,15.208,5.32
				c16.475-0.237,37.126-5.049,53.72-8.915c9.156-2.134,17.063-3.976,22.817-4.748c1.753-0.237,3.406-0.369,4.909-0.391L97.083,0
				c4.327,0,7.489,1.072,8.457,2.867l0.119,0.221l0.146,49.307c0,0-0.929-1.73-1.893-3.522c-0.815-1.518-5.314-2.072-11.196-1.281
				c-6.027,0.807-15.249,2.879-25.927,5.278c-18.075,4.061-38.562,8.663-51.272,8.847L15.007,61.72z M2.057,12.804L2,53.439
				c0.084,5.826,9.977,6.28,13.007,6.28l0.481-0.004c12.502-0.18,32.882-4.759,50.862-8.799c10.724-2.409,19.986-4.49,26.1-5.309
				c1.946-0.262,3.745-0.394,5.345-0.394c2.604,0,4.607,0.341,5.992,1.016l-0.125-42.589C102.97,2.8,100.594,2,97.083,2
				l-0.338,0.003c-1.424,0.021-2.995,0.146-4.671,0.373c-5.66,0.759-13.524,2.592-22.63,4.713
				c-16.687,3.889-37.455,8.728-54.146,8.968c-0.258,0.004-0.513,0.006-0.762,0.006C8.458,16.063,4.328,14.99,2.057,12.804z"/>
		</defs>
		<use xlink:href="#SVGID_1_"  style="overflow:visible;fill:#FFFFFF;"/>
		<clipPath id="SVGID_2_">
			<use xlink:href="#SVGID_1_"  style="overflow:visible;"/>
		</clipPath>
	</g>
	<path style="fill:#FFFFFF;" d="M29.957,37.41c-2.519,1.027-4.033,1.704-6.602,2.117c-7.42,1.006-12.561-1.765-12.274-9.288
		c0.729-7.303,6.321-12.068,13.77-13.498c1.87-0.31,3.602-0.426,5.371-0.27c-0.119,1.592-0.225,3.045-0.344,4.636
		c-0.058,0.009-0.115,0.022-0.173,0.029c-1.165-0.864-3.167-1.186-5.004-0.909c-4.67,0.885-7.586,3.952-7.95,8.079
		c-0.429,7.693,4.156,8.938,8.28,7.434c0.121-1.696,0.266-3.822,0.387-5.513c0.096-1.336-0.96-2.035-2.742-2.24
		c0,0,0.001-0.062,0.002-0.095c2.511-0.396,5.569-0.887,8.081-1.287C30.486,30.32,30.233,33.705,29.957,37.41"/>
	<path style="fill:#FFFFFF;" d="M37.054,33.116c0.816,0.195,1.254,0.168,2.201-0.027c1.44-0.313,1.992-0.675,3.229-1.751
		c-0.428,1.27-1.215,3.483-1.215,3.483l-10.201,2.382c0,0,0.003-0.062,0.005-0.088c1.312-1.104,1.232-2.39,1.327-3.726
		c0.238-3.192,0.455-6.194,0.695-9.403c0.106-1.343,0.385-2.709-0.814-3.273c0-0.025,0.002-0.049,0.004-0.075
		c2.364-0.525,4.52-1.081,6.887-1.609c-0.002,0.022-0.005,0.05-0.007,0.072c-1.324,1.141-1.247,2.434-1.347,3.811
		C37.556,26.388,37.321,29.685,37.054,33.116"/>
	<path style="fill:#FFFFFF;" d="M51.661,25.262c-1.177,0.296-2.3,0.583-3.481,0.882c0.758-1.854,1.443-3.561,2.195-5.448
		c0.006-0.003,0.015-0.007,0.025-0.007C50.831,22.271,51.227,23.703,51.661,25.262 M52.269,27.393
		c0.208,0.765,0.393,1.462,0.597,2.221c0.116,0.372,0.151,0.461,0.108,0.895c-0.106,0.824-0.561,1.252-1.21,1.785
		c-0.002,0.026-0.007,0.083-0.007,0.083l7.741-1.807l0.004-0.027c0,0,0.011-0.033,0.01-0.05c-1.353-1.011-1.385-1.545-1.85-3.046
		c-1.214-4.035-3.522-11.928-3.522-11.928l-6.279,1.483c0,0-0.003,0.054-0.004,0.078c0.489,0.212,0.876,0.527,0.823,1.242
		c-0.072,0.56-0.554,1.64-0.771,2.21c-1.564,3.835-2.985,7.372-4.543,11.095c-0.613,1.429-0.941,1.939-2.025,3.1
		c-0.004,0.024-0.01,0.072-0.01,0.072l5.208-1.214c0,0,0.005-0.049,0.006-0.071c-0.436-0.263-0.831-0.433-0.772-1.148
		c0.06-0.537,0.406-1.275,0.644-1.835c0.27-0.639,0.515-1.217,0.787-1.858C48.92,28.237,50.55,27.822,52.269,27.393"/>
	<path style="fill:#FFFFFF;" d="M66.793,15.409c0.582-0.223,1.114-0.399,1.691-0.513c3.22-0.494,3.78,2.333,3.622,5.005
		c-0.106,1.376-0.315,2.28-1.095,3.618c-0.994,1.585-1.957,2.203-3.617,2.575c-0.476,0.096-0.904,0.144-1.366,0.093
		C66.314,22.412,66.499,19.319,66.793,15.409 M61.358,26.502c-0.095,1.347-0.02,2.751-1.348,3.876
		c-0.003,0.021-0.007,0.048-0.006,0.072c1.981-0.447,3.785-0.928,5.768-1.357c2.96-0.633,5.318-1.04,7.894-3.336
		c2.106-1.986,3.241-4.471,3.45-6.938c0.145-2.738-0.828-4.559-3.014-5.918c-2.264-1.249-4.643-0.9-7.472-0.333
		c-1.848,0.368-3.544,0.875-5.4,1.296c-0.002,0.029-0.004,0.058-0.01,0.082c0.451,0.149,0.77,0.618,0.844,1.132
		c0.059,0.759-0.107,3.079-0.178,3.988C61.681,21.794,61.567,23.844,61.358,26.502"/>
	<path style="fill:#FFFFFF;" d="M75.87,12.542c-0.493,0.007-0.937-0.328-0.946-0.916c-0.009-0.586,0.426-0.933,0.919-0.94
		c0.487-0.007,0.932,0.327,0.941,0.913C76.793,12.187,76.358,12.535,75.87,12.542 M75.846,10.899
		c-0.368,0.005-0.662,0.296-0.656,0.723c0.006,0.428,0.309,0.712,0.677,0.704v0.003c0.356-0.005,0.655-0.298,0.649-0.725
		C76.509,11.175,76.204,10.894,75.846,10.899 M75.707,12.113l-0.211,0.003l-0.015-0.998l0.371-0.005
		c0.256-0.004,0.411,0.066,0.414,0.294c0.003,0.184-0.105,0.252-0.236,0.262l0.261,0.434l-0.252,0.004l-0.237-0.416l-0.101,0.002
		L75.707,12.113z M75.887,11.521c0.098-0.001,0.153-0.023,0.152-0.132c-0.002-0.103-0.113-0.109-0.194-0.107l-0.15,0.002l0.003,0.24
		L75.887,11.521z"/>
	<path style="fill:#FFFFFF;" d="M45.668,36.572l-1.308,4.111c0.726,0.287,1.45,0.847,2.174,1.673
		c0.722,0.827,1.12,1.579,1.192,2.261l-5.611-0.221l-0.5,4.875l6.845,0.27c0.618,0.027,0.993-1.59,1.128-4.849
		c0.066-1.606-0.19-3.129-0.772-4.565C48.132,38.349,47.081,37.164,45.668,36.572"/>
	<path style="fill:#FFFFFF;" d="M96.08,37.637c-0.493,0.073-1.22,0.201-2.18,0.385c-0.865,0.153-1.495,0.253-1.892,0.297
		c-1.05,0.119-1.919,0.032-2.611-0.245c-0.817-0.326-1.571-0.989-2.263-1.984c0.507-0.474,1.495-0.791,2.96-0.954
		c0.989-0.111,1.76-0.097,2.32,0.039c0.638,0.167,1.29,0.553,1.959,1.154c0.042-0.88-0.448-1.861-1.469-2.945
		c-1.066-1.135-2.075-1.648-3.026-1.544c-0.95,0.104-1.975,0.875-3.079,2.306c-1.037,1.308-1.635,2.428-1.792,3.357
		c-0.007,0.677,0.011,1.182,0.047,1.512l-1.6,0.487v0.006l-15.498,3.049l-1.277,0.174c-0.571-2.583-1.13-5.169-1.681-7.753
		c-0.528-2.269-0.927-3.385-1.204-3.348c-0.034,0.047-0.048,0.078-0.046,0.099l-1.317,2.283c0.228,1.696,0.318,3.097,0.267,4.207
		c-0.061,1.192-0.291,2.606-0.69,4.246c-0.046,0.265-0.055,0.717-0.027,1.357c0.039,0.575-0.004,1.015-0.124,1.311l-0.039-0.297
		c-0.403-2.832-1.05-5.099-1.947-6.8c-1.231-2.398-3.023-4.038-5.378-4.923c-0.381-0.128-0.663-0.212-0.85-0.245
		c-0.194,0.809-0.373,1.623-0.543,2.449c-0.175,0.945-0.207,1.761-0.092,2.447l0.115,0.643c0.731,0.645,1.947,1.361,3.646,2.152
		c-0.062-0.454-0.009-0.799,0.16-1.044c0.437,0.243,1.109,0.928,2.019,2.069c0.909,1.138,1.393,1.921,1.452,2.354
		c0.096,0.705-0.901,1.904-2.988,3.59c-2.434,1.97-3.783,3.157-4.052,3.553l2.515-0.341c2.149-0.293,3.773-0.834,4.874-1.623
		c0.971-0.692,1.668-1.705,2.09-3.046c0.256-0.776,0.529-2.25,0.817-4.434l0.1,0.077c0.673,2.738,1.131,4.791,1.377,6.163
		l3.635-0.562l0.001,0.006l16.775-3.317l9.359-1.047L96.08,37.637"/>
	<path style="fill:#FFFFFF;" d="M87.177,29.806c0.668,0.517,1.063,0.769,1.182,0.756c0.177-0.019,0.528-0.339,1.05-0.96
		c0.521-0.617,0.784-1.019,0.782-1.198c-1.329-1.334-2.101-1.99-2.319-1.966c-0.119,0.014-0.437,0.398-0.954,1.157
		c-0.519,0.76-0.769,1.191-0.758,1.288C86.17,28.981,86.508,29.287,87.177,29.806"/>
	<path style="fill:#FFFFFF;" d="M45.668,36.572l-1.308,4.111c0.726,0.287,1.45,0.847,2.174,1.673
		c0.722,0.827,1.12,1.579,1.192,2.261l-5.611-0.221l-0.5,4.875l6.845,0.27c0.618,0.027,0.993-1.59,1.128-4.849
		c0.066-1.606-0.19-3.129-0.772-4.565C48.132,38.349,47.081,37.164,45.668,36.572"/>
	<path style="fill:#FFFFFF;" d="M87.177,29.806c0.668,0.517,1.063,0.769,1.182,0.756c0.177-0.019,0.528-0.339,1.05-0.96
		c0.521-0.617,0.784-1.019,0.782-1.198c-1.329-1.334-2.101-1.99-2.319-1.966c-0.119,0.014-0.437,0.398-0.954,1.157
		c-0.519,0.76-0.769,1.191-0.758,1.288C86.17,28.981,86.508,29.287,87.177,29.806"/>
</g>
<g id="Layer_1">
</g>
</svg>
