<?xml version="1.0" encoding="iso-8859-1"?>
<!-- Generator: Adobe Illustrator 18.1.1, SVG Export Plug-In . SVG Version: 6.00 Build 0)  -->
<svg version="1.1" xmlns="http://www.w3.org/2000/svg" xmlns:xlink="http://www.w3.org/1999/xlink" x="0px" y="0px"
	 viewBox="0 0 148.051 42.279" style="enable-background:new 0 0 148.051 42.279;" xml:space="preserve">
<g id="infiniti">
	<path style="fill:#FFFFFF;" d="M37.773,24.528l-1.474-0.008c-16.263,0-35.745,0.352-35.745,0.611c0,0.261,16.09,0.895,35.748,0.895
		l3.274,0.007l68.907-0.007l1.474,0.007c16.259,0,35.741-0.353,35.741-0.618c0-0.252-16.091-0.887-35.746-0.887l-3.276-0.008
		L37.773,24.528z"/>
	<path style="fill:#FFFFFF;" d="M37.964,24.528l-1.501-0.008C19.875,24.52,0,24.872,0,25.131c0,0.261,16.414,0.895,36.467,0.895
		l3.338,0.007l70.286-0.007l1.502,0.007c16.586,0,36.458-0.353,36.458-0.618c0-0.252-16.411-0.887-36.462-0.887l-3.338-0.008
		L37.964,24.528z"/>
	<path style="fill:#FFFFFF;" d="M66.643,4.889v8.882c0,0-2.933-8.325-3.002-8.546c-0.073-0.221-0.235-0.336-0.534-0.336H60.31
		v10.817h1.88V6.935c0,0,2.898,8.22,2.973,8.434c0.064,0.214,0.251,0.337,0.488,0.337h2.88V4.889H66.643z"/>
	<path style="fill:#FFFFFF;" d="M76.585,4.889v10.817h2.219c0,0,0-4.37,0-4.607h3.997V9.12l-3.997,0.008V6.876h4.064V4.889H76.585z"
		/>
	<polygon style="fill:#FFFFFF;" points="127.982,4.889 127.982,6.967 130.467,6.967 130.467,15.706 132.725,15.706 132.725,6.967 
		135.204,6.967 135.204,4.889 	"/>
	<rect x="90.692" y="4.889" style="fill:#FFFFFF;" width="2.396" height="10.817"/>
	<rect x="90.692" y="4.889" style="fill:#FFFFFF;" width="2.396" height="10.817"/>
	<rect x="117.953" y="4.889" style="fill:#FFFFFF;" width="2.394" height="10.817"/>
	<rect x="117.953" y="4.889" style="fill:#FFFFFF;" width="2.394" height="10.817"/>
	<rect x="142.812" y="4.889" style="fill:#FFFFFF;" width="2.387" height="10.817"/>
	<rect x="142.812" y="4.889" style="fill:#FFFFFF;" width="2.387" height="10.817"/>
	<rect x="49.594" y="4.889" style="fill:#FFFFFF;" width="2.395" height="10.817"/>
	<rect x="49.594" y="4.889" style="fill:#FFFFFF;" width="2.395" height="10.817"/>
	<path style="fill:#FFFFFF;" d="M109.679,4.889h-1.882v8.882c0,0-2.937-8.325-3.011-8.546c-0.072-0.221-0.229-0.336-0.526-0.336
		h-2.804v10.817h1.887V6.935c0,0,2.896,8.22,2.967,8.434c0.063,0.214,0.249,0.337,0.493,0.337h2.875V4.889z"/>
	<path style="fill:#FFFFFF;" d="M29.026,14.414c-0.771-1.001-8.311-11.168-8.311-11.168s-7.57,10.251-8.292,11.191
		C9.63,14.2,4.77,12.337,4.77,9.097c0-4.109,7.055-7.92,15.946-7.92c9.334,0,15.941,3.812,15.941,7.92
		C36.657,12.337,31.827,14.177,29.026,14.414 M20.716,0C9.231,0,1.234,4.485,1.234,10.297c0,2.712,1.749,5.774,5.461,7.615
		c3.438,1.719,8.303,2.314,9.007,2.398L20.716,5.54l5.064,14.771c0.699-0.084,5.519-0.679,8.961-2.398
		c3.704-1.841,5.457-4.904,5.457-7.615C40.198,4.485,32.2,0,20.716,0"/>
	<polygon style="fill:#FFFFFF;" points="142.879,40.973 142.879,39.172 144.734,39.172 144.734,38.064 142.858,38.064 
		142.858,36.497 145.1,36.497 145.268,35.389 141.544,35.389 141.544,42.135 145.355,42.135 145.355,40.973 	"/>
	<path style="fill:#FFFFFF;" d="M136.902,41.203c-0.564,0-0.997-0.259-1.263-0.756c-0.195-0.366-0.271-0.879-0.271-1.804
		c0-0.785,0.111-1.352,0.371-1.74c0.233-0.36,0.664-0.582,1.108-0.582c0.366,0,0.717,0.121,1.046,0.382l0.592-0.923
		c-0.36-0.322-1.01-0.535-1.659-0.535c-1.053,0-1.993,0.587-2.502,1.565c-0.302,0.581-0.442,1.245-0.442,2.093
		c0,0.994,0.265,1.811,0.79,2.415c0.535,0.633,1.233,0.931,2.136,0.931c0.744,0,1.3-0.19,1.813-0.627l-0.599-0.855
		C137.635,41.089,137.289,41.203,136.902,41.203"/>
	<path style="fill:#FFFFFF;" d="M129.536,38.147c0.007,0.467,0.053,1.33,0.099,1.856c-0.127-0.488-0.387-1.191-0.714-1.917
		l-1.253-2.697h-1.459v6.746h1.269l-0.037-2.88c-0.006-0.566-0.018-1.36-0.069-1.91c0.126,0.413,0.523,1.368,0.887,2.208
		l1.122,2.582h1.372v-6.746h-1.245L129.536,38.147z"/>
	<path style="fill:#FFFFFF;" d="M119.894,39.408c0.143-0.442,0.228-0.765,0.348-1.253c0.127-0.504,0.311-1.297,0.311-1.297
		s0.198,0.877,0.263,1.19c0.143,0.65,0.359,1.36,0.359,1.36H119.894z M121.305,35.375h-1.421l-2.143,6.76h1.371l0.465-1.597h1.919
		l0.459,1.597h1.412L121.305,35.375z"/>
	<path style="fill:#FFFFFF;" d="M112.918,35.389l-0.882,3.354c-0.103,0.397-0.18,0.741-0.237,1.093
		c-0.057-0.353-0.101-0.581-0.223-1.07l-0.857-3.377h-1.689l-0.611,6.746h1.307l0.228-3.521c0.028-0.421,0.046-0.818,0.046-1.215
		c0.069,0.39,0.182,0.871,0.265,1.201l0.935,3.536h1.115l1.04-3.689c0.111-0.405,0.168-0.65,0.239-1.04
		c0,0.368,0.018,0.703,0.051,1.131l0.244,3.598h1.288l-0.585-6.746H112.918z"/>
	<path style="fill:#FFFFFF;" d="M102.61,38.301h-0.443v-1.826h0.468c0.32,0,0.597,0.038,0.745,0.099
		c0.313,0.116,0.472,0.405,0.472,0.824c0,0.283-0.097,0.528-0.255,0.682C103.419,38.246,103.175,38.301,102.61,38.301
		 M104.051,39.516c-0.088-0.114-0.143-0.177-0.272-0.283c0.806-0.016,1.454-0.848,1.454-1.856c0-1.192-0.758-1.986-1.919-1.986
		h-2.433v6.746h1.288v-2.818c0.083,0.015,0.138,0.038,0.207,0.061c0.235,0.106,0.429,0.444,1.083,1.65
		c0.255,0.473,0.354,0.665,0.611,1.108h1.555C105.624,42.135,104.423,40.003,104.051,39.516"/>
	<path style="fill:#FFFFFF;" d="M94.876,41.203c-0.31,0-0.578-0.076-0.783-0.23c-0.396-0.289-0.585-1.023-0.585-2.184
		c0-0.816,0.109-1.413,0.329-1.848c0.187-0.359,0.576-0.589,1.017-0.589c0.7,0,1.046,0.513,1.149,0.856
		c0.113,0.375,0.17,0.872,0.17,1.558C96.173,40.484,95.788,41.203,94.876,41.203 M94.876,35.306c-0.488,0-0.97,0.115-1.359,0.329
		c-0.94,0.535-1.474,1.694-1.474,3.154c0,0.991,0.256,1.841,0.754,2.505c0.498,0.665,1.136,0.947,2.126,0.947
		c0.542,0,0.913-0.092,1.309-0.314c0.949-0.526,1.456-1.672,1.456-3.2C97.687,36.611,96.613,35.306,94.876,35.306"/>
	<polygon style="fill:#FFFFFF;" points="86.132,42.135 87.445,42.135 87.445,39.132 89.116,39.132 89.116,38.033 87.445,38.033 
		87.445,36.489 89.529,36.489 89.681,35.389 86.132,35.389 	"/>
	<path style="fill:#FFFFFF;" d="M80.11,38.301h-0.443v-1.826h0.468c0.323,0,0.597,0.038,0.747,0.099
		c0.313,0.116,0.47,0.405,0.47,0.824c0,0.283-0.097,0.528-0.258,0.682C80.919,38.246,80.672,38.301,80.11,38.301 M81.55,39.516
		c-0.087-0.114-0.143-0.177-0.274-0.283c0.811-0.016,1.458-0.848,1.458-1.856c0-1.192-0.763-1.986-1.921-1.986h-2.435v6.746h1.29
		v-2.818c0.083,0.015,0.14,0.038,0.21,0.061c0.233,0.106,0.429,0.444,1.079,1.65c0.253,0.473,0.357,0.665,0.612,1.108h1.548
		C83.116,42.135,81.926,40.003,81.55,39.516"/>
	<polygon style="fill:#FFFFFF;" points="72.664,39.164 74.519,39.164 74.519,38.056 72.643,38.056 72.643,36.497 74.885,36.497 
		75.053,35.389 71.33,35.389 71.33,42.135 75.14,42.135 75.14,40.965 72.664,40.965 	"/>
	<path style="fill:#FFFFFF;" d="M66.719,38.201c-0.18,0.275-0.341,0.343-0.878,0.343h-0.689v-2.055h0.838
		c0.555,0,0.888,0.376,0.888,1.009C66.879,37.819,66.83,38.01,66.719,38.201 M67.376,35.718c-0.371-0.206-0.705-0.329-1.818-0.329
		h-1.723v6.746h1.318v-2.483h0.726c0.725,0,1.009-0.077,1.311-0.228c0.714-0.344,1.126-1.062,1.126-1.955
		C68.316,36.689,67.984,36.069,67.376,35.718"/>
	<path style="fill:#FFFFFF;" d="M53.237,41.027h-0.706V36.46h0.607c0.515,0,0.817,0.192,1.031,0.558
		c0.267,0.451,0.333,1.107,0.333,1.894C54.502,40.34,54.108,41.027,53.237,41.027 M55.086,36.101
		c-0.398-0.413-0.88-0.619-1.433-0.666c-0.263-0.021-0.763-0.045-1.138-0.045h-1.317v6.746h1.592c0.382,0,0.696-0.016,0.941-0.038
		c0.611-0.053,1.194-0.42,1.587-0.97c0.443-0.611,0.658-1.413,0.658-2.338C55.976,37.575,55.686,36.712,55.086,36.101"/>
	<polygon style="fill:#FFFFFF;" points="45.484,39.164 47.335,39.164 47.335,38.056 45.465,38.056 45.465,36.497 47.707,36.497 
		47.875,35.389 44.152,35.389 44.152,42.135 47.959,42.135 47.959,40.965 45.484,40.965 	"/>
	<path style="fill:#FFFFFF;" d="M38.121,38.301h-0.44v-1.826h0.474c0.317,0,0.588,0.038,0.741,0.099
		c0.312,0.116,0.468,0.405,0.468,0.824c0,0.283-0.09,0.528-0.25,0.682C38.933,38.246,38.689,38.301,38.121,38.301 M39.563,39.516
		c-0.078-0.114-0.141-0.177-0.271-0.283c0.806-0.016,1.455-0.848,1.455-1.856c0-1.192-0.761-1.986-1.916-1.986h-2.438v6.746h1.287
		v-2.818c0.084,0.015,0.145,0.038,0.206,0.061c0.234,0.106,0.436,0.444,1.085,1.65c0.253,0.473,0.36,0.665,0.61,1.108h1.555
		C41.138,42.135,39.939,40.003,39.563,39.516"/>
	<rect x="31.342" y="35.397" style="fill:#FFFFFF;" width="1.371" height="6.738"/>
	<path style="fill:#FFFFFF;" d="M26.728,38.201c-0.176,0.275-0.336,0.343-0.871,0.343h-0.692v-2.055h0.841
		c0.554,0,0.882,0.376,0.882,1.009C26.888,37.819,26.842,38.01,26.728,38.201 M27.388,35.718c-0.368-0.206-0.703-0.329-1.818-0.329
		h-1.724v6.746h1.318v-2.483h0.725c0.726,0,1.009-0.077,1.311-0.228c0.714-0.344,1.126-1.062,1.126-1.955
		C28.328,36.689,28,36.069,27.388,35.718"/>
	<path style="fill:#FFFFFF;" d="M18.852,38.002l-0.79-0.221c-0.546-0.16-0.726-0.336-0.726-0.68c0-0.458,0.374-0.78,0.913-0.78
		c0.489,0,0.932,0.147,1.528,0.513l0.615-0.971c-0.569-0.42-1.38-0.68-2.182-0.68c-1.385,0-2.34,0.856-2.34,2.086
		c0,0.381,0.091,0.733,0.27,1.031c0.237,0.413,0.643,0.672,1.289,0.854l0.727,0.206c0.582,0.162,0.856,0.437,0.856,0.872
		c0,0.606-0.397,0.926-1.148,0.926c-0.658,0-1.184-0.215-1.795-0.551l-0.49,1.061c0.658,0.391,1.485,0.611,2.23,0.611
		c1.626,0,2.697-0.901,2.697-2.268C20.506,39.01,19.926,38.301,18.852,38.002"/>
	<path style="fill:#FFFFFF;" d="M11.294,38.147c0.008,0.467,0.057,1.33,0.102,1.856c-0.129-0.488-0.381-1.191-0.713-1.917
		l-1.255-2.697H7.975v6.746h1.267l-0.041-2.88c-0.007-0.566-0.016-1.36-0.065-1.91c0.126,0.413,0.519,1.368,0.89,2.208l1.115,2.582
		h1.376v-6.746h-1.249L11.294,38.147z"/>
	<rect x="2.98" y="35.397" style="fill:#FFFFFF;" width="1.371" height="6.738"/>
</g>
<g id="Layer_1">
</g>
</svg>
