<?xml version="1.0" encoding="iso-8859-1"?>
<!-- Generator: Adobe Illustrator 18.1.1, SVG Export Plug-In . SVG Version: 6.00 Build 0)  -->
<svg version="1.1" xmlns="http://www.w3.org/2000/svg" xmlns:xlink="http://www.w3.org/1999/xlink" x="0px" y="0px"
	 viewBox="0 0 107.759 43.155" style="enable-background:new 0 0 107.759 43.155;" xml:space="preserve">
<g id="heinz">
	<path style="fill:#FFFFFF;" d="M101.408,10.766c-0.07,0.277-0.19,0.765-0.317,1.252c-0.057,0.221-0.127,0.439-0.191,0.658
		c-0.127,0.44-0.255,0.879-0.379,1.319c-0.064,0.228-0.114,0.46-0.178,0.688c-0.173,0.611-0.37,1.215-0.519,1.832
		c-0.125,0.519-0.209,1.066,0.128,1.538c0.138,0.194,0.368,0.363,0.592,0.446c0.523,0.194,1.067,0.334,1.604,0.487
		c0.766,0.219,1.535,0.43,2.302,0.644c0.576,0.161,1.16,0.298,1.726,0.489c0.461,0.156,0.933,0.326,1.259,0.722
		c0.273,0.331,0.386,0.722,0.286,1.143c-0.11,0.462-0.258,0.916-0.385,1.375c-0.151,0.546-0.291,1.095-0.446,1.639
		c-0.213,0.744-0.44,1.484-0.652,2.228c-0.118,0.413-0.207,0.834-0.327,1.246c-0.262,0.898-0.542,1.79-0.803,2.689
		c-0.158,0.544-0.286,1.096-0.442,1.64c-0.216,0.751-0.451,1.497-0.667,2.248c-0.123,0.426-0.217,0.86-0.334,1.289
		c-0.185,0.679-0.373,1.357-0.57,2.032c-0.209,0.72-0.429,1.438-0.647,2.156c-0.146,0.48-0.261,0.975-0.456,1.435
		c-0.28,0.66-0.763,1.097-1.529,1.123c-0.42,0.014-0.84,0.046-1.259,0.046c-30.453,0.002-60.906,0.002-91.359,0.003
		c-0.215,0-0.43,0.029-0.644,0.021c-0.127-0.005-0.285-0.02-0.371-0.096c-0.234-0.207-0.615-0.22-0.722-0.613
		c-0.056-0.204-0.297-0.352-0.388-0.555c-0.161-0.361-0.28-0.742-0.401-1.12c-0.215-0.672-0.42-1.347-0.625-2.022
		c-0.067-0.22-0.118-0.444-0.182-0.664c-0.221-0.763-0.449-1.524-0.666-2.288c-0.128-0.449-0.232-0.905-0.361-1.354
		C3.36,34,3.208,33.564,3.075,33.123c-0.098-0.322-0.181-0.648-0.274-0.972c-0.123-0.425-0.248-0.849-0.373-1.273
		c-0.041-0.14-0.088-0.278-0.128-0.418c-0.148-0.515-0.298-1.029-0.442-1.545c-0.203-0.729-0.395-1.462-0.603-2.19
		c-0.208-0.728-0.437-1.451-0.646-2.179c-0.164-0.572-0.301-1.153-0.473-1.723c-0.091-0.303-0.182-0.593-0.106-0.917
		c0.13-0.555,0.358-1.034,0.934-1.244c0.33-0.12,0.671-0.211,1.006-0.317c0.249-0.078,0.495-0.164,0.746-0.235
		c0.337-0.096,0.677-0.182,1.016-0.272c0.414-0.109,0.83-0.208,1.241-0.326c0.559-0.161,1.109-0.352,1.671-0.499
		c0.379-0.099,0.679-0.29,0.948-0.567c0.159-0.164,0.242-0.337,0.27-0.562c0.066-0.528-0.086-1.022-0.214-1.52
		c-0.11-0.43-0.235-0.856-0.357-1.283c-0.156-0.545-0.316-1.088-0.473-1.632c-0.072-0.25-0.137-0.503-0.209-0.753
		c-0.084-0.294-0.176-0.587-0.258-0.881c-0.183-0.657-0.28-1.32,0.109-1.934c0.134-0.211,0.349-0.386,0.56-0.527
		c0.337-0.224,0.689-0.435,1.058-0.6c0.544-0.243,1.109-0.441,1.665-0.659c0.286-0.112,0.571-0.228,0.859-0.334
		c0.458-0.17,0.919-0.333,1.379-0.501c0.569-0.207,1.134-0.422,1.706-0.619c0.391-0.135,0.792-0.242,1.187-0.365
		c0.337-0.105,0.671-0.219,1.008-0.322c0.535-0.164,1.071-0.324,1.607-0.482c0.596-0.175,1.193-0.347,1.791-0.515
		c0.421-0.119,0.845-0.226,1.266-0.344c0.413-0.115,0.822-0.245,1.236-0.355c0.296-0.079,0.599-0.132,0.897-0.205
		c0.423-0.103,0.842-0.219,1.266-0.317c0.395-0.091,0.795-0.164,1.191-0.249c0.111-0.024,0.216-0.069,0.326-0.096
		c0.408-0.102,0.815-0.207,1.225-0.298c0.619-0.138,1.239-0.276,1.862-0.395c0.42-0.081,0.846-0.126,1.269-0.197
		c0.196-0.033,0.386-0.094,0.582-0.131c0.489-0.091,0.981-0.168,1.469-0.264c0.6-0.117,1.197-0.249,1.796-0.37
		c0.105-0.021,0.216-0.011,0.322-0.028c0.832-0.132,1.663-0.272,2.496-0.398c0.447-0.067,0.898-0.109,1.347-0.167
		c0.73-0.095,1.458-0.198,2.189-0.289c0.464-0.058,0.93-0.094,1.394-0.15c0.584-0.07,1.165-0.166,1.75-0.223
		c0.475-0.046,0.955-0.045,1.432-0.075c0.558-0.035,1.116-0.082,1.674-0.123c0.038-0.003,0.077-0.009,0.115-0.01
		c1.083-0.041,2.177,0.002,3.245-0.146c1.1-0.152,2.19-0.059,3.283-0.09c1.095-0.031,2.198-0.076,3.285,0.019
		c0.638,0.056,1.277,0.056,1.913,0.11c0.023,0.002,0.046,0.008,0.069,0.009c0.636,0.032,1.273,0.059,1.908,0.096
		c0.797,0.047,1.593,0.105,2.39,0.152c0.385,0.023,0.771,0.02,1.155,0.048c0.542,0.038,1.084,0.09,1.625,0.142
		c0.403,0.039,0.807,0.079,1.208,0.133c0.461,0.062,0.92,0.146,1.381,0.21c0.152,0.021,0.309,0.001,0.462,0.017
		c0.603,0.062,1.207,0.122,1.809,0.201c0.523,0.069,1.042,0.165,1.563,0.245c0.31,0.047,0.622,0.086,0.934,0.127
		c0.464,0.061,0.929,0.11,1.39,0.184c0.408,0.065,0.81,0.164,1.217,0.234c0.362,0.063,0.728,0.098,1.09,0.161
		c0.64,0.111,1.278,0.235,1.918,0.35c0.399,0.072,0.8,0.134,1.2,0.204c0.31,0.054,0.619,0.109,0.927,0.174
		c0.291,0.062,0.578,0.146,0.87,0.204c0.383,0.075,0.772,0.124,1.154,0.203c0.39,0.081,0.775,0.184,1.162,0.279
		c0.335,0.082,0.669,0.165,1.003,0.251c0.913,0.236,1.826,0.471,2.736,0.715c0.45,0.12,0.897,0.255,1.342,0.391
		c0.863,0.264,1.723,0.535,2.585,0.8c0.652,0.2,1.308,0.384,1.957,0.593c0.431,0.139,0.85,0.313,1.277,0.464
		c0.368,0.13,0.742,0.244,1.109,0.376c0.295,0.106,0.584,0.228,0.878,0.339c0.193,0.073,0.389,0.138,0.582,0.21
		c0.695,0.259,1.394,0.51,2.084,0.783c0.469,0.185,0.939,0.376,1.384,0.612C101.005,9.351,101.417,9.785,101.408,10.766z
		 M30.346,23.503c0.448,0,0.895-0.009,1.343,0.002c0.472,0.011,0.704,0.247,0.613,0.651c-0.137,0.608-0.3,1.21-0.468,1.81
		c-0.238,0.854-0.513,1.697-0.729,2.556c-0.287,1.141-0.567,2.287-0.785,3.443c-0.137,0.73-0.197,1.48-0.217,2.224
		c-0.021,0.765,0.429,1.256,1.191,1.383c0.682,0.114,1.375,0.099,2.046-0.053c0.786-0.178,1.562-0.409,2.332-0.65
		c0.658-0.206,1.277-0.507,1.767-1.01c0.472-0.484,0.456-0.943-0.028-1.352c-0.058-0.049-0.126-0.089-0.193-0.126
		c-0.424-0.231-0.604-0.596-0.595-1.068c0.017-0.827,0.125-1.643,0.322-2.445c0.348-1.421,0.689-2.844,1.069-4.256
		c0.24-0.891,0.548-1.763,0.823-2.645c0.278-0.889,0.543-1.782,0.83-2.667c0.325-1.004,0.651-2.009,1.009-3.002
		c0.302-0.839,0.638-1.667,0.98-2.49c0.283-0.681,0.596-1.35,0.897-2.024c0.179-0.401,0.367-0.798,0.542-1.201
		c0.209-0.478,0.009-0.874-0.496-0.923c-0.65-0.064-1.304-0.114-1.957-0.121c-0.691-0.007-1.383,0.05-2.075,0.068
		c-0.939,0.025-1.624,0.497-2.059,1.28c-0.513,0.923-0.852,1.925-1.144,2.941c-0.361,1.258-0.736,2.512-1.11,3.767
		c-0.266,0.893-0.536,1.785-0.816,2.674c-0.122,0.389-0.386,0.651-0.8,0.713c-0.364,0.055-0.732,0.099-1.099,0.109
		c-0.617,0.018-1.235,0.007-1.852,0.003c-0.107-0.001-0.216-0.012-0.32-0.037c-0.331-0.079-0.438-0.221-0.353-0.547
		c0.307-1.184,0.632-2.364,0.943-3.547c0.22-0.834,0.434-1.67,0.641-2.507c0.213-0.86,0.432-1.718,0.614-2.585
		c0.107-0.51,0.17-1.033,0.207-1.553c0.024-0.334-0.121-0.635-0.467-0.749c-0.297-0.098-0.609-0.199-0.916-0.207
		c-1.208-0.032-2.417-0.051-3.625-0.031c-0.946,0.016-1.892,0.077-2.835,0.153c-1.004,0.081-2.011,0.161-3.004,0.318
		c-1.21,0.192-2.394,0.496-3.515,1.025c-0.972,0.459-1.815,1.069-2.473,1.92c-0.736,0.952-1.086,2.04-1.115,3.24
		c-0.025,1.061,0.084,2.107,0.36,3.132c0.223,0.827,0.49,1.634,0.984,2.353c0.336,0.489,0.781,0.741,1.361,0.727
		c0.336-0.008,0.672-0.07,1.004-0.13c0.661-0.121,1.309-0.294,1.88-0.666c0.39-0.254,0.47-0.564,0.311-1.003
		c-0.279-0.774-0.575-1.542-0.82-2.327c-0.153-0.489-0.295-0.999-0.319-1.506c-0.047-1.003-0.137-2.03,0.36-2.969
		c0.21-0.398,0.416-0.816,0.707-1.152c0.718-0.829,1.726-1.088,2.758-1.249c0.745-0.116,1.488-0.046,2.228,0.081
		c0.715,0.123,0.98,0.399,0.92,1.126c-0.058,0.71-0.163,1.42-0.3,2.12c-0.153,0.785-0.354,1.561-0.554,2.336
		c-0.267,1.037-0.532,2.075-0.835,3.101c-0.432,1.463-0.885,2.921-1.353,4.373c-0.368,1.143-0.749,2.284-1.17,3.408
		c-0.358,0.957-0.76,1.899-1.183,2.829c-0.408,0.895-0.932,1.722-1.721,2.343c-0.508,0.4-1.06,0.7-1.739,0.602
		c-0.901-0.131-1.67-0.562-2.314-1.176c-0.656-0.625-1.057-1.431-1.391-2.267c-0.262-0.654-0.449-1.326-0.516-2.029
		c-0.051-0.535-0.113-1.071-0.133-1.608c-0.023-0.617-0.007-1.235-0.005-1.852c0-0.092,0.018-0.184,0.021-0.276
		c0.007-0.23,0.022-0.461,0.009-0.69c-0.014-0.244-0.182-0.397-0.407-0.399c-0.336-0.003-0.687-0.002-1.005,0.09
		c-0.965,0.279-1.878,0.695-2.732,1.223c-0.323,0.199-0.627,0.451-0.883,0.73c-0.316,0.344-0.394,0.811-0.372,1.257
		c0.037,0.759,0.109,1.519,0.218,2.271c0.075,0.522,0.192,1.048,0.371,1.544c0.25,0.693,0.534,1.379,0.876,2.031
		c0.616,1.175,1.458,2.163,2.591,2.888c0.672,0.43,1.414,0.651,2.191,0.728c1.207,0.12,2.382-0.124,3.529-0.463
		c0.914-0.27,1.809-0.605,2.705-0.932c0.52-0.19,1.037-0.396,1.532-0.641c0.709-0.352,1.407-0.73,2.093-1.125
		c1.136-0.653,2.103-1.503,2.836-2.596c0.696-1.038,1.113-2.208,1.518-3.378c0.315-0.909,0.582-1.835,0.88-2.75
		c0.079-0.242,0.226-0.455,0.492-0.507c0.27-0.053,0.548-0.075,0.824-0.086C29.636,23.492,29.991,23.503,30.346,23.503z
		 M72.192,18.142c-0.001,0-0.001,0-0.002,0c0-0.154,0.017-0.311-0.003-0.463c-0.068-0.527-0.29-0.789-0.812-0.781
		c-0.306,0.005-0.619,0.014-0.916,0.081c-0.906,0.207-1.81,0.429-2.707,0.672c-0.481,0.13-0.953,0.299-1.417,0.482
		c-0.508,0.201-1.013,0.419-1.401,0.829c-0.271,0.286-0.312,0.613-0.067,0.917c0.186,0.232,0.411,0.434,0.631,0.637
		c0.214,0.197,0.299,0.465,0.256,0.714c-0.129,0.742-0.279,1.483-0.476,2.21c-0.227,0.84-0.513,1.664-0.773,2.494
		c-0.397,1.265-0.81,2.524-1.185,3.796c-0.327,1.108-0.628,2.224-0.903,3.346c-0.105,0.429-0.131,0.883-0.143,1.327
		c-0.014,0.52,0.187,0.943,0.735,1.093c0.46,0.126,0.925,0.092,1.392-0.001c1.084-0.214,2.136-0.516,3.129-1.014
		c0.386-0.194,0.693-0.419,0.766-0.876c0.119-0.752,0.229-1.506,0.375-2.253c0.145-0.739,0.316-1.474,0.5-2.204
		c0.155-0.612,0.347-1.215,0.522-1.822c0.364-1.259,0.727-2.517,1.254-3.721c0.448-1.024,0.971-1.993,1.926-2.65
		c0.402-0.276,0.826-0.475,1.329-0.436c0.305,0.024,0.533,0.14,0.647,0.46c0.117,0.327,0.141,0.656,0.054,0.977
		c-0.313,1.159-0.626,2.319-0.981,3.465c-0.319,1.03-0.73,2.031-1.034,3.065c-0.377,1.284-0.681,2.589-1.025,3.883
		c-0.147,0.551-0.188,1.112-0.146,1.674c0.08,1.083,0.607,1.433,1.5,1.508c0.516,0.043,1.048-0.007,1.563-0.081
		c0.913-0.131,1.824-0.289,2.698-0.606c0.598-0.217,1.181-0.449,1.609-0.954c0.265-0.311,0.281-0.739-0.008-1.021
		c-0.157-0.153-0.344-0.281-0.533-0.395c-0.287-0.173-0.513-0.404-0.547-0.733c-0.037-0.355-0.061-0.734,0.024-1.073
		c0.265-1.059,0.554-2.115,0.891-3.153c0.37-1.142,0.815-2.259,1.206-3.394c0.381-1.107,0.752-2.218,1.095-3.337
		c0.228-0.745,0.376-1.502,0.235-2.298c-0.147-0.831-0.709-1.465-1.531-1.658c-0.588-0.138-1.17-0.109-1.761-0.016
		c-1.337,0.211-2.546,0.761-3.734,1.367c-0.579,0.295-1.163,0.565-1.804,0.687c-0.288,0.055-0.425-0.066-0.429-0.352
		C72.191,18.405,72.192,18.274,72.192,18.142z M87.157,21.968c0.002,0.015,0.004,0.029,0.006,0.044
		c0.384,0.021,0.77,0.03,1.153,0.067c0.251,0.024,0.504,0.066,0.743,0.141c0.16,0.05,0.277,0.2,0.207,0.383
		c-0.079,0.207-0.167,0.424-0.304,0.594c-0.529,0.659-1.073,1.307-1.624,1.948c-0.421,0.49-0.863,0.962-1.292,1.445
		c-0.73,0.823-1.456,1.65-2.187,2.473c-0.301,0.339-0.616,0.668-0.913,1.01c-0.429,0.494-0.845,0.998-1.271,1.494
		c-0.528,0.614-1.05,1.233-1.389,1.977c-0.394,0.864-0.08,1.419,0.743,1.617c0.454,0.109,0.925,0.165,1.391,0.197
		c0.905,0.063,1.813,0.109,2.72,0.132c0.841,0.022,1.682,0.009,2.523,0.003c1.316-0.01,2.634,0.048,3.947-0.119
		c0.685-0.087,1.38-0.104,2.062-0.204c0.671-0.098,1.295-0.339,1.792-0.835c0.579-0.577,1.098-1.201,1.585-1.859
		c0.761-1.029,1.468-2.091,2.13-3.186c0.486-0.803,0.863-1.645,1.075-2.561c0.133-0.574,0.117-1.144-0.096-1.683
		c-0.239-0.604-0.626-1.107-1.198-1.456c-0.611-0.372-1.271-0.506-1.971-0.434c-0.349,0.036-0.639,0.205-0.838,0.514
		c-0.349,0.542-0.727,1.067-1.052,1.623c-0.206,0.352-0.07,0.573,0.32,0.687c0.62,0.182,1.248,0.344,1.735,0.818
		c0.281,0.273,0.474,0.587,0.526,0.973c0.113,0.843-0.326,1.4-0.952,1.771c-0.517,0.307-1.097,0.424-1.668,0.515
		c-0.819,0.131-1.649,0.2-2.478,0.248c-0.899,0.053-1.801,0.063-2.702,0.071c-0.461,0.004-0.922-0.034-1.383-0.063
		c-0.291-0.018-0.584-0.038-0.871-0.088c-0.457-0.08-0.541-0.234-0.403-0.666c0.019-0.059,0.022-0.127,0.055-0.176
		c0.467-0.704,0.913-1.424,1.414-2.103c0.46-0.625,0.98-1.207,1.473-1.808c0.453-0.553,0.907-1.106,1.357-1.662
		c0.547-0.675,1.103-1.344,1.634-2.033c0.634-0.823,1.258-1.655,1.862-2.5c0.258-0.361,0.478-0.754,0.677-1.151
		c0.206-0.411,0.055-0.757-0.383-0.895c-0.261-0.082-0.541-0.115-0.814-0.145c-0.656-0.072-1.314-0.182-1.971-0.184
		c-1.973-0.006-3.947-0.071-5.918,0.111c-0.898,0.083-1.637,0.424-2.206,1.142c-0.706,0.89-1.132,1.918-1.517,2.969
		c-0.13,0.356-0.249,0.715-0.199,1.104c0.047,0.363,0.24,0.469,0.587,0.345c0.304-0.108,0.609-0.247,0.925-0.288
		C85.184,22.157,86.172,22.07,87.157,21.968z M47.682,31.618c-0.465,0.059-0.973-0.073-1.451-0.293
		c-0.591-0.272-0.949-0.738-1.036-1.397c-0.096-0.717-0.056-1.43,0.078-2.136c0.09-0.476,0.2-0.949,0.331-1.415
		c0.03-0.106,0.171-0.226,0.283-0.257c0.726-0.2,1.458-0.375,2.187-0.564c0.785-0.203,1.54-0.487,2.26-0.859
		c0.423-0.219,0.859-0.425,1.245-0.698c0.424-0.301,0.797-0.675,1.195-1.013c0.509-0.433,0.868-0.972,1.139-1.575
		c0.362-0.806,0.665-1.63,0.608-2.533c-0.043-0.679-0.262-1.289-0.852-1.691c-0.463-0.316-0.982-0.458-1.548-0.465
		c-0.964-0.013-1.899,0.153-2.834,0.365c-1.253,0.284-2.452,0.713-3.609,1.265c-0.774,0.369-1.487,0.836-2.154,1.378
		c-0.771,0.627-1.375,1.391-1.86,2.246c-0.302,0.533-0.557,1.097-0.791,1.665c-0.272,0.661-0.54,1.33-0.734,2.016
		c-0.234,0.828-0.428,1.672-0.565,2.522c-0.14,0.871-0.219,1.754-0.269,2.636c-0.026,0.463,0.056,0.934,0.111,1.399
		c0.124,1.046,0.559,1.939,1.399,2.592c0.861,0.67,1.896,0.771,2.934,0.793c0.512,0.011,1.027-0.062,1.54-0.1
		c1.181-0.088,2.293-0.436,3.371-0.904c1.017-0.441,1.916-1.057,2.619-1.918c0.237-0.291,0.422-0.646,0.545-1.002
		c0.17-0.493-0.219-0.843-0.721-0.775c-0.34,0.046-0.672,0.164-1.005,0.261C49.332,31.383,48.573,31.651,47.682,31.618z
		 M54.216,35.623c0.838-0.063,1.63-0.272,2.412-0.495c0.782-0.223,1.551-0.5,2.308-0.798c0.387-0.152,0.76-0.369,1.097-0.615
		c0.427-0.312,0.454-0.708,0.136-1.126c-0.078-0.103-0.175-0.194-0.277-0.275c-0.331-0.263-0.549-0.59-0.542-1.023
		c0.006-0.369-0.01-0.751,0.08-1.102c0.315-1.229,0.66-2.451,1.018-3.668c0.172-0.583,0.405-1.147,0.599-1.724
		c0.221-0.655,0.427-1.315,0.643-1.971c0.24-0.731,0.505-1.455,0.721-2.193c0.225-0.766,0.475-1.536,0.587-2.322
		c0.145-1.022-0.375-1.606-1.428-1.449c-0.251,0.037-0.505,0.057-0.754,0.106c-0.528,0.104-1.061,0.198-1.579,0.34
		c-0.547,0.151-1.081,0.35-1.618,0.534c-0.576,0.197-1.15,0.406-1.636,0.784c-0.161,0.125-0.309,0.305-0.385,0.492
		c-0.131,0.321-0.01,0.616,0.221,0.866c0.303,0.327,0.596,0.667,0.492,1.159c-0.108,0.512-0.227,1.023-0.372,1.525
		c-0.143,0.493-0.328,0.974-0.49,1.461c-0.253,0.759-0.497,1.521-0.754,2.279c-0.294,0.868-0.617,1.726-0.892,2.6
		c-0.315,0.998-0.602,2.004-0.883,3.012c-0.203,0.728-0.356,1.468-0.301,2.232c0.037,0.505,0.219,0.946,0.712,1.154
		C53.608,35.524,53.92,35.554,54.216,35.623z M58.794,13.464c0.006,1.137,0.555,1.523,1.393,1.488
		c0.943-0.039,1.848-0.315,2.708-0.713c0.574-0.266,1.092-0.609,1.424-1.17c0.344-0.581,0.58-1.203,0.695-1.871
		c0.067-0.389,0.135-0.776-0.015-1.161c-0.15-0.383-0.395-0.686-0.821-0.721c-0.405-0.033-0.826-0.044-1.221,0.031
		c-0.572,0.108-1.136,0.281-1.69,0.466c-0.515,0.171-0.98,0.451-1.37,0.835C59.084,11.447,58.897,12.489,58.794,13.464z"/>
	<path style="fill:#FFFFFF;" d="M46.722,23.872c-0.396,0.001-0.423-0.033-0.336-0.42c0.222-0.99,0.592-1.928,1.079-2.812
		c0.254-0.46,0.591-0.881,0.932-1.284c0.16-0.19,0.409-0.313,0.634-0.439c0.199-0.111,0.493,0.007,0.586,0.217
		c0.112,0.253,0.15,0.51,0.064,0.787c-0.14,0.454-0.225,0.927-0.396,1.368c-0.332,0.854-0.778,1.647-1.541,2.2
		C47.44,23.708,47.109,23.905,46.722,23.872z"/>
</g>
<g id="Layer_1">
</g>
</svg>
