<?xml version="1.0" encoding="iso-8859-1"?>
<!-- Generator: Adobe Illustrator 18.1.1, SVG Export Plug-In . SVG Version: 6.00 Build 0)  -->
<svg version="1.1" xmlns="http://www.w3.org/2000/svg" xmlns:xlink="http://www.w3.org/1999/xlink" x="0px" y="0px"
	 viewBox="0 0 122.544 72.953" style="enable-background:new 0 0 122.544 72.953;" xml:space="preserve">
<g id="clorox">
	<path style="fill:#FFFFFF;" d="M101.415,16.241c-2.183-1.128-4.432-2.253-6.755-3.367C84.073,7.839,73.048,3.509,62.498,0.174
		c-0.701-0.227-1.727-0.234-2.426-0.008C49.579,3.453,38.77,7.589,27.811,12.726C17.069,17.825,8.064,22.973,0.669,28.061
		c-0.7,5.183-0.86,10.167-0.437,15.459c3.747,2.64,8.059,5.373,12.859,8.146c-0.052-0.603-0.067-1.203-0.038-1.804
		c-3.978-2.303-7.607-4.568-10.858-6.764c-0.321-5.024-0.163-9.736,0.412-14.647c7.336-4.822,15.957-9.691,26.326-14.616
		C39.458,8.912,49.878,4.863,60.099,1.604c0.684-0.251,1.684-0.251,2.346,0.002c10.263,3.335,20.885,7.522,31.09,12.372
		c2.632,1.249,5.168,2.509,7.615,3.774c-0.03-0.49,0.051-0.987,0.248-1.43C101.405,16.296,101.409,16.267,101.415,16.241z"/>
	<path style="fill:#FFFFFF;" d="M121.936,28.358c-4.164-2.852-8.897-5.767-14.116-8.677c-0.005,0.037-0.01,0.074-0.017,0.112
		c-0.041,0.233-0.139,0.453-0.259,0.66c-0.083,0.193-0.205,0.372-0.341,0.543c4.675,2.598,8.947,5.197,12.764,7.747
		c0.614,4.971,0.666,9.737,0.312,14.768c-7.219,4.737-15.871,9.611-26.285,14.669c-10.671,5.054-21.239,9.398-31.734,12.944
		c-0.69,0.284-1.754,0.289-2.43-0.012c-10.625-3.711-21.436-8.207-31.671-13.206c-0.522-0.257-1.033-0.513-1.546-0.77
		c-0.379,0.439-0.837,0.801-1.35,1.095c0.577,0.292,1.154,0.584,1.741,0.875c10.612,5.229,21.863,9.9,32.79,13.604
		c0.719,0.326,1.799,0.315,2.505,0.014c10.806-3.579,21.817-8.05,32.883-13.34c10.826-5.299,19.753-10.43,27.091-15.423
		C122.732,38.673,122.601,33.625,121.936,28.358z"/>
	<path style="fill:#FFFFFF;" d="M19.709,45.468c0.096,0.051,0.189,0.102,0.287,0.153l0.009-1.639
		c-0.126-0.068-0.248-0.136-0.373-0.204C19.675,44.339,19.699,44.902,19.709,45.468z"/>
	<path style="fill:#FFFFFF;" d="M83.041,16.833c-6.938-3.095-13.869-5.934-20.855-8.545c-0.554-0.278-1.317-0.33-1.846,0
		c-10.489,3.828-21.002,8.254-30.965,13.016c-9.99,4.81-18.569,9.477-25.567,13.866c-0.317,0.355-0.312,0.847-0.03,1.16
		c3.083,1.924,6.421,3.899,10.067,5.941c-0.094-0.372-0.203-0.744-0.345-1.114c-0.113-0.294-0.149-0.597-0.129-0.896
		c-2.237-1.299-4.346-2.571-6.339-3.819c-0.269-0.297-0.276-0.763,0.025-1.098c6.602-4.142,14.685-8.559,24.112-13.108
		c9.388-4.506,19.311-8.684,29.191-12.312c0.504-0.302,1.228-0.252,1.738,0.005c6.336,2.376,12.628,4.943,18.923,7.735
		c0.335-0.265,0.761-0.441,1.271-0.496C82.51,17.022,82.759,16.907,83.041,16.833z"/>
	<path style="fill:#FFFFFF;" d="M90.212,20.122c0.398,0.554,0.504,1.28,0.384,1.966c0.088,0.043,0.177,0.083,0.265,0.126
		c0.12,0.063,0.246,0.125,0.373,0.182l0.421-1.594C91.173,20.572,90.693,20.35,90.212,20.122z"/>
	<path style="fill:#FFFFFF;" d="M24.209,46.282c0.062-0.036,0.132-0.058,0.197-0.088c-1.733-0.928-3.476-1.863-4.788-2.563
		c0.05,0.589,0.079,1.18,0.09,1.773c1.104,0.577,2.337,1.221,3.539,1.849C23.464,46.873,23.776,46.535,24.209,46.282z"/>
	<path style="fill:#FFFFFF;" d="M118.718,35.51c-4.3-2.706-9.066-5.479-14.4-8.329c0.012,0.024,0.022,0.05,0.033,0.074
		c0.557,0.605,0.79,1.467,0.7,2.291c3.75,2.083,7.191,4.122,10.364,6.117c0.384,0.355,0.323,0.783,0.022,1.106
		c-6.515,3.994-14.481,8.361-23.943,12.962c-9.409,4.559-19.449,8.928-29.545,12.822c-0.538,0.272-1.263,0.3-1.78-0.008
		c-6.686-2.646-13.299-5.456-19.84-8.452c-0.284,0.236-0.62,0.409-1,0.483c-0.071,0.014-0.119,0.02-0.155,0.021
		c-0.022,0.016-0.045,0.032-0.075,0.051c-0.106,0.07-0.208,0.144-0.31,0.217c7.035,3.221,14.149,6.241,21.343,9.081
		c0.55,0.32,1.319,0.294,1.892,0.011c10.702-4.125,21.356-8.744,31.332-13.577c10.031-4.854,18.467-9.478,25.39-13.704
		C119.056,36.34,119.133,35.885,118.718,35.51z"/>
	<path style="fill:#FFFFFF;" d="M30.345,50.06c-0.048-0.251-0.058-0.501-0.051-0.748c-0.474-0.242-1.121-0.582-1.872-0.979
		c0.238,0.61,0.429,1.242,0.557,1.883c0.48,0.236,0.963,0.466,1.444,0.7C30.422,50.618,30.402,50.328,30.345,50.06z"/>
	<path style="fill:#FFFFFF;" d="M50.72,28.516c-0.272-0.005-0.556,0.019-0.855,0.087c-0.296,0.058-0.582,0.148-0.851,0.273
		c-0.396,0.155-0.684,0.509-0.684,0.857v18.049c0,0.349,0.288,0.589,0.684,0.578c0.269,0.011,0.554-0.015,0.851-0.075
		c0.299-0.057,0.583-0.154,0.855-0.271c0.396-0.161,0.679-0.521,0.679-0.87V29.101C51.399,28.747,51.116,28.51,50.72,28.516z
		 M50.683,47.134c-0.009,0.036-0.086,0.143-0.235,0.209c-0.104,0.042-0.199,0.079-0.301,0.116
		c0.002-3.697,0.002-16.998,0.002-17.079c0.008-0.036,0.083-0.155,0.244-0.22c0.096-0.042,0.193-0.078,0.29-0.112
		C50.683,33.553,50.683,47.116,50.683,47.134z"/>
	<path style="fill:#FFFFFF;" d="M111.314,12.044l-1.28,0.267l-0.198,0.043c0.245-0.614,0.394-0.979,0.394-0.979l-1.324,0.276
		l-4.845,1.009c-1.082,0.227-2.022,0.986-2.346,1.902c0,0-0.887,2.467-1.63,4.54c-0.615-1.448-1.202-2.835-1.202-2.835
		c-0.232-0.557-0.748-0.944-1.387-1.091c-0.503-0.585-1.382-0.861-2.34-0.665l-5.756,1.2c0,0,0.455,0.932,1.111,2.285
		c-0.336-0.282-0.725-0.519-1.153-0.695c-0.751-0.601-1.74-0.985-2.88-1.069c-1.15-0.066-2.33,0.026-3.511,0.273
		c-1.179,0.244-2.344,0.638-3.48,1.175c-2.482,1.213-4.157,3.536-4.157,5.781v0.262c-0.36-1.146-1.232-2.055-2.442-2.566
		c-0.795-0.634-1.858-1.036-3.093-1.106c-1.186-0.063-2.423,0.041-3.673,0.304l-7.741,1.609v4.428
		c-0.43-0.951-1.228-1.706-2.269-2.14c-0.756-0.606-1.747-0.986-2.878-1.073c-1.155-0.067-2.336,0.023-3.514,0.268
		c-1.178,0.247-2.345,0.644-3.478,1.183c-2.487,1.212-4.159,3.532-4.159,5.772v16.874l-1.067,0.756
		c-0.477,0.333-0.995,0.579-1.673,0.798c-0.41,0.134-0.706,0.208-1.023,0.284c-0.002-4.415-0.009-22.082-0.009-22.082l-0.845,0.175
		l-0.263,0.054c0-0.571,0-0.894,0-0.894l-0.866,0.182l-6.671,1.39v3.588c-0.457-0.618-1.098-1.105-1.871-1.431
		c-0.797-0.636-1.86-1.037-3.091-1.107c-1.193-0.054-2.426,0.045-3.673,0.303c-1.222,0.255-2.443,0.659-3.641,1.211
		c-2.614,1.241-4.365,3.578-4.363,5.819v18.939c0,1.761,1.077,3.182,2.774,3.845c0.783,0.578,1.797,0.942,2.969,1.007
		c1.215,0.059,2.446-0.043,3.67-0.3c1.245-0.258,2.471-0.671,3.636-1.217c1.553-0.732,2.804-1.822,3.589-3.032v1.35l1.143-0.235
		v0.848l12.445-2.59v-2.723c0.442,0.447,0.984,0.806,1.619,1.046c0.735,0.552,1.676,0.894,2.751,0.973
		c1.136,0.076,2.312-0.02,3.505-0.267c1.163-0.241,2.335-0.632,3.469-1.173c1.799-0.881,3.156-2.331,3.783-3.905v2.079l1.143-0.242
		v0.851l7.206-1.493c0,0,0-11.197,0-12.235c0.134-0.028,0.285-0.058,0.43-0.093c0,1.049,0,3.513,0,3.513s0,4.351,0,4.356
		c0,1.328,0.819,2.396,2.167,2.839c0.381,0.323,0.847,0.564,1.41,0.701l0.156,0.039l7.212-1.494l-1.073-0.632h0.018l-0.654-0.38
		c-0.574-0.387-0.885-0.965-0.885-1.641c0,0,0-0.584,0-1.424c0.387,1.216,1.317,2.175,2.6,2.678
		c0.739,0.547,1.677,0.899,2.762,0.975c1.148,0.07,2.325-0.021,3.504-0.263c1.183-0.251,2.351-0.647,3.474-1.183
		c0.746-0.367,1.417-0.825,1.994-1.362l1.26-0.264c-0.196,0.58-0.311,0.916-0.311,0.916l5.772-1.199
		c1.073-0.226,2.01-0.986,2.328-1.89c0.01-0.022,0.854-2.955,1.586-5.498c0.623,1.914,1.234,3.782,1.234,3.782l0.01,0.021
		c0.241,0.585,0.784,0.976,1.459,1.115c0.495,0.565,1.346,0.811,2.285,0.615l5.387-1.125c0,0-5.347-13.511-5.546-14.009
		C105.517,26.442,111.314,12.044,111.314,12.044z M28.601,52.169c0.004,2.021-1.652,4.076-3.94,5.165
		c-1.098,0.509-2.269,0.903-3.483,1.153c-1.224,0.256-2.392,0.342-3.489,0.293c-2.292-0.133-3.937-1.505-3.937-3.518V36.323
		c0-2.015,1.646-4.078,3.94-5.163c1.1-0.509,2.263-0.908,3.487-1.164c1.213-0.248,2.387-0.34,3.485-0.286
		c2.294,0.131,3.942,1.502,3.942,3.521l-0.004,6.985l-4.214,0.871c-0.881,0.189-1.597-0.229-1.593-0.931v-4.698
		c0-0.354-0.301-0.584-0.715-0.573c-0.288-0.005-0.593,0.028-0.901,0.089c-0.317,0.065-0.615,0.166-0.901,0.287
		c-0.416,0.159-0.722,0.519-0.722,0.87v16.9c0,0.353,0.301,0.578,0.715,0.572c0.292,0.005,0.591-0.014,0.907-0.091
		c0.308-0.064,0.607-0.159,0.896-0.285c0.415-0.159,0.716-0.521,0.716-0.867v-4.425c0-0.697,0.717-1.409,1.597-1.593l4.218-0.877
		L28.601,52.169z M29.667,45.433l-0.347,0.072v-0.923l-5.08,1.057c-1.217,0.251-2.17,1.258-2.17,2.298c0,0,0,4.378,0,4.414
		c-0.013,0.026-0.093,0.146-0.26,0.21c-0.147,0.062-0.287,0.112-0.432,0.159c0-3.525,0-15.713,0-15.939
		c0.012-0.036,0.097-0.159,0.276-0.232c0.145-0.064,0.287-0.11,0.416-0.152c0,1.306,0,3.765,0,3.765
		c0,0.498,0.209,0.948,0.602,1.265c0.256,0.204,0.566,0.336,0.908,0.388c0.07,0.084,0.136,0.163,0.226,0.233
		c0.469,0.38,1.138,0.514,1.845,0.364c0,0,2.668-0.553,4.017-0.83V45.433z M41.433,53.728L30.38,56.025V28.521l6.11-1.268
		l0.014,22.987l1.072-0.225c0.81-0.171,1.206-0.245,1.989-0.498c0.824-0.266,1.392-0.562,1.869-0.896V53.728z M56.93,46.398
		c0,2.015-1.574,4.063-3.75,5.121c-1.045,0.5-2.156,0.891-3.315,1.125c-1.155,0.242-2.269,0.318-3.316,0.259
		c-2.176-0.162-3.743-1.548-3.743-3.561V30.402c0-2.016,1.566-4.061,3.743-5.126c1.046-0.496,2.161-0.882,3.316-1.125
		c1.159-0.239,2.269-0.316,3.315-0.251c2.176,0.155,3.75,1.543,3.75,3.565V46.398z M69.778,47.851
		c-1.133-0.291-1.9-1.106-1.894-2.235l-0.006-4.345l0.006-3.971c0-0.244-0.045-0.474-0.122-0.683
		c-0.099-0.309-0.467-0.467-0.916-0.374l-1.93,0.4l-0.008,12.231l-5.812,1.211l0.008-27.538l7.162-1.494
		c1.218-0.251,2.389-0.342,3.483-0.285c2.297,0.129,3.944,1.501,3.944,3.522v5.137c0,1.635-1.077,3.274-2.693,4.424
		c1.585,0.214,2.693,1.217,2.693,2.675v7.89c0,1.018,0.52,1.849,1.372,2.341L69.778,47.851z M75.331,36.079
		c-0.288-0.828-0.899-1.498-1.768-1.9c0.876-0.858,1.487-1.843,1.768-2.862V36.079z M90.168,39.448c0,2.022-1.561,4.063-3.75,5.124
		c-1.036,0.504-2.146,0.884-3.307,1.126c-1.161,0.245-2.267,0.32-3.313,0.257c-2.177-0.163-3.75-1.547-3.75-3.563v-18.93
		c0-2.023,1.573-4.064,3.752-5.132c1.048-0.494,2.15-0.882,3.311-1.118c1.161-0.247,2.276-0.319,3.317-0.258
		c2.18,0.155,3.748,1.546,3.748,3.563L90.168,39.448z M108.781,39.803l-4.576,0.954c-0.851,0.176-1.579-0.125-1.814-0.681
		l-2.64-8.084l-2.633,9.177c-0.238,0.663-0.962,1.264-1.816,1.441l-4.572,0.946l5.344-15.722l-5.621-11.607l4.851-1.01
		c0.851-0.177,1.575,0.121,1.813,0.68l2.633,6.242l2.64-7.339c0.244-0.665,0.963-1.257,1.816-1.434l4.854-1.009l-5.621,13.947
		L108.781,39.803z M91.995,37.597l0.006-16.443c0-0.034,0.615,1.201,0.615,1.168c1.512,3.145,2.552,5.289,2.677,5.562
		C95.194,28.181,93.499,33.161,91.995,37.597z"/>
	<path style="fill:#FFFFFF;" d="M66.846,24.786l-1.93,0.403l-0.008,8.125l1.935-0.399c0.453-0.091,0.82-0.409,0.921-0.761
		c0.075-0.242,0.12-0.489,0.12-0.733v-5.571c0-0.247-0.045-0.475-0.12-0.688C67.663,24.856,67.296,24.695,66.846,24.786z
		 M67.161,31.425c0,0.163-0.026,0.332-0.085,0.501c-0.022,0.086-0.144,0.217-0.346,0.277c0-1.818,0-5.081,0-5.805
		c0.138-0.028,0.285-0.057,0.43-0.089C67.161,27.648,67.161,31.425,67.161,31.425z"/>
	<path style="fill:#FFFFFF;" d="M83.962,21.572c-0.264-0.011-0.55,0.014-0.851,0.077c-0.299,0.07-0.584,0.159-0.857,0.277
		c-0.397,0.159-0.681,0.514-0.681,0.862v18.048c0,0.355,0.284,0.591,0.681,0.581c0.273,0.01,0.559-0.016,0.858-0.081
		c0.3-0.059,0.585-0.156,0.857-0.273c0.394-0.161,0.678-0.517,0.678-0.867l0.006-18.043C84.647,21.8,84.369,21.56,83.962,21.572z
		 M83.923,40.189c-0.002,0.035-0.076,0.15-0.226,0.21c-0.102,0.041-0.204,0.079-0.302,0.116c0-3.705,0-16.978,0-17.08
		c0.005-0.039,0.089-0.154,0.249-0.218c0.092-0.042,0.185-0.08,0.284-0.113C83.928,26.605,83.923,40.178,83.923,40.189z"/>
	<path style="fill:#FFFFFF;" d="M64.134,55.849c0.045-0.188,0.073-0.385,0.075-0.579c0-0.198-0.03-0.379-0.075-0.548
		c-0.102-0.35-0.394-0.555-0.737-0.481l-1.579,0.333l2.199-1.281c0.099-0.053,0.18-0.179,0.188-0.317v-0.712l-3.08,1.751
		c-0.096,0.052-0.179,0.177-0.185,0.317c0,0,0.004,1.123,0,1.363l2.376-0.499c0.061-0.013,0.11,0.025,0.122,0.091
		c0.009,0.042,0.016,0.089,0.013,0.142c0.003,0.05-0.004,0.098-0.013,0.147c-0.014,0.069-0.066,0.13-0.127,0.143l-2.911,0.608
		v-1.741c-0.036-0.088-0.15-0.132-0.281-0.105l-0.605,0.12v1.914l-0.266,0.057l-0.125,0.025l-0.253,0.055V54.74l-0.885,0.185v1.912
		l-0.647,0.135v-1.008v-0.903v0.001l-0.599,0.129c-0.134,0.026-0.247,0.121-0.286,0.226v1.834v0.585h0.002v0.648
		c0,0.056-0.045,0.113-0.108,0.137c-0.046,0.021-0.091,0.033-0.138,0.043l-0.713,0.152c-0.044,0.008-0.254,0.052-0.3,0.063
		c-0.049,0.011-0.094,0.012-0.137,0.012c-0.064,0-0.109-0.037-0.109-0.094v-3.236l-0.976,0.206c0.034,0.067,0.064,0.15,0.077,0.275
		c0.008,0.058,0.012,0.101,0.012,0.144v2.939c0.004-0.003,0.006-0.005,0.009-0.006c0.039,0.284,0.274,0.474,0.595,0.496
		c0.166,0.012,0.345-0.002,0.53-0.041c0.181-0.039,0.602-0.127,0.602-0.127l0.41-0.086c0.183-0.04,0.362-0.099,0.53-0.18
		c0.348-0.17,0.599-0.496,0.599-0.821V57.91l0.43-0.091v0.002l0.161-0.035h0.004c0.004-0.003,0.006-0.004,0.012-0.006
		c0.226-0.055,0.418-0.268,0.502-0.533c0.129,0.231,0.353,0.354,0.607,0.302l-0.012,0.004c0.041-0.006,0.1-0.02,0.22-0.046l0,0
		l0.201-0.042c0.004-0.002,0.011-0.003,0.018-0.005c0.226-0.057,0.416-0.269,0.5-0.536c0.132,0.231,0.353,0.355,0.609,0.304
		l2.807-0.587C63.736,56.567,64.032,56.239,64.134,55.849z"/>
	<path style="fill:#FFFFFF;" d="M59.013,57.559c0.012-0.003,0.02-0.004,0.027-0.007C58.977,57.566,58.986,57.565,59.013,57.559z"/>
	<path style="fill:#FFFFFF;" d="M73.811,52.693c-0.103-0.349-0.394-0.552-0.735-0.481l-1.583,0.332l2.2-1.281
		c0.099-0.052,0.178-0.18,0.19-0.318v-0.71l-3.08,1.75c-0.098,0.052-0.179,0.18-0.19,0.318c0,0,0.005,1.122,0,1.361l2.379-0.499
		c0.059-0.011,0.109,0.026,0.122,0.093c0.014,0.041,0.017,0.09,0.017,0.141c0,0.05-0.007,0.099-0.017,0.148
		c-0.013,0.07-0.063,0.131-0.124,0.141l-2.887,0.605v-3.459l-0.978,0.204v3.462l-0.493,0.104v-1.911l0,0l-0.885,0.184
		c0,0-0.161,0.032-0.353,0.076c-0.033,0.007-0.067,0.017-0.1,0.029h-0.006c-0.057,0.02-0.111,0.041-0.163,0.059
		c-0.012,0.001-0.021,0.005-0.03,0.009c-0.055,0.021-0.104,0.044-0.158,0.067c-0.002,0.003-0.004,0.003-0.009,0.006
		c-0.367,0.172-0.631,0.501-0.631,0.825v0.094l0,0v1.185c0,0.323,0.264,0.544,0.631,0.563c0.117,0.009,0.237,0,0.366-0.014
		c0.032-0.001,0.066-0.002,0.1-0.011c0.193-0.04,0.353-0.074,0.353-0.074l0,0v0.424c0,0.056-0.043,0.112-0.108,0.138
		c-0.043,0.019-0.086,0.036-0.134,0.048l-0.913,0.188l-0.294,0.061l-0.001,0.407c0,0.139,0.072,0.238,0.169,0.255l1.037-0.218
		c0.185-0.037,0.362-0.098,0.53-0.178c0.348-0.171,0.599-0.496,0.599-0.821v-0.454l0.509-0.105c0.006-0.002,0.014-0.006,0.014-0.006
		c0.228-0.057,0.418-0.268,0.504-0.534c0.128,0.229,0.349,0.353,0.609,0.303l2.803-0.589c0.345-0.072,0.637-0.398,0.74-0.79
		c0.047-0.186,0.073-0.384,0.073-0.581C73.884,53.043,73.858,52.861,73.811,52.693z M67.701,54.804l-0.308,0.063
		c-0.075,0.017-0.131-0.01-0.149-0.06c-0.014-0.032-0.019-0.067-0.019-0.106V54.09c0-0.041,0.005-0.078,0.019-0.118
		c0.018-0.057,0.074-0.105,0.149-0.124l0.308-0.064V54.804z"/>
	<path style="fill:#FFFFFF;" d="M64.811,53.494l0.001,3.236c0,0.058-0.046,0.116-0.108,0.141c-0.036,0.016-0.077,0.029-0.114,0.037
		c-0.078,0.015-0.403,0.083-0.403,0.083c-0.152,0.033-0.292-0.024-0.394-0.131v0.622c0.081,0.156,0.227,0.245,0.4,0.209l0.373-0.079
		l0.005-0.001l0.018-0.004v-0.003c0.177-0.038,0.346-0.094,0.507-0.173c0.349-0.171,0.597-0.493,0.597-0.819v-3.303l0,0
		L64.811,53.494z"/>
	<path style="fill:#FFFFFF;" d="M115.365,52.037v-0.56h0.089l0.093,0.004c0.069,0.004,0.112,0.015,0.148,0.029
		c0.055,0.018,0.094,0.056,0.12,0.114c0.011,0.031,0.019,0.099,0.019,0.194c0.007,0.095,0.012,0.169,0.029,0.219h0.394l-0.014-0.045
		c-0.009-0.019-0.009-0.033-0.013-0.046c-0.003-0.016-0.003-0.027-0.003-0.048v-0.141c0-0.162-0.047-0.277-0.143-0.356
		c-0.046-0.039-0.122-0.072-0.218-0.09c0.105-0.011,0.195-0.049,0.271-0.11c0.071-0.058,0.109-0.158,0.109-0.291
		c0-0.177-0.067-0.302-0.208-0.385c-0.084-0.041-0.193-0.071-0.317-0.08c-0.024,0-0.131,0-0.33-0.003c-0.198,0-0.344,0-0.442,0
		v1.595H115.365 M115.843,50.937c0,0.091-0.027,0.155-0.081,0.192c-0.055,0.038-0.132,0.06-0.232,0.06h-0.164V50.72h0.104
		c0.105,0,0.185,0.01,0.242,0.033C115.802,50.786,115.843,50.846,115.843,50.937z M117.015,51.236c0-0.398-0.143-0.736-0.421-1.016
		c-0.282-0.283-0.622-0.424-1.016-0.424c-0.379,0-0.708,0.131-0.991,0.39c-0.299,0.28-0.447,0.63-0.447,1.05
		c0,0.407,0.14,0.748,0.411,1.025c0.281,0.275,0.624,0.417,1.027,0.417c0.391,0,0.726-0.139,1.005-0.408
		C116.869,51.992,117.015,51.646,117.015,51.236z M115.581,50.036c0.319,0,0.601,0.124,0.833,0.366
		c0.229,0.237,0.346,0.513,0.346,0.835c0,0.329-0.117,0.612-0.346,0.851c-0.232,0.231-0.513,0.349-0.833,0.349
		c-0.328,0-0.611-0.118-0.839-0.349c-0.234-0.228-0.347-0.518-0.347-0.851c0-0.322,0.113-0.601,0.338-0.835
		C114.967,50.16,115.248,50.036,115.581,50.036z"/>
</g>
<g id="Layer_1">
</g>
</svg>
