<?xml version="1.0" encoding="iso-8859-1"?>
<!-- Generator: Adobe Illustrator 18.1.1, SVG Export Plug-In . SVG Version: 6.00 Build 0)  -->
<svg version="1.1" xmlns="http://www.w3.org/2000/svg" xmlns:xlink="http://www.w3.org/1999/xlink" x="0px" y="0px"
	 viewBox="0 0 106.299 80.822" style="enable-background:new 0 0 106.299 80.822;" xml:space="preserve">
<g id="alfardan">
	<g>
		<path style="fill:#FFFFFF;" d="M62.869,47.288c0.011,0.042,0.021,0.083,0.032,0.125c0.181,0,0.363,0.006,0.544-0.002
			c0.174-0.007,0.347-0.041,0.521-0.041c1.29,0.001,2.574-0.093,3.853-0.256c1.003-0.127,1.99-0.327,2.914-0.748
			c2.381-1.084,4.125-2.863,5.458-5.075c0.894-1.482,1.52-3.077,1.967-4.746c0.456-1.705,0.735-3.438,0.828-5.199
			c0.078-1.477-0.015-2.953-0.16-4.422c-0.199-2.02-0.55-4.016-1.044-5.985c-0.665-2.65-1.575-5.213-2.706-7.701
			c-0.98-2.157-2.14-4.21-3.42-6.2c-0.057-0.089-0.14-0.162-0.268-0.307c0,0.182-0.005,0.26,0.001,0.337
			c0.087,1.069,0.175,2.139,0.264,3.208c0.118,1.417,0.228,2.835,0.358,4.251c0.168,1.83,0.346,3.659,0.531,5.488
			c0.19,1.882,0.38,3.764,0.596,5.644c0.161,1.399,0.344,2.797,0.557,4.189c0.154,1.007,0.372,2.005,0.569,3.005
			c0.034,0.172,0.074,0.356,0.275,0.521c0-0.182,0.01-0.298-0.002-0.413c-0.145-1.401-0.299-2.801-0.44-4.203
			c-0.134-1.335-0.259-2.67-0.38-4.006c-0.097-1.069-0.189-2.138-0.272-3.208c-0.082-1.057-0.152-2.114-0.224-3.171
			c-0.017-0.245-0.033-0.493,0.058-0.745c0.302,0.425,0.572,0.854,0.813,1.298c1.292,2.386,2.277,4.892,2.853,7.546
			c0.213,0.982,0.405,1.977,0.489,2.976c0.129,1.537-0.091,3.055-0.516,4.538c-0.724,2.527-2.041,4.718-3.82,6.638
			c-1.507,1.627-3.243,2.971-5.137,4.116c-1.519,0.919-3.105,1.706-4.746,2.381C63.098,47.171,62.985,47.232,62.869,47.288z"/>
		<path style="fill:#FFFFFF;" d="M38.489,35.141c0.053-0.05,0.096-0.071,0.109-0.104c0.397-0.966,0.802-1.929,1.179-2.903
			c0.132-0.34,0.084-0.456-0.274-0.589c-0.865-0.321-1.741-0.616-2.621-0.896c-0.363-0.115-0.418-0.068-0.562,0.31
			c-0.314,0.827-0.602,1.664-0.934,2.483c-0.19,0.47-0.152,0.498,0.339,0.657c0.726,0.235,1.443,0.501,2.16,0.763
			C38.095,34.94,38.293,35.05,38.489,35.141z"/>
		<path style="fill:#FFFFFF;" d="M57.545,30.392c0.23,0.094,0.405,0.165,0.614,0.251c0.101-0.248,0.203-0.439,0.254-0.643
			c0.072-0.287-0.111-0.583-0.4-0.712c-0.265-0.118-0.508-0.049-0.691,0.232c-0.108,0.167-0.191,0.356-0.255,0.545
			c-0.169,0.496-0.318,0.997-0.482,1.495c-0.025,0.076-0.079,0.141-0.151,0.265c-0.188-0.519-0.348-0.974-0.518-1.424
			c-0.152-0.403-0.405-0.727-0.798-0.921c-0.308-0.153-0.589-0.096-0.756,0.14c-0.252,0.353-0.202,0.861,0.125,1.27
			c0.26,0.325,0.485,0.37,0.964,0.182c0.028,0.04,0.072,0.079,0.087,0.126c0.184,0.602,0.364,1.206,0.544,1.81
			c0.046,0.155-0.063,0.237-0.149,0.344c-0.182,0.228-0.346,0.471-0.496,0.722c-0.042,0.07-0.006,0.185-0.006,0.307
			c0.703-0.441,0.741-0.446,1.044-0.146c-0.15,0.112-0.299,0.222-0.446,0.334c-0.506,0.385-0.707,0.896-0.624,1.521
			c0.019,0.146,0.047,0.292,0.086,0.434c0.223,0.816,0.45,1.631,0.68,2.444c0.034,0.12,0.092,0.234,0.162,0.41
			c0.23-0.35,0.288-0.654,0.205-0.978c-0.176-0.688-0.366-1.374-0.544-2.061c-0.193-0.746-0.007-1.057,0.744-1.254
			c0.103-0.027,0.211-0.041,0.317-0.057c0.172-0.026,0.345-0.057,0.518-0.069c0.206-0.013,0.312-0.133,0.378-0.309
			c0.087-0.231,0.08-0.452-0.09-0.642c-0.134-0.149-0.271-0.299-0.428-0.424c-0.249-0.199-0.516-0.377-0.812-0.591
			C56.981,32.16,56.988,31.194,57.545,30.392z"/>
		<path style="fill:#FFFFFF;" d="M42.65,14.36c-0.06,0.323-0.099,0.583-0.158,0.84c-0.065,0.286,0.028,0.458,0.277,0.63
			c0.372,0.257,0.729,0.553,1.034,0.886c0.486,0.529,0.791,1.159,0.708,1.902c-0.035,0.315-0.147,0.622-0.237,0.929
			c-0.113,0.385-0.266,0.759-0.356,1.149c-0.097,0.421,0.027,0.638,0.402,0.866c0.338,0.205,0.625,0.468,0.812,0.818
			c0.145,0.27,0.045,0.441-0.262,0.467c-0.145,0.013-0.294-0.013-0.441-0.019c-0.088-0.003-0.175-0.001-0.277-0.001
			c-0.015,0.13-0.029,0.221-0.034,0.313c-0.012,0.209,0.088,0.347,0.296,0.352c0.293,0.008,0.59,0.008,0.879-0.03
			c0.282-0.037,0.465-0.233,0.485-0.516c0.021-0.305,0.01-0.615-0.018-0.919c-0.038-0.415-0.299-0.674-0.663-0.842
			c-0.469-0.218-0.497-0.262-0.419-0.763c0.027-0.172,0.066-0.343,0.108-0.512c0.112-0.442,0.237-0.881,0.341-1.325
			c0.096-0.412,0.097-0.827-0.043-1.231c-0.407-1.178-1.134-2.12-2.136-2.854C42.888,14.455,42.809,14.433,42.65,14.36z"/>
		<path style="fill:#FFFFFF;" d="M35.699,12.573c0.098,0.302,0.195,0.548,0.256,0.803c0.116,0.482,0.204,0.971,0.322,1.452
			c0.036,0.145,0.134,0.274,0.225,0.452c0.285-0.326,0.422-0.656,0.514-1.003c0.154-0.584,0.288-1.173,0.438-1.757
			c0.05-0.193,0.117-0.384,0.3-0.517c0.055,0.02,0.112,0.028,0.152,0.058c0.359,0.28,0.481,0.148,0.637-0.245
			c0.034-0.086,0.061-0.18,0.069-0.272c0.027-0.325-0.233-0.702-0.527-0.776c-0.295-0.074-0.513,0.053-0.696,0.408
			c-0.037,0.071-0.075,0.144-0.098,0.22c-0.092,0.309-0.179,0.619-0.268,0.928c-0.109,0.381-0.217,0.762-0.325,1.143
			c-0.122-0.12-0.177-0.238-0.216-0.361c-0.114-0.358-0.213-0.721-0.336-1.076c-0.163-0.471-0.427-0.867-0.9-1.082
			c-0.289-0.131-0.516-0.071-0.711,0.176c-0.161,0.204-0.222,0.449-0.147,0.684c0.085,0.263,0.2,0.532,0.367,0.749
			C35.045,12.938,35.247,12.937,35.699,12.573z"/>
		<path style="fill:#FFFFFF;" d="M72.914,34.099c0.436-0.44,0.462-0.903,0.095-1.295c-0.232-0.248-0.508-0.268-0.728-0.008
			c-0.125,0.147-0.206,0.343-0.265,0.53c-0.174,0.549-0.326,1.106-0.49,1.658c-0.044,0.146-0.103,0.287-0.183,0.509
			c-0.074-0.163-0.113-0.232-0.138-0.306c-0.153-0.457-0.279-0.926-0.463-1.37c-0.11-0.265-0.275-0.526-0.476-0.729
			c-0.433-0.438-0.873-0.349-1.153,0.195c-0.184,0.358-0.146,0.695,0.11,0.965c0.339,0.358,0.764,0.474,1.126,0.299
			c0.226,0.233,0.27,0.54,0.335,0.84c0.096,0.445,0.192,0.89,0.307,1.331c0.038,0.145,0.133,0.276,0.236,0.48
			c0.092-0.157,0.16-0.239,0.191-0.333c0.124-0.382,0.241-0.766,0.352-1.152c0.13-0.45,0.243-0.906,0.382-1.353
			c0.053-0.173,0.157-0.33,0.251-0.522C72.593,33.935,72.744,34.012,72.914,34.099z"/>
		<path style="fill:#FFFFFF;" d="M70.008,7.179c0.013-0.234-0.137-0.386-0.23-0.552c-0.544-0.976-1.155-1.901-2.058-2.595
			c-0.428-0.329-0.868-0.632-1.42-0.713c-0.68-0.1-1.289,0.488-1.13,1.146c0.16,0.665,0.6,1.197,1.328,1.367
			c0.116,0.027,0.244,0.004,0.427,0.004c-0.092-0.145-0.141-0.222-0.189-0.298c-0.183-0.287-0.188-0.54-0.014-0.74
			c0.206-0.237,0.505-0.308,0.798-0.127c0.27,0.166,0.544,0.356,0.747,0.595c0.46,0.54,0.877,1.115,1.311,1.677
			C69.684,7.077,69.781,7.224,70.008,7.179z"/>
		<path style="fill:#FFFFFF;" d="M29.415,25.055c-0.103,0.171-0.177,0.325-0.279,0.457c-0.29,0.376-0.779,0.32-0.966-0.116
			c-0.055-0.128-0.075-0.288-0.058-0.427c0.029-0.238,0.068-0.484,0.159-0.704c0.342-0.829,0.707-1.649,1.064-2.472
			c0.055-0.127,0.109-0.253,0.164-0.38c-0.024-0.013-0.049-0.026-0.073-0.039c-0.079,0.085-0.164,0.165-0.235,0.256
			c-0.762,0.971-1.307,2.057-1.68,3.229c-0.166,0.52-0.205,1.05-0.08,1.587c0.13,0.556,0.483,0.887,1.042,0.974
			c0.341,0.053,0.609-0.056,0.797-0.343c0.232-0.353,0.387-0.739,0.402-1.164C29.681,25.621,29.655,25.328,29.415,25.055z"/>
		<path style="fill:#FFFFFF;" d="M66.615,38.114c-0.066,0.061-0.131,0.106-0.176,0.165c-0.543,0.723-1.001,1.497-1.3,2.353
			c-0.266,0.76-0.297,1.555-0.22,2.348c0.05,0.514,0.414,0.817,0.921,0.838c0.824,0.034,1.07-0.178,1.177-1.014
			c0.005-0.04,0.019-0.08,0.018-0.119c-0.005-0.368-0.003-0.739-0.22-1.157c-0.081,0.201-0.128,0.334-0.187,0.461
			c-0.132,0.283-0.402,0.44-0.679,0.404c-0.277-0.036-0.458-0.213-0.515-0.538c-0.025-0.142-0.021-0.294-0.005-0.438
			c0.07-0.64,0.332-1.212,0.634-1.77c0.198-0.366,0.389-0.736,0.575-1.108C66.702,38.41,66.765,38.269,66.615,38.114z"/>
		<path style="fill:#FFFFFF;" d="M53.205,42.806c-0.056,0.046-0.115,0.077-0.148,0.126c-0.51,0.755-1.041,1.5-1.309,2.385
			c-0.235,0.775-0.351,1.568-0.228,2.375c0.077,0.508,0.335,0.782,1.008,0.855c0.51,0.056,0.917-0.239,1.041-0.751
			c0.125-0.517,0.077-1.035-0.111-1.535c-0.005-0.012-0.046-0.011-0.093-0.021c-0.027,0.083-0.051,0.17-0.085,0.253
			c-0.04,0.099-0.079,0.2-0.136,0.29c-0.153,0.24-0.407,0.348-0.652,0.288c-0.291-0.07-0.462-0.258-0.467-0.573
			c-0.003-0.265-0.007-0.546,0.07-0.794c0.135-0.432,0.319-0.85,0.509-1.262c0.191-0.413,0.417-0.809,0.621-1.216
			C53.291,43.1,53.357,42.96,53.205,42.806z"/>
		<path style="fill:#FFFFFF;" d="M62.742,49.718c-0.073-0.082-0.156-0.163-0.223-0.255c-0.135-0.184-0.24-0.396-0.398-0.554
			c-0.186-0.185-0.405-0.345-0.632-0.477c-0.146-0.084-0.333-0.061-0.401,0.135c-0.097,0.279-0.083,0.558,0.104,0.802
			c0.108,0.141,0.247,0.187,0.427,0.125c0.324-0.111,0.459-0.081,0.638,0.19c0.147,0.222,0.247,0.475,0.378,0.709
			c0.097,0.173,0.095,0.348-0.024,0.49c-0.213,0.255-0.425,0.521-0.682,0.726c-0.477,0.381-1.053,0.582-1.619,0.794
			c-0.092,0.034-0.178,0.082-0.35,0.162c0.609,0.076,1.112,0.019,1.612-0.079c0.824-0.162,1.312-0.673,1.371-1.508
			c0.047-0.666,0.285-1.28,0.449-1.912c0.097-0.374,0.189-0.389,0.538-0.205c0.019,0.01,0.05-0.005,0.093-0.011
			c0.165-0.214,0.172-0.461,0.091-0.714c-0.113-0.357-0.456-0.46-0.719-0.198c-0.128,0.127-0.238,0.299-0.289,0.471
			c-0.08,0.267-0.107,0.55-0.151,0.827C62.929,49.401,62.965,49.59,62.742,49.718z"/>
		<path style="fill:#FFFFFF;" d="M35.271,13.838c-0.338,0.399-0.588,0.789-0.928,1.071c-0.356,0.294-0.787,0.505-1.205,0.712
			c-0.399,0.197-0.823,0.343-1.322,0.546c0.163,0.041,0.236,0.08,0.306,0.074c0.533-0.049,1.07-0.08,1.597-0.168
			c0.992-0.166,1.498-0.885,1.591-1.812C35.322,14.139,35.288,14.013,35.271,13.838z"/>
		<path style="fill:#FFFFFF;" d="M48.78,3.031c-0.103,0.141-0.163,0.243-0.242,0.327c-0.166,0.176-0.372,0.186-0.58,0.041
			c-0.186-0.13-0.218-0.239-0.112-0.484c0.09-0.209,0.202-0.408,0.293-0.617c0.16-0.368,0.316-0.738,0.462-1.112
			c0.027-0.068-0.004-0.159-0.014-0.327c-0.478,0.668-0.909,1.254-1.072,1.972c-0.079,0.347-0.099,0.718-0.075,1.074
			c0.031,0.447,0.58,0.724,0.931,0.509C48.744,4.186,48.947,3.57,48.78,3.031z"/>
		<path style="fill:#FFFFFF;" d="M40.996,17.979c-0.038-0.018-0.076-0.035-0.114-0.053c-0.293,0.408-0.572,0.825-0.787,1.282
			c-0.184,0.39-0.314,0.803-0.314,1.237c0,0.22,0.031,0.464,0.128,0.656c0.22,0.43,0.779,0.455,1.036,0.049
			c0.14-0.22,0.231-0.478,0.304-0.73c0.034-0.12-0.027-0.267-0.055-0.478c-0.097,0.108-0.132,0.142-0.162,0.181
			c-0.04,0.053-0.069,0.115-0.113,0.165c-0.176,0.202-0.302,0.222-0.526,0.093c-0.245-0.141-0.289-0.258-0.168-0.529
			c0.202-0.452,0.422-0.896,0.62-1.35C40.918,18.338,40.947,18.154,40.996,17.979z"/>
		<path style="fill:#FFFFFF;" d="M56.746,9.136c-0.068,0.05-0.12,0.07-0.145,0.109c-0.243,0.386-0.499,0.765-0.718,1.164
			c-0.278,0.507-0.368,1.061-0.321,1.637c0.023,0.282,0.164,0.479,0.424,0.584c0.192,0.078,0.4,0.13,0.568-0.033
			c0.287-0.28,0.474-0.619,0.48-1.031c0.002-0.092-0.056-0.184-0.103-0.326c-0.115,0.148-0.18,0.249-0.262,0.334
			c-0.161,0.169-0.355,0.181-0.542,0.046c-0.2-0.144-0.245-0.275-0.136-0.52c0.192-0.429,0.406-0.847,0.6-1.275
			C56.684,9.621,56.785,9.414,56.746,9.136z"/>
		<path style="fill:#FFFFFF;" d="M47.222,37.736c-0.09,0.131-0.129,0.197-0.177,0.257c-0.193,0.242-0.405,0.287-0.624,0.136
			c-0.22-0.151-0.253-0.316-0.111-0.59c0.074-0.142,0.166-0.275,0.24-0.417c0.198-0.379,0.396-0.758,0.582-1.143
			c0.046-0.094,0.05-0.208,0.088-0.376c-0.105,0.069-0.146,0.083-0.167,0.112c-0.313,0.45-0.652,0.885-0.927,1.357
			c-0.289,0.498-0.403,1.048-0.228,1.623c0.159,0.523,0.633,0.651,1.007,0.269c0.092-0.094,0.178-0.202,0.239-0.318
			C47.281,38.385,47.395,38.116,47.222,37.736z"/>
		<path style="fill:#FFFFFF;" d="M43.775,42.358c0.076-0.092,0.138-0.174,0.206-0.248c0.2-0.219,0.414-0.226,0.624-0.023
			c0.177,0.171,0.196,0.29,0.046,0.534c-0.239,0.387-0.492,0.765-0.737,1.148c-0.128,0.2-0.235,0.407-0.277,0.682
			c0.084-0.03,0.131-0.032,0.15-0.056c0.306-0.372,0.632-0.729,0.902-1.126c0.185-0.271,0.336-0.585,0.416-0.902
			c0.069-0.274,0.06-0.587,0.009-0.869c-0.066-0.365-0.421-0.582-0.706-0.498C43.927,41.142,43.595,41.822,43.775,42.358z"/>
		<path style="fill:#FFFFFF;" d="M56.769,43.385c-0.133,0.159-0.196,0.239-0.264,0.316c-0.254,0.287-0.443,0.276-0.696-0.008
			c-0.138-0.155-0.096-0.286-0.015-0.437c0.26-0.484,0.521-0.968,0.772-1.457c0.062-0.121,0.087-0.26,0.138-0.418
			c-0.09,0.017-0.127,0.013-0.139,0.029c-0.416,0.542-0.856,1.073-1.106,1.717c-0.157,0.406-0.205,0.834-0.056,1.261
			c0.183,0.523,0.701,0.627,1.064,0.215c0.191-0.217,0.321-0.466,0.344-0.756C56.82,43.726,56.79,43.602,56.769,43.385z"/>
		<path style="fill:#FFFFFF;" d="M70.091,8.405c-0.03-0.013-0.061-0.027-0.091-0.04c-0.031,0.022-0.072,0.037-0.091,0.067
			c-0.22,0.352-0.457,0.697-0.649,1.064c-0.154,0.295-0.267,0.614-0.372,0.932c-0.114,0.344-0.055,0.693,0.058,1.028
			c0.143,0.422,0.728,0.665,1.075,0.165c0.156-0.224,0.291-0.454,0.298-0.734c0.004-0.15,0.044-0.316-0.123-0.465
			c-0.077,0.116-0.138,0.216-0.206,0.311c-0.131,0.182-0.282,0.223-0.489,0.139c-0.282-0.115-0.367-0.289-0.239-0.571
			c0.2-0.439,0.429-0.865,0.63-1.304C69.978,8.808,70.026,8.602,70.091,8.405z"/>
		<path style="fill-rule:evenodd;clip-rule:evenodd;fill:#FFFFFF;" d="M34.873,30.526c-0.038-0.181-0.086-0.334-0.1-0.49
			c-0.107-1.258-0.152-2.52-0.08-3.78c0.065-1.142,0.573-2.079,1.445-2.82c0.823-0.7,1.787-1.037,2.852-1.047
			c1.267-0.011,2.352,0.494,3.289,1.318c1.116,0.981,1.756,2.255,2.167,3.656c0.174,0.594,0.166,0.622,0.756,0.445
			c0.719-0.216,1.427-0.47,2.134-0.724c0.305-0.11,0.299-0.14,0.268-0.445c-0.093-0.921-0.181-1.842-0.27-2.764
			c-0.15-1.562-0.298-3.125-0.447-4.688c-0.124-1.309-0.246-2.618-0.372-3.927c-0.119-1.242-0.253-2.482-0.36-3.725
			c-0.084-0.975-0.141-1.953-0.205-2.93c-0.008-0.125,0.015-0.252,0.073-0.388c2.681,4.938,5.203,9.934,6.693,15.399
			c0.359-0.078,0.575-0.305,0.806-0.493c2.505-2.042,4.187-4.648,5.248-7.679c0.346-0.99,0.597-2.006,0.779-3.038
			c0.095-0.539,0.022-1.073-0.08-1.6c-0.415-2.148-1.606-3.775-3.392-4.99c-0.667-0.454-1.422-0.704-2.215-0.807
			c-0.93-0.122-1.679,0.185-2.214,0.994c-0.62,0.94-0.943,1.948-0.848,3.082c0.032,0.381,0.164,0.667,0.482,0.917
			c1.101,0.865,2.098,1.838,2.914,2.987c0.551,0.775,0.882,1.623,0.945,2.574c0.025,0.375,0.061,0.749,0.084,1.124
			c0.052,0.864-0.223,1.64-0.659,2.367c-0.077,0.129-0.147,0.285-0.357,0.347c-0.01-0.124-0.028-0.225-0.024-0.324
			c0.036-0.841-0.273-1.56-0.833-2.158c-0.734-0.783-1.507-1.531-2.257-2.299c-0.422-0.432-0.838-0.869-1.249-1.312
			c-0.283-0.305-0.404-0.693-0.501-1.085c-0.28-1.133-0.279-2.289-0.25-3.444c0.032-1.276,0.166-2.546,0.411-3.798
			c0.268-1.371,0.754-2.656,1.615-3.78c0.775-1.012,1.777-1.385,3.015-1.116c1.886,0.411,3.379,1.399,4.561,2.944
			c1.06,1.386,1.497,2.983,1.845,4.631c0.272,1.289,0.424,2.593,0.509,3.908c0.131,2.047,0.047,4.079-0.34,6.092
			c-0.336,1.752-0.89,3.431-1.826,4.963c-1.175,1.924-2.78,3.359-4.872,4.23c-0.767,0.319-0.6,0.188-0.523,0.922
			c0.102,0.974,0.192,1.949,0.305,2.921c0.106,0.908,0.165,1.818,0.134,2.731c-0.105,3.131-0.678,6.156-2.033,9.008
			c-0.732,1.54-1.648,2.958-2.802,4.207c-0.697,0.754-1.552,1.32-2.518,1.7c-1.416,0.556-2.879,0.706-4.389,0.572
			c-0.901-0.08-1.775-0.263-2.642-0.514c-0.877-0.254-1.66-0.696-2.415-1.184c-1.819-1.175-3.389-2.631-4.756-4.308
			c-0.049-0.06-0.091-0.126-0.095-0.238c0.13,0.099,0.268,0.19,0.389,0.299c0.901,0.809,1.941,1.396,3.055,1.84
			c0.784,0.313,1.593,0.567,2.404,0.804c1.542,0.451,3.081,0.339,4.606-0.106c1.795-0.525,3.298-1.532,4.638-2.811
			c0.946-0.902,1.775-1.903,2.562-2.943c0.767-1.013,1.233-2.168,1.568-3.377c0.37-1.338,0.6-2.705,0.561-4.095
			c-0.04-1.436-0.201-2.864-0.528-4.268c-0.021-0.089-0.055-0.174-0.093-0.292c-0.948,0.165-1.882,0.328-2.873,0.501
			c0,0.129-0.012,0.258,0.002,0.383c0.171,1.56,0.35,3.12,0.515,4.68c0.044,0.413,0.049,0.83,0.067,1.245
			c0.002,0.046-0.03,0.093-0.076,0.227c-0.068-0.165-0.12-0.251-0.139-0.344c-0.297-1.487-0.593-2.974-0.88-4.462
			c-0.081-0.421-0.131-0.849-0.205-1.272c-0.061-0.351-0.109-0.382-0.451-0.342c-0.533,0.063-1.065,0.132-1.599,0.184
			c-0.344,0.033-0.691,0.04-1.078,0.062c0.043,0.338,0.092,0.676,0.127,1.016c0.096,0.948,0.151,1.892,0.091,2.85
			c-0.095,1.536-0.36,3.037-0.745,4.52c-0.37,1.426-1.134,2.629-2.128,3.694c-0.771,0.826-1.672,1.48-2.743,1.857
			c-2.086,0.734-4.096,0.565-5.988-0.614c-1.436-0.895-2.422-2.171-3.115-3.702c-0.504-1.114-0.806-2.28-0.912-3.489
			c-0.064-0.733-0.056-1.478-0.008-2.214c0.057-0.895,0.164-1.79,0.295-2.678c0.223-1.511,0.699-2.945,1.37-4.32
			c0.922-1.89,2.03-3.663,3.296-5.337c1.554-2.056,3.148-4.082,4.694-6.143c1.282-1.709,2.457-3.492,3.378-5.428
			c0.554-1.164,1.07-2.347,1.314-3.624c0.033-0.17,0.055-0.348,0.039-0.519c-0.033-0.356-0.245-0.511-0.58-0.388
			c-0.692,0.253-1.389,0.504-2.054,0.821c-1.821,0.869-3.415,2.066-4.882,3.445c-2.289,2.151-4.134,4.649-5.743,7.329
			c-0.649,1.081-1.238,2.198-1.854,3.298c-0.025,0.045-0.056,0.088-0.136,0.128c0.006-0.078-0.004-0.163,0.021-0.234
			c0.356-1.012,0.671-2.042,1.085-3.03c0.903-2.158,2.162-4.106,3.638-5.915c1.631-1.999,3.523-3.716,5.646-5.185
			c1.564-1.082,3.243-1.946,4.982-2.701c0.268-0.116,0.56-0.188,0.848-0.249c0.408-0.086,0.554-0.008,0.621,0.413
			c0.071,0.447,0.101,0.907,0.084,1.359c-0.046,1.21-0.417,2.348-0.86,3.462c-0.811,2.041-1.869,3.956-3.029,5.815
			c-1.537,2.463-3.268,4.789-5.072,7.062c-1.086,1.368-2.131,2.764-2.996,4.286c-0.952,1.677-1.71,3.434-2.242,5.29
			c-0.644,2.245-0.392,4.393,0.736,6.422c1.007,1.811,2.59,2.865,4.601,3.286c0.546,0.115,1.106,0.048,1.64-0.075
			c1.432-0.331,2.711-0.935,3.619-2.16c0.629-0.849,0.997-1.805,1.198-2.831c0.072-0.368,0.144-0.743,0.147-1.116
			c0.003-0.357-0.049-0.724-0.138-1.07c-0.445-1.741-1.42-3.114-2.941-4.077c-0.59-0.374-1.219-0.674-1.937-0.744
			c-0.789-0.078-1.468,0.139-1.991,0.735c-0.169,0.193-0.281,0.459-0.354,0.71c-0.093,0.32-0.112,0.66-0.176,0.988
			c-0.041,0.21-0.091,0.421-0.166,0.62C35.315,30.392,35.236,30.437,34.873,30.526z M47.93,18.941
			c-0.127,0.722,0.396,7.219,0.564,7.59c0.165-0.073,0.342-0.131,0.497-0.225c0.471-0.283,0.938-0.575,1.4-0.873
			c0.357-0.231,0.355-0.238,0.213-0.647c-0.605-1.741-1.384-3.404-2.237-5.035C48.224,19.48,48.075,19.212,47.93,18.941z"/>
		<path style="fill:#FFFFFF;" d="M71.234,20.774c-0.153-1.35-0.448-2.674-0.848-3.972c-0.483-1.568-1.025-3.118-1.859-4.537
			c-0.672-1.145-1.391-2.266-2.153-3.353c-1.721-2.451-3.592-4.789-5.486-7.108c-0.051-0.062-0.129-0.101-0.238-0.184
			c0,0.157-0.012,0.25,0.002,0.339c0.18,1.194,0.328,2.394,0.553,3.58c0.333,1.753,0.676,3.507,1.097,5.24
			c0.471,1.943,1.033,3.864,1.553,5.795c0.029,0.108,0.038,0.222,0.067,0.399c-0.207-0.046-0.347-0.072-0.484-0.108
			c-0.312-0.081-0.623-0.164-0.933-0.251c-0.169-0.047-0.291-0.005-0.356,0.164c-0.361,0.939-0.727,1.877-1.079,2.82
			c-0.085,0.229-0.038,0.311,0.192,0.409c0.678,0.291,1.354,0.591,2.045,0.849c0.282,0.105,0.6,0.118,0.904,0.159
			c0.225,0.03,0.38-0.083,0.497-0.272c0.441-0.715,0.789-1.463,0.904-2.307c0.08-0.587,0.017-0.728-0.51-0.988
			c-0.12-0.059-0.249-0.1-0.372-0.153c-0.108-0.046-0.215-0.097-0.312-0.141c-0.043-0.389-0.068-0.751-0.124-1.108
			c-0.26-1.644-0.529-3.286-0.792-4.93c-0.022-0.135-0.025-0.272-0.045-0.491c0.132,0.101,0.186,0.135,0.232,0.178
			c1.248,1.151,2.378,2.406,3.341,3.805c0.586,0.852,1.148,1.728,1.445,2.731c0.518,1.748,0.676,3.525,0.358,5.333
			c-0.291,1.653-0.932,3.132-2.105,4.356c-0.089,0.092-0.188,0.174-0.348,0.321c-0.068-0.409-0.136-0.733-0.174-1.061
			c-0.093-0.805-0.267-1.59-0.571-2.34c-0.262-0.646-0.7-1.141-1.361-1.408c-1.342-0.541-2.919,0.063-3.535,1.392
			c-0.438,0.944-0.682,1.95-0.748,2.993c-0.083,1.315,0.196,2.563,0.736,3.756c0.227,0.501,0.489,0.985,0.732,1.479
			c0.131,0.266,0.123,0.286-0.105,0.47c-0.063,0.051-0.13,0.096-0.193,0.145c-0.71,0.554-1.415,1.116-1.943,1.858
			c-0.258,0.363-0.48,0.75-0.506,1.211c-0.036,0.629-0.084,1.259-0.085,1.889c-0.002,0.914-0.043,1.821-0.163,2.729
			c-0.252,1.907-0.622,3.787-1.152,5.635c-0.294,1.024-0.818,1.929-1.568,2.687c-0.717,0.725-1.583,1.231-2.528,1.612
			c-1.365,0.55-2.799,0.738-4.252,0.805c-1.265,0.059-2.522-0.067-3.769-0.269c-1.889-0.306-3.717-0.838-5.499-1.528
			c-0.104-0.04-0.216-0.062-0.324-0.093c-0.016,0.027-0.031,0.054-0.047,0.081c0.197,0.171,0.385,0.354,0.592,0.512
			c1.083,0.832,2.285,1.452,3.546,1.966c1.247,0.508,2.532,0.898,3.847,1.17c1.036,0.215,2.086,0.419,3.139,0.484
			c1.174,0.073,2.359-0.014,3.539-0.034c1.235-0.021,2.337-0.476,3.371-1.096c0.645-0.386,1.226-0.866,1.678-1.486
			c0.547-0.75,0.91-1.578,1.12-2.478c0.392-1.68,0.532-3.391,0.643-5.106c0.065-1.018,0.109-2.037,0.172-3.054
			c0.012-0.185,0.054-0.373,0.112-0.55c0.295-0.905,0.848-1.634,1.558-2.256c0.292-0.256,0.593-0.509,0.842-0.803
			c0.555-0.654,1.081-1.334,1.619-2.004c0.355-0.442,0.626-0.975,1.237-1.139c1.766-1.12,3.034-2.655,3.861-4.573
			C71.33,26.319,71.552,23.58,71.234,20.774z M64.579,28.02c-0.004,0.4-0.114,0.754-0.346,1.064c-0.31,0.416-0.747,0.568-1.24,0.501
			c-0.522-0.071-0.919-0.36-1.145-0.846c-0.049-0.104-0.069-0.237-0.058-0.352c0.064-0.663,0.405-1.142,0.983-1.471
			C63.4,26.56,64.658,27.163,64.579,28.02z"/>
		<path style="fill-rule:evenodd;clip-rule:evenodd;fill:#FFFFFF;" d="M62.869,47.288c0.116-0.055,0.229-0.116,0.348-0.165
			c1.642-0.675,3.227-1.463,4.746-2.381c1.894-1.145,3.63-2.489,5.137-4.116c1.779-1.92,3.096-4.111,3.82-6.638
			c0.424-1.482,0.644-3.001,0.516-4.538c-0.083-0.999-0.276-1.994-0.489-2.976c-0.576-2.654-1.561-5.16-2.853-7.546
			c-0.241-0.445-0.511-0.873-0.813-1.298c-0.091,0.253-0.075,0.5-0.058,0.745c0.072,1.057,0.142,2.115,0.224,3.171
			c0.083,1.07,0.175,2.139,0.272,3.208c0.121,1.336,0.246,2.672,0.38,4.006c0.141,1.401,0.295,2.802,0.44,4.203
			c0.012,0.114,0.002,0.231,0.002,0.413c-0.2-0.166-0.241-0.349-0.275-0.521c-0.197-1-0.415-1.998-0.569-3.005
			c-0.213-1.392-0.396-2.79-0.557-4.189c-0.216-1.879-0.406-3.762-0.596-5.644c-0.185-1.829-0.363-3.658-0.531-5.488
			c-0.13-1.416-0.24-2.834-0.358-4.251c-0.089-1.069-0.177-2.139-0.264-3.208c-0.006-0.077-0.001-0.155-0.001-0.337
			c0.128,0.145,0.211,0.218,0.268,0.307c1.28,1.989,2.44,4.043,3.42,6.2c1.131,2.488,2.042,5.051,2.706,7.701
			c0.494,1.969,0.846,3.965,1.044,5.985c0.145,1.469,0.238,2.945,0.16,4.422c-0.093,1.761-0.372,3.494-0.828,5.199
			c-0.447,1.669-1.073,3.264-1.967,4.746c-1.334,2.212-3.077,3.99-5.458,5.075c-0.924,0.421-1.911,0.621-2.914,0.748
			c-1.279,0.162-2.563,0.256-3.853,0.256c-0.174,0-0.347,0.034-0.521,0.041c-0.181,0.008-0.363,0.002-0.544,0.002
			C62.89,47.371,62.88,47.329,62.869,47.288z"/>
		<path style="fill-rule:evenodd;clip-rule:evenodd;fill:#FFFFFF;" d="M38.489,35.141c-0.196-0.091-0.393-0.201-0.603-0.278
			c-0.717-0.263-1.434-0.528-2.16-0.763c-0.49-0.159-0.529-0.187-0.339-0.657c0.332-0.819,0.62-1.656,0.934-2.483
			c0.144-0.379,0.199-0.426,0.562-0.31c0.88,0.28,1.755,0.575,2.621,0.896c0.358,0.133,0.406,0.248,0.274,0.589
			c-0.377,0.974-0.782,1.937-1.179,2.903C38.584,35.07,38.542,35.091,38.489,35.141z"/>
		<path style="fill-rule:evenodd;clip-rule:evenodd;fill:#FFFFFF;" d="M57.545,30.392c-0.557,0.802-0.564,1.768-0.924,2.603
			c0.297,0.214,0.563,0.392,0.812,0.591c0.156,0.124,0.294,0.275,0.428,0.424c0.171,0.19,0.177,0.411,0.09,0.642
			c-0.066,0.176-0.172,0.295-0.378,0.309c-0.174,0.011-0.346,0.043-0.518,0.069c-0.106,0.016-0.213,0.03-0.317,0.057
			c-0.751,0.197-0.937,0.507-0.744,1.254c0.178,0.688,0.368,1.373,0.544,2.061c0.083,0.324,0.024,0.628-0.205,0.978
			c-0.071-0.176-0.128-0.29-0.162-0.41c-0.23-0.814-0.456-1.629-0.68-2.444c-0.039-0.142-0.066-0.288-0.086-0.434
			c-0.083-0.625,0.118-1.137,0.624-1.521c0.147-0.112,0.296-0.222,0.446-0.334c-0.303-0.3-0.341-0.296-1.044,0.146
			c0-0.122-0.035-0.238,0.006-0.307c0.15-0.25,0.314-0.494,0.496-0.722c0.086-0.108,0.195-0.189,0.149-0.344
			c-0.18-0.604-0.36-1.207-0.544-1.81c-0.015-0.048-0.058-0.086-0.087-0.126c-0.479,0.188-0.704,0.143-0.964-0.182
			c-0.327-0.409-0.377-0.917-0.125-1.27c0.168-0.235,0.449-0.292,0.756-0.14c0.393,0.195,0.645,0.519,0.798,0.921
			c0.17,0.45,0.33,0.905,0.518,1.424c0.072-0.124,0.127-0.19,0.151-0.265c0.163-0.497,0.313-0.999,0.482-1.495
			c0.064-0.189,0.147-0.378,0.255-0.545c0.183-0.282,0.426-0.351,0.691-0.232c0.289,0.129,0.471,0.426,0.4,0.712
			c-0.051,0.204-0.154,0.395-0.254,0.643C57.951,30.558,57.775,30.486,57.545,30.392z"/>
		<path style="fill-rule:evenodd;clip-rule:evenodd;fill:#FFFFFF;" d="M42.65,14.36c0.159,0.073,0.238,0.095,0.299,0.14
			c1.002,0.733,1.729,1.675,2.136,2.854c0.14,0.404,0.139,0.82,0.043,1.231c-0.104,0.444-0.229,0.883-0.341,1.325
			c-0.043,0.169-0.081,0.34-0.108,0.512c-0.078,0.501-0.051,0.546,0.419,0.763c0.363,0.168,0.625,0.427,0.663,0.842
			c0.028,0.305,0.04,0.615,0.018,0.919c-0.02,0.283-0.204,0.479-0.485,0.516c-0.29,0.038-0.586,0.038-0.879,0.03
			c-0.209-0.006-0.308-0.144-0.296-0.352c0.005-0.091,0.02-0.182,0.034-0.313c0.101,0,0.189-0.003,0.277,0.001
			c0.147,0.005,0.296,0.031,0.441,0.019c0.307-0.027,0.407-0.198,0.262-0.467c-0.188-0.35-0.475-0.612-0.812-0.818
			c-0.374-0.228-0.499-0.445-0.402-0.866c0.09-0.389,0.242-0.764,0.356-1.149c0.091-0.307,0.202-0.615,0.237-0.929
			c0.083-0.743-0.222-1.373-0.708-1.902c-0.306-0.332-0.663-0.628-1.034-0.886c-0.249-0.172-0.342-0.345-0.277-0.63
			C42.551,14.943,42.59,14.682,42.65,14.36z"/>
		<path style="fill-rule:evenodd;clip-rule:evenodd;fill:#FFFFFF;" d="M35.699,12.573c-0.452,0.364-0.654,0.365-0.946-0.015
			c-0.166-0.217-0.282-0.486-0.367-0.749c-0.076-0.235-0.014-0.48,0.147-0.684c0.195-0.247,0.423-0.307,0.711-0.176
			c0.473,0.215,0.737,0.612,0.9,1.082c0.123,0.355,0.221,0.718,0.336,1.076c0.039,0.123,0.094,0.242,0.216,0.361
			c0.108-0.381,0.216-0.762,0.325-1.143c0.088-0.31,0.175-0.62,0.268-0.928c0.023-0.077,0.061-0.149,0.098-0.22
			c0.183-0.355,0.401-0.482,0.696-0.408c0.293,0.073,0.554,0.45,0.527,0.776c-0.008,0.092-0.034,0.185-0.069,0.272
			c-0.156,0.393-0.278,0.525-0.637,0.245c-0.039-0.031-0.096-0.038-0.152-0.058c-0.183,0.133-0.25,0.324-0.3,0.517
			c-0.15,0.585-0.284,1.174-0.438,1.757c-0.092,0.347-0.229,0.677-0.514,1.003c-0.091-0.178-0.189-0.308-0.225-0.452
			c-0.118-0.481-0.205-0.97-0.322-1.452C35.894,13.121,35.797,12.875,35.699,12.573z"/>
		<path style="fill-rule:evenodd;clip-rule:evenodd;fill:#FFFFFF;" d="M72.914,34.099c-0.17-0.087-0.321-0.165-0.51-0.262
			c-0.094,0.192-0.198,0.349-0.251,0.522c-0.139,0.448-0.252,0.903-0.382,1.353c-0.112,0.386-0.228,0.77-0.352,1.152
			c-0.03,0.094-0.099,0.176-0.191,0.333c-0.103-0.204-0.198-0.334-0.236-0.48c-0.115-0.441-0.21-0.886-0.307-1.331
			c-0.065-0.3-0.109-0.607-0.335-0.84c-0.362,0.175-0.787,0.059-1.126-0.299c-0.256-0.271-0.295-0.608-0.11-0.965
			c0.28-0.543,0.72-0.633,1.153-0.195c0.201,0.203,0.366,0.465,0.476,0.729c0.184,0.444,0.31,0.913,0.463,1.37
			c0.025,0.074,0.064,0.143,0.138,0.306c0.08-0.222,0.139-0.363,0.183-0.509c0.165-0.552,0.316-1.109,0.49-1.658
			c0.059-0.187,0.14-0.384,0.265-0.53c0.22-0.259,0.496-0.24,0.728,0.008C73.376,33.196,73.351,33.66,72.914,34.099z"/>
		<path style="fill-rule:evenodd;clip-rule:evenodd;fill:#FFFFFF;" d="M70.008,7.179c-0.227,0.045-0.324-0.102-0.428-0.237
			c-0.434-0.562-0.851-1.137-1.311-1.677c-0.203-0.238-0.477-0.429-0.747-0.595c-0.294-0.181-0.592-0.11-0.798,0.127
			c-0.174,0.2-0.169,0.453,0.014,0.74c0.048,0.076,0.097,0.152,0.189,0.298c-0.182,0-0.31,0.023-0.427-0.004
			c-0.728-0.169-1.168-0.702-1.328-1.367c-0.159-0.657,0.45-1.246,1.13-1.146c0.552,0.081,0.992,0.384,1.42,0.713
			c0.903,0.693,1.514,1.618,2.058,2.595C69.871,6.793,70.021,6.945,70.008,7.179z"/>
		<path style="fill-rule:evenodd;clip-rule:evenodd;fill:#FFFFFF;" d="M29.415,25.055c0.239,0.273,0.266,0.566,0.256,0.857
			c-0.014,0.426-0.17,0.811-0.402,1.164c-0.188,0.287-0.457,0.396-0.797,0.343c-0.559-0.087-0.912-0.418-1.042-0.974
			c-0.125-0.538-0.086-1.067,0.08-1.587c0.374-1.173,0.918-2.258,1.68-3.229c0.071-0.091,0.156-0.171,0.235-0.256
			c0.024,0.013,0.049,0.026,0.073,0.039c-0.055,0.127-0.109,0.254-0.164,0.38c-0.356,0.823-0.721,1.643-1.064,2.472
			c-0.091,0.22-0.13,0.466-0.159,0.704c-0.017,0.139,0.003,0.299,0.058,0.427c0.187,0.436,0.676,0.492,0.966,0.116
			C29.238,25.38,29.312,25.226,29.415,25.055z"/>
		<path style="fill-rule:evenodd;clip-rule:evenodd;fill:#FFFFFF;" d="M66.615,38.114c0.149,0.155,0.087,0.296,0.023,0.424
			c-0.186,0.372-0.377,0.742-0.575,1.108c-0.302,0.558-0.565,1.13-0.634,1.77c-0.016,0.145-0.02,0.296,0.005,0.438
			c0.057,0.325,0.238,0.502,0.515,0.538c0.277,0.036,0.547-0.121,0.679-0.404c0.059-0.127,0.106-0.26,0.187-0.461
			c0.218,0.418,0.215,0.789,0.22,1.157c0.001,0.04-0.013,0.079-0.018,0.119c-0.107,0.836-0.353,1.048-1.177,1.014
			c-0.507-0.021-0.871-0.324-0.921-0.838c-0.077-0.793-0.046-1.587,0.22-2.348c0.299-0.856,0.757-1.63,1.3-2.353
			C66.484,38.22,66.549,38.175,66.615,38.114z"/>
		<path style="fill-rule:evenodd;clip-rule:evenodd;fill:#FFFFFF;" d="M53.205,42.806c0.151,0.154,0.086,0.294,0.021,0.422
			c-0.204,0.407-0.43,0.803-0.621,1.216c-0.19,0.412-0.374,0.83-0.509,1.262c-0.078,0.248-0.074,0.528-0.07,0.794
			c0.004,0.315,0.176,0.502,0.467,0.573c0.245,0.059,0.499-0.048,0.652-0.288c0.057-0.089,0.096-0.191,0.136-0.29
			c0.034-0.083,0.057-0.17,0.085-0.253c0.047,0.01,0.088,0.009,0.093,0.021c0.189,0.501,0.236,1.018,0.111,1.535
			c-0.124,0.512-0.531,0.806-1.041,0.751c-0.673-0.073-0.931-0.347-1.008-0.855c-0.123-0.807-0.007-1.601,0.228-2.375
			c0.268-0.885,0.799-1.631,1.309-2.385C53.09,42.883,53.15,42.852,53.205,42.806z"/>
		<path style="fill-rule:evenodd;clip-rule:evenodd;fill:#FFFFFF;" d="M62.742,49.718c0.223-0.129,0.187-0.317,0.213-0.484
			c0.044-0.277,0.071-0.56,0.151-0.827c0.052-0.172,0.161-0.344,0.289-0.471c0.263-0.261,0.605-0.159,0.719,0.198
			c0.08,0.254,0.074,0.5-0.091,0.714c-0.043,0.006-0.075,0.021-0.093,0.011c-0.349-0.184-0.441-0.169-0.538,0.205
			c-0.164,0.633-0.402,1.246-0.449,1.912c-0.059,0.835-0.546,1.346-1.371,1.508c-0.5,0.098-1.003,0.155-1.612,0.079
			c0.172-0.08,0.258-0.128,0.35-0.162c0.566-0.212,1.142-0.413,1.619-0.794c0.257-0.205,0.469-0.471,0.682-0.726
			c0.119-0.143,0.121-0.317,0.024-0.49c-0.131-0.234-0.231-0.487-0.378-0.709c-0.179-0.271-0.314-0.301-0.638-0.19
			c-0.18,0.062-0.32,0.016-0.427-0.125c-0.187-0.245-0.202-0.523-0.104-0.802c0.068-0.196,0.256-0.219,0.401-0.135
			c0.227,0.132,0.446,0.292,0.632,0.477c0.159,0.158,0.263,0.371,0.398,0.554C62.587,49.555,62.67,49.636,62.742,49.718z"/>
		<path style="fill-rule:evenodd;clip-rule:evenodd;fill:#FFFFFF;" d="M35.271,13.838c0.017,0.175,0.051,0.301,0.039,0.422
			c-0.094,0.927-0.599,1.646-1.591,1.812c-0.527,0.088-1.064,0.119-1.597,0.168c-0.07,0.006-0.143-0.033-0.306-0.074
			c0.498-0.203,0.923-0.348,1.322-0.546c0.418-0.207,0.85-0.418,1.205-0.712C34.683,14.628,34.933,14.238,35.271,13.838z"/>
		<path style="fill-rule:evenodd;clip-rule:evenodd;fill:#FFFFFF;" d="M48.78,3.031c0.166,0.539-0.037,1.155-0.409,1.384
			c-0.351,0.215-0.9-0.062-0.931-0.509c-0.025-0.355-0.004-0.727,0.075-1.074c0.163-0.718,0.594-1.304,1.072-1.972
			c0.009,0.168,0.04,0.259,0.014,0.327c-0.146,0.374-0.302,0.744-0.462,1.112c-0.091,0.209-0.204,0.408-0.293,0.617
			C47.74,3.161,47.772,3.27,47.958,3.4c0.209,0.145,0.414,0.135,0.58-0.041C48.617,3.274,48.678,3.172,48.78,3.031z"/>
		<path style="fill-rule:evenodd;clip-rule:evenodd;fill:#FFFFFF;" d="M40.996,17.979c-0.049,0.175-0.078,0.358-0.15,0.523
			c-0.198,0.454-0.418,0.898-0.62,1.35c-0.121,0.271-0.077,0.388,0.168,0.529c0.224,0.13,0.35,0.109,0.526-0.093
			c0.044-0.05,0.073-0.112,0.113-0.165c0.029-0.039,0.065-0.073,0.162-0.181c0.028,0.211,0.089,0.358,0.055,0.478
			c-0.073,0.252-0.164,0.51-0.304,0.73c-0.257,0.405-0.816,0.381-1.036-0.049c-0.098-0.192-0.128-0.436-0.128-0.656
			c-0.001-0.434,0.13-0.847,0.314-1.237c0.215-0.457,0.495-0.874,0.787-1.282C40.92,17.944,40.958,17.962,40.996,17.979z"/>
		<path style="fill-rule:evenodd;clip-rule:evenodd;fill:#FFFFFF;" d="M56.746,9.136c0.04,0.278-0.062,0.485-0.154,0.689
			c-0.194,0.428-0.409,0.846-0.6,1.275c-0.11,0.245-0.064,0.377,0.136,0.52c0.187,0.135,0.381,0.123,0.542-0.046
			c0.082-0.086,0.147-0.186,0.262-0.334c0.047,0.142,0.104,0.234,0.103,0.326c-0.006,0.412-0.193,0.751-0.48,1.031
			c-0.168,0.164-0.376,0.111-0.568,0.033c-0.26-0.105-0.401-0.303-0.424-0.584c-0.047-0.576,0.043-1.13,0.321-1.637
			c0.219-0.399,0.475-0.779,0.718-1.164C56.625,9.207,56.678,9.186,56.746,9.136z"/>
		<path style="fill-rule:evenodd;clip-rule:evenodd;fill:#FFFFFF;" d="M47.222,37.736c0.173,0.381,0.059,0.65-0.077,0.909
			c-0.061,0.116-0.147,0.224-0.239,0.318c-0.374,0.381-0.848,0.253-1.007-0.269c-0.175-0.575-0.061-1.125,0.228-1.623
			c0.275-0.473,0.614-0.908,0.927-1.357c0.02-0.029,0.062-0.043,0.167-0.112c-0.037,0.168-0.042,0.282-0.088,0.376
			c-0.187,0.384-0.384,0.764-0.582,1.143c-0.074,0.142-0.166,0.275-0.24,0.417c-0.143,0.274-0.109,0.439,0.111,0.59
			c0.22,0.151,0.431,0.106,0.624-0.136C47.093,37.933,47.132,37.867,47.222,37.736z"/>
		<path style="fill-rule:evenodd;clip-rule:evenodd;fill:#FFFFFF;" d="M43.775,42.358c-0.18-0.536,0.151-1.216,0.634-1.358
			c0.285-0.084,0.64,0.134,0.706,0.498c0.051,0.282,0.061,0.594-0.009,0.869c-0.08,0.317-0.231,0.631-0.416,0.902
			c-0.27,0.396-0.597,0.754-0.902,1.126c-0.02,0.024-0.066,0.026-0.15,0.056c0.042-0.275,0.149-0.483,0.277-0.682
			c0.245-0.383,0.498-0.761,0.737-1.148c0.15-0.244,0.131-0.364-0.046-0.534c-0.21-0.203-0.424-0.196-0.624,0.023
			C43.913,42.184,43.852,42.265,43.775,42.358z"/>
		<path style="fill-rule:evenodd;clip-rule:evenodd;fill:#FFFFFF;" d="M56.769,43.385c0.021,0.216,0.051,0.341,0.041,0.462
			c-0.023,0.29-0.153,0.539-0.344,0.756c-0.363,0.412-0.881,0.309-1.064-0.215c-0.149-0.427-0.102-0.855,0.056-1.261
			c0.25-0.645,0.69-1.175,1.106-1.717c0.012-0.015,0.049-0.011,0.139-0.029c-0.051,0.158-0.076,0.298-0.138,0.418
			c-0.251,0.489-0.511,0.973-0.772,1.457c-0.081,0.151-0.123,0.282,0.015,0.437c0.253,0.284,0.442,0.295,0.696,0.008
			C56.572,43.624,56.636,43.544,56.769,43.385z"/>
		<path style="fill-rule:evenodd;clip-rule:evenodd;fill:#FFFFFF;" d="M70.091,8.405c-0.065,0.198-0.112,0.403-0.199,0.591
			c-0.201,0.439-0.43,0.865-0.63,1.304c-0.128,0.282-0.043,0.456,0.239,0.571c0.206,0.084,0.358,0.043,0.489-0.139
			c0.068-0.095,0.129-0.194,0.206-0.311c0.167,0.149,0.126,0.314,0.123,0.465c-0.007,0.28-0.142,0.51-0.298,0.734
			c-0.348,0.5-0.933,0.257-1.075-0.165c-0.113-0.335-0.172-0.684-0.058-1.028c0.105-0.317,0.218-0.636,0.372-0.932
			c0.192-0.368,0.429-0.712,0.649-1.064c0.019-0.03,0.06-0.045,0.091-0.067C70.03,8.378,70.06,8.391,70.091,8.405z"/>
	</g>
	<path style="fill:#FFFFFF;" d="M106.299,80.334c-0.145-0.071-0.255-0.139-0.374-0.18c-0.463-0.162-0.738-0.484-0.805-0.965
		c-0.052-0.371-0.101-0.746-0.103-1.119c-0.01-1.839,0.012-3.678-0.014-5.517c-0.009-0.613-0.069-1.238-0.21-1.833
		c-0.382-1.62-1.36-2.736-2.957-3.279c-1.188-0.404-2.399-0.42-3.616-0.193c-1.409,0.263-2.45,1.043-3.099,2.328
		c-0.131,0.259-0.236,0.531-0.353,0.796c-0.069-0.498-0.063-0.988-0.071-1.477c-0.008-0.49,0.038-0.983-0.042-1.513
		c-0.321,0.087-0.587,0.172-0.858,0.23c-0.787,0.167-1.578,0.32-2.365,0.486c-0.144,0.03-0.33-0.006-0.421,0.223
		c0.116,0.069,0.221,0.152,0.341,0.198c0.429,0.164,0.678,0.487,0.77,0.914c0.082,0.378,0.15,0.768,0.152,1.153
		c0.013,2.457,0.013,4.913,0,7.37c-0.002,0.372-0.064,0.749-0.146,1.114c-0.124,0.553-0.451,0.936-1.039,1.044
		c-0.079,0.015-0.165,0.028-0.229,0.071c-0.057,0.038-0.126,0.122-0.119,0.176c0.007,0.057,0.092,0.134,0.155,0.148
		c0.115,0.024,0.24,0.013,0.36,0.008c0.603-0.021,1.206-0.067,1.809-0.063c0.965,0.007,1.931,0.048,2.896,0.069
		c0.151,0.003,0.361,0.057,0.386-0.172c0.023-0.21-0.189-0.197-0.319-0.228c-0.464-0.11-0.762-0.4-0.88-0.848
		c-0.088-0.335-0.16-0.683-0.168-1.028c-0.029-1.248-0.043-2.496-0.033-3.744c0.005-0.683,0.044-1.368,0.114-2.047
		c0.101-0.979,0.329-1.926,0.784-2.814c1.146-2.237,3.84-2.188,5.106-1.019c0.61,0.564,1,1.27,1.165,2.073
		c0.129,0.627,0.216,1.273,0.228,1.912c0.031,1.624,0.017,3.249,0.006,4.873c-0.003,0.415-0.033,0.833-0.097,1.242
		c-0.045,0.287-0.15,0.57-0.268,0.838c-0.143,0.324-0.407,0.526-0.763,0.595c-0.091,0.018-0.188,0.032-0.268,0.074
		c-0.048,0.025-0.099,0.106-0.093,0.155c0.005,0.047,0.079,0.116,0.129,0.123c0.145,0.018,0.294,0.016,0.441,0.011
		c0.563-0.021,1.125-0.069,1.687-0.065c0.885,0.006,1.769,0.05,2.654,0.069C105.935,80.525,106.125,80.591,106.299,80.334z"/>
	<path style="fill:#FFFFFF;" d="M28.63,68.994c0.012,0.257,0.028,0.429,0.028,0.601c0.001,2.765,0.002,5.531,0,8.296
		c0,0.201-0.014,0.402-0.031,0.602c-0.066,0.808-0.423,1.401-1.231,1.662c-0.076,0.024-0.137,0.095-0.206,0.144
		c0.005,0.027,0.009,0.055,0.014,0.082c0.124,0.021,0.248,0.057,0.373,0.061c0.268,0.01,0.537,0.003,0.805,0.003
		c1.316,0,2.631,0.002,3.947-0.003c0.161-0.001,0.351,0.062,0.492-0.154c-0.087-0.05-0.159-0.098-0.236-0.136
		c-0.754-0.364-1.181-0.947-1.216-1.798c-0.01-0.228-0.047-0.455-0.048-0.682c-0.004-2.765-0.003-5.531-0.001-8.296
		c0-0.115,0.024-0.229,0.041-0.373c0.184,0,0.33,0,0.476,0c0.456,0,0.913,0,1.369-0.001c0.136,0,0.284,0.006,0.335-0.157
		c0.071-0.225,0.127-0.454,0.207-0.748c-0.837-0.008-1.607-0.015-2.389-0.022c-0.018-0.124-0.038-0.201-0.038-0.278
		c-0.002-0.899-0.014-1.799,0.006-2.698c0.008-0.332,0.071-0.668,0.154-0.99c0.104-0.406,0.401-0.611,0.815-0.67
		c0.561-0.08,0.953,0.204,1.294,0.588c0.151,0.169,0.259,0.375,0.403,0.552c0.244,0.298,0.44,0.268,0.58-0.093
		c0.228-0.588,0.447-1.179,0.663-1.771c0.029-0.079,0.022-0.172,0.033-0.269c-0.324,0-0.616-0.008-0.906,0.002
		c-1.013,0.034-2.003,0.2-2.948,0.574c-1.367,0.541-2.272,1.508-2.588,2.959c-0.113,0.52-0.115,1.064-0.167,1.597
		c-0.015,0.155-0.029,0.31-0.048,0.509c-0.181,0-0.326,0-0.47,0c-0.336,0-0.672-0.01-1.007,0.007
		c-0.106,0.005-0.258,0.056-0.302,0.135c-0.121,0.215-0.196,0.457-0.32,0.765C27.25,68.994,27.913,68.994,28.63,68.994z"/>
	<path style="fill:#FFFFFF;" d="M25.57,80.456c0.008-0.048,0.015-0.096,0.023-0.144c-0.132-0.075-0.26-0.159-0.398-0.222
		c-0.582-0.265-0.937-0.711-1.038-1.339c-0.053-0.33-0.087-0.666-0.087-1c-0.005-4.926-0.004-9.851-0.004-14.777
		c0-0.17-0.01-0.339-0.016-0.557c-0.272,0.068-0.489,0.126-0.708,0.175c-0.942,0.212-1.886,0.418-2.826,0.638
		c-0.102,0.024-0.244,0.105-0.267,0.188c-0.049,0.173,0.128,0.202,0.249,0.251c0.025,0.01,0.052,0.013,0.078,0.018
		c0.426,0.078,0.663,0.355,0.724,0.76c0.062,0.409,0.102,0.826,0.103,1.239c0.007,3.852,0.005,7.704,0.003,11.556
		c0,0.362-0.008,0.725-0.036,1.086c-0.04,0.517-0.145,1.019-0.573,1.372c-0.195,0.16-0.417,0.288-0.63,0.424
		c-0.118,0.076-0.29,0.097-0.269,0.356c0.157,0.014,0.322,0.043,0.486,0.039c0.751-0.019,1.501-0.067,2.251-0.066
		c0.844,0.001,1.689,0.046,2.533,0.063C25.301,80.518,25.436,80.477,25.57,80.456z"/>
	<path style="fill:#FFFFFF;" d="M50.198,68.291c-0.011,0.041-0.021,0.081-0.032,0.122c0.121,0.064,0.236,0.15,0.365,0.188
		c0.476,0.143,0.748,0.463,0.82,0.944c0.054,0.357,0.104,0.719,0.106,1.079c0.009,2.443,0.006,4.886,0.003,7.329
		c0,0.254-0.018,0.509-0.04,0.763c-0.065,0.729-0.435,1.223-1.139,1.453c-0.064,0.021-0.134,0.032-0.189,0.066
		c-0.061,0.037-0.11,0.096-0.226,0.202c0.178,0.04,0.287,0.086,0.395,0.085c0.349-0.002,0.697-0.031,1.045-0.032
		c1.005-0.005,2.01-0.006,3.015-0.001c0.402,0.002,0.804,0.03,1.207,0.029c0.069,0,0.137-0.088,0.206-0.136
		c-0.05-0.056-0.095-0.116-0.151-0.164c-0.028-0.024-0.074-0.031-0.113-0.04c-0.727-0.155-1.103-0.645-1.206-1.34
		c-0.084-0.568-0.13-1.146-0.138-1.721c-0.019-1.328-0.012-2.658-0.002-3.986c0.003-0.374,0.024-0.753,0.089-1.121
		c0.125-0.721,0.365-1.402,0.861-1.965c0.291-0.331,0.637-0.59,1.083-0.642c0.58-0.067,1.154-0.044,1.671,0.287
		c0.04,0.026,0.095,0.027,0.176,0.048c0.33-0.872,0.735-1.697,1.035-2.622c-0.61-0.05-1.135,0.025-1.646,0.182
		c-1.543,0.474-2.542,1.575-3.333,2.933c-0.039-0.142-0.05-0.269-0.05-0.397c-0.002-0.658,0.002-1.315-0.005-1.973
		c-0.001-0.151-0.036-0.302-0.058-0.469c-0.658,0.184-1.26,0.371-1.872,0.517C51.455,68.057,50.825,68.165,50.198,68.291z"/>
	<g>
		<path style="fill:#FFFFFF;" d="M75.056,80.079c-0.42-0.173-0.72-0.472-0.883-0.889c-0.106-0.272-0.208-0.561-0.23-0.848
			c-0.074-0.989-0.152-1.98-0.156-2.971c-0.017-4.108-0.007-8.216-0.008-12.324c0-0.184-0.017-0.368-0.028-0.601
			c-0.222,0.042-0.403,0.069-0.581,0.111c-0.705,0.166-1.408,0.339-2.113,0.503c-0.301,0.07-0.606,0.118-0.907,0.184
			c-0.113,0.024-0.249,0.037-0.242,0.254c0.132,0.047,0.277,0.107,0.426,0.15c0.386,0.111,0.622,0.368,0.709,0.75
			c0.05,0.22,0.074,0.451,0.076,0.677c0.007,1.168,0.004,2.336,0.002,3.504c0,0.127-0.016,0.254-0.031,0.479
			c-0.168-0.164-0.265-0.268-0.372-0.36c-0.213-0.183-0.417-0.382-0.65-0.537c-1.395-0.932-2.962-1.195-4.584-1.001
			c-2.221,0.265-3.804,1.531-4.841,3.464c-0.936,1.744-1.079,3.604-0.563,5.51c0.308,1.137,0.875,2.137,1.731,2.949
			c1.291,1.227,2.852,1.78,4.622,1.733c1.936-0.052,3.504-0.812,4.592-2.459c0.052-0.08,0.122-0.148,0.209-0.25
			c0.04,0.185,0.061,0.318,0.098,0.446c0.153,0.528,0.306,1.055,0.469,1.579c0.065,0.209,0.197,0.324,0.445,0.321
			c0.913-0.012,1.826-0.004,2.739-0.007c0.13,0,0.275,0.011,0.353-0.212C75.248,80.184,75.157,80.12,75.056,80.079z M70.927,76.484
			c-0.32,1.169-0.928,2.159-1.918,2.895c-1.753,1.303-3.872,0.618-4.913-0.652c-0.695-0.847-1.03-1.845-1.183-2.907
			c-0.088-0.609-0.11-1.226-0.162-1.84c0.012-1.044,0.133-2.065,0.437-3.063c0.235-0.77,0.612-1.451,1.192-2.022
			c1.423-1.402,3.811-1.416,5.248-0.029c0.659,0.636,1.058,1.414,1.281,2.287C71.36,72.927,71.413,74.709,70.927,76.484z"/>
	</g>
	<path style="fill-rule:evenodd;clip-rule:evenodd;fill:#FFFFFF;" d="M106.299,80.334c-0.173,0.257-0.364,0.191-0.528,0.188
		c-0.885-0.019-1.769-0.063-2.654-0.069c-0.562-0.004-1.125,0.044-1.687,0.065c-0.147,0.005-0.296,0.008-0.441-0.011
		c-0.05-0.006-0.123-0.075-0.129-0.123c-0.006-0.049,0.045-0.13,0.093-0.155c0.08-0.042,0.177-0.056,0.268-0.074
		c0.356-0.069,0.62-0.271,0.763-0.595c0.118-0.268,0.222-0.551,0.268-0.838c0.065-0.409,0.095-0.827,0.097-1.242
		c0.01-1.624,0.025-3.249-0.006-4.873c-0.012-0.639-0.099-1.285-0.228-1.912c-0.165-0.803-0.555-1.51-1.165-2.073
		c-1.266-1.169-3.96-1.218-5.106,1.019c-0.455,0.888-0.682,1.835-0.784,2.814c-0.07,0.679-0.108,1.364-0.114,2.047
		c-0.01,1.248,0.004,2.496,0.033,3.744c0.008,0.344,0.08,0.693,0.168,1.028c0.118,0.448,0.416,0.737,0.88,0.848
		c0.13,0.031,0.342,0.018,0.319,0.228c-0.025,0.229-0.236,0.176-0.386,0.172c-0.965-0.021-1.931-0.062-2.896-0.069
		c-0.603-0.004-1.206,0.042-1.809,0.063c-0.12,0.004-0.244,0.016-0.36-0.008c-0.063-0.013-0.148-0.091-0.155-0.148
		c-0.007-0.054,0.062-0.137,0.119-0.176c0.064-0.043,0.15-0.056,0.229-0.071c0.588-0.108,0.914-0.491,1.039-1.044
		c0.082-0.364,0.144-0.742,0.146-1.114c0.013-2.457,0.013-4.913,0-7.37c-0.002-0.385-0.07-0.775-0.152-1.153
		c-0.092-0.428-0.342-0.751-0.77-0.914c-0.12-0.046-0.225-0.129-0.341-0.198c0.091-0.229,0.278-0.193,0.421-0.223
		c0.787-0.166,1.578-0.319,2.365-0.486c0.271-0.058,0.537-0.143,0.858-0.23c0.079,0.53,0.034,1.024,0.042,1.513
		c0.008,0.489,0.002,0.979,0.071,1.477c0.117-0.266,0.223-0.537,0.353-0.796c0.649-1.285,1.689-2.065,3.099-2.328
		c1.217-0.227,2.428-0.211,3.616,0.193c1.597,0.543,2.575,1.659,2.957,3.279c0.14,0.595,0.201,1.221,0.21,1.833
		c0.027,1.839,0.004,3.678,0.014,5.517c0.002,0.373,0.051,0.748,0.103,1.119c0.067,0.481,0.342,0.803,0.805,0.965
		C106.044,80.195,106.154,80.263,106.299,80.334z"/>
	<g>
		<path style="fill:#FFFFFF;" d="M48.377,80.096c-0.446-0.212-0.711-0.564-0.792-1.046c-0.04-0.237-0.068-0.479-0.069-0.718
			c-0.005-2.336,0.001-4.671-0.004-7.007c-0.003-1.422-0.561-2.551-1.807-3.29c-0.772-0.458-1.614-0.748-2.505-0.823
			c-0.867-0.073-1.741-0.09-2.612-0.086c-1.595,0.008-3.109,0.38-4.536,1.095c-0.08,0.04-0.15,0.103-0.257,0.178
			c0.243,0.815,0.484,1.623,0.729,2.429c0.012,0.039,0.071,0.064,0.105,0.093c0.038-0.033,0.066-0.046,0.076-0.068
			c0.113-0.243,0.221-0.488,0.333-0.731c0.548-1.189,1.4-2.019,2.72-2.292c0.728-0.151,1.467-0.205,2.202-0.101
			c1.206,0.171,2.089,0.793,2.547,1.954c0.312,0.791,0.362,1.618,0.341,2.454c-0.007,0.276-0.057,0.322-0.344,0.328
			c-0.496,0.01-0.993-0.001-1.49,0.006c-1.331,0.019-2.652,0.138-3.949,0.451c-0.88,0.212-1.722,0.517-2.473,1.036
			c-0.529,0.366-0.961,0.818-1.205,1.423c-0.593,1.473-0.193,3.653,1.758,4.679c1.344,0.707,2.777,0.889,4.26,0.685
			c1.116-0.154,2.069-0.65,2.784-1.541c0.267-0.333,0.491-0.7,0.769-1.1c0.012,0.096,0.017,0.148,0.024,0.199
			c0.086,0.64,0.221,1.268,0.461,1.871c0.065,0.164,0.15,0.275,0.347,0.274c0.846-0.004,1.691-0.001,2.537-0.004
			c0.122-0.001,0.245-0.024,0.273-0.205C48.531,80.192,48.459,80.135,48.377,80.096z M44.41,77.473
			c-0.246,0.691-0.604,1.309-1.149,1.817c-1.124,1.047-3.217,1.12-4.363-0.157c-0.35-0.39-0.606-0.833-0.692-1.342
			c-0.177-1.047-0.095-2.065,0.531-2.971c0.536-0.776,1.314-1.208,2.202-1.459c0.938-0.265,1.901-0.322,2.868-0.327
			c0.319-0.002,0.638,0,0.965,0c0.039,0.109,0.063,0.146,0.065,0.183C44.883,74.655,44.902,76.091,44.41,77.473z"/>
	</g>
	<path style="fill-rule:evenodd;clip-rule:evenodd;fill:#FFFFFF;" d="M28.63,68.994c-0.717,0-1.38,0-2.118,0
		c0.124-0.308,0.199-0.55,0.32-0.765c0.044-0.079,0.196-0.129,0.302-0.135c0.335-0.017,0.671-0.007,1.007-0.007
		c0.145,0,0.289,0,0.47,0c0.019-0.199,0.033-0.354,0.048-0.509c0.052-0.533,0.054-1.077,0.167-1.597
		c0.316-1.45,1.221-2.418,2.588-2.959c0.945-0.374,1.935-0.54,2.948-0.574c0.291-0.01,0.582-0.002,0.906-0.002
		c-0.011,0.097-0.004,0.19-0.033,0.269c-0.216,0.592-0.435,1.184-0.663,1.771c-0.14,0.36-0.336,0.391-0.58,0.093
		c-0.144-0.176-0.253-0.382-0.403-0.552c-0.341-0.384-0.733-0.668-1.294-0.588c-0.414,0.059-0.711,0.264-0.815,0.67
		c-0.083,0.322-0.146,0.658-0.154,0.99c-0.021,0.899-0.008,1.799-0.006,2.698c0,0.077,0.02,0.155,0.038,0.278
		c0.782,0.007,1.552,0.015,2.389,0.022c-0.08,0.294-0.136,0.524-0.207,0.748c-0.051,0.162-0.2,0.156-0.335,0.157
		c-0.456,0.001-0.913,0.001-1.369,0.001c-0.146,0-0.292,0-0.476,0c-0.016,0.144-0.041,0.259-0.041,0.373
		c-0.002,2.765-0.003,5.531,0.001,8.296c0,0.227,0.038,0.454,0.048,0.682c0.036,0.851,0.463,1.434,1.216,1.798
		c0.077,0.037,0.149,0.086,0.236,0.136c-0.141,0.215-0.331,0.153-0.492,0.154c-1.316,0.005-2.631,0.003-3.947,0.003
		c-0.269,0-0.537,0.006-0.805-0.003c-0.125-0.004-0.249-0.04-0.373-0.061c-0.005-0.027-0.009-0.055-0.014-0.082
		c0.068-0.049,0.129-0.12,0.206-0.144c0.809-0.261,1.165-0.854,1.231-1.662c0.016-0.2,0.031-0.402,0.031-0.602
		c0.002-2.765,0.002-5.531,0-8.296C28.658,69.423,28.643,69.251,28.63,68.994z"/>
	<path style="fill-rule:evenodd;clip-rule:evenodd;fill:#FFFFFF;" d="M25.57,80.456c-0.135,0.021-0.27,0.062-0.404,0.059
		c-0.844-0.017-1.689-0.062-2.533-0.063c-0.75-0.001-1.501,0.047-2.251,0.066c-0.164,0.004-0.328-0.026-0.486-0.039
		c-0.02-0.259,0.151-0.28,0.269-0.356c0.214-0.136,0.436-0.264,0.63-0.424c0.428-0.353,0.532-0.855,0.573-1.372
		c0.028-0.361,0.036-0.724,0.036-1.086c0.002-3.852,0.005-7.704-0.003-11.556c-0.001-0.413-0.041-0.83-0.103-1.239
		c-0.061-0.405-0.298-0.682-0.724-0.76c-0.026-0.005-0.054-0.008-0.078-0.018c-0.121-0.049-0.299-0.078-0.249-0.251
		c0.024-0.083,0.166-0.164,0.267-0.188c0.94-0.22,1.884-0.426,2.826-0.638c0.219-0.049,0.436-0.108,0.708-0.175
		c0.007,0.218,0.016,0.387,0.016,0.557c0.001,4.926-0.001,9.851,0.004,14.777c0,0.334,0.034,0.67,0.087,1
		c0.102,0.629,0.456,1.074,1.038,1.339c0.138,0.063,0.265,0.147,0.398,0.222C25.586,80.36,25.578,80.408,25.57,80.456z"/>
	<path style="fill-rule:evenodd;clip-rule:evenodd;fill:#FFFFFF;" d="M50.198,68.291c0.626-0.126,1.257-0.234,1.878-0.383
		c0.612-0.146,1.214-0.333,1.872-0.517c0.022,0.167,0.057,0.318,0.058,0.469c0.007,0.658,0.002,1.315,0.005,1.973
		c0,0.127,0.011,0.255,0.05,0.397c0.79-1.357,1.79-2.458,3.333-2.933c0.511-0.157,1.035-0.233,1.646-0.182
		c-0.299,0.926-0.705,1.75-1.035,2.622c-0.081-0.021-0.136-0.022-0.176-0.048c-0.517-0.331-1.092-0.354-1.671-0.287
		c-0.446,0.051-0.791,0.311-1.083,0.642c-0.496,0.563-0.736,1.244-0.861,1.965c-0.064,0.368-0.086,0.747-0.089,1.121
		c-0.01,1.329-0.017,2.658,0.002,3.986c0.009,0.575,0.054,1.153,0.138,1.721c0.103,0.694,0.479,1.185,1.206,1.34
		c0.039,0.008,0.085,0.015,0.113,0.04c0.056,0.049,0.101,0.109,0.151,0.164c-0.069,0.047-0.137,0.135-0.206,0.136
		c-0.402,0.001-0.804-0.027-1.207-0.029c-1.005-0.005-2.01-0.004-3.015,0.001c-0.349,0.002-0.697,0.03-1.045,0.032
		c-0.108,0.001-0.217-0.045-0.395-0.085c0.117-0.106,0.165-0.165,0.226-0.202c0.056-0.034,0.126-0.045,0.189-0.066
		c0.704-0.23,1.074-0.724,1.139-1.453c0.023-0.254,0.04-0.509,0.04-0.763c0.003-2.443,0.006-4.886-0.003-7.329
		c-0.001-0.36-0.052-0.722-0.106-1.079c-0.072-0.481-0.344-0.8-0.82-0.944c-0.129-0.039-0.244-0.124-0.365-0.188
		C50.177,68.372,50.188,68.332,50.198,68.291z"/>
	<g>
		<path style="fill:#FFFFFF;" d="M19.127,80.069c-0.23-0.183-0.478-0.345-0.696-0.541c-0.568-0.509-0.968-1.146-1.323-1.811
			c-1.244-2.331-2.483-4.665-3.725-6.997c-0.889-1.67-1.778-3.339-2.669-5.007c-0.265-0.497-0.526-0.997-0.806-1.486
			c-0.148-0.258-0.323-0.25-0.49-0.007c-0.038,0.055-0.067,0.116-0.098,0.176c-0.665,1.287-1.335,2.572-1.995,3.862
			c-1.075,2.102-2.139,4.21-3.214,6.312c-0.672,1.314-1.337,2.633-2.244,3.809c-0.475,0.615-0.926,1.254-1.607,1.673
			C0.165,80.11,0.099,80.217,0,80.323c0.212,0.246,0.434,0.205,0.642,0.198c0.657-0.022,1.313-0.067,1.969-0.068
			c0.643,0,1.286,0.044,1.929,0.065c0.119,0.004,0.244,0.004,0.357-0.027c0.062-0.017,0.144-0.099,0.148-0.156
			c0.004-0.056-0.067-0.143-0.127-0.173c-0.18-0.088-0.373-0.151-0.557-0.23c-0.563-0.242-0.855-0.673-0.866-1.285
			c-0.01-0.543,0.067-1.083,0.296-1.57c0.57-1.213,1.18-2.407,1.768-3.612c0.104-0.212,0.279-0.22,0.473-0.22
			c1.678,0.001,3.356,0.005,5.034-0.003c0.276-0.002,0.436,0.087,0.559,0.346c0.527,1.116,1.09,2.215,1.61,3.334
			c0.259,0.558,0.488,1.135,0.665,1.723c0.216,0.718-0.045,1.212-0.715,1.532c-0.084,0.04-0.149,0.118-0.223,0.179
			c0.156,0.223,0.34,0.167,0.508,0.161c0.616-0.021,1.233-0.067,1.849-0.063c1.167,0.009,2.333,0.047,3.499,0.071
			c0.197,0.004,0.403,0.026,0.591-0.197C19.31,80.234,19.223,80.146,19.127,80.069z M6.074,72.479
			c0.808-1.627,1.609-3.239,2.409-4.85c0.039,0.004,0.079,0.008,0.118,0.011c0.81,1.596,1.621,3.192,2.434,4.794
			C10.723,72.536,6.778,72.568,6.074,72.479z"/>
	</g>
	<g>
		<path style="fill:#FFFFFF;" d="M89.456,80.085c-0.431-0.21-0.683-0.558-0.764-1.022c-0.048-0.276-0.081-0.559-0.082-0.838
			c-0.006-2.349,0.005-4.698-0.007-7.046c-0.007-1.388-0.628-2.441-1.817-3.158c-0.772-0.466-1.622-0.731-2.508-0.809
			c-0.92-0.081-1.849-0.103-2.772-0.081c-1.339,0.031-2.636,0.306-3.862,0.866c-0.241,0.11-0.474,0.236-0.739,0.368
			c0.239,0.883,0.461,1.73,0.755,2.555c0.036,0.002,0.072,0.004,0.108,0.006c0.048-0.092,0.099-0.183,0.143-0.277
			c0.125-0.267,0.236-0.542,0.372-0.803c0.485-0.931,1.187-1.621,2.217-1.92c0.862-0.251,1.746-0.31,2.631-0.185
			c0.934,0.132,1.695,0.573,2.202,1.396c0.591,0.961,0.652,2.025,0.6,3.11c-0.009,0.199-0.169,0.219-0.323,0.22
			c-0.47,0.003-0.94,0.001-1.409,0.003c-1.088,0.006-2.17,0.095-3.242,0.288c-0.995,0.179-1.963,0.443-2.852,0.943
			c-0.889,0.5-1.568,1.175-1.783,2.213c-0.356,1.718,0.409,3.342,1.958,4.164c1.186,0.629,2.461,0.806,3.784,0.716
			c0.859-0.059,1.656-0.299,2.373-0.795c0.6-0.414,1.037-0.964,1.406-1.58c0.057-0.096,0.123-0.186,0.207-0.313
			c0.038,0.242,0.052,0.431,0.098,0.612c0.123,0.48,0.255,0.958,0.392,1.434c0.052,0.179,0.157,0.299,0.374,0.297
			c0.832-0.007,1.664,0,2.496-0.009c0.101-0.001,0.202-0.069,0.387-0.136C89.628,80.193,89.546,80.13,89.456,80.085z M85.313,77.96
			c-0.445,0.962-1.107,1.704-2.174,2.004c-1.744,0.491-3.481-0.454-3.827-2.171c-0.369-1.832,0.333-3.538,2.229-4.26
			c0.606-0.231,1.231-0.381,1.877-0.419c0.695-0.041,1.393-0.056,2.089-0.077c0.118-0.004,0.236,0.015,0.359,0.023
			c0.036,0.073,0.056,0.097,0.057,0.121C85.99,74.808,86.02,76.434,85.313,77.96z"/>
	</g>
</g>
<g id="Layer_1">
</g>
</svg>
