<?xml version="1.0" encoding="iso-8859-1"?>
<!-- Generator: Adobe Illustrator 18.1.1, SVG Export Plug-In . SVG Version: 6.00 Build 0)  -->
<svg version="1.1" id="Layer_1" xmlns="http://www.w3.org/2000/svg" xmlns:xlink="http://www.w3.org/1999/xlink" x="0px" y="0px"
	 viewBox="0 0 155.588 23.803" style="enable-background:new 0 0 155.588 23.803;" xml:space="preserve">
<g>
	<path style="fill:#FFFFFF;" d="M53.585,20.188c4.273,0,8.055-2.874,8.055-7.753c0-4.878-3.782-7.752-8.055-7.752
		c-4.273,0-8.055,2.874-8.055,7.752C45.53,17.314,49.312,20.188,53.585,20.188L53.585,20.188z M26.028,19.885h3.119L21.982,4.986
		h-2.988l-6.618,14.899h2.761l1.437-3.366h7.904L26.028,19.885z M103.312,4.986H92.006v14.899h11.534v-2.382h-8.886v-3.895h7.563
		v-2.383h-7.563V7.368h8.66V4.986z M63.681,18.41c0.605,0.492,2.42,1.778,5.597,1.778c3.214,0,5.823-1.739,5.823-4.462
		c0-5.672-8.206-3.857-8.206-6.958c0-0.87,0.718-1.588,2.609-1.588c2.269,0,3.744,1.021,4.311,1.475l1.097-2.193
		c-0.681-0.643-2.761-1.777-5.408-1.777c-3.971,0-5.597,2.231-5.597,4.424c0,5.143,8.206,3.668,8.206,6.732
		c0,1.286-1.286,1.852-2.761,1.852c-2.231,0-4.009-0.983-4.765-1.55L63.681,18.41z M37.74,7.33c2.231,0,3.479,1.21,4.198,1.853
		l1.853-1.815c-0.605-0.681-2.382-2.685-6.088-2.685c-4.273,0-8.055,2.874-8.055,7.752c0,4.879,3.744,7.753,8.017,7.753
		c3.29,0,5.521-1.778,6.239-2.42l-1.475-2.08c-1.172,0.984-3.025,1.853-4.727,1.853c-2.949,0-5.181-2.231-5.181-5.105
		C32.521,9.561,34.753,7.33,37.74,7.33L37.74,7.33z M53.585,17.54c-2.949,0-5.18-2.231-5.18-5.105c0-2.874,2.231-5.105,5.18-5.105
		c2.95,0,5.181,2.231,5.181,5.105C58.765,15.309,56.534,17.54,53.585,17.54L53.585,17.54z M81.796,7.368v12.517h2.647V7.368h5.218
		V4.986H76.728v2.382H81.796z M2.647,4.986H0v14.899h10.562v-2.382H2.647V4.986z M20.394,7.595l3.025,6.618h-5.861L20.394,7.595z"/>
	<path style="fill:#FFFFFF;" d="M155.272,16.736c-0.322-0.203-0.604-0.228-0.898-0.317c-0.398-0.121-0.526-0.609-0.673-0.665
		c-0.298-0.114-0.572,0.34-0.753,0.28c-0.181-0.057-0.254-0.656-0.401-0.71c-0.287-0.107-0.597,0.35-0.779,0.29
		c-0.18-0.058-0.277-0.647-0.424-0.701c-0.299-0.11-0.607,0.365-0.786,0.306c-0.181-0.058-0.231-0.671-0.378-0.726
		c-0.319-0.121-0.612,0.364-0.894,0.32c-0.179-0.028-0.572-0.094-1.088-0.439c-0.148-0.099-0.454-0.345-0.478-0.354
		c-0.052-0.02-0.184-0.053-0.152,0.213c0.075,0.623,1.148,1.071,2.383,1.429c1.232,0.355,2.481,0.7,3.225,1.043
		c0.461,0.213,0.658,0.466,0.492,0.713c-0.128,0.192-0.445,0.204-0.789,0.041c-0.369-0.176-0.406-0.466-0.638-0.52
		c-0.285-0.067-0.645,0.473-0.87,0.421c-0.29-0.068-0.322-0.688-0.578-0.756c-0.339-0.091-0.716,0.434-0.94,0.386
		c-0.225-0.045-0.308-0.71-0.52-0.764c-0.357-0.092-0.72,0.458-0.944,0.41c-0.225-0.046-0.349-0.7-0.538-0.776
		c-0.356-0.144-0.831,0.394-1.322,0.133c-1.593-1.075-1.287-1.63-2.504-1.991c-0.629-0.185-1.413,0.04-1.871,0.089
		c-1.079,0.112-1.036-0.82-1.036-0.82c0.313,0.073,0.752,0.27,1.557-0.028c0.871-0.323,1.357-0.38,2.493,0
		c0.958,0.323,1.529,0.034,1.862-0.052c0.165-0.043,0.291-0.133,0.601,0.065c0.31,0.198,0.608,0.415,0.76,0.341
		c0.235-0.115,0.151-0.744,0.556-0.877c0.185-0.061,0.69,0.444,0.911,0.36c0.221-0.085,0.153-0.745,0.557-0.878
		c0.186-0.061,0.691,0.444,0.912,0.361c0.223-0.087,0.154-0.745,0.557-0.879c0.186-0.061,0.692,0.445,0.911,0.361
		c0.221-0.086,0.154-0.745,0.557-0.881c0.184-0.06,0.692,0.447,0.911,0.362v-0.001c0.221-0.088,0.19-0.254,0.367-0.702
		c0.035-0.088,0.1-0.175,0.189-0.249c0.246-0.202,0.62-0.634,0.4-1.119c-0.2-0.438-0.612-0.424-1.516-0.238
		c-0.761,0.157-5.485,1.196-5.485,1.196c-0.737-1.364-1.236-0.463-2.331-0.595c-0.693-0.083-1.813-0.79-3.585,0.846
		c-0.953-0.272-1.795-0.031-2.422,0.321c-1.063-0.433-3.091-1.474-6.945-1.474c-1.09,0-3.69,0.215-7.828,1.305
		c-1.059,0.279-2.027,0.219-2.263-0.41c-0.244-0.658,0.605-1.348,2.206-2.115c3.971-1.902,6.621-1.454,11.96-4.28
		c2.862-1.514,3.049-3.291,3.046-3.721c0-0.295-0.3-0.393-0.472-0.152c-0.963,1.344-1.21,1.232-1.51,0.933
		c-0.401-0.4-0.67,0.236-1.101,0.557c-0.327,0.243-0.392-0.05-0.657-0.22c-0.452-0.292-0.833,0.571-1.22,0.744
		c-0.449,0.202-0.531-0.024-0.684-0.183c-0.107-0.113-0.302-0.11-0.442,0.023c-0.911,0.865-1.044,0.766-1.316,0.478
		c-0.202-0.214-0.312-0.363-0.901,0.234c-0.34,0.345-0.909,0.753-1.081,0.323c-0.173-0.431-0.322-0.682-1.157,0.081
		c-0.495,0.451-0.832,0.488-0.982,0.275c-0.151-0.214-0.127-0.801-0.909-0.185c-0.7,0.552-1.053,0.884-1.284,0.351
		c-0.224-0.515-0.74-0.082-1.131,0.291c-0.205,0.197-0.546,0.663-0.822,0.188c-0.274-0.469-0.712,0.015-1.274,0.61
		c-0.317,0.333-0.528,0.187-0.841-0.035c-0.361-0.258-0.742,0.665-1.266,1.218c-0.099,0.091-0.241,0.158-0.557-0.061
		c-0.407-0.281-1.054,1.151-1.237,1.502c-0.301,0.567-0.631-0.149-0.981,0.364c-0.816,1.195-1.689,2.52-1.937,4.868
		c-0.297,2.81,0.745,5.098,1.802,5.939c0,0-0.129,0.315-0.276,0.71c-0.296,0.792-0.417,1.819-0.038,2.54
		c0.367,0.696,1.225,1.854,1.544,0.761c0.155-0.531,0.301-0.503,0.813-0.141c0.772,0.545,0.583-0.448,0.739-0.742
		c0.109-0.206,0.243-0.286,0.879,0.134c0.366,0.238,0.484-0.085,0.593-0.539c0.336-1.4-0.325-1.745-0.979-1.876
		c-0.476-0.096-0.976-0.016-0.976-0.016c1.041-1.588,1.17-2.455,0.001-3.259c0.174-0.088,0.317-0.04,0.466,0.023
		c0.288,0.122,0.528,0.343,0.681,0.611c0.162,0.285,0.426,0.921-0.11,2.051c0.225,0,1.088,0.055,1.478,0.94
		c0.511,0.165,3.814,0.427,5.257,0.194c0.524-0.085,0.762-0.558,1.285-1.046c0.571-0.532,1.234-1.109,1.827-0.676
		c-1.009,0.414-1.719,1.198-1.719,2.193c0,0.747,0.308,1.046,0.843,1.491c0.483,0.402,0.632,1.039,0.809,1.535
		c0.226,0.631,0.7,0.65,0.806,0.052c0.146-0.828,0.396-0.674,0.716-0.321c0.389,0.429,0.693,0.363,0.694-0.254
		c0.001-0.584,0.176-0.872,0.829-0.197c0.265,0.274,0.584,0.264,0.579-0.333c-0.006-0.729,0.321-0.658,0.729-0.346
		c0.142,0.109,0.241,0.187,0.317,0.183c0.321-0.017,0.533-0.642,0.285-1.136c-0.123-0.247-0.303-0.616-1.969-0.959
		c-0.546-0.112-0.453-0.491-0.453-0.491c4.068,0.197,7.517-0.314,9.785-1.692c2.787,0.672,6.864,0.736,8.202,0.719
		c1.337-0.016,2.36-0.077,3.197-0.479C155.813,17.637,155.68,16.993,155.272,16.736z M146.853,10.406
		c0.08-0.204,0.248-0.344,0.422-0.344c0.31,0,0.459,0.339,0.458,0.443l-0.75,0.167C146.774,10.713,146.779,10.598,146.853,10.406z
		 M144.923,10.346c0.52,0.001,0.84,0.399,0.898,0.58c0,0-0.782,0.173-1.122,0.244c-0.222,0.047-0.368-0.048-0.39-0.222
		C144.281,10.754,144.49,10.343,144.923,10.346z M123.355,5.573c0.357-0.172,0.735-0.296,1.127-0.369
		c0.077-0.013,0.128,0.028,0.111,0.089c-0.064,0.254-0.123,0.517-0.178,0.783c-0.014,0.066-0.075,0.096-0.137,0.066
		c-0.29-0.142-0.595-0.292-0.921-0.446C123.287,5.664,123.284,5.606,123.355,5.573z M121.648,6.375
		c0.356-0.171,0.734-0.296,1.126-0.369c0.077-0.013,0.127,0.028,0.112,0.09c-0.064,0.255-0.124,0.515-0.179,0.784
		c-0.013,0.067-0.074,0.095-0.136,0.065c-0.291-0.141-0.595-0.291-0.921-0.445C121.578,6.467,121.576,6.409,121.648,6.375z
		 M122.38,8.146c0.079-0.014,0.129,0.027,0.112,0.09c-0.063,0.255-0.123,0.516-0.179,0.783c-0.013,0.065-0.072,0.095-0.135,0.065
		c-0.29-0.143-0.596-0.291-0.921-0.446c-0.07-0.032-0.073-0.09-0.002-0.124C121.611,8.342,121.989,8.218,122.38,8.146z
		 M121.667,9.633c-0.064,0.255-0.123,0.515-0.18,0.783c-0.014,0.065-0.074,0.097-0.136,0.065c-0.29-0.141-0.595-0.291-0.921-0.446
		c-0.069-0.031-0.071-0.089-0.001-0.124c0.357-0.172,0.737-0.295,1.127-0.367C121.631,9.529,121.683,9.569,121.667,9.633z
		 M120.119,7.403c0.355-0.172,0.734-0.296,1.127-0.369c0.077-0.014,0.127,0.027,0.11,0.089c-0.063,0.254-0.123,0.515-0.177,0.784
		c-0.014,0.065-0.075,0.096-0.138,0.065c-0.289-0.141-0.595-0.291-0.92-0.446C120.049,7.493,120.048,7.438,120.119,7.403z
		 M118.948,8.749c0.357-0.173,0.735-0.295,1.126-0.368c0.077-0.015,0.128,0.026,0.113,0.088c-0.064,0.256-0.124,0.518-0.18,0.784
		c-0.014,0.066-0.075,0.097-0.138,0.066c-0.288-0.142-0.593-0.292-0.921-0.447C118.88,8.839,118.878,8.781,118.948,8.749z
		 M118.505,10.296c0.358-0.172,0.738-0.295,1.129-0.368c0.077-0.016,0.128,0.027,0.111,0.089c-0.064,0.255-0.123,0.517-0.179,0.783
		c-0.015,0.066-0.075,0.097-0.137,0.066c-0.29-0.142-0.594-0.291-0.922-0.446C118.438,10.387,118.437,10.331,118.505,10.296z
		 M118.705,11.981c-0.069-0.034-0.072-0.09-0.001-0.125c0.356-0.172,0.735-0.297,1.127-0.37c0.077-0.013,0.128,0.027,0.113,0.089
		c-0.064,0.256-0.124,0.517-0.181,0.785c-0.014,0.066-0.074,0.096-0.136,0.065C119.338,12.283,119.03,12.134,118.705,11.981z
		 M120.707,13.865c-0.014,0.065-0.075,0.095-0.137,0.064c-0.29-0.142-0.595-0.291-0.922-0.446c-0.069-0.032-0.072-0.09-0.002-0.124
		c0.357-0.172,0.736-0.296,1.127-0.367c0.078-0.016,0.129,0.026,0.114,0.088C120.821,13.335,120.762,13.598,120.707,13.865z
		 M120.609,11.559c-0.069-0.032-0.07-0.09,0-0.122c0.356-0.173,0.735-0.298,1.126-0.37c0.076-0.014,0.127,0.028,0.112,0.09
		c-0.064,0.254-0.124,0.517-0.179,0.785c-0.013,0.065-0.075,0.094-0.137,0.064C121.243,11.865,120.938,11.714,120.609,11.559z
		 M122.38,14.729c-0.014,0.066-0.075,0.095-0.137,0.066c-0.288-0.142-0.594-0.293-0.92-0.445c-0.07-0.035-0.073-0.091-0.002-0.126
		c0.356-0.169,0.735-0.295,1.127-0.368c0.077-0.013,0.128,0.028,0.112,0.09C122.497,14.2,122.437,14.461,122.38,14.729z
		 M122.75,13.086c-0.014,0.067-0.075,0.095-0.137,0.067c-0.289-0.144-0.595-0.292-0.922-0.447c-0.071-0.033-0.071-0.09-0.001-0.125
		c0.357-0.171,0.735-0.296,1.127-0.367c0.075-0.015,0.126,0.026,0.112,0.088C122.865,12.558,122.806,12.819,122.75,13.086z
		 M124.415,13.894c-0.064,0.256-0.124,0.517-0.179,0.785c-0.014,0.064-0.075,0.095-0.137,0.064c-0.289-0.141-0.595-0.291-0.92-0.446
		c-0.07-0.032-0.072-0.089-0.003-0.125c0.357-0.171,0.735-0.296,1.126-0.368C124.381,13.79,124.432,13.833,124.415,13.894z
		 M124.492,13.015c-0.29-0.141-0.596-0.291-0.922-0.444c-0.069-0.033-0.071-0.092-0.001-0.125c0.357-0.171,0.737-0.296,1.126-0.37
		c0.079-0.013,0.128,0.027,0.113,0.091c-0.065,0.255-0.123,0.516-0.18,0.784C124.615,13.017,124.555,13.047,124.492,13.015z
		 M125.942,15.121c-0.063,0.254-0.122,0.515-0.178,0.782c-0.014,0.065-0.074,0.095-0.137,0.065
		c-0.288-0.141-0.594-0.291-0.921-0.447c-0.07-0.032-0.072-0.089-0.003-0.122c0.357-0.172,0.735-0.296,1.128-0.368
		C125.908,15.015,125.96,15.057,125.942,15.121z M126.313,13.426c-0.063,0.255-0.123,0.516-0.18,0.784
		c-0.014,0.064-0.076,0.095-0.138,0.064c-0.288-0.14-0.594-0.292-0.92-0.446c-0.07-0.032-0.071-0.09-0.002-0.124
		c0.355-0.171,0.735-0.295,1.126-0.369C126.278,13.322,126.329,13.364,126.313,13.426z M126.539,12.419
		c-0.014,0.066-0.074,0.096-0.135,0.065c-0.291-0.14-0.596-0.289-0.922-0.447c-0.069-0.03-0.073-0.09-0.002-0.123
		c0.357-0.172,0.735-0.294,1.127-0.369c0.078-0.014,0.127,0.028,0.112,0.091C126.655,11.891,126.594,12.153,126.539,12.419z
		 M127.693,15.339c-0.013,0.065-0.074,0.094-0.137,0.065c-0.29-0.142-0.594-0.292-0.921-0.447c-0.07-0.032-0.073-0.09-0.002-0.124
		c0.356-0.172,0.736-0.296,1.127-0.368c0.077-0.013,0.128,0.027,0.113,0.09C127.809,14.809,127.75,15.072,127.693,15.339z
		 M128.06,13.697c-0.013,0.065-0.073,0.095-0.136,0.065c-0.289-0.143-0.596-0.292-0.92-0.447c-0.069-0.032-0.072-0.089-0.002-0.122
		c0.356-0.173,0.736-0.298,1.126-0.369c0.077-0.013,0.129,0.026,0.113,0.09C128.177,13.168,128.117,13.431,128.06,13.697z
		 M128.315,12.044c-0.29-0.142-0.596-0.292-0.921-0.446c-0.07-0.032-0.074-0.088-0.003-0.124c0.357-0.172,0.734-0.296,1.126-0.368
		c0.078-0.013,0.127,0.027,0.112,0.091c-0.063,0.252-0.124,0.515-0.179,0.782C128.439,12.046,128.376,12.074,128.315,12.044z
		 M129.84,14.142c-0.064,0.255-0.122,0.515-0.179,0.784c-0.014,0.066-0.073,0.094-0.135,0.065c-0.29-0.142-0.594-0.291-0.923-0.447
		c-0.07-0.034-0.072-0.09-0.003-0.123c0.359-0.173,0.736-0.298,1.128-0.369C129.806,14.038,129.857,14.08,129.84,14.142z
		 M130.197,12.501c-0.063,0.253-0.123,0.515-0.178,0.785c-0.014,0.066-0.076,0.094-0.137,0.064c-0.29-0.14-0.594-0.291-0.921-0.445
		c-0.071-0.035-0.073-0.09-0.003-0.124c0.357-0.173,0.735-0.297,1.127-0.369C130.163,12.399,130.213,12.44,130.197,12.501z
		 M130.252,11.719c-0.291-0.14-0.597-0.292-0.923-0.445c-0.069-0.034-0.07-0.091-0.001-0.125c0.357-0.171,0.736-0.295,1.128-0.368
		c0.076-0.014,0.126,0.027,0.111,0.09c-0.064,0.255-0.123,0.517-0.179,0.784C130.374,11.719,130.313,11.75,130.252,11.719z
		 M131.746,13.944c-0.063,0.256-0.122,0.515-0.178,0.784c-0.013,0.064-0.075,0.094-0.136,0.064c-0.29-0.142-0.595-0.291-0.922-0.446
		c-0.07-0.034-0.072-0.09-0.002-0.123c0.357-0.173,0.733-0.298,1.126-0.371C131.712,13.84,131.762,13.882,131.746,13.944z
		 M132.102,12.315c-0.062,0.256-0.123,0.515-0.178,0.785c-0.017,0.064-0.075,0.094-0.138,0.064
		c-0.288-0.141-0.596-0.291-0.921-0.445c-0.07-0.034-0.071-0.091-0.002-0.124c0.356-0.173,0.735-0.297,1.126-0.369
		C132.069,12.211,132.119,12.253,132.102,12.315z M132.287,11.498c-0.012,0.066-0.073,0.095-0.135,0.066
		c-0.291-0.143-0.595-0.292-0.922-0.446c-0.07-0.033-0.073-0.089-0.002-0.123c0.357-0.172,0.736-0.298,1.128-0.369
		c0.077-0.013,0.127,0.026,0.111,0.091C132.403,10.969,132.345,11.23,132.287,11.498z M133.635,14.017
		c-0.064,0.255-0.123,0.516-0.179,0.784c-0.014,0.066-0.075,0.095-0.137,0.066c-0.288-0.141-0.594-0.293-0.92-0.447
		c-0.07-0.033-0.072-0.091-0.001-0.124c0.356-0.171,0.735-0.296,1.125-0.368C133.6,13.912,133.652,13.954,133.635,14.017z
		 M133.999,12.368c-0.062,0.254-0.122,0.515-0.179,0.783c-0.014,0.067-0.075,0.096-0.137,0.067
		c-0.288-0.142-0.595-0.293-0.921-0.447c-0.07-0.033-0.071-0.091-0.001-0.125c0.356-0.171,0.735-0.295,1.127-0.368
		C133.965,12.262,134.015,12.305,133.999,12.368z M134.368,10.754c-0.063,0.254-0.123,0.516-0.179,0.784
		c-0.014,0.066-0.074,0.096-0.137,0.066c-0.288-0.144-0.594-0.292-0.92-0.447c-0.072-0.033-0.073-0.09-0.003-0.124
		c0.357-0.172,0.736-0.297,1.127-0.37C134.333,10.651,134.384,10.693,134.368,10.754z M135.652,13.499
		c-0.013,0.066-0.074,0.092-0.136,0.065c-0.288-0.141-0.594-0.291-0.921-0.446c-0.07-0.033-0.071-0.09-0.001-0.123
		c0.356-0.173,0.735-0.297,1.125-0.37c0.078-0.013,0.129,0.029,0.113,0.09C135.768,12.969,135.71,13.233,135.652,13.499z
		 M136.199,11.053c-0.062,0.256-0.123,0.518-0.176,0.785c-0.015,0.064-0.076,0.095-0.137,0.064
		c-0.291-0.142-0.596-0.292-0.922-0.446c-0.07-0.034-0.072-0.091,0-0.124c0.355-0.171,0.733-0.297,1.125-0.368
		C136.165,10.95,136.217,10.991,136.199,11.053z M137.945,11.662c-0.062,0.255-0.121,0.517-0.177,0.785
		c-0.014,0.065-0.077,0.095-0.138,0.064c-0.289-0.141-0.594-0.29-0.921-0.446c-0.07-0.031-0.072-0.09-0.001-0.123
		c0.357-0.171,0.735-0.295,1.126-0.368C137.912,11.558,137.962,11.6,137.945,11.662z"/>
</g>
</svg>
