<?xml version="1.0" encoding="utf-8"?>
<!-- Generator: Adobe Illustrator 18.1.1, SVG Export Plug-In . SVG Version: 6.00 Build 0)  -->
<svg version="1.1" id="Layer_1" xmlns="http://www.w3.org/2000/svg" xmlns:xlink="http://www.w3.org/1999/xlink" x="0px" y="0px"
	 viewBox="117.9 7.8 91.6 45.8" enable-background="new 117.9 7.8 91.6 45.8" xml:space="preserve">
<g>
	<path fill="#FFFFFF" d="M209.5,43h-60V7.8h60V43z M152.3,40.1h54.4V10.6h-54.4V40.1z"/>
	<g>
		<g>
			<path fill="#79BF42" d="M138.3,27.7c3.9,0,7.1-3.2,7.1-7.1c0-3.9-3.2-7.1-7.1-7.1c-3.9,0-7.1,3.2-7.1,7.1
				C131.2,24.5,134.4,27.7,138.3,27.7z"/>
			<path fill="#79BF42" d="M153,33.4l19.9-9.6c1.5-0.7,2.2-2.6,1.5-4.1l-0.2-0.4c-0.7-1.5-2.6-2.2-4.1-1.5l-23.8,11.4l-2.6,0h-10.3
				l-4.5,0c-1.4-0.1-2.7,0.9-3.2,2.3l-7.7,22h7.1l3.9-11v11h19.2l0-17.7c0.1,0,0.1,0,0.2-0.1L153,33.4z"/>
		</g>
	</g>
	<g>
		<path fill="#79BF42" d="M185.6,36.6c-3.9,0-7-3.2-7-7s3.2-7,7-7s7,3.2,7,7S189.4,36.6,185.6,36.6z M185.6,24.4
			c-2.8,0-5.2,2.3-5.2,5.2c0,2.8,2.3,5.2,5.2,5.2s5.2-2.3,5.2-5.2C190.7,26.8,188.4,24.4,185.6,24.4z"/>
		<path fill="#79BF42" d="M191.7,33.1c-3.9,0-7-3.2-7-7s3.2-7,7-7s7,3.2,7,7S195.5,33.1,191.7,33.1z M191.7,20.9
			c-2.8,0-5.2,2.3-5.2,5.2c0,2.8,2.3,5.2,5.2,5.2s5.2-2.3,5.2-5.2C196.8,23.2,194.5,20.9,191.7,20.9z"/>
		<path fill="#79BF42" d="M185.6,29.8c-3.9,0-7-3.2-7-7c0-3.9,3.2-7,7-7s7,3.2,7,7C192.6,26.7,189.4,29.8,185.6,29.8z M185.6,17.6
			c-2.8,0-5.2,2.3-5.2,5.2s2.3,5.2,5.2,5.2s5.2-2.3,5.2-5.2S188.4,17.6,185.6,17.6z"/>
	</g>
</g>
</svg>
