<?xml version="1.0" encoding="utf-8"?>
<!-- Generator: Adobe Illustrator 18.1.1, SVG Export Plug-In . SVG Version: 6.00 Build 0)  -->
<svg version="1.1" id="Layer_1" xmlns="http://www.w3.org/2000/svg" xmlns:xlink="http://www.w3.org/1999/xlink" x="0px" y="0px"
	 viewBox="356.1 2.5 96.2 60.8" enable-background="new 356.1 2.5 96.2 60.8" xml:space="preserve">
<g>
	<path d="M433.1,38.2c-0.1,0-1.7,0.6-3.2,1.1c0.3-1.9,0.5-3.4,0.5-3.7c0-1.3-1-2.4-2.3-2.5c0,0,0,0,0,0c4.3-2.1,7.3-6.6,7.3-11.7
		c0-7.2-5.9-13.1-13.1-13.1c-5.1,0-9.5,2.9-11.7,7.2c-1.4-6.6-7.3-11.6-14.3-11.6c-8.1,0-14.7,6.6-14.7,14.7
		c0,7.5,5.6,13.6,12.8,14.5H389v0c-0.1,0-0.2,0-0.2,0c-1.8,0-3.3,1.5-3.3,3.3c0,0.1,0,0.1,0,0.2v1.7h-6.7c0,0-17.1-5.3-17.5-5.3
		c-1.8,0-3.3,1.5-3.3,3.3c0,0.2,0,0.3,0,0.5c0,0,0,0,0,0v16.2c0,0,0,0,0,0c0,0.2,0,0.3,0,0.5c0,1.8,1.5,3.3,3.3,3.3
		c0.6,0,17.5-5.4,17.5-5.4h6.7v1.7c0,0.1,0,0.1,0,0.2c0,1.8,1.5,3.3,3.3,3.3c0,0,0.1,0,0.1,0c0,0,0,0,0,0h36.2c0,0,0,0,0,0
		c0,0,0,0,0,0c1.3,0,2.4-1,2.5-2.4c0,0,0,0,0,0c0,0,0.6-4.1,1.3-8.4c1.3,0.5,2.8,1.2,2.9,1.2c0.7,0.2,1.4-0.4,1.4-1.1
		c0-0.7,0.2-2,0.4-3.5c0.2-1.5,0.6-2.2,0.6-2.8C434.3,38.8,434.1,38.2,433.1,38.2z M401.9,32.3H419c0.6,0,1,0.4,1,1c0,0.5-0.5,1-1,1
		h-17.1c-0.6,0-1-0.4-1-1C400.9,32.7,401.3,32.3,401.9,32.3z M395.8,54.2c-0.9,0-1.6-0.7-1.6-1.6s0.7-1.6,1.6-1.6s1.6,0.7,1.6,1.6
		S396.7,54.2,395.8,54.2z M396.7,21.1c-1.4,0-2.6-1.1-2.6-2.6c0-1.4,1.1-2.6,2.6-2.6c1.4,0,2.6,1.1,2.6,2.6
		C399.3,19.9,398.1,21.1,396.7,21.1z M400.9,54.2c-1.3,0-2.3-1-2.3-2.3c0-1.3,1-2.3,2.3-2.3s2.3,1,2.3,2.3
		C403.2,53.2,402.2,54.2,400.9,54.2z M424.9,50.1c0,1.4-1.1,2.5-2.5,2.5h-4.2c-1.4,0-2.5-1.1-2.5-2.5v-4.2c0-1.4,1.1-2.5,2.5-2.5
		h4.2c1.4,0,2.5,1.1,2.5,2.5V50.1z M422.4,23.8c-1.4,0-2.6-1.1-2.6-2.6c0-1.4,1.1-2.6,2.6-2.6c1.4,0,2.6,1.1,2.6,2.6
		C424.9,22.6,423.8,23.8,422.4,23.8z"/>
	<g>
		<defs>
			<path id="SVGID_1_" d="M433.1,38.2c-0.1,0-1.7,0.6-3.2,1.1c0.3-1.9,0.5-3.4,0.5-3.7c0-1.3-1-2.4-2.3-2.5c0,0,0,0,0,0
				c4.3-2.1,7.3-6.6,7.3-11.7c0-7.2-5.9-13.1-13.1-13.1c-5.1,0-9.5,2.9-11.7,7.2c-1.4-6.6-7.3-11.6-14.3-11.6
				c-8.1,0-14.7,6.6-14.7,14.7c0,7.5,5.6,13.6,12.8,14.5H389v0c-0.1,0-0.2,0-0.2,0c-1.8,0-3.3,1.5-3.3,3.3c0,0.1,0,0.1,0,0.2v1.7
				h-6.7c0,0-17.1-5.3-17.5-5.3c-1.8,0-3.3,1.5-3.3,3.3c0,0.2,0,0.3,0,0.5c0,0,0,0,0,0v16.2c0,0,0,0,0,0c0,0.2,0,0.3,0,0.5
				c0,1.8,1.5,3.3,3.3,3.3c0.6,0,17.5-5.4,17.5-5.4h6.7v1.7c0,0.1,0,0.1,0,0.2c0,1.8,1.5,3.3,3.3,3.3c0,0,0.1,0,0.1,0c0,0,0,0,0,0
				h36.2c0,0,0,0,0,0c0,0,0,0,0,0c1.3,0,2.4-1,2.5-2.4c0,0,0,0,0,0c0,0,0.6-4.1,1.3-8.4c1.3,0.5,2.8,1.2,2.9,1.2
				c0.7,0.2,1.4-0.4,1.4-1.1c0-0.7,0.2-2,0.4-3.5s0.6-2.2,0.6-2.8C434.3,38.8,434.1,38.2,433.1,38.2z M401.9,32.3H419
				c0.6,0,1,0.4,1,1c0,0.5-0.5,1-1,1h-17.1c-0.6,0-1-0.4-1-1C400.9,32.7,401.3,32.3,401.9,32.3z M395.8,54.2c-0.9,0-1.6-0.7-1.6-1.6
				c0-0.9,0.7-1.6,1.6-1.6s1.6,0.7,1.6,1.6C397.4,53.5,396.7,54.2,395.8,54.2z M396.7,21.1c-1.4,0-2.6-1.1-2.6-2.6s1.1-2.6,2.6-2.6
				c1.4,0,2.6,1.1,2.6,2.6S398.1,21.1,396.7,21.1z M400.9,54.2c-1.3,0-2.3-1-2.3-2.3c0-1.3,1-2.3,2.3-2.3s2.3,1,2.3,2.3
				C403.2,53.2,402.2,54.2,400.9,54.2z M424.9,50.1c0,1.4-1.1,2.5-2.5,2.5h-4.2c-1.4,0-2.5-1.1-2.5-2.5v-4.2c0-1.4,1.1-2.5,2.5-2.5
				h4.2c1.4,0,2.5,1.1,2.5,2.5V50.1z M422.4,23.8c-1.4,0-2.6-1.1-2.6-2.6c0-1.4,1.1-2.6,2.6-2.6c1.4,0,2.6,1.1,2.6,2.6
				C424.9,22.6,423.8,23.8,422.4,23.8z"/>
		</defs>
		<clipPath id="SVGID_2_">
			<use xlink:href="#SVGID_1_"  overflow="visible"/>
		</clipPath>
		<rect x="368.8" y="2.5" clip-path="url(#SVGID_2_)" fill="#F0AC1E" width="83.5" height="30.7"/>
		<polygon clip-path="url(#SVGID_2_)" fill="#FFFFFF" points="439.6,63.2 356.1,63.2 356.1,32.6 393.9,33 428,33 439.6,32.6 		"/>
		
			<rect x="429.4" y="36.8" transform="matrix(0.99 0.1408 -0.1408 0.99 10.3964 -60.4759)" clip-path="url(#SVGID_2_)" fill="#F0AC1E" width="6.7" height="13"/>
	</g>
	<g>
		<g>
			<path fill="#FFFFFF" d="M404.2,14.5c0,0,0.3,0.3,0.5,0.6c0.2,0.3,0.4,0.7,0.4,0.7l-0.4,0.1c0,0-0.1-0.3-0.3-0.7
				c-0.2-0.3-0.4-0.6-0.4-0.6L404.2,14.5z"/>
			<path fill="#FFFFFF" d="M405.4,16.8c0,0,0.1,0.2,0.1,0.5c0.1,0.3,0.1,0.6,0.2,1c0.1,0.8,0.1,1.5,0.1,1.5l-0.8-0.1
				c0,0,0.1-0.7,0-1.4c0-0.7-0.2-1.4-0.2-1.4L405.4,16.8z"/>
			<path fill="#FFFFFF" d="M405.7,20.8c0,0,0,0.2-0.1,0.5c-0.1,0.3-0.2,0.7-0.3,1c-0.2,0.8-0.6,1.5-0.6,1.5l-1-0.6
				c0,0,0.4-0.6,0.7-1.3c0.3-0.7,0.4-1.3,0.4-1.3L405.7,20.8z"/>
			<path fill="#FFFFFF" d="M404.1,24.7c0,0-0.1,0.1-0.3,0.4c-0.2,0.2-0.5,0.5-0.8,0.8c-0.6,0.6-1.3,1-1.3,1l-0.7-1.2
				c0,0,0.6-0.3,1.2-0.8c0.6-0.4,1-1,1-1L404.1,24.7z"/>
			<path fill="#FFFFFF" d="M400.7,27.5c0,0,0,0-0.1,0.1c-0.1,0-0.2,0.1-0.4,0.2c-0.3,0.1-0.7,0.3-1.1,0.4c-0.8,0.2-1.6,0.3-1.6,0.3
				l-0.1-1.6c0,0,0.7,0,1.4-0.2c0.7-0.1,1.4-0.4,1.4-0.4L400.7,27.5z"/>
			<path fill="#FFFFFF" d="M396.4,28.4c0,0,0,0-0.1,0c-0.1,0-0.2,0-0.4,0c-0.3,0-0.7-0.1-1.1-0.1c-0.8-0.1-1.6-0.4-1.6-0.4l0.6-1.7
				c0,0,0.7,0.2,1.4,0.4c0.7,0.1,1.4,0.2,1.4,0.2L396.4,28.4z"/>
			<path fill="#FFFFFF" d="M392,27.5c0,0-0.2-0.1-0.4-0.2c-0.1,0-0.1-0.1-0.2-0.1l-0.1,0l-0.1-0.1l-0.1-0.1
				c-0.2-0.1-0.4-0.2-0.6-0.3c-0.8-0.5-1.4-1.1-1.4-1.1l1.5-1.4c0,0,0.5,0.5,1.1,0.9c0.1,0.1,0.3,0.2,0.4,0.3c0.1,0,0.1,0.1,0.2,0.1
				c0.1,0,0.1,0.1,0.2,0.1c0.2,0.1,0.4,0.2,0.4,0.2L392,27.5z"/>
			<path fill="#FFFFFF" d="M388.2,24.7C388.2,24.7,388.2,24.7,388.2,24.7c-0.1-0.2-0.2-0.3-0.3-0.4c-0.2-0.3-0.4-0.7-0.6-1
				c-0.4-0.8-0.7-1.6-0.7-1.6l2.1-0.6c0,0,0.2,0.7,0.5,1.3c0.3,0.6,0.7,1.2,0.7,1.2L388.2,24.7z"/>
			<path fill="#FFFFFF" d="M386.3,20.4c0,0,0,0,0-0.1c0-0.1,0-0.2-0.1-0.4c-0.1-0.3-0.1-0.8-0.1-1.2c-0.1-0.9,0.1-1.8,0.1-1.8
				l2.4,0.4c0,0-0.1,0.7-0.1,1.4c0,0.7,0.1,1.4,0.1,1.4L386.3,20.4z"/>
			<path fill="#FFFFFF" d="M386.4,15.5c0,0,0.1-0.2,0.1-0.4c0-0.1,0-0.1,0.1-0.2l0-0.1l0,0l0.1-0.2l0-0.1c0.1-0.2,0.2-0.4,0.3-0.6
				c0.4-0.8,0.9-1.6,0.9-1.6l2.1,1.5c0,0-0.4,0.6-0.7,1.2c-0.1,0.2-0.2,0.3-0.2,0.5c0,0.1-0.1,0.1-0.1,0.2c0,0.1-0.1,0.1-0.1,0.2
				c-0.1,0.3-0.2,0.4-0.2,0.4L386.4,15.5z"/>
			<path fill="#FFFFFF" d="M388.6,11.3C388.6,11.3,388.7,11.3,388.6,11.3c0.2-0.2,0.3-0.3,0.4-0.4c0.2-0.3,0.6-0.6,0.9-0.9
				c0.7-0.6,1.6-1,1.6-1l1.2,2.3c0,0-0.6,0.3-1.2,0.8c-0.6,0.4-1,1-1,1L388.6,11.3z"/>
			<path fill="#FFFFFF" d="M392.7,8.5c0,0,0,0,0.1,0c0.1,0,0.2-0.1,0.4-0.1c0.3-0.1,0.8-0.2,1.3-0.3c0.9-0.2,1.9-0.2,1.9-0.2
				l-0.1,2.7c0,0-0.7,0-1.4,0.1c-0.7,0.1-1.4,0.4-1.4,0.4L392.7,8.5z"/>
			<path fill="#FFFFFF" d="M397.6,7.9c0,0,0.2,0,0.5,0.1c0.3,0,0.7,0.1,1.1,0.2c0.8,0.2,1.7,0.5,1.7,0.5l-1,2.6c0,0-0.7-0.3-1.3-0.4
				c-0.7-0.2-1.4-0.3-1.4-0.3L397.6,7.9z"/>
			<path fill="#FFFFFF" d="M402.2,9.2c0,0,0,0,0.1,0.1c0.1,0.1,0.2,0.1,0.4,0.2c0.3,0.2,0.7,0.5,1.1,0.8c0.2,0.2,0.4,0.3,0.5,0.5
				c0.1,0.1,0.2,0.2,0.2,0.2c0.1,0.1,0.2,0.2,0.2,0.2c0.2,0.2,0.3,0.3,0.3,0.3l-2.2,1.9c0,0-0.1-0.1-0.3-0.3
				c-0.2-0.2-0.4-0.4-0.7-0.7c-0.5-0.5-1.2-0.8-1.2-0.8L402.2,9.2z"/>
			<polygon fill="#FFFFFF" points="405.9,12.6 407.5,15 405.1,16.6 403.5,14.2 			"/>
			<path fill="#FFFFFF" d="M408,15.8c0,0,0.4,0.6,0.8,1.2l0.2,0.2l0,0.1l0,0l0,0l0,0c-0.2-0.3-0.1-0.1-0.1-0.1l0,0l0,0l0,0l0.1,0.1
				c0.1,0.1,0.2,0.3,0.3,0.4c0.2,0.2,0.3,0.3,0.3,0.3l-2.3,1.9c0,0-0.1-0.1-0.3-0.4c-0.1-0.1-0.2-0.2-0.3-0.4c0-0.1-0.1-0.2-0.2-0.2
				l-0.2-0.2c-0.4-0.6-0.8-1.2-0.8-1.2L408,15.8z"/>
			<polygon fill="#FFFFFF" points="410.1,18.5 412.1,20.5 410,22.6 407.9,20.5 			"/>
			<polygon fill="#FFFFFF" points="412.6,21 414.8,22.9 412.9,25.1 410.7,23.3 			"/>
			<polygon fill="#FFFFFF" points="415.5,23.4 417.7,25.2 416,27.5 413.7,25.7 			"/>
			<path fill="#FFFFFF" d="M418.2,25.5c0,0,0.1,0.1,0.3,0.2c0.2,0.1,0.4,0.2,0.7,0.3c0.5,0.2,1,0.3,1,0.3l-0.7,2.8
				c0,0-0.7-0.2-1.4-0.4c-0.3-0.1-0.7-0.3-0.9-0.4c-0.2-0.1-0.4-0.2-0.4-0.2L418.2,25.5z"/>
			<path fill="#FFFFFF" d="M420.9,26.4c0,0,0.1,0,0.4,0.1c0.2,0,0.5,0,0.7,0.1c0.5,0,1.1,0,1.1,0l0.4,2.8c0,0-0.7,0.1-1.5,0.1
				c-0.7,0-1.5-0.1-1.5-0.1L420.9,26.4z"/>
			<path fill="#FFFFFF" d="M423.6,26.5c0,0,0.7-0.2,1.4-0.4l0.1,0l0,0c-0.8,0.3-0.2,0.1-0.4,0.2l0,0l0,0l0,0l0,0l0,0l0.1,0
				c0.1,0,0.2-0.1,0.2-0.1c0.2-0.1,0.3-0.1,0.4-0.2c0.2-0.1,0.4-0.2,0.4-0.2l1.3,2.4c0,0-0.2,0.1-0.4,0.2c-0.1,0.1-0.3,0.1-0.4,0.2
				c-0.1,0-0.2,0.1-0.2,0.1c-0.1,0,0,0-0.2,0.1l-0.1,0c-0.7,0.2-1.4,0.4-1.4,0.4L423.6,26.5z"/>
			<path fill="#FFFFFF" d="M426.2,25.3c0,0,0.1-0.1,0.3-0.2c0.1-0.1,0.3-0.3,0.5-0.5c0.4-0.4,0.6-0.8,0.6-0.8l2.3,1.4
				c0,0-0.4,0.6-0.9,1.2c-0.2,0.3-0.5,0.5-0.7,0.7c-0.2,0.2-0.4,0.3-0.4,0.3L426.2,25.3z"/>
			<path fill="#FFFFFF" d="M428,23.3c0,0,0.1-0.1,0.1-0.3c0.1-0.2,0.2-0.4,0.2-0.7c0.1-0.5,0.2-1,0.2-1l2.6,0.2c0,0,0,0.7-0.2,1.5
				c-0.1,0.4-0.2,0.7-0.3,1c-0.1,0.3-0.2,0.4-0.2,0.4L428,23.3z"/>
			<path fill="#FFFFFF" d="M428.6,20.6c0,0,0-0.1,0-0.4c0-0.2,0-0.5-0.1-0.7c0-0.1-0.1-0.3-0.1-0.4c0-0.1,0-0.1,0-0.2l0-0.1l0,0l0,0
				l0,0c0,0,0.1,0.2,0,0.1l0,0l0,0l0,0l0,0c-0.1-0.3-0.1-0.4-0.1-0.4l2.3-0.8c0,0,0.1,0.2,0.2,0.4c0.1,0.3,0.2,0.6,0.3,1
				c0.2,0.7,0.2,1.5,0.2,1.5L428.6,20.6z"/>
			<path fill="#FFFFFF" d="M428,17.9c0,0-0.1-0.1-0.2-0.3c-0.1-0.2-0.2-0.4-0.4-0.6c-0.3-0.4-0.7-0.8-0.7-0.8l1.4-1.7
				c0,0,0.6,0.5,1.1,1c0.2,0.3,0.5,0.6,0.6,0.8c0.1,0.2,0.2,0.4,0.2,0.4L428,17.9z"/>
			<path fill="#FFFFFF" d="M426.2,15.8c0,0-0.1-0.1-0.3-0.2c-0.2-0.1-0.4-0.3-0.7-0.4c-0.5-0.2-1-0.4-1-0.4l0.5-2.1
				c0,0,0.7,0.2,1.4,0.5c0.7,0.3,1.3,0.7,1.3,0.7L426.2,15.8z"/>
			<path fill="#FFFFFF" d="M423.5,14.6c0,0-0.1,0-0.4-0.1c-0.2,0-0.5,0-0.8,0c-0.6,0-1.2,0.1-1.2,0.1l-0.4-1.9c0,0,0.7-0.2,1.5-0.2
				c0.7-0.1,1.5,0,1.5,0L423.5,14.6z"/>
			<path fill="#FFFFFF" d="M420.4,14.8c0,0-0.2,0-0.4,0.1c-0.2,0.1-0.5,0.2-0.8,0.3c-0.6,0.2-1.1,0.5-1.1,0.5l-0.9-1.4
				c0,0,0.6-0.4,1.3-0.7c0.7-0.3,1.4-0.6,1.4-0.6L420.4,14.8z"/>
			<path fill="#FFFFFF" d="M417.4,16.1c0,0-0.1,0.1-0.3,0.2c-0.2,0.1-0.4,0.3-0.6,0.5c-0.4,0.4-0.7,0.9-0.7,0.9l-1.3-0.6
				c0,0,0.3-0.7,0.8-1.3c0.5-0.6,1-1.1,1-1.1L417.4,16.1z"/>
			<path fill="#FFFFFF" d="M415.5,18.5c0,0-0.1,0.1-0.1,0.4c-0.1,0.2-0.2,0.5-0.2,0.8C415,20.3,415,21,415,21l-1.2,0.1
				c0,0,0-0.7,0-1.5c0.1-0.7,0.3-1.4,0.3-1.4L415.5,18.5z"/>
			<path fill="#FFFFFF" d="M415,21.8c0,0,0,0.2,0.1,0.4c0,0.1,0,0.3,0.1,0.5c0,0.1,0,0.2,0,0.3l0,0.1l0,0.1l0,0l0,0l0,0l0,0
				c-0.1-0.2,0-0.1,0-0.1l0,0l0,0c0.2,0.7,0.4,1.4,0.4,1.4l-0.8,0.3c0,0-0.2-0.7-0.5-1.4c0-0.1,0-0.2-0.1-0.3c0-0.1,0-0.2-0.1-0.3
				c0-0.2-0.1-0.3-0.1-0.5c-0.1-0.3-0.1-0.4-0.1-0.4L415,21.8z"/>
			<path fill="#FFFFFF" d="M415.8,25.3c0,0,0.1,0.1,0.2,0.4c0.1,0.2,0.3,0.5,0.5,0.8c0.4,0.6,0.9,1,0.9,1l-0.3,0.4
				c0,0-0.6-0.4-1.1-1c-0.5-0.5-0.9-1.2-0.9-1.2L415.8,25.3z"/>
			<path fill="#FFFFFF" d="M418.2,28c0,0,0.3,0.2,0.6,0.4c0.2,0.1,0.3,0.2,0.4,0.2c0.1,0,0.2,0,0.1,0l0.1,0.3c0,0-0.2,0-0.3,0
				c-0.2,0-0.3-0.1-0.5-0.2c-0.4-0.1-0.7-0.3-0.7-0.3L418.2,28z"/>
		</g>
	</g>
	<rect x="378.9" y="38.2" fill="#F0AC1E" width="6.7" height="13"/>
</g>
</svg>
