<?xml version="1.0" encoding="utf-8"?>
<!-- Generator: Adobe Illustrator 18.1.1, SVG Export Plug-In . SVG Version: 6.00 Build 0)  -->
<svg version="1.1" id="Layer_1" xmlns="http://www.w3.org/2000/svg" xmlns:xlink="http://www.w3.org/1999/xlink" x="0px" y="0px"
	 viewBox="235.8 10.7 94 37.7" enable-background="new 235.8 10.7 94 37.7" xml:space="preserve">
<g>
	<circle fill="#FFFFFF" cx="317.2" cy="24.6" r="1.9"/>
	<circle fill="#FFFFFF" cx="303.3" cy="24.6" r="1.9"/>
	<path fill="#FFFFFF" d="M312.4,11.2c-9.4,0-17.4,7.6-17.4,17v19.4c1.9-2,3.6-3.3,6.1-3.3c2.4,0,4.6,1.2,5.8,3c1.2-1.8,3.4-3,5.7-3
		c2.4,0,4.5,1.2,5.7,3c1.2-1.8,3.4-3,5.8-3c2.3,0,3.8,1.1,5.7,2.9v-19C329.8,18.8,321.8,11.2,312.4,11.2z M304.4,28.1
		c-2.1,0-3.8-1.7-3.8-3.8s1.7-3.8,3.8-3.8c2.1,0,3.8,1.7,3.8,3.8S306.5,28.1,304.4,28.1z M318.3,28.1c-2.1,0-3.8-1.7-3.8-3.8
		s1.7-3.8,3.8-3.8c2.1,0,3.8,1.7,3.8,3.8S320.4,28.1,318.3,28.1z"/>
	<circle fill="#EE3696" cx="284.8" cy="29.5" r="3.9"/>
	<circle fill="#EE3696" cx="270.4" cy="29.5" r="3.9"/>
	<path fill="#FFFFFF" d="M268.3,16.5c-3.4-3.6-8.3-5.8-13.6-5.8c-10.4,0-18.9,8.4-18.9,18.9s8.4,18.9,18.9,18.9c5,0,9.6-2,13-5.2
		l-13-13L268.3,16.5z M252.1,24.6c-2.2,0-3.9-1.8-3.9-3.9s1.8-3.9,3.9-3.9c2.2,0,3.9,1.8,3.9,3.9S254.2,24.6,252.1,24.6z"/>
</g>
</svg>
