<?xml version="1.0" encoding="utf-8"?>
<!-- Generator: Adobe Illustrator 18.1.1, SVG Export Plug-In . SVG Version: 6.00 Build 0)  -->
<svg version="1.1" id="Layer_1" xmlns="http://www.w3.org/2000/svg" xmlns:xlink="http://www.w3.org/1999/xlink" x="0px" y="0px"
	 viewBox="10.6 6.4 78.4 48" enable-background="new 10.6 6.4 78.4 48" xml:space="preserve">
<g>
	<rect x="17" y="12.5" fill="#F7941E" width="12.7" height="3.7"/>
	<rect x="60.2" y="12.4" fill="#F7941E" width="3.7" height="3.7"/>
	<rect x="16.9" y="21.9" fill="#F7941E" width="36" height="3.7"/>
	<rect x="17" y="27.8" fill="#F7941E" width="36" height="3.7"/>
	<rect x="17" y="33.5" fill="#FFFFFF" width="10.5" height="3.7"/>
	<path fill="#FFFFFF" d="M78.3,21.8h-7.8V8.2c0-1-0.8-1.8-1.8-1.8H12.4c-1,0-1.8,0.8-1.8,1.8v37.5c0,1,0.8,1.8,1.8,1.8h21.4L33,52.9
		l-2.5,0.8v0.8h20.3v-0.8L48,53l-0.6-5.5h7.2V53c0,0.7,0.6,1.2,1.2,1.2h22.5c0.7,0,1.2-0.6,1.2-1.2V23.1
		C79.5,22.4,79,21.8,78.3,21.8z M41.3,42.3c0,0,0.1,0,0.1,0c0.1,0,0.2,0.1,0.3,0.2c0.4,0.3,0.6,0.8,0.6,1.3c0,0.9-0.7,1.6-1.6,1.6
		c-0.9,0-1.6-0.7-1.6-1.6c0-0.5,0.3-1,0.6-1.3c0.1-0.1,0.2-0.1,0.3-0.2c0,0,0,0,0,0c0.2-0.1,0.4-0.1,0.6-0.1
		C41,42.2,41.1,42.3,41.3,42.3z M13.8,39.9V9.5h53.4v12.4H55.8c-0.7,0-1.2,0.6-1.2,1.2v16.9H13.8z M67,53.4c-0.5,0-0.9-0.4-0.9-0.9
		c0-0.5,0.4-0.9,0.9-0.9s0.9,0.4,0.9,0.9C67.9,53,67.5,53.4,67,53.4z M77.3,50.7H57.2V39.9V24.5h10h10.1V50.7z"/>
	<rect x="29.7" y="33.6" fill="#FFFFFF" width="10.5" height="3.7"/>
	<rect x="42.5" y="33.7" fill="#FFFFFF" width="10.5" height="3.7"/>
	<path fill="#FFFFFF" d="M87.9,39.2h-5.7c-0.6,0-1.1,0.5-1.1,1.1v13c0,0.6,0.5,1.1,1.1,1.1h5.7c0.6,0,1.1-0.5,1.1-1.1v-13
		C89,39.7,88.5,39.2,87.9,39.2z M85.2,53.7C85.2,53.7,85.2,53.7,85.2,53.7c-0.3,0-0.6-0.3-0.6-0.6s0.3-0.6,0.6-0.6c0,0,0,0,0,0
		c0.3,0,0.6,0.3,0.6,0.6S85.5,53.7,85.2,53.7z M88.2,52h-6.1V41.2h6.1V52z"/>
	<rect x="59.1" y="26.7" fill="#F7941E" width="7.3" height="2"/>
	<rect x="71" y="26.7" fill="#F7941E" width="3.9" height="1.9"/>
	<polygon fill="#F7941E" points="59,31.2 59,33.4 67.2,33.4 75,33.4 75,31.2 67.2,31.2 	"/>
	<polygon fill="#F7941E" points="59,34.5 59,36.6 67.2,36.6 74.9,36.6 74.9,34.5 67.2,34.5 	"/>
	<polygon fill="#FFFFFF" points="63.5,39.9 63.5,37.7 59,37.7 59,39.9 59,41.7 63.5,41.7 	"/>
	<polygon fill="#FFFFFF" points="67.2,37.7 64.9,37.7 64.9,39.9 64.9,41.7 69.2,41.7 69.2,37.7 	"/>
	<rect x="70.3" y="37.7" fill="#FFFFFF" width="4.6" height="4"/>
	<rect x="59.1" y="42.9" fill="#F7941E" width="15.7" height="2.1"/>
	<rect x="59.1" y="46.3" fill="#F7941E" width="15.7" height="2.1"/>
	<rect x="82.7" y="42.3" fill="#F7941E" width="4.9" height="0.8"/>
	<rect x="82.7" y="44.7" fill="#F7941E" width="4.4" height="1.2"/>
	<rect x="82.7" y="46.9" fill="#FFFFFF" width="2.2" height="1.8"/>
	<rect x="82.8" y="49.9" fill="#F7941E" width="5" height="1"/>
</g>
</svg>
