<?xml version="1.0" encoding="iso-8859-1"?>
<!-- Generator: Adobe Illustrator 18.1.1, SVG Export Plug-In . SVG Version: 6.00 Build 0)  -->
<svg version="1.1" id="Layer_1" xmlns="http://www.w3.org/2000/svg" xmlns:xlink="http://www.w3.org/1999/xlink" x="0px" y="0px"
	 viewBox="21.318 149.378 57.364 57.322" style="enable-background:new 21.318 149.378 57.364 57.322;" xml:space="preserve">
<g id="y7KZMg_1_">
	<g>
		<path style="fill:#F7941E;" d="M49.917,206.686c-5.749,0-11.498,0.03-17.246-0.008c-6.586-0.043-11.241-4.537-11.29-11.11
			c-0.086-11.668-0.083-23.338-0.002-35.007c0.045-6.466,4.587-11.063,11.029-11.114c11.754-0.093,23.51-0.095,35.264,0.008
			c6.251,0.055,10.905,4.749,10.948,10.971c0.081,11.754,0.083,23.51,0,35.264c-0.045,6.323-4.826,10.932-11.199,10.984
			C61.587,206.723,55.752,206.686,49.917,206.686z M27.11,172.294c-0.078,0.532-0.189,0.941-0.19,1.35
			c-0.01,7.211-0.073,14.422,0.021,21.631c0.051,3.852,2.128,5.778,6.017,5.788c11.331,0.029,22.662,0.029,33.993,0.001
			c4.004-0.01,6.041-2.028,6.064-6.008c0.041-7.039,0.018-14.078,0.001-21.117c-0.001-0.562-0.155-1.123-0.224-1.594
			c-2.779,0-5.373,0-8.099,0c2.202,7.568,0.58,13.913-5.721,18.45c-5.442,3.918-11.436,4.146-17.146,0.532
			c-7.107-4.498-8.782-11.156-6.6-19.033C32.461,172.294,29.831,172.294,27.11,172.294z M39.944,178.129
			c0.001,5.519,4.44,9.968,9.97,9.993c5.615,0.025,10.22-4.562,10.159-10.117c-0.061-5.508-4.539-9.977-10.025-10.004
			C44.405,167.972,39.943,172.445,39.944,178.129z M71.85,165.569c0-3.195,0-6.227,0-9.32c-3.226,0-6.311,0-9.377,0
			c0,3.224,0,6.233,0,9.32C65.722,165.569,68.753,165.569,71.85,165.569z"/>
	</g>
</g>
</svg>
