<?xml version="1.0" encoding="iso-8859-1"?>
<!-- Generator: Adobe Illustrator 18.1.1, SVG Export Plug-In . SVG Version: 6.00 Build 0)  -->
<svg version="1.1" id="Layer_1" xmlns="http://www.w3.org/2000/svg" xmlns:xlink="http://www.w3.org/1999/xlink" x="0px" y="0px"
	 viewBox="19.653 273.531 60.694 49.323" style="enable-background:new 19.653 273.531 60.694 49.323;" xml:space="preserve">
<path style="fill:#F7941E;" d="M80.347,279.37c-2.231,0.992-4.632,1.661-7.152,1.96c2.572-1.54,4.545-3.979,5.475-6.89
	c-2.406,1.428-5.07,2.464-7.907,3.023c-2.271-2.42-5.507-3.933-9.089-3.933c-6.876,0-12.451,5.575-12.451,12.452
	c0,0.975,0.11,1.924,0.323,2.837c-10.349-0.52-19.525-5.476-25.667-13.01c-1.072,1.838-1.685,3.977-1.685,6.261
	c0,4.32,2.198,8.131,5.539,10.364c-2.04-0.065-3.961-0.626-5.64-1.559c-0.001,0.052-0.001,0.105-0.001,0.158
	c0,6.032,4.292,11.064,9.989,12.209c-1.045,0.283-2.145,0.436-3.281,0.436c-0.803,0-1.583-0.078-2.343-0.224
	c1.586,4.947,6.184,8.548,11.632,8.648c-4.262,3.34-9.63,5.331-15.464,5.331c-1.004,0-1.996-0.059-2.97-0.175
	c5.512,3.535,12.057,5.595,19.088,5.595c22.905,0,35.428-18.973,35.428-35.428c0-0.54-0.011-1.078-0.034-1.613
	C76.567,284.061,78.679,281.867,80.347,279.37z"/>
</svg>
