<?xml version="1.0" encoding="UTF-8" standalone="no"?>
<!DOCTYPE svg  PUBLIC '-//W3C//DTD SVG 1.1//EN'  'http://www.w3.org/Graphics/SVG/1.1/DTD/svg11.dtd'>
<svg xmlns="http://www.w3.org/2000/svg">
<defs>
<font id="Pacifico-Regular" horiz-adv-x="1248">
<font-face underline-position="-103" font-weight="400" descent="-410" panose-1="2 0 0 0 0 0 0 0 0 0" units-per-em="2048" unicode-range="U+0020-FB02" bbox="-183 -928 3074 2668" x-height="896" underline-thickness="102" font-family="Pacifico" ascent="1638" cap-height="1730"/>
<missing-glyph horiz-adv-x="447"/>
<glyph glyph-name=".notdef" horiz-adv-x="447"/>
<glyph glyph-name=".null" horiz-adv-x="0"/>
<glyph glyph-name="nonmarkingreturn" horiz-adv-x="447"/>
<glyph glyph-name="space" horiz-adv-x="545" unicode=" "/>
<glyph glyph-name="space" horiz-adv-x="545" unicode=" "/>
<glyph glyph-name="exclam" horiz-adv-x="1184" unicode="!" d="M590 185q-2 -4 -4 -19t-6 -36q-6 -21 -16 -44q-10 -22 -30 -42t-49 -33q-30 -13 -75 -13q-37 0 -67 10q-29 10 -51 29q-22 20 -34 51t-12 74q0 36 10 70t33 62q22 27 57 43t83 16q78 0 120 -42t42 -120q0 -4 -1 -6zM416 512q10 102 30 212t46 220t56 216q30 107 58 205 q30 98 56 184t46 155q14 48 38 78t54 46t64 22t64 6q16 0 30 -4t24 -14t16 -30q6 -18 5 -47q-1 -19 -3 -43t-8 -54q-25 -116 -65 -234t-96 -253q-55 -135 -127 -297t-160 -368q-2 -10 -10 -20t-21 -16q-12 -6 -26 -10t-27 -4q-18 0 -32 8t-14 27q0 5 2 15z"/>
<glyph glyph-name="quotedbl" horiz-adv-x="1184" unicode='&quot;' d="M544 1283q0 19 2 47t3 62q2 34 5 74q3 38 6 75q7 87 16 187q0 30 15 54t39 40t54 25t60 9q25 0 48 -6t41 -20q19 -13 29 -34t10 -49q0 -13 -2 -25t-6 -26q-14 -48 -30 -106t-34 -114t-34 -108t-30 -88q-16 -48 -48 -72t-64 -23t-56 25t-24 73zM160 1283q0 19 2 47t3 62 q2 34 5 74q3 38 6 75q7 87 16 187q0 30 15 54t39 40t54 25t60 9q25 0 48 -6t41 -20q19 -13 29 -34t10 -49q0 -13 -2 -25t-6 -26q-14 -48 -30 -106t-34 -114t-34 -108t-30 -88q-16 -48 -48 -72t-64 -23t-56 25t-24 73z"/>
<glyph glyph-name="numbersign" d="M800 960q-30 -69 -60 -141t-64 -150h1h151t152 1q25 71 51 144l52 146h-283zM483 960q-24 0 -48 6t-43 19t-31 33t-12 50q-1 38 19 61t54 35t77 16q44 4 92 4h53l138 306q10 24 29 50t45 45q26 20 60 33q33 13 71 13q21 -1 33 -9t17 -20t6 -28q1 -15 1 -28q0 -7 -5 -22 t-13 -33t-14 -36q-8 -18 -14 -30q-23 -51 -49 -111t-55 -130h132t137 1q33 93 62 173t50 136q9 24 25 50t42 45q24 20 56 33t70 13q22 -1 34 -9t18 -20t9 -28q2 -15 4 -28q0 -8 -4 -23q-3 -15 -9 -33t-12 -34q-6 -18 -11 -31q-19 -51 -40 -112t-44 -132h126q25 0 41 -5 t25 -14t13 -20t3 -23q1 -35 -11 -65t-40 -51q-28 -23 -76 -35t-119 -12h-36q-23 -68 -47 -140t-51 -147h87q25 -2 41 -8q16 -7 25 -15q8 -8 12 -19t4 -22q0 -33 -12 -63t-40 -52t-76 -34t-118 -12h-3q-35 -95 -73 -193t-81 -200q-12 -29 -27 -46t-31 -26q-17 -9 -33 -11 t-31 -3q-20 -1 -39 3t-34 14t-24 27q-9 18 -9 47q0 43 24 112l97 275q-74 -1 -156 -1t-168 -1q-44 -95 -91 -193t-98 -201q-15 -29 -31 -46t-34 -26t-34 -11t-31 -3q-17 1 -35 3t-31 10q-14 8 -23 24t-9 41q0 21 8 53t26 72l124 279q-5 1 -9 1h-8q-24 0 -48 6t-43 19t-31 33 t-12 50q0 27 10 45q10 19 26 31t34 20q19 8 38 14q13 6 44 6h60h38l129 288h-62z" unicode="#"/>
<glyph glyph-name="dollar" horiz-adv-x="1735" unicode="$" d="M767 1324q0 -38 15 -70q16 -32 42 -62t62 -57t79 -54q22 122 43 236t38 214q-76 -8 -128 -28q-52 -21 -86 -49t-50 -62t-15 -68zM1297 507q0 36 -13 68q-13 33 -36 61q-22 28 -54 54t-70 51l-91 -517q61 15 109 41t82 62q34 35 54 81q19 46 19 99zM1106 1872q3 19 13 39 t28 36q18 17 44 27t59 10q18 0 30 -8t21 -21q8 -11 12 -25t4 -24q0 -8 -1 -19q0 -11 -2 -23l-4 -24t-2 -20l-15 -92q81 -16 154 -47t129 -76t88 -103q33 -58 33 -128q1 -38 -9 -66t-26 -45q-16 -18 -36 -27t-42 -9q-23 -1 -46 9t-41 29t-29 47t-11 62q0 50 -52 90t-146 59 l-96 -557q71 -41 138 -87t119 -101t85 -122q32 -67 32 -149q1 -111 -39 -199t-112 -152t-172 -102t-222 -50l-30 -162q-7 -23 -18 -36q-10 -13 -24 -20t-29 -9t-29 -2q-10 1 -18 1h-17q-15 0 -29 8t-24 24q-10 15 -14 35q-6 20 -6 43q0 11 1 23t3 26q1 8 4 26t8 43 q-106 9 -200 38t-164 79q-70 49 -109 123q-40 74 -40 173q-1 37 7 77t24 80t44 77t68 65t94 45t123 17q29 0 51 -8t36 -23q14 -13 22 -31q7 -18 7 -36q1 -32 -21 -57t-65 -25q-23 0 -49 -6t-50 -26q-22 -20 -37 -54t-15 -92q0 -95 83 -147t228 -63l116 643q-79 41 -155 85 t-136 96t-98 116t-38 144q0 76 38 154t111 142q74 64 184 105q110 42 255 48z"/>
<glyph glyph-name="percent" horiz-adv-x="2208" unicode="%" d="M1687 256q42 0 81 37t68 95q28 58 46 130q18 70 18 138q0 55 -6 104q-6 48 -21 86t-37 60t-54 22q-53 0 -93 -38t-67 -98q-26 -62 -40 -140t-14 -158q0 -46 7 -89t21 -76t38 -53q22 -20 53 -20zM1669 64q-89 0 -155 34t-112 92t-68 133q-22 76 -22 159q0 76 14 153 t40 148q28 71 69 133t96 106q55 46 124 72t153 26q88 0 152 -36t106 -97t60 -142q20 -81 20 -171q0 -69 -16 -141t-44 -140q-29 -67 -71 -127t-95 -105t-116 -71t-135 -26zM1372 1696q10 18 26 35t40 31t56 22t74 8q26 0 36 -18t9 -44q1 -18 -3 -38t-9 -39t-11 -35t-10 -26 q-38 -76 -90 -188t-113 -242q-61 -132 -127 -276t-134 -285t-132 -271t-120 -234q-16 -30 -41 -48t-52 -30q-27 -10 -53 -14t-46 -4q-26 0 -44 8t-28 20t-16 30q-4 18 -4 38q0 35 10 73t25 68q16 31 49 95t78 152q46 88 100 194t112 218t118 226q59 114 114 220t103 197 t83 157zM473 864q46 0 88 42q43 42 75 108t51 146t19 154q0 46 -8 86t-24 70t-42 48t-64 18q-53 0 -94 -35q-40 -35 -68 -91t-42 -128q-14 -70 -14 -141q0 -55 8 -105t22 -88q16 -38 39 -62q23 -22 54 -22zM455 672q-89 0 -156 36t-113 99q-46 62 -69 143t-23 170 q0 73 14 146q14 72 42 140t68 126q42 58 98 102t124 69q70 25 154 25q94 0 161 -33t111 -90t64 -133t20 -160q0 -72 -16 -148t-46 -147t-74 -134t-98 -110t-120 -74t-141 -27z"/>
<glyph glyph-name="ampersand" horiz-adv-x="1472" unicode="&amp;" d="M794 1440q-21 0 -47 -14q-27 -14 -49 -37q-22 -25 -37 -57t-15 -70q0 -33 10 -79q10 -47 21 -89q12 -42 22 -72t12 -29q49 45 89 87t69 82q27 41 43 83t16 87q0 25 -6 45t-22 34q-15 13 -41 21t-65 8zM566 202q65 0 127 22t116 58q-43 52 -76 94t-65 88t-65 104 q-34 56 -78 136q-48 -36 -86 -76t-64 -83q-25 -41 -39 -83t-14 -81t14 -71t45 -56q30 -24 76 -38t109 -14zM471 857q-19 35 -39 82t-38 99t-30 104t-11 100q0 81 35 155t94 131q58 56 136 90t164 34q72 0 134 -22t106 -63q44 -40 68 -94t25 -118q0 -55 -19 -117t-62 -126 t-111 -126q-68 -63 -165 -122q12 -24 40 -70t64 -101t74 -117t72 -119q22 15 34 31t18 32t8 32t1 34q0 38 -9 65q-10 27 -26 53t-39 56t-50 72q0 1 5 6q6 5 12 11q6 7 12 11t8 4q15 0 43 -12t61 -36q33 -22 68 -54t63 -70t46 -84t18 -95q1 -61 -33 -127t-114 -130 q3 0 21 -14t41 -31q24 -18 46 -36t33 -28q16 -15 16 -41q1 -24 -13 -50t-35 -48t-47 -38q-26 -15 -49 -15t-41 15q-14 10 -38 36t-48 53t-42 47t-18 22q-47 -36 -108 -64q-52 -24 -126 -44t-168 -20q-122 0 -214 27t-155 74q-61 47 -93 109t-32 135q0 63 26 130t76 134 q51 67 127 130t178 118z"/>
<glyph glyph-name="quotesingle" horiz-adv-x="609" unicode="&apos;" d="M160 1283q0 19 2 47t3 62q2 34 5 74q3 38 6 75q7 87 16 187q0 30 15 54t39 40t54 25t60 9q25 0 48 -6t41 -20q19 -13 29 -34t10 -49q0 -13 -2 -25t-6 -26q-14 -48 -30 -106t-34 -114t-34 -108t-30 -88q-16 -48 -48 -72t-64 -23t-56 25t-24 73z"/>
<glyph glyph-name="parenleft" horiz-adv-x="1377" unicode="(" d="M704 -384q-84 0 -144 40t-99 114q-39 72 -58 172t-19 218q0 116 18 246t52 261q34 132 80 262q46 129 106 247t129 219t147 175t160 116q84 42 172 42q64 0 133 -22t127 -58t102 -82q42 -46 54 -94v-4t1 -4q-1 -17 -15 -39q-14 -21 -36 -41t-46 -33t-43 -13q-14 0 -21 6 q-24 18 -49 45t-55 53t-67 44t-85 18q-62 0 -120 -38t-112 -106q-54 -66 -104 -156q-48 -90 -90 -194t-76 -216t-56 -224q-24 -112 -37 -216q-13 -105 -13 -194q0 -70 6 -129t22 -101t40 -66t60 -24q26 0 56 4t68 24t86 58t110 106q14 14 28 20t27 6q19 0 37 -12t30 -30 t20 -42q8 -23 7 -45q-1 -17 -5 -32t-15 -26q-133 -137 -263 -196t-250 -59z"/>
<glyph glyph-name="parenright" horiz-adv-x="1279" unicode=")" d="M766 1728q100 0 173 -56t119 -154t70 -228q22 -130 22 -276q0 -148 -22 -304t-62 -304q-41 -148 -100 -280q-60 -132 -134 -231t-164 -157t-190 -57q-66 0 -134 16q-68 17 -126 43t-102 60q-42 34 -54 72v4t-1 4q1 17 15 39q14 21 36 41t46 33t43 13q14 0 21 -6 q24 -12 49 -28t55 -31t67 -25t85 -11q60 0 114 53t102 142q46 89 84 206q38 118 64 246t40 260t15 250q1 94 -9 174t-30 140t-53 94q-32 34 -76 34q-27 0 -61 -4t-77 -24t-95 -58t-114 -106q-14 -14 -28 -20t-27 -6q-20 0 -37 12q-18 12 -30 30t-20 42q-8 23 -7 45 q0 37 20 58q133 137 263 196t250 59z"/>
<glyph glyph-name="asterisk" horiz-adv-x="1024" unicode="*" d="M689 1708q-11 -30 -24 -68t-27 -76t-28 -72q-14 -36 -24 -63q32 17 74 41t82 45q46 25 93 51q9 6 18 8t20 2q22 0 44 -11q23 -11 39 -29t26 -40t11 -44q0 -26 -17 -46t-58 -31q-30 -6 -66 -13q-36 -8 -72 -14l-72 -12t-66 -10q27 -12 60 -27t67 -31t67 -32t61 -28 q29 -17 41 -36t13 -39q1 -21 -11 -41t-30 -36t-42 -24q-23 -10 -45 -10q-35 0 -58 23q-42 39 -82 77q-34 32 -70 66t-60 60q-1 -34 -1 -84t-2 -96q-1 -54 -2 -111q0 -22 -11 -39t-29 -29q-18 -13 -40 -19t-44 -6q-18 0 -34 4t-30 15q-13 11 -21 25t-8 35q0 7 1 17t4 20 q10 32 24 68t26 73q14 37 28 72t24 62q-32 -18 -74 -41t-81 -44q-45 -25 -92 -50q-17 -10 -38 -10q-23 0 -45 12t-38 29q-18 18 -28 40t-10 44q0 26 17 46t58 31q30 6 65 12t72 14q37 6 72 12t65 10q-27 12 -60 27t-67 31t-66 30q-33 16 -60 29q-54 31 -54 74q0 21 12 41 t30 36t41 26t46 9q35 0 57 -23q42 -39 82 -77q34 -32 70 -67t61 -59q0 35 1 85t2 96q1 55 2 113q0 21 11 39t28 30t39 18t45 6q37 0 65 -19t28 -60q0 -8 -2 -17t-3 -20z"/>
<glyph glyph-name="plus" horiz-adv-x="1503" unicode="+" d="M673 416h-224q-32 0 -56.5 8t-40.5 21.5t-24 30.5t-8 35t8.5 35.5t25 31t41.5 22t58 8.5h220v228q0 28 9.5 50t25.5 37.5t35 23.5t39 8q32 0 57.5 -24t25.5 -76v-247h250q52 0 76 -25.5t24 -57.5q0 -20 -8 -39t-23.5 -35t-37.5 -25.5t-50 -9.5h-231v-223q0 -33 -8.5 -58 t-22 -41.5t-31 -25t-35.5 -8.5t-35 8t-30.5 24t-21.5 40.5t-8 56.5v227z"/>
<glyph glyph-name="comma" horiz-adv-x="609" unicode="," d="M293 -72q3 14 8 34l11 44t14 50t15 53q17 60 36 128q5 21 19 37t32 26t41 16q22 5 45 5q28 1 56 -7t50 -23t37 -37q14 -22 14 -49q0 -20 -7 -39t-19 -41q-19 -31 -41 -65t-46 -68q-22 -34 -44 -66t-37 -55q-24 -33 -53 -47t-56 -15q-33 -1 -57 21t-24 61q0 16 6 37z"/>
<glyph glyph-name="hyphen" horiz-adv-x="768" unicode="-" d="M608 704q13 0 30 -3t31 -11.5t24 -23t10 -38.5q0 -20 -4.5 -40.5t-18 -37t-38.5 -27.5t-67 -11h-415q-32 0 -51 11.5t-29.5 28t-13.5 35.5t-3 34q0 13 3 27.5t13 27t29.5 20.5t51.5 8h448z"/>
<glyph glyph-name="period" horiz-adv-x="704" unicode="." d="M672 191q0 -4 -1 -20t-6.5 -37t-17 -44.5t-32.5 -43.5t-53 -33t-78 -13q-37 0 -67 9.5t-51.5 29t-33.5 50t-12 73.5q0 36 10.5 70.5t32.5 61.5t57 43t83 16q83 0 126 -42t43 -120z"/>
<glyph glyph-name="slash" d="M928 1696q12 28 36 56t57 52t74 38t89 14q24 0 37 -10t19 -24t7 -30t1 -32q0 -8 -6 -26t-14 -37q-8 -21 -17 -41t-15 -34q-53 -116 -120 -280t-151 -366q-84 -201 -186 -432t-225 -480q-20 -33 -42 -52t-44 -29t-44 -13t-43 -3t-42 2q-21 3 -38 11t-28 26t-11 49 q0 26 10 61t29 81q13 31 43 98t70 157t89 200q47 109 99 225t104 234t101 226q47 109 89 201t72 158z" unicode="/"/>
<glyph glyph-name="zero" horiz-adv-x="863" unicode="0" d="M361 182q27 0 53 24t49 66q23 41 43 94q20 54 33 110q14 56 22 112t8 103q0 39 -5 73t-15 59q-9 25 -25 39t-38 15q-30 -1 -56 -25t-50 -64q-22 -40 -40 -92t-30 -108t-18 -110t-7 -100q1 -42 5 -78t14 -62t24 -41t33 -15zM345 0q-77 0 -135 34t-95 90q-38 56 -57 130 t-19 158q-1 74 13 150t40 148t64 134q38 64 89 112q49 48 111 74q62 28 134 28q84 0 144 -32t99 -85t57 -125t19 -152q-1 -74 -15 -152t-42 -152t-68 -140t-92 -114q-52 -50 -114 -78t-133 -28z"/>
<glyph glyph-name="one" horiz-adv-x="672" unicode="1" d="M320 850q-14 -16 -32 -32t-34 -30t-31 -22q-14 -8 -21 -9q-94 1 -144 17t-50 33q0 11 21 18t65 7q11 0 33 16q23 16 53 42q30 25 67 54t76 54q39 26 79 42t78 16q54 0 72 -8t18 -21q0 -15 -4 -37t-4 -52l-6 -36q-6 -36 -14 -94t-20 -132t-23 -148q-11 -76 -21 -148 t-17 -124q-3 -12 -7 -36t-13 -52q-7 -28 -19 -58t-28 -54t-38 -40t-48 -16q-33 0 -62 4t-50 12t-33 22t-12 33q0 8 1 16t8 20q16 59 32 121t30 125t27 125t24 116q26 129 47 256z"/>
<glyph glyph-name="two" horiz-adv-x="927" unicode="2" d="M244 191q42 0 101 42q-23 15 -45 24t-39 9q-45 0 -63 -8t-19 -20q-1 -9 5 -17t15 -15t21 -11t24 -4zM753 1q-29 1 -59 9t-58 22q-30 14 -60 34q-30 18 -58 39q-58 -43 -123 -71t-138 -33q-52 1 -97 19q-44 18 -78 48t-53 71q-19 40 -19 82q0 33 11 67t35 64q24 28 60 46 t88 18q80 0 140 -23t111 -55q31 36 57 78t46 85q20 45 32 89t11 87q0 73 -14 119q-15 46 -37 73q-22 25 -49 35t-53 10q-32 0 -60 -11t-52 -31q-22 -20 -35 -46q-13 -27 -13 -60q0 -18 28 -37t92 -39q2 -6 2 -10q0 -12 -23 -26t-57 -24q-34 -12 -76 -20q-41 -8 -77 -7 q-7 8 -15 9t-14 1q-42 33 -61 73t-19 82q0 56 32 112t86 99q54 44 128 71t156 27q22 -1 58 -5t80 -18q42 -14 86 -38t78 -65q36 -40 58 -98t23 -137q-1 -44 -15 -104t-42 -126t-68 -135t-91 -130q35 -17 71 -27t80 -11q10 -1 24 15t26 35t22 35t16 15q14 0 22 -11t9 -39 q0 -37 -16 -107q-5 -20 -14 -42t-25 -40t-40 -31q-24 -12 -59 -12z"/>
<glyph glyph-name="three" horiz-adv-x="831" unicode="3" d="M239 249q0 -34 7 -58q8 -24 20 -39t28 -22t35 -7q26 1 53 13q26 12 48 34t36 52t14 66q0 58 -14 96t-42 62t-72 38q-44 13 -102 19q-32 1 -46 13t-14 29q0 15 4 31t10 30q8 14 21 24t31 10q40 0 72 15t54 37t34 50t12 54q0 34 -22 58t-67 24q-37 0 -61 -17t-24 -40 q0 -12 8 -25t29 -24q11 -6 11 -13t-14 -15t-34 -14q-19 -6 -36 -8q-17 -4 -23 -4q-11 0 -23 6t-22 18q-10 13 -16 35t-6 55q0 52 23 90t61 63t88 37q49 12 101 12q57 0 111 -14t96 -38q42 -26 70 -64q26 -38 26 -86q0 -28 -6 -62t-26 -66q-18 -32 -52 -62t-90 -50 q60 -16 104 -48t72 -74t40 -92q13 -50 13 -101q0 -53 -27 -105q-28 -52 -76 -94t-114 -68t-146 -26q-94 0 -160 20t-108 57t-62 89t-20 113q0 37 12 63t30 42q19 16 44 22t52 6q23 0 52 -6t54 -14q25 -9 42 -20t17 -21q0 -8 -17 -13q-17 -6 -38 -14t-38 -22t-17 -37z"/>
<glyph glyph-name="four" horiz-adv-x="927" unicode="4" d="M770 -38q-43 0 -87.5 -3.5t-85.5 -3.5q-32 0 -56 4.5t-41 17.5t-25.5 35.5t-8.5 58.5q0 40 10 92t25 110q-62 0 -114 -12.5t-98 -28t-87.5 -28t-81.5 -12.5q-18 0 -26 13t-8 32q0 26 16 61t42 74q21 55 38.5 102.5t31.5 92t26 89.5t23.5 95.5t23.5 109t26 131.5 q6 16 24.5 27t44.5 18.5t56.5 11t60.5 3.5q25 0 47.5 -2.5t39 -6.5t26.5 -10.5t10 -13.5q-11 -77 -31.5 -153t-48 -153t-61 -156.5t-70.5 -162.5q38 -2 64 -2.5t47 -0.5h13q20 65 40 126.5t37 115.5q6 26 22.5 44.5t37.5 30t43.5 17t40.5 5.5q47 0 63.5 -15t16.5 -41 q0 -16 -6.5 -43t-17.5 -61t-25 -74t-28 -82q50 8 90 15.5t68 7.5q13 0 18.5 -11t5.5 -29q0 -43 -7.5 -69t-17.5 -40.5t-20 -19t-15 -4.5q-38 0 -79.5 1.5t-86.5 3.5q-8 -32 -14 -62.5t-8 -57.5v-19q0 -18 14.5 -41t31.5 -45.5t31.5 -41.5t14.5 -30q0 -5 -2.5 -7.5 t-12.5 -2.5z"/>
<glyph glyph-name="five" horiz-adv-x="831" unicode="5" d="M478 777q-42 3 -70 9t-50 10q-21 4 -37 8q-16 3 -34 3q-6 -1 -13 -1t-15 -1q4 -24 8 -51q5 -23 9 -53t11 -62q60 6 112 6q96 1 163 -17q68 -18 112 -46t69 -66t37 -76t16 -76q3 -38 3 -67q0 -57 -30 -113q-29 -56 -83 -100t-128 -72t-162 -28q-94 0 -160 20t-108 57 t-62 89t-20 113q0 37 12 63t30 42q19 16 44 22t52 6q23 0 52 -6t54 -14q25 -9 42 -20t17 -21q0 -8 -17 -13q-17 -6 -38 -14t-38 -22t-17 -37q0 -34 7 -58q8 -24 20 -39t28 -22t35 -7q33 0 67 14q34 15 62 39t44 58q18 34 18 74q0 48 -14 82t-42 55t-72 32t-102 16 q-29 5 -49 7q-19 2 -33 9q-14 6 -22 19q-8 12 -14 38q-4 26 -6 67t-3 103q-1 30 -3 56t-2 48q0 78 11 116t25 53t30 15h25q29 0 59 -6t59 -12t61 -12t64 -5q10 1 20 1t19 2q45 10 64 17t26 11t9 8q2 2 12 2q38 0 54 -36t16 -93v-5q0 -4 -6 -14t-18 -22q-14 -12 -40 -28 q-26 -14 -67 -28t-103 -27z"/>
<glyph glyph-name="six" horiz-adv-x="928" unicode="6" d="M625 432q0 66 -22 100t-56 34q-25 0 -42 -12t-29 -32q-12 -18 -21 -40t-18 -40t-19 -32q-10 -12 -24 -12q-6 0 -12 24t-6 58q0 55 22 99q22 45 59 75q36 30 82 46t94 17q46 0 89 -16q43 -15 77 -49q35 -34 55 -86t20 -124q0 -80 -31 -159t-89 -142t-141 -102t-188 -39 q-73 0 -143 22t-125 69q-55 48 -89 124t-33 185q-1 124 47 242t130 222t193 188q111 86 237 145q20 9 38 15t35 5q44 -1 69 -23t25 -54q1 -23 -13 -47t-46 -46q-90 -53 -174 -129t-150 -165q-66 -91 -105 -191q-40 -100 -40 -201q-1 -39 7 -74t26 -62t45 -43q28 -16 70 -15 q43 1 79 25t62 62t40 86q14 47 15 92z"/>
<glyph glyph-name="seven" horiz-adv-x="608" unicode="7" d="M271 -56q-8 0 -28 4q-19 4 -41 14q-22 12 -38 32t-17 55v7t1 9q16 91 52 185t88 189t117 193t139 200q-48 12 -78 23t-52 19t-40 13t-42 5q-32 0 -53 -1t-35 -7t-26 -18t-26 -34q-31 -48 -52 -70t-38 -23q-16 1 -22 15t-7 38q0 10 1 22t3 23q15 87 43 141t62 84t72 40 t70 10q37 0 73 -12q35 -12 73 -25t77 -25t81 -13q20 -1 36 -1h31q39 0 63 2l36 3t18 3t9 2q35 0 51 -24t15 -67q0 -27 -6 -58q-1 -7 -16 -19t-35 -26t-39 -28q-20 -14 -31 -20q-66 -90 -111 -178t-79 -183t-65 -197q-30 -102 -65 -220q-8 -28 -28 -44t-44 -25t-51 -11 q-26 -2 -46 -2z"/>
<glyph glyph-name="eight" horiz-adv-x="801" unicode="8" d="M506 237q0 51 -24 89t-60 73q-38 -18 -72 -39t-58 -47q-24 -27 -38 -59t-14 -73q0 -32 10 -56q10 -25 24 -41q15 -16 33 -24t35 -9q30 -1 60 11t52 36q24 24 38 58t14 81zM499 996q-29 0 -55 -10t-46 -27t-32 -43t-11 -58q-1 -26 5 -55t17 -58t27 -57t36 -49q34 21 66 53 t56 69q25 36 40 72t15 65q0 26 -10 44q-11 18 -27 30t-38 18t-43 6zM148 827q0 73 36 128t91 91q57 36 127 55q70 18 139 18q58 0 111 -12t93 -36t64 -60t24 -84q0 -87 -25 -151t-66 -112q-42 -48 -96 -84t-112 -64q44 -32 85 -68t73 -76t51 -86t19 -100q0 -70 -28 -128 t-80 -98q-50 -42 -119 -65t-151 -23q-58 0 -120 12t-114 44t-84 88q-34 56 -34 146q0 76 24 134t61 106q38 46 87 82t100 68q-80 52 -118 126t-38 149z"/>
<glyph glyph-name="nine" horiz-adv-x="927" unicode="9" d="M464 511q19 21 27 21t9 -6t1 -15q-1 -31 -15 -67t-40 -66t-60 -50q-36 -20 -78 -19q-66 0 -114 29q-48 28 -80 74q-31 46 -46 104t-15 114q0 52 13 106t38 105t62 96t86 79t109 52q60 20 131 20q62 0 128 -23t121 -73t91 -126q36 -77 35 -186q-1 -161 -47 -291 q-46 -131 -126 -233t-188 -178t-230 -131q-20 -9 -38 -15t-35 -6q-45 0 -70 20t-25 47q0 23 14 47t46 46q100 52 182 114t142 142q59 80 91 181q32 100 32 225q-1 49 -7 94q-6 46 -22 80t-42 54t-67 21t-75 -25t-58 -66t-38 -88q-14 -49 -14 -96q0 -36 9 -64t24 -48t34 -29 q19 -10 39 -10q16 0 34 10t32 30z"/>
<glyph glyph-name="colon" horiz-adv-x="704" unicode=":" d="M672 191q0 -4 -1 -20t-6.5 -37t-17 -44.5t-32.5 -43.5t-53 -33t-78 -13q-37 0 -67 9.5t-51.5 29t-33.5 50t-12 73.5q0 36 10.5 70.5t32.5 61.5t57 43t83 16q83 0 126 -42t43 -120zM732 863q0 -4 -1 -20t-6.5 -37t-17 -44.5t-32.5 -43.5t-53 -33t-78 -13q-37 0 -67 9.5 t-51.5 29t-33.5 50t-12 73.5q0 36 10.5 70.5t32.5 61.5t57 43t83 16q83 0 126 -42t43 -120z"/>
<glyph glyph-name="semicolon" horiz-adv-x="768" unicode=";" d="M732 863q0 -4 -1 -20t-7 -37q-6 -20 -16 -44q-12 -24 -33 -44t-53 -33t-78 -13q-37 0 -67 10q-29 10 -51 28q-22 20 -34 50t-12 74q0 36 10 70t33 62q22 27 57 43t83 16q83 0 126 -42t43 -120zM293 -72q3 14 8 34l11 44t14 50t15 53q17 60 36 128q5 21 19 37t32 26t41 16 q22 5 45 5q28 1 56 -7t50 -23t37 -37q14 -22 14 -49q0 -20 -7 -39t-19 -41q-19 -31 -41 -65t-46 -68q-22 -34 -44 -66t-37 -55q-24 -33 -53 -47t-56 -15q-33 -1 -57 21t-24 61q0 16 6 37z"/>
<glyph glyph-name="less" horiz-adv-x="1184" unicode="&lt;" d="M493 275q-131 44 -215 82t-133 78q-49 39 -68 85t-19 106q0 58 26 92t67 58t95 42t110 45q2 1 38 17t94 40t128 54t138 58t129 51q60 23 97 35q22 7 44 7q28 1 46 -11t30 -30t20 -38q6 -20 10 -40q4 -18 4 -30v-14q0 -39 -21 -59t-57 -31l-802 -259l655 -240 q17 -6 39 -21q22 -14 42 -36t34 -50t15 -61q1 -35 -27 -57t-76 -22q-44 0 -96 16t-110 39t-118 49t-119 45z"/>
<glyph glyph-name="equal" horiz-adv-x="1707" unicode="=" d="M483 382q-24 0 -48 6t-43 19t-31 33t-12 50q-1 38 19 61t54 35t77 16q44 4 92 4h111h150h174t182 1h176h155q25 0 41 -5t25 -14t13 -20t3 -23q1 -35 -11 -65t-40 -51q-28 -23 -76 -35t-119 -12h-892z"/>
<glyph glyph-name="greater" horiz-adv-x="1184" unicode="&gt;" d="M709 255q-59 -19 -119 -45t-118 -49t-110 -39t-96 -16q-48 0 -76 22t-27 57q-1 33 9 61t24 50t30 36q16 15 27 21l685 260l-722 219q-36 11 -57 31t-21 59v14t4 30t10 40q6 20 20 38q12 18 30 30t46 11q22 0 44 -7q34 -10 86 -29t112 -43t120 -49t110 -45t82 -34t34 -15 q56 -27 110 -45t95 -42t67 -58t26 -92q0 -64 -18 -112t-67 -90t-131 -82t-209 -87z"/>
<glyph glyph-name="question" horiz-adv-x="1292" unicode="?" d="M746 191q0 -4 -1 -20t-7 -37q-6 -20 -16 -44q-12 -24 -33 -44t-53 -33t-78 -13q-37 0 -67 10q-29 10 -51 28q-22 20 -34 50t-12 74q0 36 10 70t33 62q22 27 57 43t83 16q83 0 126 -42t43 -120zM711 584q-15 -48 -43 -73t-60 -25q-36 0 -62 15t-26 49q0 90 30 156t73 120 q43 52 95 96t96 91t74 103t29 129q1 42 -15 71q-16 30 -40 48t-55 26q-30 8 -60 9q-23 0 -48 -14t-47 -33q-22 -20 -38 -40t-20 -32q-16 -20 -38 -30t-45 -10q-19 0 -37 10t-33 28q-14 18 -23 40q-9 24 -9 52q0 22 15 46q30 45 71 80q41 34 89 58t98 36q51 12 101 12 q61 0 128 -20t123 -60q56 -42 91 -106q36 -64 36 -152q0 -106 -25 -181q-26 -75 -66 -131t-90 -98l-100 -84q-50 -40 -95 -84t-74 -102z"/>
<glyph glyph-name="at" horiz-adv-x="2241" unicode="@" d="M112 215q0 114 24 233q24 120 70 236t110 227q66 111 148 209t182 180q98 82 210 142t234 93t254 33q98 0 194 -17t184 -53t164 -90q76 -56 132 -134t88 -178t32 -226q0 -26 -1 -53t-5 -55q-8 -68 -36 -148t-72 -158t-101 -151q-58 -73 -128 -129t-151 -88 q-81 -34 -169 -34q-23 0 -45 8t-40 27q-18 20 -29 55t-11 91q0 24 4 51t9 59q-37 -77 -85 -135t-102 -98t-112 -60t-114 -20q-66 0 -126 22t-104 66q-46 44 -73 108t-27 150q0 87 28 185t78 194q50 95 122 183t160 155q90 67 194 107t219 39q23 1 37 -3t21 -10t9 -11 q2 -6 2 -10v-7t-1 -4v-4q23 -10 49 -12t49 -4t45 -7t38 -21t26 -47t10 -83q0 -40 -8 -90t-22 -106t-31 -112t-33 -110t-30 -100q-14 -47 -20 -83q-14 -45 -14 -77q0 -23 8 -37t24 -14q37 1 74 23q38 22 72 61t64 91t51 114q23 60 35 125t12 129q0 150 -42 254t-117 168 q-74 64 -173 94q-99 28 -212 28q-141 0 -266 -52t-230 -140t-188 -200q-83 -114 -141 -238q-59 -124 -89 -250t-30 -235q0 -89 31 -161t101 -122t183 -78t277 -28q238 0 422 36t319 99q23 10 42 10q17 0 29 -8t20 -21q8 -14 12 -30t3 -33q0 -25 -8 -49t-22 -32 q-95 -57 -211 -100q-116 -44 -237 -72t-241 -42t-224 -14q-195 0 -342 45t-245 125q-97 80 -147 189q-50 110 -50 240zM1486 1029q-22 5 -48 9t-49 4q-64 0 -125 -33t-116 -87t-101 -122q-45 -70 -79 -144t-52 -144q-18 -71 -19 -129q-1 -75 31 -115t99 -41q45 1 85 19 t76 48q34 30 62 69q28 38 50 77q22 40 36 76t19 62z"/>
<glyph glyph-name="A" horiz-adv-x="1632" unicode="A" d="M1399 1517q-35 10 -72.5 14.5t-72.5 4.5q-81 0 -160 -31t-153.5 -84.5t-142 -126t-126 -156t-105.5 -173.5t-81 -179.5t-52 -174t-18 -155.5q0 -141 56.5 -218.5t175.5 -77.5q74 0 140.5 31t123.5 81.5t104.5 114t83 128.5t58.5 125.5t33 104.5zM1872 224 q-21 -22 -53.5 -50t-73 -56.5t-87.5 -55.5t-96 -48t-98.5 -33.5t-95.5 -12.5q-32 0 -64.5 11t-59 40.5t-43.5 81.5t-17 135q0 35 5 75.5t13 87.5q-56 -113 -126.5 -199.5t-150 -145t-164.5 -88.5t-170 -30q-93 0 -176.5 32.5t-147.5 97t-101.5 160.5t-37.5 224 q0 97 22.5 203t65.5 214t104 214t139 201.5t170.5 177t197.5 141t221 93.5t241 34q34 0 54.5 -5.5t31 -14t13.5 -17.5t3 -16q0 -5 -0.5 -9t-0.5 -6v-5q27 -16 55 -19.5t55 -6t51 -10.5t42 -31.5t28.5 -68.5t10.5 -122q0 -60 -11.5 -135t-30.5 -157t-42.5 -166t-47 -163 t-45.5 -149t-37 -122q-3 -44 -5 -82t-2 -79q0 -32 1.5 -52.5t5.5 -32.5t11 -16.5t18 -4.5q20 0 50.5 10.5t65 27t72 37t72 41t64.5 37.5t50 28z"/>
<glyph glyph-name="B" horiz-adv-x="1292" unicode="B" d="M60 1330q-65 -118 -116 -177t-83 -59q-44 0 -44 101q0 98 28 176q29 79 79 139t120 102t152 70t174 41t189 13q113 0 227 -16t219 -47t196 -73t159 -94t106 -111q38 -60 38 -125q0 -77 -34 -152q-34 -76 -104 -136q-72 -60 -184 -99t-267 -42q99 1 173 -31t124 -86 t75 -123q25 -70 25 -147q0 -63 -17 -128t-51 -125q-34 -61 -85 -113t-119 -91t-155 -61q-86 -22 -189 -23q-65 1 -137 9q-71 8 -145 22t-145 35q-71 20 -134 43q-27 7 -49 21t-22 50q0 166 8 340t35 340q26 167 75 317t130 269q71 49 129 49q73 0 122 -82q-47 -62 -79 -138 t-54 -160t-36 -170q-14 -87 -21 -170q-5 -47 -9 -100t-6 -108q-2 -56 -4 -110t-2 -104v-22t3 -29q2 -15 6 -27t12 -19q61 -20 131 -34t140 -14q85 1 165 21t142 64q61 44 99 114t38 169q0 59 -22 97t-58 64t-80 42q-46 16 -94 28t-92 24q-46 12 -82 30t-57 46q-22 28 -22 72 q1 20 3 36t12 26t28 15t50 5q42 0 78 -4t77 -3q95 -1 173 23t132 64t84 94t30 114q0 40 -23 74t-65 60t-97 46q-56 20 -122 34t-139 20t-148 6q-96 0 -188 -10t-172 -32t-140 -54q-62 -32 -94 -76z"/>
<glyph glyph-name="C" horiz-adv-x="1440" unicode="C" d="M1766 338q-49 -21 -95 -55.5t-93 -75.5t-97.5 -86.5t-109 -90t-127.5 -85t-152.5 -71t-184 -48.5t-222.5 -18q-135 0 -243.5 54.5t-185.5 147t-118.5 215t-41.5 257.5q0 92 20 197.5t57.5 215t91.5 218.5t122.5 209t150.5 185.5t175 149t196 99.5t214 36q72 0 146 -25.5 t133 -78.5t96.5 -134t37.5 -191q0 -74 -23.5 -149.5t-64.5 -145t-96.5 -130.5t-119.5 -105.5t-133 -70.5t-138 -26q-91 0 -136 24.5t-45 70.5q0 8 -0.5 19t-0.5 23q0 18 2 37.5t8 35.5t17.5 26t31.5 10q12 0 21 -3.5t20 -7.5t26.5 -7.5t39.5 -3.5q64 0 129.5 28t118 79 t86 121.5t33.5 155.5q0 45 -12 85.5t-39 71t-69.5 49t-103.5 18.5q-72 0 -140.5 -31.5t-131.5 -85.5t-119.5 -128t-104.5 -158.5t-86.5 -176t-65.5 -182.5t-41.5 -176.5t-14.5 -157.5q0 -103 25.5 -179.5t72.5 -127.5t115 -76t153 -25q106 0 197.5 26.5t174.5 69.5t160.5 97 t155 108.5t158 104t170.5 83.5v-215z"/>
<glyph glyph-name="D" horiz-adv-x="1272" unicode="D" d="M549 1736q163 0 290 -27t223 -75t161 -114q66 -66 107 -146q42 -78 60 -166t18 -180q0 -126 -28 -256t-81 -250q-53 -121 -131 -227t-177 -185q-100 -78 -220 -124t-259 -46q-47 0 -96 7t-95 19t-87 27t-72 31q-12 4 -20 10t-12 12q-4 8 -5 19t-1 28q0 166 8 340t35 340 q26 167 75 317t130 269q71 49 129 49q73 0 122 -82q-46 -62 -77 -138t-52 -160t-35 -170q-14 -87 -26 -170q-13 -92 -23 -158t-16 -114q-6 -49 -8 -86t-2 -72q0 -37 2 -62t12 -40q10 -16 30 -22t52 -6q100 0 190 40t166 106t136 154t104 186q42 98 65 200t23 195 q0 115 -38 207t-106 156t-165 96q-96 34 -211 34q-84 0 -166 -10t-154 -31q-70 -21 -124 -53t-80 -78q-73 -112 -120 -174t-79 -62q-44 0 -44 101q-1 98 25 176q26 79 72 139t108 102t136 70t159 41q84 13 172 13z"/>
<glyph glyph-name="E" d="M1477 250q-81 -86 -182.5 -150.5t-212 -108t-224.5 -65.5t-221 -22q-118 0 -222 27.5t-182 84t-123.5 143t-45.5 205.5q0 101 36.5 194t113 165t196 116t286.5 48q-110 0 -192 31.5t-136 85t-81 125t-27 151.5q0 75 26 137t71.5 111.5t107.5 86.5t134.5 61.5t152 37 t160.5 12.5q117 0 229 -25.5t199 -76.5t140 -127.5t53 -178.5q0 -36 -24.5 -71t-58.5 -62.5t-71.5 -44t-62.5 -16.5q-21 0 -21 37q0 33 10.5 85t35.5 130q-27 22 -79 44t-117.5 40t-139.5 29.5t-146 11.5q-67 0 -128 -12t-107.5 -39.5t-74 -72.5t-27.5 -111q0 -54 19.5 -91 t52 -63t74.5 -42.5t87 -29.5t88.5 -25t80 -27.5t61.5 -37.5t33 -55q2 -21 4 -42.5t2 -41.5q0 -56 -21 -81.5t-82 -25.5q-26 0 -64.5 3t-73.5 3q-80 0 -157 -20.5t-138 -61t-98.5 -100t-37.5 -138.5q0 -75 21.5 -125t59 -80.5t88.5 -43.5t110 -13q71 0 149 14t155.5 38.5 t151 58t136.5 72t111 81t74 85.5z" unicode="E"/>
<glyph glyph-name="F" horiz-adv-x="1376" unicode="F" d="M654 1212q0 -2 -1 -14t-11 -26t-32 -25t-66 -11q-58 0 -90 6t-48 18t-20 26t-3 30q0 150 75 256q74 106 210 174t326 100t418 32q152 0 318 -10t344 -35q50 -14 70 -40t20 -55q0 -19 -6 -40t-16 -39q-12 -17 -30 -29t-43 -12h-9t-9 2q-65 12 -141 20t-159 14t-171 8 t-180 2q-26 0 -64 -3t-73 -7q-40 -4 -83 -10q0 -11 -2 -25t-6 -39t-10 -64q-6 -38 -13 -100q-8 -62 -18 -149t-22 -207h555q24 0 37 -10t19 -24t7 -30t1 -32q0 -48 -21 -72t-43 -24q-7 0 -46 -2t-95 -3q-56 -3 -123 -5q-68 -2 -130 -4t-114 -4t-77 -1q-18 -121 -41 -233 q-24 -112 -58 -210t-81 -177q-47 -80 -112 -137q-65 -56 -150 -88t-195 -32q-23 0 -55 3t-67 10q-36 7 -70 19t-61 28q-27 18 -44 40t-17 51q0 15 6 39t20 48q14 23 34 40t50 17q34 0 70 -11q36 -10 75 -24t80 -25t83 -11q33 0 64 26q30 26 58 74q28 46 53 108t47 136 q22 72 41 151t35 158h-123q-17 0 -42 4q-25 3 -48 13t-39 26t-16 40q0 17 9 32t30 22l98 21q43 9 75 15t57 12q25 5 46 8q24 107 38 186q14 80 24 144t19 121t21 121q-87 -25 -151 -60t-106 -75t-62 -83t-20 -84z"/>
<glyph glyph-name="G" horiz-adv-x="1536" unicode="G" d="M1536 341q0 -116 -14 -241t-43 -245t-79 -227t-122 -188q-72 -80 -168 -128t-221 -48q-23 0 -55 3t-67 10t-69 19t-62 28q-27 18 -44 40t-17 51q1 15 7 39t20 48q14 23 34 40t49 17q33 0 64 -11q31 -10 64 -24t69 -25t78 -11q46 0 92 48t86 125t74 173t57 191 q-47 -43 -101 -83t-122 -70t-157 -46q-88 -18 -204 -18q-135 0 -243 54t-186 148q-76 92 -118 214t-42 258q0 176 42 338t118 300q75 138 177 252q102 112 220 192q117 80 247 122q130 44 260 44q80 0 148 -24t120 -75q50 -51 78 -129t29 -186q0 -42 -10 -84t-33 -83 q-32 -47 -62 -67t-57 -19q-21 0 -39 11t-31 29q-13 19 -21 41t-7 46q0 19 6 37q7 18 13 36q6 17 12 37t6 41q0 100 -44 150t-110 50q-80 1 -170 -33t-176 -98t-164 -156t-136 -211q-60 -119 -94 -263t-34 -308q0 -104 26 -180t72 -127q47 -51 115 -76t153 -25q158 0 291 42 t250 120q8 30 14 58t6 50q0 30 -8 48q-7 18 -21 26t-32 10t-40 2q-38 0 -66 10t-49 26q-20 16 -30 37t-10 42q-1 21 9 41t30 34t50 24t72 10q98 0 160 -20t98 -59t48 -95q14 -56 14 -129z"/>
<glyph glyph-name="H" horiz-adv-x="2111" unicode="H" d="M1798 750q-35 -124 -56 -230t-21 -184q1 -68 29 -106t94 -39q25 1 60 15t80 45q44 31 100 80t124 117q3 -6 12 -28q8 -20 22 -58t41 -105q-75 -79 -151 -139t-146 -100q-72 -40 -138 -62q-66 -20 -120 -20q-63 0 -117 24q-53 24 -93 68t-63 110t-23 150q0 29 6 73t18 100 q12 57 28 123t36 140q-134 -14 -257 -26t-245 -23q-28 -85 -56 -165t-52 -150q-26 -70 -48 -130q-22 -58 -36 -99q-50 -106 -96 -150t-83 -44q-24 0 -47 8t-41 23q-19 15 -29 36t-10 47q0 16 4 31q42 154 92 296t100 277q-56 1 -106 9t-93 29t-77 58t-55 94q-5 18 -7 32 t-2 28q0 44 31 44q19 -1 42 -21t59 -65q47 2 94 3t101 1h96q37 93 69 179t60 170q17 53 27 106t10 101q0 39 -7 72t-23 56t-41 36t-62 13q-30 0 -70 -10t-87 -32q-49 -22 -105 -60q-56 -36 -122 -90q-22 -19 -42 -27t-36 -8q-8 1 -12 27t-4 65q0 52 24 99q24 46 66 86 q40 40 94 72t110 56q56 22 113 34q56 12 103 12q70 0 134 -19t112 -61t78 -109q28 -67 28 -163q0 -45 -10 -110q-10 -64 -29 -142t-43 -166t-52 -178q103 7 232 14t259 14q51 168 113 346t130 350q22 57 60 91t89 34q21 0 41 -6q20 -7 34 -19q16 -12 24 -32t8 -45 q0 -23 -3 -53t-16 -66q-23 -62 -49 -132t-52 -146q-26 -74 -54 -152q-26 -78 -50 -155q63 3 110 7t71 6q11 2 21 2h17q31 0 49 -6t28 -17t15 -26q4 -15 4 -34q0 -21 -9 -35q-8 -14 -22 -22t-29 -12t-28 -5q-28 -3 -40 -5t-17 -2h-6t-8 -2q-6 0 -21 -1t-46 -4q-37 -4 -71 -7z "/>
<glyph glyph-name="I" horiz-adv-x="863" unicode="I" d="M309 1404l-4 -2q-3 0 -5.5 35.5t-2.5 95.5q0 12 11 31.5t37 41.5t68.5 44t107 40t152 29t202.5 11q99 0 154.5 -9.5t83.5 -25t34.5 -36t6.5 -41.5q0 -22 -5 -43t-26 -37.5t-63 -26.5t-115 -10q-33 0 -66 3q-28 -109 -49 -195t-38 -158.5t-31 -136.5t-28.5 -129 t-30.5 -136t-36.5 -157t-48 -192.5t-63.5 -242.5q6 0 27.5 -2t49.5 -7t59.5 -13t57.5 -20t43 -28t17 -37q0 -42 -72 -82h-67.5h-109.5h-136h-146h-71h-70q-68 0 -120.5 0.5t-84 1.5t-31.5 3q0 3 9.5 9.5t21.5 18t23 28.5t14 42q2 17 34 32.5t77 28t95.5 20.5t89.5 11 q31 131 62.5 262t62 256.5t60 243t57.5 220.5t54 189t49 150q-37 -4 -65 -8t-50 -9t-41.5 -11t-40.5 -13.5t-45.5 -17t-57.5 -21.5z"/>
<glyph glyph-name="J" horiz-adv-x="1952" unicode="J" d="M1152 1344q0 -80 35 -159t98 -157t150 -153q87 -76 192 -150q17 139 27 293t10 326q0 118 -15 200t-41 132q-26 52 -60 74t-72 22q-37 0 -75 -18t-74 -50t-68 -73q-31 -41 -55 -89t-38 -98t-14 -100zM832 -320q0 -102 40 -154t104 -53q66 0 150 58q84 57 167 179 q85 122 161 309t129 445l-37 23q-102 -19 -194 -69t-172 -118t-144 -150t-110 -164t-70 -162t-24 -144zM576 -256q0 136 52 276t146 266q95 126 229 224t299 149q-85 69 -159 145t-129 156q-54 80 -86 160t-32 160q0 102 22 194t62 170t94 142t116 108t130 69q68 24 135 24 q89 0 173 -46t149 -146t104 -259t39 -384q0 -164 -12 -310t-33 -280q61 -38 123 -74t127 -72q13 -8 33 -19t38 -23t31 -26q13 -12 13 -22t-8 -20t-20 -18t-24 -14t-17 -9q-17 -9 -44 -9q-55 1 -131 22t-165 59q-43 -185 -105 -339t-135 -275q-73 -123 -155 -213t-164 -150 q-84 -60 -166 -90t-159 -30q-79 0 -147 32t-117 96q-51 64 -79 157q-28 94 -28 219z"/>
<glyph glyph-name="K" horiz-adv-x="1920" unicode="K" d="M1227 1497q-9 -87 -17 -177t-14 -162q-7 -86 -12 -166q104 0 192 6t158 26q72 20 126 56t90 96t56 149q18 88 18 211v80t12 45q10 16 36 23t80 12q40 0 64 -10t38 -26q14 -14 18 -30t5 -26q1 -22 1 -60v-15q0 -29 2 -55q0 -112 -14 -206t-48 -169t-90 -131t-137 -94 q-83 -38 -193 -56t-254 -18q60 -156 110 -276t96 -200q48 -80 98 -122t112 -42q38 0 84 10t94 30t94 47q47 27 87 59l116 -196q-1 0 -19 -12q-19 -12 -53 -32q-35 -20 -81 -42t-102 -42t-118 -33t-128 -13q-72 0 -128 22t-98 62q-44 40 -78 92t-63 112t-55 124t-56 128 q-28 64 -61 122t-75 106q-53 -204 -124 -350q-70 -146 -158 -238t-190 -136t-214 -44q-39 0 -92 5q-54 5 -102 17t-82 31t-34 47t13 50t26 45q4 7 13 18t21 21t26 18t28 8q6 0 9 -1q34 -15 70 -25t69 -10q90 0 163 55t131 150q59 95 103 223t77 276t57 306t39 315l12 83 q-88 0 -159 -21t-127 -57q-57 -36 -97 -84t-66 -99q-26 -53 -40 -107q-12 -54 -12 -103q0 -5 -4 -17t-16 -24t-36 -22t-68 -10q-56 0 -88 10t-50 24q-16 14 -21 28q-5 15 -5 25v9q0 2 1 3q17 135 71 233t133 164q79 67 175 108t191 63q95 21 185 29t157 8q39 0 63 -9t39 -23 q14 -14 19 -31t5 -33q-1 -42 -1 -74t-3 -61zM2235 110v0v0z"/>
<glyph glyph-name="L" horiz-adv-x="992" unicode="L" d="M412 678q50 54 106 116t110 130t106 140q50 72 90 143t68 138t36 127q3 20 4 38t1 35q1 57 -15 83t-43 26q-32 0 -75 -34t-90 -95q-47 -62 -95 -150t-89 -196q-42 -108 -72 -235t-42 -266zM-156 327q13 9 44 29t73 49q43 27 91 61t95 68l8 68q22 210 71 386 q50 176 116 316q66 142 144 248t160 178t162 106q80 36 148 36q50 0 92 -19t72 -57t47 -95t17 -133q0 -93 -28 -195t-80 -206q-52 -103 -123 -207t-159 -200t-190 -182t-210 -152q-2 -60 -4 -96t-2 -54v-26v-11q0 -9 4 -17t14 -12t28 -6t48 -3q45 0 121 22l335 96q8 2 16 3 t15 1q25 1 43 -9t30 -26t18 -37t6 -43q0 -20 -6 -39t-18 -35t-30 -29q-18 -12 -42 -16q-98 -39 -200 -70q-44 -13 -92 -25t-100 -22q-50 -10 -102 -16t-99 -6q-73 0 -121 26t-76 68q-28 44 -38 101q-11 57 -11 121q-86 -63 -146 -100t-77 -37q-16 -1 -32 11t-29 31t-21 43 t-7 46q1 20 5 38t20 29z"/>
<glyph glyph-name="M" horiz-adv-x="2175" unicode="M" d="M440 98q-4 -30 -19 -49t-36 -30t-45 -15t-46 -5q-26 -1 -50 5t-44 18q-19 12 -30 28t-11 37q0 41 4 75t12 70q28 118 49 218t36 190t26 174q12 84 20 170t15 177l15 195v23q0 15 -3 27t-11 21t-22 9q-24 0 -58 -16t-73 -45q-38 -27 -76 -65t-70 -81q-6 -15 -19 -21 t-29 -7q-5 1 -11 9t-10 20t-7 26t-3 24q0 6 4 10q36 118 82 198t96 126q50 48 102 68t101 20q62 0 103 -24t65 -66q23 -42 33 -102t10 -133q0 -56 -9 -131q-9 -76 -23 -158t-29 -165q-16 -83 -31 -155q32 134 76 256t94 228q52 106 110 194q58 86 120 148t124 96 q63 34 125 34q46 0 85 -20t67 -62q27 -42 43 -106t16 -152q0 -8 -2 -25t-4 -39t-6 -48t-6 -50q-8 -60 -17 -130l21 1q39 148 96 266q57 119 128 201t153 126t170 44q61 0 109 -36t79 -98q32 -62 49 -144t17 -174q1 -86 -11 -176t-29 -180q-17 -88 -37 -173t-36 -161 t-28 -140t-12 -112q0 -60 22 -86t62 -26q22 0 48 12t52 34q26 20 50 46q25 26 48 55q53 64 105 147q0 -1 9 -21q7 -17 23 -58t45 -118q-50 -88 -103 -149q-53 -62 -108 -100t-111 -55t-113 -17q-53 0 -105 19t-92 57t-64 92q-24 56 -24 128v17t2 18q4 67 17 143t29 155 q16 80 35 163q18 84 33 166t25 162t10 155q0 45 -3 81t-12 62t-26 40t-45 14q-53 0 -100 -37t-89 -102t-78 -154t-70 -193q-32 -104 -60 -216q-28 -114 -52 -229t-45 -227t-39 -212q-8 -28 -24 -48t-38 -31t-46 -17t-48 -6q-22 0 -42 8t-36 26t-24 44q-10 27 -10 66 q0 26 12 90t30 152t40 194t40 214q18 110 31 217q12 107 12 197q0 62 -3 111t-14 83q-12 34 -32 52t-54 18q-28 0 -64 -38t-78 -105t-85 -157t-87 -196t-84 -220t-75 -228q-34 -114 -60 -224t-39 -206z"/>
<glyph glyph-name="N" horiz-adv-x="1623" unicode="N" d="M458 761q69 204 136 355.5t131.5 259t125 176t118 107.5t111 54t103.5 15q58 0 99 -28t67.5 -72t38.5 -97t12 -104q0 -60 -9.5 -133.5t-23.5 -155.5t-31 -169.5t-31 -174t-23.5 -170t-9.5 -157.5q0 -24 1.5 -53.5t6.5 -60t14.5 -59.5t26 -52t41 -37t58.5 -14 q48 0 101.5 24t105 60.5t98 79t82 79t56 61t20.5 25.5l60 -217q-32 -43 -73 -85.5t-88 -80.5t-99.5 -70.5t-107.5 -56.5t-110.5 -37.5t-109.5 -13.5q-70 0 -123 24t-91.5 65t-64.5 95.5t-41.5 115.5t-22 124t-6.5 122q0 78 12.5 153t30.5 147.5t40 141.5t40 134.5t30.5 127 t12.5 118.5q0 15 -2 40t-8.5 48t-20.5 40t-38 17q-40 0 -82.5 -37.5t-87 -103.5t-89.5 -156.5t-89.5 -195t-88 -220t-84 -232t-78.5 -229.5t-71 -213q-28 -54 -64.5 -76.5t-81.5 -22.5q-26 0 -50.5 11t-43.5 32.5t-30 53t-11 71.5q0 42 4 76t12 69q25 114 46.5 211t39.5 185 t32.5 170.5t26.5 166t21 171.5t16 188v23t-3 26.5t-10.5 21.5t-22.5 9q-20 0 -48.5 -19t-59 -52.5t-62 -78.5t-57.5 -97q-6 -15 -19 -21.5t-29 -6.5q-13 0 -27 8.5t-26 20.5t-20 25.5t-8 24.5q0 6 4 10q33 113 75.5 191.5t90 127t96.5 70.5t96 22q71 0 119.5 -21.5t78.5 -60 t43 -92.5t13 -120t-11 -142t-30 -157.5t-43 -166.5t-49 -169z"/>
<glyph glyph-name="O" horiz-adv-x="1632" unicode="O" d="M766 52q80 0 149 31t126.5 85t105 126.5t84.5 155.5t64.5 172t45.5 176t26.5 167.5t8.5 146.5q0 96 -21 180.5t-63.5 147t-107 98.5t-150.5 36q-92 0 -178 -44.5t-162 -120t-139 -175t-108 -209.5t-70 -224t-25 -218q0 -113 28.5 -210.5t82 -168.5t130 -111.5 t173.5 -40.5zM742 -192q-149 0 -268.5 61t-203.5 170.5t-129 261t-45 332.5q0 96 14 197t42.5 201.5t71 197t99 182.5t126.5 158.5t154.5 125t182 82t209.5 29.5q150 0 268.5 -54t200 -151t125 -231.5t43.5 -296.5q0 -134 -26.5 -279.5t-77.5 -286t-127 -267.5t-175 -223 t-220.5 -152.5t-263.5 -56.5z"/>
<glyph glyph-name="P" horiz-adv-x="1441" unicode="P" d="M358 693v-111t6 -148q5 -79 16 -160q10 -80 32 -146t54 -108t82 -41q51 -1 87 35t60 92t38 128t21 144t9 138t2 111v47q-83 33 -131 58t-71 48q-25 22 -31 48t-6 60q0 18 1 36t5 30q4 14 14 22q8 8 23 9q11 0 19 -4t21 -11q33 -18 60 -30t46 -18q22 -8 40 -12q1 14 1 52 t6 88t18 103q13 54 38 99q25 44 65 74t99 30q18 0 37 -4t35 -12q16 -10 26 -26t10 -41v-9t-1 -7l-61 -257l-9 -79q98 15 169 48q72 33 118 78t68 99t23 111t-21 115t-75 106t-142 79t-224 31q-101 0 -183 -38t-146 -105q-64 -66 -111 -154q-47 -87 -77 -187t-46 -206 q-14 -106 -14 -205zM958 1823q168 1 294 -45t211 -122t127 -173q42 -98 42 -203q0 -98 -38 -194t-114 -177t-194 -140q-116 -59 -273 -83q-3 -73 -5 -134l-2 -52q-2 -26 -2 -48v-37q0 -16 -1 -22q-3 -69 -17 -145t-42 -148t-66 -136q-40 -64 -92 -114q-52 -48 -118 -76 q-65 -28 -142 -29q-82 1 -146 43t-114 114q-48 72 -82 166t-54 196t-30 207q-10 104 -10 196q0 158 29 305q29 148 83 276t131 234t173 182t210 118t242 41z"/>
<glyph glyph-name="Q" horiz-adv-x="1512" unicode="Q" d="M766 64q76 0 142 32t120 85q56 53 100 127t79 158t61 172q26 90 43 178t25 168q8 82 8 148q0 114 -20 212t-61 168q-41 72 -103 112t-146 40q-85 0 -165 -47t-150 -127t-128 -185q-57 -105 -99 -222t-65 -238t-23 -232q0 -119 26 -219t75 -174t120 -114q71 -42 161 -42z M1632 1064q0 -118 -20 -248t-62 -259t-106 -249t-151 -216t-197 -159q-110 -64 -246 -81q48 -47 84 -91q36 -45 71 -79t73 -55t87 -21q47 0 93 25t83 55q43 35 82 81q11 8 21 9t16 1q26 -5 44 -20t28 -36t16 -45q4 -24 4 -43q0 -27 -6 -37t-10 -15q-1 -1 -18 -19 q-18 -18 -48 -43q-30 -27 -72 -57t-94 -56t-110 -42q-58 -17 -122 -17q-76 0 -129 29q-53 28 -91 74t-62 102t-44 108q-20 54 -38 98t-42 67q-152 27 -260 101t-177 181t-101 241t-32 280q0 136 26 280t76 280t126 258q76 120 175 212q101 92 225 145t272 53q149 0 267 -57 t200 -161q81 -104 125 -250t44 -324z"/>
<glyph glyph-name="R" horiz-adv-x="1700" unicode="R" d="M1203 1504q-165 0 -295 -46t-227 -124q-98 -78 -167 -181t-112 -216q-42 -113 -62 -229t-20 -221q0 -81 14 -163t44 -146q30 -66 78 -106t114 -40q34 0 60 26t46 72q20 44 35 102t25 122q10 63 16 127t10 120q4 55 4 99q1 44 1 67q-79 37 -119 69t-40 74q0 10 2 24t6 26 t14 20t26 9q7 -1 28 -3t44 -6q22 -4 42 -6t26 -2l1 21q1 16 3 44t9 60q5 33 17 65t31 58t45 44q26 16 65 16q51 0 67 -22t16 -58v-9q-2 -39 -12 -101t-19 -144q163 2 269 32t168 75t87 99t25 103t-24 94t-69 79q-46 34 -114 56q-68 20 -158 20zM1824 1263q0 -48 -16 -101 q-16 -52 -49 -104t-85 -100t-123 -86q-72 -38 -164 -64t-207 -32q70 -26 117 -67t79 -91t50 -107q18 -56 31 -110q13 -53 23 -103t26 -88q14 -38 36 -60t59 -22q35 0 75 12t82 32q42 21 84 50t78 64l116 -196q-1 0 -19 -12q-19 -14 -53 -34t-80 -46q-46 -24 -103 -45 t-119 -35t-127 -14q-73 0 -125 36t-87 95q-36 59 -60 135t-42 154q-17 78 -33 154t-35 135t-45 95t-65 36h-63q-20 -218 -50 -392t-80 -295t-124 -185t-182 -64q-80 0 -146 30t-120 84q-54 53 -94 124q-40 70 -66 152t-40 169t-14 173q0 156 38 304t112 280q72 132 175 242 t231 192q128 80 280 125t321 45q75 0 149 -14t141 -41t125 -67t98 -92q42 -52 66 -114q24 -63 24 -137zM2036 90v0v0z"/>
<glyph glyph-name="S" horiz-adv-x="1695" unicode="S" d="M733 1312q0 -66 38.5 -118t102 -96.5t144 -84.5t165 -82.5t165 -91t144 -109.5t102 -138t38.5 -176q0 -90 -29 -165.5t-79.5 -135.5t-119.5 -106t-149 -76t-168 -45.5t-177 -15.5q-125 0 -243 30.5t-210 92t-147.5 154t-55.5 216.5q0 64 20.5 112.5t51 81t66.5 49 t67 16.5q32 0 53.5 -17.5t21.5 -54.5q0 -17 -4 -36t-8.5 -41.5t-8.5 -49.5t-4 -59q0 -70 32 -121t85 -84t122 -49t143 -16q87 0 174 21t156 62t112 100.5t43 136.5q0 71 -38.5 127t-102 103.5t-144.5 89.5t-165 85t-165 90.5t-144.5 104.5t-102 127.5t-38.5 160.5 q0 84 40.5 165.5t122 146t203.5 104.5t286 40q104 0 203.5 -31t177.5 -88t125.5 -136t47.5 -175q0 -57 -19.5 -117t-62.5 -125q-42 -63 -91.5 -93.5t-89.5 -30.5q-30 0 -49 17.5t-19 52.5q0 26 12 61.5t41 81.5q27 44 40 82.5t13 71.5q0 51 -27.5 89.5t-76 64.5t-116.5 39 t-149 13q-90 0 -156.5 -20.5t-111 -53t-66 -72.5t-21.5 -79z"/>
<glyph glyph-name="T" horiz-adv-x="1536" unicode="T" d="M199 1330q1 84 35 146t96 107t150 73t193 44t225 22t248 6q174 0 364 -14t398 -51q48 -10 68 -36t19 -58q0 -20 -9 -39t-24 -35q-15 -15 -35 -25t-42 -10q-77 0 -161 8t-174 18t-186 20t-198 15q-18 -112 -46 -241q-28 -130 -62 -264t-70 -268t-70 -254 q-34 -122 -64 -225t-48 -177q-8 -34 -24 -62t-38 -50q-20 -20 -42 -32t-41 -12q-57 0 -94 27t-37 87q0 19 6 42q12 91 34 179q22 87 51 183t66 203t82 235t97 284q52 155 114 345q-54 -4 -108 -9q-54 -6 -106 -14t-96 -21t-78 -33t-52 -48q-20 -28 -20 -66q0 -2 -2 -22 t-18 -44t-48 -42q-32 -20 -92 -20t-93 20t-48 44q-18 28 -20 64z"/>
<glyph glyph-name="U" horiz-adv-x="1382" unicode="U" d="M1248 1568q3 51 19 82t40.5 48.5t55 23.5t60.5 6q27 0 48 -6t35.5 -21.5t22 -41.5t7.5 -66q0 -277 -33 -515t-93 -432.5t-144 -345t-185.5 -252.5t-218.5 -155t-242 -53q-150 0 -251 60.5t-161.5 163.5t-86 238.5t-25.5 285.5q0 119 15.5 241t39.5 237.5t54.5 219 t60.5 186.5q19 58 38.5 90t38.5 47.5t38 19t39 3.5q38 0 67.5 -3.5t49.5 -13.5t30 -28.5t10 -49.5v-8q-2 -12 -3 -26t-6 -31q-12 -37 -32.5 -99.5t-44.5 -143t-49 -173.5t-45 -190.5t-32.5 -194t-12.5 -183.5q0 -90 15 -167.5t50.5 -134.5t92.5 -89.5t141 -32.5 q65 0 123.5 35.5t110 100t97 154.5t83.5 198t68.5 230.5t53.5 253t38.5 265.5t22.5 267z"/>
<glyph glyph-name="V" horiz-adv-x="1056" unicode="V" d="M91 480q0 2 -3 35t-7 88q-3 55 -9 127t-12 150t-10 160q-6 82 -10 156t-6 136t-3 104q-1 61 15 94q16 32 38 48t46 18t42 3q36 0 60 -10q24 -9 38 -29t18 -48q5 -28 5 -63l44 -1189l651 1250q7 24 24 46t41 38t53 26t60 10q36 0 56 -32t21 -82q0 -36 -19 -96 q-18 -60 -50 -135t-74 -161t-88 -175t-92 -177t-88 -164q-12 -23 -18 -48t-6 -50q0 -38 15 -74t47 -64t80 -44t115 -17q15 0 35 7q20 6 41 18t43 27t43 30q48 36 99 82l-23 -207q-83 -66 -165 -106t-155 -39q-69 1 -121 19t-89 52t-56 82t-19 107q0 30 6 65 q-58 -138 -110 -230t-100 -148t-93 -80t-89 -23q-60 0 -98 20q-38 19 -60 55t-34 85q-10 49 -14 106t-7 120q-2 63 -8 127z"/>
<glyph glyph-name="W" horiz-adv-x="2399" unicode="W" d="M864 1542q0 -34 -16 -100t-42 -154q-25 -87 -54 -189t-54 -207q-26 -104 -42 -206t-16 -189q0 -71 10 -133t29 -106q20 -46 50 -72t71 -26q42 0 80 24t74 66t69 100t63 126t58 142q27 74 51 150q84 268 149 609q12 55 28 92t40 59t54 31t70 9q38 0 62 -7t40 -19 q14 -12 20 -29t6 -38q0 -7 -8 -59t-20 -132t-28 -182q-14 -102 -26 -210t-21 -212q-8 -105 -8 -193q1 -91 7 -163t22 -123t40 -78q25 -27 62 -27q64 0 116 50t96 134t78 193q34 110 62 230q26 120 46 242q20 123 32 231t20 194t11 136q3 51 19 82t39 48q25 16 55 22t62 6 q26 0 46 -6t35 -18q15 -14 23 -36t8 -58q0 -98 -12 -210t-32 -225q-18 -113 -40 -220t-40 -193t-30 -145t-13 -75q0 -38 11 -66q12 -28 30 -46t44 -26t54 -8q30 0 60 14t58 37t52 57t39 75l17 -207q-74 -85 -152 -134t-148 -49q-33 1 -62 11q-30 10 -52 32t-37 57t-21 83 q-50 -94 -108 -168t-122 -126t-134 -82q-70 -28 -146 -28q-96 0 -162 50t-108 136t-60 202q-19 116 -19 247q0 48 5 90t8 75q-36 -228 -90 -382t-128 -246t-168 -132t-210 -40q-66 0 -126 44t-106 129t-72 215q-28 130 -28 303q0 105 12 217t34 224t56 222q33 110 75 214 q25 58 50 90t51 48t52 19t54 3q22 0 40 -3t30 -13t20 -26q6 -18 6 -48z"/>
<glyph glyph-name="X" horiz-adv-x="1696" unicode="X" d="M947 934q-8 55 -19 116t-27 121q-17 61 -39 115t-52 96t-70 66t-90 24q-6 0 -26 -18t-48 -50q-26 -32 -55 -72q-29 -42 -53 -88q-16 -30 -30 -30q-10 0 -19 14t-16 34q-7 21 -13 47q-6 27 -8 51q-4 24 -6 44t-2 32q0 74 20 129t56 91t84 54t106 18q50 0 102 -8t102 -30 q52 -22 101 -65q49 -42 93 -110t82 -166t65 -233q49 74 104 146t111 139t113 123t107 98t94 64q44 24 77 24q31 0 57 -22t44 -60q18 -36 29 -83q10 -47 10 -95q0 -96 -53 -144t-137 -49q-10 -1 -14 11t-5 29v37t-1 38q-1 16 -5 28t-13 12q-21 0 -49 -20t-63 -57 q-35 -36 -75 -85t-84 -106q-42 -57 -86 -119t-86 -124q32 -120 53 -222q21 -103 38 -185t33 -144t38 -106q22 -42 54 -64t79 -21q61 0 136 60t164 197q15 15 34 15q17 0 34 -11q17 -10 31 -28t22 -40t8 -42q0 -31 -22 -53q-66 -79 -134 -139t-131 -100q-64 -40 -123 -62 q-59 -20 -107 -20q-56 0 -101 12t-82 40q-36 30 -68 82t-62 134t-58 197q-29 115 -62 270l-202 -303q-40 -60 -81 -121t-77 -115t-66 -96q-29 -42 -46 -67q-24 -33 -68 -53t-94 -21q-69 0 -103 28t-34 72q0 53 47 114q21 27 60 75q38 48 88 110q50 60 106 130t113 138 t107 130t89 110t61 74l22 27z"/>
<glyph glyph-name="Y" horiz-adv-x="1472" unicode="Y" d="M1126 506q-82 -112 -148 -195.5t-120.5 -143.5t-100 -99.5t-87.5 -62t-82 -31.5t-84 -9q-40 0 -81 18t-75 42t-57.5 47.5t-27.5 35.5q-6 8 -11 23t-5 31q0 15 7 26.5t24 11.5q6 0 15 -3q31 -20 61 -29t56 -9q75 0 135 26.5t108 68.5t86 95.5t68 107.5t53.5 103.5 t43.5 84.5q-35 88 -72 175t-77 166.5t-81.5 147.5t-85 118.5t-88.5 79t-90 28.5q-24 0 -38.5 -6t-22.5 -16t-11 -23t-3 -26q0 -15 2 -30t2 -26q0 -17 -8.5 -21t-19.5 -4q-20 0 -36 24t-27 64t-17 91.5t-6 106.5q0 17 9 35t28.5 33t49 24.5t71.5 9.5q114 0 208.5 -57.5 t175.5 -157t151 -233t136 -284.5q59 107 113.5 210.5t100.5 193.5t82.5 162.5t60.5 117.5q13 24 47.5 39t74.5 15q21 0 41 -6t35.5 -19t25.5 -34.5t10 -51.5q0 -42 -26 -103q-23 -53 -64.5 -137t-98 -188t-125.5 -221.5t-145 -236.5z"/>
<glyph glyph-name="Z" horiz-adv-x="1025" unicode="Z" d="M635 1313q-53 6 -94 17.5t-73 23t-57.5 20t-47.5 8.5q-18 0 -35 -8t-34.5 -27.5t-36.5 -52t-41 -81.5q-28 -61 -57 -83.5t-50 -22.5q-19 0 -27 16.5t-8 44.5q0 11 1.5 24t3.5 27q17 129 50.5 210t75 126.5t85.5 61.5t83 16q44 0 87 -13t87.5 -29t91 -29.5t96.5 -14.5 q37 -1 69.5 -1h61.5q91 0 144.5 2t82 4t38.5 4t14 2q42 0 60.5 -28t18.5 -76q0 -15 -2 -31.5t-5 -34.5q-2 -5 -14.5 -18.5t-41.5 -29.5q-116 -113 -213.5 -226.5t-177 -219.5t-141.5 -200t-107 -167.5t-73.5 -121.5t-40.5 -63l-5 -23q1 0 16.5 -8t41 -19.5t57 -25.5 t64.5 -25.5t64 -19.5t55 -8q81 0 145 17t116.5 41.5t95 52t79.5 48.5q22 16 44 16t42.5 -12t36.5 -31t25.5 -42.5t9.5 -45.5q0 -34 -18 -55q-36 -30 -96.5 -70t-135.5 -76t-160 -61t-172 -25q-14 0 -47 8t-88 27.5t-132 51t-178 78.5q-51 -45 -101.5 -64.5t-92.5 -19.5 q-54 0 -87.5 28t-33.5 77q0 38 25.5 88t85.5 108l734 960q-23 0 -47.5 -1t-50.5 -1q-32 0 -65 3z"/>
<glyph glyph-name="bracketleft" horiz-adv-x="927" unicode="[" d="M392 1415q6 23 14 51t20 55q12 29 31 55t48 46t70 32t97 13h318q26 -1 44 -11t30 -26t18 -34t6 -35q0 -21 -12 -43t-32 -38t-42 -27q-22 -10 -44 -10h-286q0 -2 -6 -43q-6 -42 -16 -110t-24 -159t-28 -193q-16 -102 -32 -208q-16 -107 -32 -208q-16 -100 -28 -190 q-14 -90 -24 -157t-17 -105l-6 -38h286q15 0 31 -6t27 -18t18 -27t7 -32q0 -15 -12 -39t-32 -46q-21 -22 -50 -40q-29 -16 -63 -16h-318q-55 0 -89 12t-54 30q-20 20 -26 45q-8 25 -8 52q0 29 6 59t10 54q18 92 36 198t36 218t34 226t30 217q33 245 64 496z"/>
<glyph glyph-name="backslash" d="M416 1760q30 -66 73 -162t94 -208t107 -236t110 -245q54 -122 106 -237t95 -210q43 -94 74 -164t45 -101q20 -46 30 -81t9 -61q0 -49 -31 -71t-75 -23q-25 0 -51 7t-52 20q-24 12 -46 32t-37 44q-123 249 -225 480t-186 432q-84 202 -152 366t-119 280q-16 36 -23 66 t-7 55q0 31 9 53q8 22 24 38t36 22q20 8 43 8q41 0 83 -26t66 -78z" unicode="\"/>
<glyph glyph-name="bracketright" horiz-adv-x="927" unicode="]" d="M696 60q-6 -22 -14 -50t-20 -56t-31 -54t-48 -47t-70 -33t-97 -12h-308q-27 0 -47 12q-19 12 -33 28t-21 36t-7 36q0 21 11 41t29 36q18 15 38 25q21 10 41 10h297q0 2 6 43t16 109t24 160q14 90 28 192q16 102 32 209t32 208t28 191q14 90 24 156q10 68 17 106l6 37 h-260q-19 1 -37 9t-34 22q-14 14 -24 32t-10 38q0 14 8 36t25 41q15 19 39 33t53 13h346q55 1 89 -11t54 -32t26 -44q8 -25 8 -52q0 -29 -6 -59t-10 -54q-18 -91 -36 -197t-36 -220q-18 -112 -34 -225t-30 -217q-33 -245 -64 -496z"/>
<glyph glyph-name="asciicircum" horiz-adv-x="1089" unicode="^" d="M1013 680q10 -31 10 -58t-9 -48q-8 -21 -22 -36q-14 -14 -30 -22t-29 -8q-30 0 -55 16q-24 16 -44 36q-20 21 -33 44t-17 38l-206 482l-260 -521q-28 -51 -61 -71t-63 -21q-22 1 -40 9t-32 23t-21 35q-8 20 -8 43q0 13 3 29t11 31q1 2 12 23t29 54q18 32 38 74 q22 42 45 85t45 85t39 75t29 55t12 24q46 100 102 144t109 44q29 0 57 -6t56 -22q28 -18 54 -48q27 -30 51 -79q57 -110 115 -238t113 -271z"/>
<glyph glyph-name="underscore" d="M128 0q-24 0 -48 6t-43 19t-31 33t-12 50q0 38 20 61t52 35q34 12 78 16t92 4h110h150h174t183 1h177h154q25 0 41 -5t25 -14q8 -9 12 -20t4 -23q0 -35 -12 -65t-40 -51q-28 -23 -76 -35t-118 -12h-892z" unicode="_"/>
<glyph glyph-name="grave" horiz-adv-x="609" unicode="`" d="M496 1203q5 -13 7.5 -25t2.5 -23q0 -30 -17 -48.5t-41 -18.5q-17 0 -34.5 8.5t-33.5 28.5q-13 15 -33 40t-45 55.5t-52.5 64.5t-54 68.5t-51 66t-43.5 57.5q-37 52 -37 97q0 30 13 55t33.5 43t46.5 28t52 10q29 0 55.5 -15t39.5 -49q46 -104 85 -194q16 -38 33 -77 t31.5 -72.5t25.5 -60t17 -39.5z"/>
<glyph glyph-name="a" horiz-adv-x="928" unicode="a" d="M320 324q0 -25 3.5 -48.5t12.5 -42t24 -30t38 -11.5q37 0 67 32t52 77t35.5 93t17.5 80l61 294q-41 0 -80 -20.5t-73.5 -55.5t-63.5 -80t-50 -94.5t-32.5 -99.5t-11.5 -94zM1174 245q-23 -32 -61.5 -75t-86.5 -82t-103 -66t-110 -27q-66 0 -110 42.5t-76 123.5 q-24 -28 -59 -57t-76.5 -52.5t-86.5 -38.5t-90 -15q-48 0 -93.5 19.5t-80.5 56t-56 89t-21 118.5q0 75 21 154t58 154.5t87.5 142.5t110.5 117t126.5 79.5t135.5 29.5q23 0 36 -9t21.5 -20.5t16.5 -22.5t20 -16t24.5 -6.5t25.5 -1.5q11 0 22.5 0.5t22.5 0.5q15 0 28 -3 t23 -13t15.5 -28t5.5 -49q0 -48 -10 -106.5t-22 -120t-22 -123t-10 -116.5q0 -47 8.5 -73.5t36.5 -26.5q21 0 44 10.5t46.5 27.5t47 38.5t44.5 44.5q49 54 99 122z"/>
<glyph glyph-name="b" horiz-adv-x="950" unicode="b" d="M640 1648q0 4 -2 17t-6 27q-6 14 -16 25t-27 11q-19 0 -41 -28t-43 -78q-21 -48 -41 -112t-39 -132q-19 -70 -35 -142t-30 -136t-24 -118t-16 -87q26 52 60 108q34 57 68 117t66 124t60 130q26 66 44 134t22 140zM542 732q-35 0 -70 -14t-65 -46q-30 -30 -53 -78 t-34 -114q-9 -54 -15 -100t-10 -80q-4 -40 -7 -75q33 -10 66 -17q29 -6 61 -11t61 -5q34 0 62 20t50 54t38 76q16 44 26 90t15 92t5 83q0 25 -6 47t-20 40t-40 28t-64 10zM452 805q56 71 102 113t93 42q59 0 105 -26t78 -69t49 -99t17 -117q0 -51 -4 -97t-14 -88 q-10 -44 -30 -87q-18 -43 -48 -89q36 21 73 41t75 44q38 23 75 53q38 30 78 70l77 -165q-56 -50 -110 -87q-54 -36 -112 -64t-120 -48t-132 -36q-16 -17 -46 -34t-59 -31q-33 -16 -71 -31h-25q-85 0 -169 24t-151 52q-79 33 -151 76q3 81 12 183q8 87 22 207t38 267 q16 99 40 219t56 244t74 240q40 116 90 207t108 146t126 55q76 0 122 -26t71 -70t33 -105q8 -60 8 -128q0 -95 -36 -196t-92 -201q-58 -100 -128 -197q-70 -96 -140 -181z"/>
<glyph glyph-name="c" horiz-adv-x="736" unicode="c" d="M437 0q-92 0 -161.5 34t-116.5 91t-71 132t-24 156q0 58 12 121t35.5 123.5t58 115.5t80 96.5t101.5 66t123 24.5q57 0 105.5 -17.5t83 -48.5t54 -73.5t19.5 -91.5q0 -34 -9 -67t-26.5 -59.5t-42.5 -42.5t-56 -16q-47 0 -61.5 25t-14.5 69q0 18 1.5 38t1.5 36q0 24 -5 40 t-22 16q-41 0 -70 -19.5t-49.5 -51t-32.5 -71t-19 -78.5t-9 -74.5t-2 -59.5q0 -36 6.5 -75t24.5 -71.5t49 -54t80 -21.5q48 0 106 29.5t116.5 74.5t111.5 99t91 102l69 -116q-75 -107 -162 -191q-37 -36 -80.5 -70t-91 -60.5t-99 -43t-104.5 -16.5z"/>
<glyph glyph-name="d" horiz-adv-x="1072" unicode="d" d="M1038 1481q6 70 6 111q0 54 -10 75t-27 21q-32 0 -58 -40t-46 -104q-20 -63 -35 -139t-25 -147t-16 -128t-8 -81q-5 -49 -7 -95t-3 -82q-1 -38 -1 -66v-43v-10q57 130 105 259q21 56 41 116t37 121t29 120t18 112zM1256 196q-71 -55 -140 -98q-29 -18 -61 -36t-63 -30 q-30 -14 -60 -22t-55 -9q-13 0 -41 6q-28 7 -60 25t-66 53q-32 35 -56 93q-36 -36 -78 -68t-86 -57t-90 -39t-92 -14q-64 0 -112 28t-80 74t-46 106q-16 59 -16 122q0 64 16 130t48 126q32 62 77 116t102 98q57 42 124 70t143 35q3 128 23 253t53 238q34 113 78 209t97 166 q53 69 113 109t124 40q47 0 80 -24q34 -24 54 -66q20 -40 29 -94t9 -110q0 -35 -3 -72q-13 -140 -48 -266t-82 -245t-102 -236t-107 -243q-5 -14 -10 -34q-6 -20 -10 -44t-7 -48t-3 -47q0 -29 4 -55t11 -46t21 -33q14 -12 34 -12q20 -1 42 7t47 21t51 29t49 34q55 40 115 91 zM450 672q-52 -52 -86 -114q-34 -61 -52 -123t-18 -112q0 -20 4 -40t17 -36q12 -16 34 -26t57 -10q18 0 36 9q18 10 33 24q17 14 31 32t26 39q28 46 51 104q-3 15 -5 45t-3 68t-2 77q-1 40 -1 73t-2 54q-1 20 -2 20q-68 -34 -118 -84z"/>
<glyph glyph-name="e" horiz-adv-x="787" unicode="e" d="M333 470q36 0 78.5 18.5t79 47.5t61.5 63t25 66q0 45 -16.5 74t-40.5 29q-43 0 -73.5 -16t-51 -41.5t-33 -58t-19 -65.5t-8.5 -64t-2 -53zM466 0q-94 0 -164.5 34t-117.5 91.5t-70.5 133t-23.5 158.5q0 56 11 118.5t33.5 122.5t56.5 114.5t79.5 96t102 66t125.5 24.5 q56 0 104 -18t83.5 -50.5t55.5 -78.5t20 -103q0 -62 -30.5 -124t-84.5 -117t-128.5 -98t-161.5 -67q15 -27 29.5 -45t29.5 -28t31.5 -14t35.5 -4q60 0 126.5 24t129.5 60t119 78.5t95 80.5l129 -134q-88 -91 -187 -161q-43 -30 -92.5 -59t-104 -51.5t-113 -36t-118.5 -13.5z "/>
<glyph glyph-name="f" horiz-adv-x="723" unicode="f" d="M578 1533q-58 -143 -91 -253t-50 -195t-24 -149t-14 -120q61 114 123 226t112 208t82 168q32 73 31 111q0 53 -15 77t-41 25q-46 -1 -70 -25t-43 -73zM335 442q-4 0 -9 -22q-6 -22 -10 -58t-8 -80t-7 -86t-5 -80q-2 -36 -2 -57q0 -147 6 -234t14 -132t18 -59t22 -13 q34 0 54 31q20 30 32 78q10 48 14 104t3 109q1 35 -5 86t-16 107t-22 110t-26 98t-27 71q-14 27 -26 27zM68 -38q0 5 2 61t10 149q7 92 19 214q11 122 31 258t46 278t64 277q36 135 83 255t105 208q58 90 131 142q72 52 158 52q33 0 71 -12t69 -39t51 -71t21 -110 q-1 -60 -19 -136t-52 -163t-78 -181q-46 -94 -100 -188t-114 -184t-121 -169l-2 -16q20 10 30 13t21 3q13 -1 21 -3q9 -2 15 -5t13 -5t17 -3q99 -1 175 23t128 53q61 33 106 77l-22 -243q-66 -36 -138 -56t-133 -30q-71 -11 -141 -14q36 -66 65 -137q26 -60 46 -136t20 -153 q0 -9 -2 -38t-9 -71q-6 -42 -17 -93q-10 -51 -28 -103t-43 -100t-59 -86t-76 -61q-44 -23 -99 -23t-96 25t-70 67t-49 100q-20 56 -30 119q-12 63 -16 129t-4 126z"/>
<glyph glyph-name="g" horiz-adv-x="928" unicode="g" d="M172 -736q42 0 80 24t68 65q32 40 58 91q26 50 46 104t34 105t22 91q-40 -26 -80 -62t-78 -78t-74 -85q-34 -45 -60 -85t-41 -75t-15 -58q0 -37 40 -37zM320 324q0 -24 4 -48t12 -42q9 -18 24 -30t38 -12q37 0 67 32t52 77q21 45 35 93t18 80l61 294q-41 0 -80 -20 t-73 -56q-34 -35 -64 -80q-29 -44 -50 -94q-20 -50 -32 -100t-12 -94zM541 105q-55 -47 -113 -77t-113 -30q-47 0 -93 20t-81 56t-56 88t-21 119q0 75 21 154t58 155t87 142q50 67 111 117q61 49 127 79t135 30q23 0 36 -9t21 -21t17 -22q8 -11 20 -16q13 -4 25 -6t25 -2h23 t22 1q15 0 28 -3t23 -13q9 -10 15 -28t6 -49q0 -26 -4 -70t-11 -98t-15 -114t-18 -119q-21 -138 -48 -295q30 17 65 42t78 67q43 41 96 105t119 159l48 -222q-18 -31 -46 -63t-64 -66q-34 -32 -72 -62t-73 -58q-85 -64 -183 -124q-19 -106 -45 -208q-25 -102 -61 -190 t-82 -163q-46 -74 -102 -127q-58 -52 -129 -82t-157 -30q-34 0 -74 7t-72 28q-34 21 -56 60t-22 104q0 45 23 101t63 120q40 62 95 130t119 134q64 67 136 132q70 65 142 124z"/>
<glyph glyph-name="h" horiz-adv-x="1025" unicode="h" d="M562 1240q60 153 86 258t26 155q0 76 -20 76q-26 0 -77 -85t-120 -247q-17 -55 -31 -114t-26 -117t-22 -116q-10 -56 -16 -107q-17 -119 -26 -233q27 63 59 137q32 75 63 147q30 72 58 136t46 110zM473 622q41 54 92 116t106 116t109 88q54 36 103 36q12 0 27 -4 q14 -4 28 -17q14 -11 23 -33t9 -56q0 -68 -19 -132t-41 -130q-22 -64 -42 -131q-18 -67 -18 -140q0 -40 12 -64t31 -24q24 0 51 10t54 26q27 17 53 37t49 42q55 51 108 116l17 -266q-17 -14 -45 -35t-62 -45t-72 -47q-38 -25 -78 -43t-80 -30t-75 -12q-55 0 -95 30t-67 74 q-26 46 -39 100t-13 102q1 32 9 72t20 79q12 40 28 78t30 68t23 49q10 19 13 22l-21 3q-17 -11 -57 -56t-92 -113t-106 -154t-98 -177q-22 -45 -36 -79t-28 -54q-14 -22 -29 -33q-16 -11 -41 -11q-33 0 -52 19t-29 51t-13 71q-3 40 -3 82q-1 67 1 175t10 241q8 132 23 278 q15 147 43 289t68 272q42 130 102 228t139 156q80 58 184 58q55 0 89 -16t54 -45t29 -69q8 -40 8 -91q0 -74 -21 -164q-22 -90 -56 -187q-34 -96 -78 -196t-90 -194t-90 -176q-44 -83 -79 -146z"/>
<glyph glyph-name="i" horiz-adv-x="537" unicode="i" d="M289 1241q0 23 10 52q11 29 33 55t60 42q38 18 93 18q35 0 66 -8t54 -24t37 -44q14 -27 13 -64q0 -34 -11 -66t-35 -57q-25 -25 -61 -41t-87 -15q-88 -1 -130 41t-42 111zM736 213q-36 -33 -90 -71t-115 -68q-63 -32 -127 -53t-122 -21q-52 0 -88 14t-57 41 q-21 25 -31 63t-10 83q0 63 14 147t36 172q20 90 44 179t42 164q7 27 28 45q22 18 48 30t54 16q28 6 52 6q42 0 57 -16t15 -41q0 -21 -10 -63t-25 -94t-32 -114q-17 -60 -32 -120t-25 -118t-10 -104t10 -72t41 -26q36 0 80 25t89 61t88 73q43 38 76 65v-203z"/>
<glyph glyph-name="j" horiz-adv-x="672" unicode="j" d="M222 1241q0 23 10 52t32 55t60 42q38 18 94 18q35 0 66 -8t54 -24q22 -16 36 -44q14 -27 14 -64q0 -34 -11 -66t-35 -57t-60 -41t-88 -15q-88 -1 -130 41t-42 111zM286 447q-26 -155 -44 -313t-18 -326q0 -56 7 -92t17 -58t22 -32q10 -10 18 -10q32 0 52 36t30 89t12 115 t2 112q0 30 -4 66t-12 75q-6 39 -15 79t-18 78q-22 88 -49 181zM0 0q0 16 4 56t12 98t19 128t24 144t28 146t31 136t32 112q16 49 33 76q14 23 33 36q20 13 42 19q22 5 46 7t49 2q35 0 51 -21t15 -44q1 -12 -5 -38t-14 -56t-16 -57t-12 -40l-56 -160q56 8 108 12t114 14 t140 32t186 70v-192q-66 -36 -132 -56t-121 -28q-63 -11 -123 -12q25 -65 44 -135q16 -59 30 -133t14 -148q0 -12 -2 -60t-12 -112t-30 -136t-56 -130q-36 -60 -90 -99t-130 -39q-70 0 -119 41t-79 119t-44 191t-14 257z"/>
<glyph glyph-name="k" horiz-adv-x="991" unicode="k" d="M645 1682q-32 0 -55 -20q-24 -20 -44 -57t-40 -90t-47 -118q-15 -57 -29 -118t-25 -121t-19 -120q-8 -59 -15 -111q-15 -123 -24 -242q22 65 48 143q25 78 51 154t48 142q22 68 38 115q7 22 20 55t28 71t30 79q16 41 28 79t20 71t8 56q0 32 -21 32zM449 559q36 46 79 101 q42 55 84 105t76 89t55 53q31 21 76 37t100 16q27 0 53 -13t45 -37t30 -58t11 -76q0 -40 -20 -82t-50 -84t-65 -84t-65 -84t-50 -85q-20 -42 -20 -84q0 -35 18 -51t54 -16q20 0 44 14t48 35q24 22 50 49t50 55q24 27 44 53q21 26 38 44l60 -245q-30 -45 -78 -83t-104 -68 q-56 -28 -114 -44q-60 -16 -115 -16q-71 0 -117 18t-72 46q-26 30 -36 66t-9 75q-1 23 5 57t22 75q16 43 43 93q28 50 73 108q18 18 33 32t26 26t17 22t6 21q0 21 -8 34t-21 13q-17 0 -44 -22t-59 -77l-294 -516q-24 -39 -48 -55t-56 -16q-43 0 -68 18t-38 50q-12 32 -16 74 t-4 88q0 57 4 151q4 95 12 207t22 235t32 239q7 42 18 100q12 58 28 125t38 139t52 142q30 68 67 130t83 108t101 74q55 27 120 27q51 -1 84 -17t53 -46t27 -70q8 -41 8 -89q1 -85 -21 -183t-55 -196t-72 -192q-39 -93 -75 -168q-36 -74 -64 -126t-36 -68l-119 -178z"/>
<glyph glyph-name="l" horiz-adv-x="575" unicode="l" d="M352 800q46 80 96 180t95 206t78 212t42 196q1 30 -1 50t-10 20q-28 0 -62 -38t-68 -101q-34 -64 -64 -149t-54 -181q-24 -95 -38 -197t-14 -198zM351 0q-55 0 -101 48t-80 127t-54 185t-20 222q0 90 13 194t38 215t59 223t78 215t95 193t107 156t117 104t124 38 q43 0 71 -20t44 -51q16 -33 22 -73t7 -82q1 -94 -21 -192t-58 -196t-85 -197q-48 -99 -100 -197q-53 -98 -105 -192t-98 -184q-4 -10 -10 -26t-11 -34t-10 -40q-5 -21 -8 -41v-14q-1 -27 5 -51t14 -44t17 -30q9 -12 17 -12q20 0 44 8t52 22t56 30q29 18 56 36q63 42 132 97 l82 -210q-89 -64 -176 -114q-38 -21 -78 -41t-82 -37q-41 -15 -80 -25t-73 -10z"/>
<glyph glyph-name="m" horiz-adv-x="1312" unicode="m" d="M544 187q0 13 2 37t6 55t9 65t10 69q11 80 27 172h-15q-11 -15 -27 -45t-44 -88t-72 -150t-112 -232q-20 -42 -46 -56t-59 -14q-41 0 -66 18t-39 46q-14 30 -18 68t-4 77q0 41 5 97t13 118t18 126t22 124q12 59 24 108t22 80q10 32 19 51t21 29t27 14q16 4 41 4 q38 0 60 -2t32 -12t12 -28t2 -49q0 -17 -2 -39t-4 -47t-6 -51l-8 -52q-9 -59 -19 -122l11 -12q2 3 22 38l48 84q28 48 61 102t63 95t62 68t77 27q42 0 72 -24t30 -70q0 -39 -5 -74q-4 -35 -12 -68l-16 -64t-15 -65q-5 -23 -6 -29t-1 -8l11 -12q2 4 23 38q22 34 52 83t64 103 t65 95q29 39 58 67t71 28q48 0 80 -24t32 -70q0 -69 -7 -131t-16 -122q-9 -59 -16 -121t-7 -131q0 -54 14 -88t34 -34q21 0 44 9t47 23q24 15 47 33t44 38q49 46 97 104l17 -236q-44 -34 -88 -72t-92 -68t-106 -50t-131 -20q-37 0 -61 24t-39 65q-15 42 -21 99t-7 124 q1 64 5 134t12 142h-15l-203 -517q-26 -43 -58 -57t-74 -14q-32 0 -51 18t-29 44q-10 28 -14 61t-4 64z"/>
<glyph glyph-name="n" horiz-adv-x="927" unicode="n" d="M128 209q0 66 8 152.5t20 176t27 172.5t29 142q11 46 42.5 77t85.5 31t75 -33t21 -88q0 -15 -3 -40.5t-7.5 -56t-9.5 -63t-9.5 -60t-7.5 -48t-3 -27.5h20q6 11 19 35.5t30 56.5t36.5 67.5t36.5 68t31 57.5t21 37q32 54 73 74t91 20t79.5 -42t29.5 -116q0 -11 -4.5 -37 t-11.5 -62t-15.5 -79t-15.5 -88t-11.5 -89t-4.5 -81q0 -62 15.5 -102t48.5 -40q15 0 34.5 9t42 23.5t46 33.5t46.5 39q53 47 111 106l17 -224l-50 -38q-41 -31 -83.5 -62t-88.5 -55.5t-96 -40t-105 -15.5t-92.5 79.5t-37.5 232.5q0 60 8 129.5t20 149.5h-16l-262 -520 q-20 -41 -45 -56t-58 -15q-41 0 -66 17.5t-38.5 47t-18 67t-4.5 77.5z"/>
<glyph glyph-name="o" horiz-adv-x="873" unicode="o" d="M433 192q34 0 66 34.5t56 87t38.5 116t14.5 121.5q0 46 -7 85.5t-21 68.5t-36 46t-53 17q-41 0 -78 -35t-65 -89.5t-44 -120.5t-16 -127q0 -42 8 -79t25 -64.5t45 -44t67 -16.5zM742 749q29 -58 43.5 -122.5t14.5 -123.5t-13 -119t-37.5 -116t-60 -105t-81 -85t-99.5 -57 t-115 -21q-88 0 -150.5 38.5t-102.5 100.5t-58.5 140t-18.5 158q0 110 33 205.5t94.5 166t150.5 111t200 40.5q95 0 178 -29.5t155.5 -79t135 -113.5t116.5 -132l-19 -141q-27 36 -73 78t-97.5 82t-101.5 75.5t-86 59.5z"/>
<glyph glyph-name="p" horiz-adv-x="854" unicode="p" d="M62 -441q0 -8 4 -26t11 -36q8 -18 21 -32t32 -14q17 1 28 19t18 49t10 70t5 80q3 41 3 80t2 70q2 53 4 91t3 63q1 28 2 47q-19 -32 -37 -76t-34 -91t-29 -94t-23 -87t-14 -70q-6 -30 -6 -43zM410 279q60 30 104 67t74 79q32 42 52 87t32 92q4 22 6 52t-6 55q-8 27 -26 45 t-51 18q-37 0 -65 -20t-48 -56q-20 -35 -34 -83t-22 -103q-8 -54 -12 -114t-4 -119zM536 178q101 0 184 20q82 20 150 54t122 80t99 97l11 -229q-32 -40 -78 -76t-99 -64t-113 -44t-118 -16q-8 0 -18 2t-36 7t-74 13t-132 21v-18q0 -183 -30 -331t-82 -253 q-51 -105 -117 -162t-137 -57q-57 0 -95 28q-39 28 -61 76t-32 110q-10 64 -9 135q0 41 13 93t35 108q21 56 49 114t57 114q68 128 155 264q10 78 22 160t30 159t44 146t68 120t99 81q58 30 140 30q61 0 114 -16t93 -54t63 -96t23 -143q0 -67 -20 -131t-62 -122t-108 -108 t-156 -91z"/>
<glyph glyph-name="q" horiz-adv-x="832" unicode="q" d="M544 33q-5 -14 -17 -53l-28 -91q-15 -52 -33 -111t-32 -113t-24 -98t-9 -65q0 -20 10 -33t27 -13q39 0 65 24q27 24 43 62q16 40 23 92t7 110q0 72 -8 148t-24 141zM416 288q2 6 8 28t16 54t21 72t23 81q27 95 60 213q-9 9 -20 16q-8 6 -20 11t-24 5q-54 0 -96 -25 t-70 -63t-44 -84q-14 -45 -14 -84q0 -32 6 -70t24 -70t48 -56q31 -24 82 -28zM384 160q-12 -2 -24 -3t-22 -1q-69 0 -125 30q-57 30 -97 78q-40 50 -62 114t-22 134q0 94 38 176t102 142t144 96q80 34 164 34q76 0 130 -22t90 -57q34 -35 50 -83t16 -100q0 -18 -2 -38 t-8 -36q-8 -24 -19 -60t-23 -78q-12 -40 -23 -80q-12 -40 -21 -74q-9 -32 -15 -53t-6 -23q-1 2 3 -14t10 -42q12 -4 23 -6t19 -2q36 0 82 25t96 61q49 36 95 73q46 38 79 65v-224q-30 -29 -66 -58q-36 -28 -79 -54t-95 -46t-115 -28q15 -78 25 -164t10 -162q0 -96 -20 -173 t-62 -131q-40 -54 -100 -83t-138 -29q-34 0 -68 15t-62 44t-45 71t-17 94q0 60 16 140t40 169t52 183t52 180z"/>
<glyph glyph-name="r" horiz-adv-x="864" unicode="r" d="M128 209q0 45 5 103t13 123t20 133t25 128q13 61 26 112t26 84q8 22 16 35q9 13 19 21t26 10t38 2q26 0 40 -2t22 -12q6 -10 8 -28t2 -49v-89t2 -104h11l45 90t58 92t75 72t97 30q19 0 37 -6q17 -6 31 -19q14 -11 22 -29t8 -40q0 -18 -5 -48t-11 -64t-11 -64 q-5 -32 -5 -53q0 -36 7 -60q7 -25 19 -39t26 -20t30 -6q45 0 93 20t88 45q47 29 92 66l-15 -234q-26 -17 -59 -38t-71 -39t-78 -32q-40 -12 -82 -12q-75 0 -121 30t-73 80t-40 112t-21 124h-16l-179 -499q-14 -39 -26 -65t-26 -41q-13 -17 -28 -23t-33 -6q-41 0 -66 18 t-39 46q-14 30 -18 68t-4 77z"/>
<glyph glyph-name="s" horiz-adv-x="865" unicode="s" d="M224 256q12 0 26.5 -15t33.5 -33t44 -33t57 -15q39 0 64.5 13t40.5 34.5t21 50t6 59.5q0 27 -3.5 55t-9 53.5t-12 48t-11.5 38.5zM96 384q56 48 91 80t60 58.5t45.5 53.5t48.5 64t68 90.5t104 133.5q13 18 29 35t35.5 30.5t43 22t52.5 8.5q48 0 74 -10.5t38 -25.5 t14 -31.5t2 -28.5q0 -24 -19 -53t-42 -56t-43.5 -49.5t-23.5 -33.5q0 -31 4.5 -56.5t12 -50t15.5 -52t15.5 -63.5t12 -83t4.5 -111q36 24 77.5 43.5t86.5 40.5t92.5 46.5t95.5 61.5l1 -224q-62 -48 -143.5 -90t-171 -74t-181 -50.5t-173.5 -18.5q-59 0 -110 11t-89.5 34.5 t-62.5 61.5t-29 92q-14 -3 -27.5 -4t-26.5 -1q-16 0 -30 1t-24 7.5t-16 21t-6 41.5q0 24 12 44.5t28 36.5t32 28t24 19z"/>
<glyph glyph-name="t" horiz-adv-x="801" unicode="t" d="M640 1490q0 10 -2 24t-6 26q-6 12 -16 20t-29 8q-27 0 -53 -46t-50 -118t-46 -157q-22 -86 -40 -167l30 -4t31 -3q31 51 63 111t58 116q26 58 43 108t17 82zM960 224q-96 -56 -171 -98t-133 -70t-104 -42t-83 -14q-76 0 -134 46t-97 132q-38 86 -58 210q-20 123 -20 277 q0 60 5 128t14 135q-31 4 -47 8t-34 6q-18 4 -48 8q-28 4 -82 10q-24 4 -37 12t-19 20t-7 24t-1 21q0 21 20 31t50 15t66 5q12 0 24 1q24 0 46 -1q34 -2 60 -2t37 2q27 136 69 262t92 224q52 98 113 158t128 60q43 0 79 -24t60 -64t38 -94t14 -111q0 -49 -14 -103t-38 -112 q-24 -56 -56 -114t-69 -115q9 -1 30 -1t49 -2q28 0 59 -2q32 -2 62 -3t56 -2t43 -2q20 -1 29 -20t9 -48q0 -35 -20 -57t-44 -22h-384q-28 -40 -58 -78t-55 -70q-4 -62 -7 -122q-1 -26 -2 -54t-2 -54q-2 -27 -2 -52v-46q0 -54 10 -91t29 -61t47 -34t61 -10q21 0 53 10t68 28 q38 18 80 41q42 25 82 53t77 60t67 64v-256z"/>
<glyph glyph-name="u" horiz-adv-x="962" unicode="u" d="M876 895q0 -27 -6 -73.5t-15.5 -102t-20.5 -114.5t-20.5 -110t-15.5 -89.5t-6 -53.5q0 -28 1 -51.5t6 -41t15.5 -27t30.5 -9.5q22 0 53.5 11t67 29.5t72.5 42t70.5 49.5t61 51.5t44.5 47.5q0 -33 0.5 -60t0.5 -51.5t0.5 -50.5t0.5 -58q-22 -22 -54.5 -47t-72 -50t-84 -48 t-89.5 -40.5t-89 -28t-82 -10.5t-65 15t-46.5 42t-33 64.5t-23.5 83.5q-36 -47 -76 -86.5t-81.5 -68.5t-84 -45.5t-82.5 -16.5q-33 0 -62 11t-51.5 37t-35.5 68.5t-13 105.5q0 77 18.5 196t45.5 272q2 15 7.5 40.5t15 55.5t23.5 61t33 56t44.5 41t57.5 17q53 -2 76 -13.5 t23 -28.5q-9 -53 -19.5 -118t-21.5 -131t-21 -128.5t-18 -111.5t-12.5 -79t-4.5 -31q0 -18 3.5 -34.5t10.5 -29.5t18 -21t26 -8q22 0 45 11.5t43.5 33t36.5 53t24 71.5l99 508q5 24 40.5 40.5t80.5 16.5q51 0 81 -18t30 -46z"/>
<glyph glyph-name="v" horiz-adv-x="907" unicode="v" d="M128 324q-3 74 -6 130q-4 56 -6 101t-3 83t-1 78q0 102 10 160t41 63l120 19q5 2 9 2h10q34 0 52 -20t20 -46l-39 -633l14 1l263 627q3 14 13 27q10 12 26 22q15 10 35 16t42 6q58 0 93 -24t35 -60q0 -28 -8 -53t-20 -55q-14 -30 -32 -65q-18 -36 -41 -85q-7 -18 -12 -37 q-5 -17 -9 -39t-3 -44q0 -24 6 -47t21 -41t41 -30q26 -11 67 -11q30 -1 70 15t74 36q41 23 84 52v-235q-66 -42 -136 -67t-135 -25q-55 1 -97 17t-72 44t-46 63t-17 73q-29 -60 -66 -123t-77 -114t-78 -83q-40 -32 -75 -33q-58 -1 -90 29q-31 30 -47 75t-20 98t-8 101z"/>
<glyph glyph-name="w" horiz-adv-x="1301" unicode="w" d="M563 494q-29 -110 -69 -200t-84 -156q-45 -66 -93 -102t-94 -36q-79 0 -115 115t-36 340v57t1 48t3 54q2 28 5 68q1 10 5 34t10 56q8 30 20 64t32 62t46 45q26 18 64 18l24 -2q44 1 68 -17t23 -47l-70 -541l13 1q44 103 76 187t60 151t54 117t55 83t67 49t90 17 q44 1 68 -17t23 -47l-82 -541l14 1l239 534q12 27 52 49t95 22q57 0 92 -24t35 -60q0 -28 -10 -60t-20 -60q-11 -28 -21 -46l-11 -22q-22 -40 -40 -74t-33 -60q-17 -30 -30 -56q14 -39 36 -70q19 -26 47 -48t67 -22q33 0 76 18t81 39q45 25 92 57v-235q-66 -42 -136 -67 t-136 -25q-50 0 -96 12t-80 38q-34 25 -56 67q-20 42 -21 101q-34 -81 -71 -147t-76 -114t-79 -75t-80 -27q-15 0 -25 22t-17 58t-11 84t-8 103q-2 54 -3 111t-1 111z"/>
<glyph glyph-name="x" horiz-adv-x="1025" unicode="x" d="M198 466q0 -28 -1 -56t-1 -52t2 -44t8 -33q6 -14 18 -22t32 -8q10 0 24 13t32 37t39 57q22 33 50 72q-31 72 -61 156t-59 185q-2 6 -2 10q0 18 15 38q14 20 38 37q24 16 52 28t52 12q20 0 34 -7t22 -21q11 -26 35 -84t55 -131q51 53 113 107t137 104q25 17 47 24t40 7 q23 1 41 -9t29 -26q12 -16 18 -37t6 -43q0 -32 -13 -62t-40 -46q-78 -50 -148 -110t-132 -126q22 -44 44 -83t44 -68q20 -29 40 -45t37 -17q21 0 53 11q32 12 68 30t72 42t70 49t62 51t44 48v-60q0 -28 1 -52t1 -50v-58q-33 -34 -85 -74q-51 -40 -115 -76t-136 -60t-144 -24 q-42 0 -104 56t-134 179q-43 -51 -82 -93t-73 -74t-64 -50t-55 -18q-50 0 -82 26t-52 66t-28 88t-10 92z"/>
<glyph glyph-name="y" horiz-adv-x="928" unicode="y" d="M172 -736q42 0 79.5 24.5t69 64.5t57.5 91t46 104.5t34 104.5t22 91q-39 -26 -79.5 -62t-79 -77.5t-73 -85.5t-60.5 -84.5t-41 -75.5t-15 -58q0 -37 40 -37zM640 768q8 34 28.5 60.5t47 44.5t55.5 27t55 9q31 0 52 -13.5t21 -42.5q0 -9 -3 -21q-6 -26 -15 -71t-19.5 -102 t-21.5 -120.5t-21 -126.5q-25 -148 -51 -318q30 17 65 42t78 67t96 105.5t119 158.5l48 -222q-18 -31 -46.5 -63.5t-63 -65t-72 -63t-73.5 -57.5q-85 -64 -183 -124q-19 -107 -45 -208.5t-61.5 -190t-81 -162.5t-103 -127t-128.5 -82.5t-157 -29.5q-34 0 -73.5 7t-73 28 t-55.5 60t-22 104q0 45 23 101.5t63 119t95 130t119.5 134.5t135 132t142.5 124l27 93q-54 -48 -112.5 -77.5t-113.5 -29.5q-48 0 -93.5 19.5t-80.5 56t-56 89t-21 118.5q0 87 8.5 160t24.5 139t40 127.5t55 124.5q23 45 66 68.5t84 23.5q35 0 60 -17.5t25 -54.5 q0 -11 -2.5 -24t-8.5 -28q-18 -46 -35.5 -108.5t-31 -128t-21.5 -128.5t-8 -111q0 -25 3.5 -48.5t12.5 -42t24 -30t38 -11.5q37 0 67 32t52 77t35.5 93t17.5 80z"/>
<glyph glyph-name="z" horiz-adv-x="673" unicode="z" d="M27 187q0 22 8 36.5t21 27.5t30 26.5t35 33.5l311 418q-18 8 -31 15t-23.5 12.5t-21.5 8.5t-24 3q-32 0 -53 -1t-35.5 -7t-26 -18t-25.5 -34q-31 -48 -52 -70.5t-38 -22.5q-16 0 -22.5 14.5t-6.5 38.5q0 10 1 21.5t3 23.5q15 87 43 141t62.5 83.5t72 40t69.5 10.5 q24 0 48 -11.5t47.5 -25.5t48 -25.5t50.5 -12.5q20 -1 36.5 -1h30.5q40 0 64 1.5t36.5 3.5t17.5 3.5t8 1.5q35 0 50.5 -24.5t15.5 -66.5q0 -27 -6 -58q-2 -8 -20 -20.5t-60 -23.5q-12 -22 -40 -62t-64.5 -89t-76 -101t-75 -97.5t-62 -79t-35.5 -45.5l-5 -20q1 0 18 -7 t40 -15.5t48.5 -15.5t44.5 -7q42 0 76.5 12.5t64 31.5t55 40.5t49 40.5t46.5 31.5t48 12.5q19 0 34.5 -9t26 -23t16 -31.5t5.5 -34.5q0 -29 -22 -60.5t-59 -61.5t-86 -57t-102.5 -47.5t-109 -32.5t-104.5 -12q-4 0 -21 4t-45 13.5t-65 24.5t-81 38q-38 -12 -66 -12 q-30 0 -52 10.5t-36.5 28.5t-21.5 41t-7 49z"/>
<glyph glyph-name="braceleft" horiz-adv-x="1153" unicode="{" d="M487 1384q15 97 51 178q36 82 88 140t115 90q64 32 136 32q36 0 87 -2t106 -13q56 -10 110 -29t98 -52q14 -10 20 -26t7 -33q1 -23 -9 -47t-26 -42q-16 -20 -39 -32q-22 -12 -48 -12q-23 0 -57 5t-72 11t-78 11t-76 5q-32 0 -58 -12t-47 -48q-21 -34 -39 -94t-33 -158 q-11 -76 -25 -150t-38 -138t-66 -114q-40 -49 -106 -73q40 -10 67 -33q27 -24 43 -56t22 -72t7 -86q1 -56 -7 -120t-16 -125t-16 -115t-8 -88q0 -42 6 -69t19 -43q11 -16 29 -24q18 -6 41 -6q36 0 68 12q33 12 63 25t60 25t60 12q17 0 34 -6t30 -19t21 -33t8 -47 q0 -15 -3 -33q-4 -34 -34 -62t-73 -48q-43 -22 -94 -37t-99 -25t-87 -15t-59 -5q-61 0 -109 24t-81 68q-32 44 -50 106t-18 137q0 85 16 175t32 178q2 14 4 30t1 33q1 37 -7 71t-26 61t-48 44t-75 17q-41 0 -59 30t-18 73q0 31 9 63t25 60q16 26 38 44t50 18q64 2 104 18 t66 48q25 32 39 80t24 110v208z"/>
<glyph glyph-name="bar" d="M715 1696q3 28 16 56t35 52t54 38t72 14q27 0 45 -14t29 -32t16 -38t5 -33q0 -11 -1 -27t-3 -32l-4 -32t-4 -26q-9 -58 -23 -142t-28 -186q-16 -102 -33 -214t-34 -226t-33 -222q-16 -110 -31 -206q-14 -96 -25 -173t-18 -125q-6 -44 -26 -74t-46 -50t-53 -28t-46 -8 q-23 0 -43 13t-34 35t-22 51t-8 62q0 15 1 32t4 36q5 31 15 98t24 157t31 200q17 109 35 225t38 234q18 118 36 226q18 109 32 201q15 92 27 158z" unicode="|"/>
<glyph glyph-name="braceright" d="M1007 1304q-7 -43 -16 -91t-17 -96t-14 -93t-5 -81q0 -35 8 -61q9 -26 27 -44t50 -28t78 -10q39 -1 57 -34t18 -78q0 -30 -8 -62q-7 -32 -23 -56q-16 -26 -38 -42t-51 -16q-47 0 -81 -16t-58 -40t-36 -54q-14 -30 -18 -56q-11 -63 -20 -120t-19 -120q-16 -98 -52 -180 q-35 -82 -87 -142t-116 -92q-64 -34 -136 -34q-19 0 -55 4t-79 14t-88 24q-46 14 -82 34t-59 46t-23 57q0 39 14 67t36 48q21 18 44 27t40 9q31 0 57 -12q27 -12 53 -25t54 -25t65 -12q32 0 58 14t48 49q21 36 39 98t34 159q11 67 25 137t39 130q26 60 66 103t104 57 q-40 15 -66 40t-43 58t-23 73t-6 84q0 52 7 114t16 122t16 111q7 52 7 87q0 41 -6 68q-6 26 -19 42q-12 16 -30 22t-41 6q-36 0 -78 -5t-80 -11q-40 -6 -76 -11t-59 -5q-21 0 -37 8t-26 22t-16 30q-6 17 -6 36q0 27 13 53t39 43q54 33 114 52t120 29q58 11 110 13t87 2 q61 0 109 -24t82 -66q34 -44 50 -104q18 -60 18 -135q0 -53 -9 -111z" unicode="}"/>
<glyph glyph-name="asciitilde" horiz-adv-x="864" unicode="~" d="M710 1467q12 13 24 30q12 14 24 32t25 38q19 31 49 47t59 16q35 0 59 -19t24 -54q0 -25 -14 -53q-12 -22 -31 -58t-47 -70t-67 -57q-38 -24 -87 -24q-30 0 -54 9t-48 27q-24 17 -50 45t-64 64l-102 101q-12 -15 -24 -31q-11 -14 -24 -32t-25 -37q-19 -31 -49 -47t-59 -16 q-35 0 -59 19t-24 54q0 25 14 53q12 22 31 58t47 70t67 57q38 24 87 24q30 0 54 -9t48 -27q24 -17 50 -45t64 -64z"/>
<glyph glyph-name="exclamdown" horiz-adv-x="1184" unicode="¡" d="M659 1669q1 4 3 19t8 36t15 44q9 22 29 42t50 33t75 13q37 0 67 -10t52 -29q22 -20 33 -51q12 -31 12 -74q-1 -36 -11 -70t-32 -62q-22 -27 -57 -43t-83 -16q-78 0 -120 42t-42 120q0 4 1 6zM833 1342q-10 -102 -30 -212t-46 -220q-25 -110 -55 -216q-30 -107 -59 -205 t-56 -184t-46 -155q-14 -48 -38 -78t-54 -46q-29 -16 -63 -22t-65 -6q-16 0 -30 4t-24 14q-9 10 -15 30q-6 18 -6 47q0 19 2 43t9 54q25 116 65 234t96 253t128 297t159 368q3 10 11 20t20 16t26 10t27 4q19 0 33 -8t13 -27q0 -5 -2 -15z"/>
<glyph glyph-name="cent" horiz-adv-x="896" unicode="¢" d="M320 414q0 -32 6 -68t18 -66q14 -31 38 -54t62 -31q4 61 10 130t12 141l12 144t13 140q-57 -23 -91 -67t-52 -94q-18 -49 -22 -97q-6 -48 -6 -78zM515 1023q1 19 7 39t18 36q11 16 27 27q16 10 37 10q10 -1 18 -9t12 -20q6 -12 8 -26t3 -23q1 -17 -1 -43t-4 -44l-2 -16 q56 -8 102 -28t78 -50t50 -68t18 -79q0 -34 -8 -67q-8 -34 -22 -60q-15 -26 -36 -42t-48 -16q-35 0 -50 14q-14 14 -20 37t-6 49t-6 50q-5 24 -19 44t-47 27q-8 -117 -16 -259t-22 -304q53 16 107 46t92 59q13 7 24 7q13 0 27 -8t24 -22t18 -32q6 -18 6 -34q0 -18 -7 -32 t-23 -25q-38 -33 -84 -63q-39 -26 -91 -52t-111 -41l-16 -135q-5 -22 -12 -36t-15 -22t-17 -9q-9 -2 -18 -2q-6 1 -11 1h-10q-11 0 -19 9t-14 24t-10 35t-3 41q0 19 2 37t4 52q-91 2 -159 36t-114 91t-68 131q-24 74 -24 155q0 54 13 113q13 58 39 116t63 112t87 95 q50 43 110 71t133 36z"/>
<glyph glyph-name="sterling" horiz-adv-x="1505" unicode="£" d="M1264 992q24 0 52 -5t51 -19t39 -37q16 -24 16 -63q0 -19 -6 -37t-24 -32q-18 -15 -49 -23t-80 -8h-251q-6 -54 -14 -115l-16 -122t-18 -117q-8 -56 -14 -100t-11 -70q-4 -27 -3 -29q91 0 158 9q67 10 123 20q57 10 107 19t109 9q25 0 53 -6t50 -20q23 -13 38 -32t15 -44 q0 -21 -7 -44t-23 -42q-17 -19 -41 -33t-59 -17q-43 -4 -113 -14t-155 -22q-84 -10 -175 -18t-174 -9q-62 -1 -102 13t-64 36t-32 52q-10 30 -10 63q0 40 10 81t22 76q4 38 16 98t25 127t25 133t16 118h-116q-35 0 -56 14q-20 14 -32 32t-16 38q-4 18 -3 27q-1 21 5 41 t20 36t40 26t66 10h112q0 136 24 242t66 187q42 80 96 136q56 56 120 91q64 34 133 50t136 16q41 0 85 -6t84 -18q41 -14 77 -37q35 -23 63 -58t44 -83t16 -114q0 -36 -9 -61t-24 -41t-34 -22q-19 -8 -39 -8t-38 6t-34 19q-14 13 -23 29t-9 36q0 40 -12 63t-33 34t-50 14 t-63 3t-71 -6t-73 -26q-36 -18 -67 -51q-32 -33 -56 -86q-25 -53 -39 -129t-14 -180h240z"/>
<glyph glyph-name="currency" horiz-adv-x="1472" unicode="¤" d="M696 645q56 0 102 22q46 21 82 59t61 87q27 49 43 103t24 107q8 54 8 102q0 46 -13 87t-37 71q-24 29 -61 47q-36 18 -81 18q-84 0 -150 -34t-110 -94t-68 -141q-24 -82 -24 -178q0 -59 16 -107t44 -81q30 -33 72 -51t92 -17zM666 452q-77 0 -141 22t-115 61 q-36 -25 -74 -53t-74 -50t-66 -37q-30 -14 -50 -14q-15 1 -30 9q-14 8 -26 21t-19 29t-7 34q0 25 18 49t60 53l152 105q-46 98 -46 220q0 121 37 236t112 206l-95 86q-30 27 -44 49t-15 43q-1 16 9 34t24 33t33 25q18 10 35 10q39 0 89 -44l120 -106q58 31 127 49t150 18 q78 0 143 -20t116 -58q35 24 68 47t62 41t53 28t42 10q16 0 31 -8t27 -22q12 -13 18 -30q7 -17 7 -33q-1 -25 -19 -49t-59 -52l-115 -79q37 -86 37 -191q1 -66 -11 -133t-35 -131t-57 -122t-78 -108l99 -89q57 -52 58 -90q1 -17 -9 -35t-24 -34q-14 -15 -32 -25t-35 -10 q-20 0 -45 14q-26 15 -54 37t-58 50t-62 57q-51 -25 -109 -39t-123 -14z"/>
<glyph glyph-name="yen" horiz-adv-x="1793" unicode="¥" d="M1239 545q19 -1 43 -3t45 -9t35 -19t14 -33q0 -16 -6 -33t-26 -31t-56 -23t-97 -9h-246q-27 -88 -57 -151q-30 -64 -60 -106t-62 -68t-66 -38q-34 -13 -70 -17t-73 -4q-30 0 -56 8q-25 8 -45 22t-31 34t-11 43q0 20 6 39t16 33t22 24q12 9 26 9q21 0 42 -4t41 -14 q13 -8 33 -8q14 0 36 54t47 144h-94q-46 -1 -74 9t-43 24q-16 14 -20 29q-4 16 -4 28q0 11 4 23t20 22q14 10 42 18q28 7 75 7h136l24 96h-155q-48 -1 -77 9t-44 24t-20 29q-5 16 -5 28q0 11 4 23t20 22t45 18q29 7 77 7h149q-15 85 -33 168t-37 157t-41 138t-45 110 q-25 46 -51 72t-56 26q-34 0 -108 -46t-169 -147q-5 3 -20 17q-13 12 -38 36t-67 68q60 72 122 126t122 90t113 56q54 19 98 19q84 1 147 -65q62 -66 110 -178t84 -262q36 -149 66 -317q79 115 152 225t136 208q63 96 113 174t82 127q9 12 23 22t32 17t37 11q20 4 40 4 q21 -1 40 -5t33 -14t24 -28q8 -16 8 -40t-10 -56t-35 -71q-27 -45 -75 -111t-110 -150t-134 -180t-148 -201h118q20 -1 45 -3t47 -9t36 -19t14 -33q0 -16 -6 -33t-27 -31q-20 -14 -58 -23t-101 -9h-174l-35 -96h232z"/>
<glyph glyph-name="brokenbar" horiz-adv-x="1025" unicode="¦" d="M400 608q5 36 18 62t31 44t40 26q22 9 44 9q23 0 45 -10q22 -11 38 -31q18 -20 28 -51t10 -72q0 -13 -1 -25t-3 -26q-17 -116 -27 -196l-18 -144t-17 -124t-22 -134q-5 -32 -16 -52t-26 -30t-32 -13t-33 -3q-12 0 -23 1t-21 1q-23 0 -43 13t-34 35t-22 51t-8 62 q0 15 1 32t4 36q6 41 11 73q4 32 10 62t12 65q6 34 14 80q8 47 17 109q10 62 23 150zM575 1728q17 64 49 95t67 31q21 0 43 -12t38 -36t26 -58q10 -35 10 -80v-22t-2 -24q-4 -17 -9 -52t-11 -81q-6 -45 -14 -99q-6 -54 -13 -108t-13 -104t-11 -90q-5 -38 -17 -66t-28 -46 t-36 -25q-20 -8 -39 -8q-25 -1 -49 11t-43 32t-31 48t-11 63v13t2 15q5 42 12 94t15 108t16 114t18 111q8 52 16 98t15 78z"/>
<glyph glyph-name="section" horiz-adv-x="1440" unicode="§" d="M1006 625q0 42 -36 77t-92 68q-56 32 -124 66t-135 72q-32 -27 -48 -58t-16 -63q-1 -25 17 -47t48 -42t70 -42l84 -42l92 -46q46 -24 89 -54q23 23 37 51t14 60zM1228 625q0 -77 -36 -139t-99 -110q23 -36 37 -80t14 -96q0 -78 -40 -137t-106 -99t-149 -60t-168 -21 q-87 0 -169 21q-82 22 -146 64t-103 106t-39 149q0 45 14 80t37 58q21 23 47 35t48 12q36 0 60 -12t23 -39q0 -23 -9 -55t-9 -78q0 -42 21 -72t56 -51q34 -19 80 -29t95 -10q37 0 73 10t66 28t48 46t18 64q0 46 -24 82t-64 66t-90 58q-50 26 -102 54t-103 58q-49 30 -89 67 t-64 83t-24 104q0 62 36 122t113 107q-37 39 -61 85t-24 101t29 107t87 94t145 67q87 26 203 26q70 -1 140 -25t128 -69q56 -45 92 -107t36 -139q0 -41 -10 -69t-26 -48q-16 -18 -36 -26t-40 -9q-34 -1 -60 21t-26 60q0 16 5 34t5 34q0 38 -20 68t-52 52q-33 20 -76 32 t-89 12q-50 0 -85 -13t-57 -33t-32 -41q-10 -22 -10 -40q0 -29 25 -55t66 -50q41 -26 93 -52q53 -26 107 -57t106 -65t93 -76t66 -92t25 -113z"/>
<glyph glyph-name="dieresis" horiz-adv-x="1025" unicode="¨" d="M431 1306q0 -4 -1 -18.5t-6 -34t-15 -40.5t-28 -39t-45.5 -30t-66.5 -12q-64 0 -102.5 34.5t-38.5 113.5q0 33 9 64.5t28 55.5t49 39t72 15q70 0 107.5 -38t37.5 -110zM898 1306q0 -4 -1 -18.5t-5.5 -34t-14.5 -40.5t-28 -39t-45.5 -30t-67.5 -12q-62 0 -101.5 34.5 t-39.5 113.5q0 33 9 64.5t28.5 55.5t49 39t71.5 15q71 0 108 -38t37 -110z"/>
<glyph glyph-name="copyright" horiz-adv-x="1792" unicode="©" d="M830 323q-80 1 -140 29t-100 76t-61 111q-20 63 -20 133q-1 50 11 105t34 109t56 104q33 50 76 86q43 38 96 60t116 22q50 0 92 -15t72 -42t47 -63t17 -79q0 -32 -9 -63t-25 -56q-16 -24 -41 -40q-24 -16 -53 -16q-39 0 -52 20t-13 54q0 20 3 44t3 41q-1 19 -5 31t-18 12 q-40 0 -69 -20t-49 -49q-20 -30 -31 -66q-12 -37 -18 -71t-8 -62t-2 -41q0 -31 6 -63q5 -32 21 -58t42 -44q26 -16 68 -16q24 0 53 8t59 22q30 13 58 28t49 28q10 5 18 5q13 -1 23 -9t18 -21t14 -29q4 -16 4 -33t-6 -32t-20 -23q-43 -33 -94 -59q-44 -22 -101 -40t-121 -18z M838 192q98 0 182 27t151 74t117 110t85 134q34 71 51 147t17 149q0 91 -27 171t-86 141q-60 61 -152 97t-223 36q-105 0 -195 -26t-164 -72t-130 -106q-56 -61 -94 -131t-58 -146t-20 -151q0 -90 32 -172t100 -145t171 -100t243 -37zM834 32q-184 0 -320 52t-228 139 q-90 87 -134 200t-45 234q-1 95 25 189t76 181t124 163t173 130q98 56 219 88t265 32q113 0 205 -24t163 -64q71 -42 122 -98t83 -124t48 -142t16 -150q0 -96 -24 -192t-70 -186t-114 -168t-155 -136t-195 -90q-108 -34 -234 -34z"/>
<glyph glyph-name="ordfeminine" horiz-adv-x="928" unicode="ª" d="M285 1084q0 -22 3 -42q2 -20 10 -37q8 -16 22 -26t33 -10q21 0 40 13t35 34q16 22 28 48t22 53q9 27 15 53t8 43l53 254q-54 -1 -102 -39t-86 -96t-59 -124q-22 -67 -22 -124zM1024 1016q-20 -28 -53 -66t-75 -70q-42 -34 -89 -58t-95 -23q-57 0 -95 37t-66 107 q-21 -24 -51 -49q-30 -26 -66 -46t-75 -33t-78 -13q-42 0 -81 16t-69 48q-31 32 -49 78t-18 103q0 65 18 133t50 134q32 64 76 122t96 102t108 68q58 26 118 26q18 0 30 -8t20 -17q8 -10 14 -20q7 -10 18 -14q14 -6 30 -6q16 1 32 1h30t26 -8t19 -25t7 -48q0 -43 -8 -93 t-20 -103q-10 -53 -18 -107t-9 -100q0 -41 7 -64t31 -23q18 0 38 9q21 10 41 24t40 33t39 39q43 46 86 105z"/>
<glyph glyph-name="guillemotleft" horiz-adv-x="1440" unicode="«" d="M1214 87q-77 45 -131 85q-53 40 -95 76t-76 70t-68 67q-40 38 -58 75t-18 73q0 34 14 67q14 34 40 64t61 59t75 55q3 2 26 18t55 39t69 49t69 50q32 22 54 38t25 16q14 6 28 8t25 3q25 0 45 -8q20 -9 35 -23t23 -32t9 -40q0 -32 -25 -60t-74 -63l-326 -229l269 -231 q11 -11 33 -25t42 -33t35 -43t15 -54q0 -13 -8 -28q-8 -16 -22 -28t-36 -20q-20 -8 -46 -9q-30 0 -64 14zM638 87q-77 45 -131 85q-53 40 -95 76t-76 70t-68 67q-40 38 -58 75t-18 73q0 34 14 67q14 34 40 64t61 59t75 55q3 2 26 18t55 39t69 49t69 50q32 22 54 38t25 16 q14 6 28 8t25 3q25 0 45 -8q20 -9 35 -23t23 -32t9 -40q0 -32 -25 -60t-74 -63l-326 -229l269 -231q11 -11 33 -25t42 -33t35 -43t15 -54q0 -13 -8 -28q-8 -16 -22 -28t-36 -20q-20 -8 -46 -9q-30 0 -64 14z"/>
<glyph glyph-name="logicalnot" horiz-adv-x="1216" unicode="¬" d="M1015 353q-1 -33 -11 -58t-24 -41t-33 -26q-18 -8 -36 -8q-17 0 -33 7t-28 21t-20 37q-8 22 -8 51v6t1 7l13 227h-543q-31 0 -54 8t-39 20t-22 28q-8 16 -8 34t9 36t26 34q17 14 43 23t61 9h631q50 0 72 -23t23 -54v-6z"/>
<glyph glyph-name="registered" horiz-adv-x="1760" unicode="®" d="M897 1143q-9 -41 -18 -81q-8 -36 -17 -74t-17 -69q22 -3 44 -3q49 0 89 12t68 30t42 42q15 22 15 44q0 40 -35 70t-110 29h-61zM423 500q10 -7 22 -10t23 -3q24 -1 44 21t37 56t31 75t26 80q10 39 17 70t10 46q-29 17 -42 31t-13 32q0 4 2 11l4 14q4 7 10 12t13 5 q3 0 11 -2t18 -2q8 -2 16 -3t10 -1l3 10q4 17 12 48q7 31 19 67q12 35 26 73t32 68t38 50t41 19q37 3 70 6q29 2 59 4t53 2q67 -1 117 -19t84 -50t50 -72t16 -84q0 -42 -20 -84t-58 -76t-94 -58q-56 -23 -132 -27q34 -15 52 -41t24 -56q8 -30 8 -63q0 -32 1 -58q1 -27 7 -43 t23 -16q16 0 36 7t42 19t44 30t42 39l39 -113q-2 1 -26 -19q-26 -20 -66 -44q-42 -24 -94 -44t-106 -20q-46 1 -70 31t-34 76t-12 100t-5 99q-3 47 -12 77t-34 30h-30q-28 -101 -57 -181t-63 -135q-33 -55 -75 -84t-95 -29q-26 0 -58 4t-55 21zM850 202q106 0 194 30t159 84 t125 125t89 152q36 81 54 167t18 170q0 94 -26 178t-82 148t-144 100q-88 38 -211 38q-124 0 -230 -28t-192 -77t-153 -115t-111 -141q-44 -76 -67 -158t-23 -163q0 -100 36 -192t110 -164q74 -70 187 -112t267 -42zM855 38q-198 0 -345 58q-146 58 -244 156t-146 224 t-49 260q1 100 27 200t78 190q52 91 130 170t182 137t232 91t281 33q121 -1 219 -25t174 -68t130 -104t90 -130q36 -72 52 -150t16 -159q0 -105 -25 -211t-73 -204t-119 -184t-163 -148q-92 -64 -204 -100t-243 -36zM1296 514v0v0z"/>
<glyph glyph-name="degree" horiz-adv-x="737" unicode="°" d="M413 1489q-50 0 -87 -16q-37 -17 -62 -41t-37 -55t-12 -61q0 -23 7 -43q6 -20 20 -36t34 -25t48 -9q44 -1 78 17t58 45t36 59t13 64q1 41 -23 71t-73 30zM64 1317q0 77 36 136t93 99q56 40 122 60t125 20q42 0 84 -14t74 -42q34 -28 54 -72q20 -43 20 -101 q0 -89 -32 -154t-84 -109q-50 -44 -112 -64q-62 -21 -120 -21q-42 -1 -88 13t-84 44t-63 81q-25 50 -25 124z"/>
<glyph glyph-name="plusminus" horiz-adv-x="1503" unicode="±" d="M673 612h-224q-32 0 -56.5 8t-40.5 21.5t-24 30.5t-8 35t8.5 35.5t25 31t41.5 22t58 8.5h220v228q0 28 9.5 50t25.5 37.5t35 23.5t39 8q32 0 57.5 -24t25.5 -76v-247h250q52 0 76 -25.5t24 -57.5q0 -20 -8 -39t-23.5 -35t-37.5 -25.5t-50 -9.5h-231v-223q0 -33 -8.5 -58 t-22 -41.5t-31 -25t-35.5 -8.5t-35 8t-30.5 24t-21.5 40.5t-8 56.5v227zM1000 194q13 0 30 -3t31 -11.5t24 -23t10 -38.5q0 -20 -4.5 -40.5t-18 -37t-38.5 -27.5t-67 -11h-415q-32 0 -51 11.5t-29.5 28t-13.5 35.5t-3 34q0 13 3 27.5t13 27t29.5 20.5t51.5 8h448z"/>
<glyph glyph-name="twosuperior" horiz-adv-x="992" unicode="²" d="M263 774q38 0 91 39q-21 11 -40 18t-35 7q-38 0 -55 -7t-17 -18q-1 -15 17 -27t39 -12zM765 609q-59 0 -119 28t-118 65q-55 -40 -118 -64t-134 -29q-50 0 -94 15t-76 40q-32 26 -50 58t-19 67q1 30 11 63q10 32 32 60t56 46t84 18q76 0 134 -16t107 -40q45 60 77 131 t32 140q0 54 -12 88t-30 53q-18 20 -40 26t-43 6q-25 0 -47 -7t-38 -19t-27 -31q-10 -18 -10 -39q0 -15 20 -31t66 -35l2 -4t1 -3q0 -10 -24 -22t-58 -22q-36 -10 -78 -17t-77 -7q-6 8 -13 9t-12 1q-36 29 -54 63t-18 71q0 48 30 95q30 46 82 84t123 62q70 24 151 23 q20 0 56 -4q36 -5 77 -17t83 -34t76 -60q34 -36 56 -89t22 -125q0 -34 -12 -80t-34 -97t-56 -105q-33 -54 -75 -103q31 -13 65 -19t74 -6q12 0 26 14t29 28q14 16 26 30t18 13q29 0 41 -5t11 -22q0 -14 -6 -40t-14 -66q-5 -24 -15 -48t-29 -44t-48 -34t-70 -13z"/>
<glyph glyph-name="threesuperior" horiz-adv-x="768" unicode="³" d="M221 937q-1 -43 21 -61t51 -19q21 0 43 8t38 23q18 16 29 36t11 44q0 46 -11 77t-34 51t-57 30t-82 15q-26 2 -37 11t-11 22q0 12 2 26t10 24q6 12 16 20t25 7q29 0 53 11q24 12 40 28t26 36q9 20 9 40q0 32 -15 54t-47 22q-29 0 -49 -14t-19 -32q0 -7 6 -14t13 -14 q7 -6 13 -12t6 -10q1 -6 -11 -12t-27 -10t-29 -8q-14 -3 -18 -3q-9 0 -19 4q-9 5 -17 15t-13 28t-5 45q0 43 20 73t54 50t76 30q43 10 89 9q47 0 93 -12q46 -11 80 -35q36 -24 58 -58t22 -77q0 -20 -6 -44q-6 -23 -26 -47q-18 -24 -51 -46t-87 -36q58 -12 98 -38t66 -59 q26 -34 38 -74t12 -82t-24 -84q-24 -41 -66 -75t-102 -55q-59 -21 -129 -21q-75 0 -129 16t-86 46q-34 30 -50 71t-16 91q0 30 9 50t25 34q16 12 35 18q20 6 42 5q19 -1 42 -5t43 -11t34 -16t13 -17q0 -6 -14 -10q-15 -4 -31 -12q-16 -6 -30 -17t-13 -30z"/>
<glyph glyph-name="acute" horiz-adv-x="609" unicode="´" d="M112 1203q6 13 17 39.5t25.5 60t31 72.5t33.5 77q39 90 85 194q13 34 39.5 49t55.5 15q26 0 52 -10t46.5 -28t33.5 -43t13 -55q0 -47 -37 -97q-19 -26 -43.5 -57.5t-51 -66t-54 -68.5t-52.5 -64.5t-45.5 -55.5t-32.5 -40q-17 -20 -34 -28.5t-34 -8.5q-24 0 -41 18.5 t-17 48.5q0 11 2.5 23t7.5 25z"/>
<glyph glyph-name="mu" horiz-adv-x="962" unicode="µ" d="M876 895q0 -27 -6 -73t-16 -102t-20 -115t-20 -110t-16 -89t-6 -54q0 -28 1 -52t6 -40q5 -18 15 -28t31 -9q21 0 53 11q32 12 68 30t72 42t70 49t62 51t44 48v-60q0 -28 1 -52t1 -50v-58q-22 -22 -54 -47t-72 -50t-84 -48t-90 -41q-45 -18 -89 -28t-82 -10t-65 15 q-26 15 -46 42t-34 65t-23 83q-49 -71 -109 -113t-118 -42q-30 0 -57 12q-9 -82 -17 -144t-23 -102q-17 -42 -45 -62t-80 -20t-74 32t-22 96q0 48 8 127t22 173t30 194t32 192t32 167q15 75 25 117q8 32 15 54t22 36q14 14 42 20t76 7q49 -3 74 -13t25 -26v-3 q-9 -53 -19 -118t-22 -131q-11 -66 -21 -128t-18 -112q-9 -49 -13 -79t-4 -31q0 -18 4 -34t10 -30q7 -13 18 -21t26 -8q22 -1 45 11t43 34t37 52q16 32 24 72l99 508q4 24 40 40t81 17q51 0 81 -18t30 -46z"/>
<glyph glyph-name="paragraph" horiz-adv-x="1308" unicode="¶" d="M914 127q20 110 36 220q16 109 31 213t29 198t29 173q-35 -3 -81 -7t-88 -10q-29 -156 -57 -310q-12 -66 -25 -138q-12 -72 -26 -142q-14 -72 -26 -140t-24 -129q-6 -15 -18 -27t-28 -20t-37 -12q-20 -4 -40 -4q-23 0 -45 6t-40 16q-18 12 -28 28t-11 39q0 15 6 33 q1 10 7 50t16 100q9 60 20 132t22 145q26 172 59 385q-135 0 -229 33t-154 86t-88 119t-28 131q0 61 28 117t78 106t122 91q70 41 155 71t181 46t200 17q118 1 198 -7t129 -17q57 -11 90 -23q37 -15 67 -40q25 -21 46 -55t21 -82q0 -22 -6 -47q-7 -32 -19 -98t-28 -156 t-34 -198q-18 -106 -36 -216t-38 -218t-36 -199t-30 -159t-23 -102q-9 -32 -25 -56t-38 -40q-20 -16 -42 -22q-22 -8 -45 -8q-41 0 -71 24t-30 71q0 17 4 32z"/>
<glyph glyph-name="periodcentered" horiz-adv-x="704" unicode="·" d="M672 191q0 -4 -1 -20t-7 -37q-6 -20 -16 -44q-12 -24 -33 -44t-53 -33t-78 -13q-37 0 -67 10q-29 10 -51 28q-22 20 -34 50t-12 74q0 36 10 70t33 62q22 27 57 43t83 16q83 0 126 -42t43 -120z"/>
<glyph glyph-name="cedilla" horiz-adv-x="1184" unicode="¸" d="M684 46q-10 -103 -16 -165.5t-10 -98t-6.5 -51.5t-4.5 -26.5t-4.5 -23t-6.5 -41.5q-5 -37 -21.5 -65t-39 -47t-49.5 -29t-53 -10q-22 0 -42 7t-35.5 22t-24.5 37.5t-9 52.5q0 42 17 87.5t46 98.5t68 115t83 137q8 20 26 35t38 15q19 0 32.5 -8t13.5 -27q0 -5 -2 -15z"/>
<glyph glyph-name="onesuperior" horiz-adv-x="704" unicode="¹" d="M153 1350h2q-11 -3 -19 -3q-16 0 -30 8q-14 7 -26 21t-18 30t-7 34q-1 28 13 42t53 28q39 13 109 30t181 50q17 6 37 8t38 2q22 0 44 -6t40 -20q18 -12 28 -32t10 -45q0 -1 -4 -29t-16 -100q-12 -71 -36 -193q-23 -122 -60 -310l-2 -6q-4 -14 -10 -40q-6 -25 -20 -51 t-38 -45t-61 -19q-53 0 -86 22t-33 74q0 8 2 17t3 20h-1q20 97 41 197t38 184q20 97 40 188z"/>
<glyph glyph-name="ordmasculine" horiz-adv-x="799" unicode="º" d="M383 967q29 -1 57 29t48 76t34 100q12 55 12 105q0 40 -6 74q-6 33 -18 59t-31 40t-46 15q-35 -1 -67 -31t-56 -77t-38 -104t-14 -110q0 -36 6 -68t22 -56q15 -24 39 -38t58 -14zM483 1631q61 0 107 -27q46 -26 74 -72q30 -46 44 -106t15 -125q-1 -87 -25 -176t-70 -161 t-116 -118q-69 -46 -157 -45q-76 0 -130 33q-55 33 -89 87q-34 53 -50 121t-16 137q0 95 34 177t90 144q57 61 132 96t157 35z"/>
<glyph glyph-name="guillemotright" horiz-adv-x="1440" unicode="»" d="M399 87q-34 -14 -64 -14q-27 1 -47 9t-34 20t-23 28q-8 15 -8 28q0 30 15 54t35 43q19 19 41 33t34 25l269 231l-326 229q-49 35 -74 63t-25 60q0 22 8 40t24 32t36 23q20 8 44 8q12 -1 26 -3t27 -8q3 0 25 -16t54 -38t69 -50q37 -26 69 -49t54 -39t27 -18q40 -26 75 -55 q34 -29 60 -59t40 -64q14 -33 15 -67q0 -36 -18 -73t-58 -75q-35 -33 -69 -67t-74 -70q-42 -36 -96 -76t-131 -85zM975 87q-34 -14 -64 -14q-27 1 -47 9t-34 20t-23 28q-8 15 -8 28q0 30 15 54t35 43q19 19 41 33t34 25l269 231l-326 229q-49 35 -74 63t-25 60q0 22 8 40 t24 32t36 23q20 8 44 8q12 -1 26 -3t27 -8q3 0 25 -16t54 -38t69 -50q37 -26 69 -49t54 -39t27 -18q40 -26 75 -55q34 -29 60 -59t40 -64q14 -33 15 -67q0 -36 -18 -73t-58 -75q-35 -33 -69 -67t-74 -70q-42 -36 -96 -76t-131 -85z"/>
<glyph glyph-name="onequarter" horiz-adv-x="1759" unicode="¼" d="M153 1350h2q-11 -3 -19 -3q-16 0 -30 8q-14 7 -26 21t-18 30t-7 34q-1 28 13 42t53 28q39 13 109 30t181 50q17 6 37 8t38 2q22 0 44 -6t40 -20q18 -12 28 -32t10 -45q0 -1 -4 -29t-16 -100q-12 -71 -36 -193q-23 -122 -60 -310l-2 -6q-4 -14 -10 -40q-6 -25 -20 -51 t-38 -45t-61 -19q-53 0 -86 22t-33 74q0 8 2 17t3 20h-1q20 97 41 197t38 184q20 97 40 188zM1554 -39q-40 0 -81 -3t-79 -3q-30 0 -52 4q-22 3 -38 15t-23 32q-8 20 -8 52q0 36 9 82t23 97q-57 1 -105 -11t-92 -26q-42 -14 -80 -24q-38 -11 -76 -11q-17 -1 -24 11t-7 29 q0 23 15 54t38 66q20 49 36 91t29 82t25 79q12 40 22 85t21 97t24 116q5 14 22 24q17 11 41 17t52 9t57 3q23 0 44 -2t37 -6t24 -9q9 -5 9 -12q-10 -67 -29 -135q-18 -68 -44 -137t-57 -139t-65 -144q34 -2 58 -2h44h12q20 58 38 112l34 102q6 24 21 40t35 26t40 16 q20 4 37 4q44 0 59 -13t15 -36q0 -14 -6 -38q-6 -25 -16 -55t-23 -66l-26 -72q46 8 83 14t63 7q12 0 17 -10t5 -26q0 -38 -7 -61t-16 -36t-19 -17t-13 -4q-35 -1 -73 1t-81 4q-16 -61 -20 -107v-17q-1 -16 13 -36t30 -40t28 -37q14 -17 14 -27q0 -5 -2 -7t-12 -2zM992 1408 q8 14 22 26t33 20q18 8 38 13t38 5q31 0 55 -16t24 -54q0 -20 -8 -50t-30 -64q-44 -76 -100 -178t-128 -228q-71 -126 -157 -274t-189 -314q-20 -33 -48 -48t-54 -15q-36 0 -62 24t-26 68q0 21 7 45t24 52q13 20 37 64t58 104t74 132t84 150q43 77 87 155q45 78 85 149 q40 72 75 132t61 102z"/>
<glyph glyph-name="onehalf" horiz-adv-x="1729" unicode="½" d="M1059 166q38 0 91 39q-21 11 -40 18t-35 7q-38 0 -55 -7t-17 -18q-1 -15 17 -27t39 -12zM153 1416h2q-11 -3 -19 -3q-16 0 -30 8q-14 7 -26 21t-18 30t-7 34q-1 28 13 42t53 28q39 13 109 30t181 50q17 6 37 8t38 2q22 0 44 -6t40 -20q18 -12 28 -32t10 -45q0 -1 -4 -29 t-16 -100q-12 -71 -36 -193q-23 -122 -60 -310l-2 -6q-4 -14 -10 -40q-6 -25 -20 -51t-38 -45t-61 -19q-53 0 -86 22t-33 74q0 8 2 17t3 20h-1q20 97 41 197t38 184q20 97 40 188zM941 1408q9 14 23 26t32 20t38 13t38 5q32 0 56 -16t23 -54q-1 -20 -9 -50t-29 -64 q-45 -76 -101 -178t-127 -228t-157 -274t-189 -314q-20 -33 -48 -48t-54 -15q-35 0 -61 24t-27 68q0 21 7 45t24 52q12 20 36 64t59 104t75 132t83 150q43 77 87 155t84 149q40 72 76 132q35 60 61 102zM1561 1q-59 0 -119 28t-118 65q-55 -40 -118 -64t-134 -29 q-50 0 -94 15t-76 40q-32 26 -50 58t-19 67q1 30 11 63q10 32 32 60t56 46t84 18q76 0 134 -16t107 -40q45 60 77 131t32 140q0 54 -12 88t-30 53q-18 20 -40 26t-43 6q-25 0 -47 -7t-38 -19t-27 -31q-10 -18 -10 -39q0 -15 20 -31t66 -35l2 -4t1 -3q0 -10 -24 -22t-58 -22 q-36 -10 -78 -17t-77 -7q-6 8 -13 9t-12 1q-36 29 -54 63t-18 71q0 48 30 95q30 46 82 84t123 62q70 24 151 23q20 0 56 -4q36 -5 77 -17t83 -34t76 -60q34 -36 56 -89t22 -125q0 -34 -12 -80t-34 -97t-56 -105q-33 -54 -75 -103q31 -13 65 -19t74 -6q12 0 26 14t29 28 q14 16 26 30t18 13q29 0 41 -5t11 -22q0 -14 -6 -40t-14 -66q-5 -24 -15 -48t-29 -44t-48 -34t-70 -13z"/>
<glyph glyph-name="threequarters" horiz-adv-x="1793" unicode="¾" d="M1569 -38q-43 0 -87 -4t-86 -3q-32 1 -56 5t-41 17t-25 35t-9 59q0 40 10 92t25 110q-62 -1 -114 -13t-98 -28t-88 -28t-81 -12q-18 0 -26 13t-8 32q0 26 16 61t42 74q21 54 39 102t31 92q14 44 26 90q11 46 23 96t24 108t26 132q6 16 24 27t45 19t57 10q30 4 60 4 q26 0 48 -2t38 -7t27 -11q10 -6 10 -13q-11 -77 -31 -153t-48 -153t-62 -157t-70 -162q38 -2 64 -2t47 -1h13q20 65 40 127t37 115q7 27 23 45t37 30t43 16q22 6 41 6q47 0 63 -15t17 -41q-1 -16 -7 -43t-17 -61t-25 -74t-28 -82q50 8 90 16t68 7q12 0 18 -11t6 -29 q0 -43 -8 -69t-17 -40q-10 -14 -20 -20q-10 -4 -15 -4q-38 0 -80 2t-86 3q-8 -33 -14 -63t-8 -57v-19q0 -18 14 -41t32 -45t32 -42q14 -19 14 -30q0 -6 -2 -8t-13 -2zM190 1063q0 -43 22 -61t50 -19q20 0 42 8t40 23q18 16 28 36q11 20 11 44q0 46 -11 77t-34 51 q-24 20 -58 30t-81 15q-26 2 -37 11t-11 22q1 12 3 26t8 24q6 12 17 20q10 8 25 7q30 0 54 11q24 12 40 28t25 36t9 40q0 32 -15 54t-47 22q-28 0 -48 -14t-20 -32q0 -7 6 -14t13 -14q7 -6 13 -12t6 -10q0 -6 -12 -12t-26 -10q-15 -4 -29 -8q-14 -3 -18 -3q-9 0 -19 4 q-10 5 -18 15t-12 28q-5 18 -5 45q0 43 20 73q19 30 53 50t77 30t89 9q46 0 92 -12q46 -11 82 -35t57 -58q22 -34 22 -77q-1 -20 -7 -44q-6 -23 -24 -47t-52 -46q-33 -22 -87 -36q57 -12 97 -38t67 -59q26 -34 38 -74t12 -82t-24 -84q-25 -41 -67 -75t-101 -55t-129 -21 q-74 0 -128 16t-88 46t-49 71q-16 41 -16 91q0 30 9 50q8 20 24 34q16 12 36 18t42 5q19 -1 42 -5t43 -11q19 -7 33 -16t14 -17q0 -6 -14 -10t-30 -12q-16 -6 -30 -17t-14 -30zM991 1408q9 14 23 26t32 20t38 13t38 5q32 0 56 -16t23 -54q-1 -20 -9 -50t-29 -64 q-45 -76 -101 -178t-127 -228t-157 -274t-189 -314q-20 -33 -48 -48t-54 -15q-35 0 -61 24t-27 68q0 21 7 45t24 52q12 20 36 64t59 104t75 132t83 150q43 77 87 155t84 149q40 72 76 132q35 60 61 102z"/>
<glyph glyph-name="questiondown" horiz-adv-x="1292" unicode="¿" d="M809 1411q0 4 1 20q0 16 6 37q6 20 18 44t32 44q21 20 53 33t78 13q37 0 67 -10t52 -28q22 -20 33 -50q12 -30 12 -74q-1 -36 -11 -70t-32 -62q-22 -27 -57 -43t-83 -16q-83 0 -126 42t-43 120zM844 1018q14 48 42 73t61 25q35 0 61 -15t27 -49q0 -68 -17 -122t-45 -98 q-27 -44 -63 -81t-74 -71t-72 -68q-36 -34 -64 -72t-45 -82t-17 -101q0 -47 10 -79t28 -51t42 -27t53 -8q28 0 58 10q31 10 59 28q28 16 52 38t41 44q14 19 32 27t35 8q19 0 37 -9q17 -9 31 -25q14 -17 22 -37t8 -44q0 -11 -4 -23t-11 -23q-30 -45 -71 -80q-40 -34 -88 -58 t-100 -36t-100 -12q-61 0 -128 20q-66 20 -122 60q-56 42 -92 106t-36 152q0 106 25 181t65 131t91 98l100 84q51 40 95 84t74 102z"/>
<glyph glyph-name="Agrave" horiz-adv-x="1632" unicode="À" d="M1399 1517q-35 10 -72.5 14.5t-72.5 4.5q-81 0 -160 -31t-153.5 -84.5t-142 -126t-126 -156t-105.5 -173.5t-81 -179.5t-52 -174t-18 -155.5q0 -141 56.5 -218.5t175.5 -77.5q74 0 140.5 31t123.5 81.5t104.5 114t83 128.5t58.5 125.5t33 104.5zM1872 224 q-21 -22 -53.5 -50t-73 -56.5t-87.5 -55.5t-96 -48t-98.5 -33.5t-95.5 -12.5q-32 0 -64.5 11t-59 40.5t-43.5 81.5t-17 135q0 35 5 75.5t13 87.5q-56 -113 -126.5 -199.5t-150 -145t-164.5 -88.5t-170 -30q-93 0 -176.5 32.5t-147.5 97t-101.5 160.5t-37.5 224 q0 97 22.5 203t65.5 214t104 214t139 201.5t170.5 177t197.5 141t221 93.5t241 34q34 0 54.5 -5.5t31 -14t13.5 -17.5t3 -16q0 -5 -0.5 -9t-0.5 -6v-5q27 -16 55 -19.5t55 -6t51 -10.5t42 -31.5t28.5 -68.5t10.5 -122q0 -60 -11.5 -135t-30.5 -157t-42.5 -166t-47 -163 t-45.5 -149t-37 -122q-3 -44 -5 -82t-2 -79q0 -32 1.5 -52.5t5.5 -32.5t11 -16.5t18 -4.5q20 0 50.5 10.5t65 27t72 37t72 41t64.5 37.5t50 28zM1287 2065q5 -13 7.5 -25t2.5 -23q0 -30 -17 -48.5t-41 -18.5q-17 0 -34.5 8.5t-33.5 28.5q-13 15 -33 40t-45 55.5t-52.5 64.5 t-54 68.5t-51 66t-43.5 57.5q-37 52 -37 97q0 30 13 55t33.5 43t46.5 28t52 10q29 0 55.5 -15t39.5 -49q46 -104 85 -194q16 -38 33 -77t31.5 -72.5t25.5 -60t17 -39.5z"/>
<glyph glyph-name="Aacute" horiz-adv-x="1632" unicode="Á" d="M1399 1517q-35 10 -72.5 14.5t-72.5 4.5q-81 0 -160 -31t-153.5 -84.5t-142 -126t-126 -156t-105.5 -173.5t-81 -179.5t-52 -174t-18 -155.5q0 -141 56.5 -218.5t175.5 -77.5q74 0 140.5 31t123.5 81.5t104.5 114t83 128.5t58.5 125.5t33 104.5zM1872 224 q-21 -22 -53.5 -50t-73 -56.5t-87.5 -55.5t-96 -48t-98.5 -33.5t-95.5 -12.5q-32 0 -64.5 11t-59 40.5t-43.5 81.5t-17 135q0 35 5 75.5t13 87.5q-56 -113 -126.5 -199.5t-150 -145t-164.5 -88.5t-170 -30q-93 0 -176.5 32.5t-147.5 97t-101.5 160.5t-37.5 224 q0 97 22.5 203t65.5 214t104 214t139 201.5t170.5 177t197.5 141t221 93.5t241 34q34 0 54.5 -5.5t31 -14t13.5 -17.5t3 -16q0 -5 -0.5 -9t-0.5 -6v-5q27 -16 55 -19.5t55 -6t51 -10.5t42 -31.5t28.5 -68.5t10.5 -122q0 -60 -11.5 -135t-30.5 -157t-42.5 -166t-47 -163 t-45.5 -149t-37 -122q-3 -44 -5 -82t-2 -79q0 -32 1.5 -52.5t5.5 -32.5t11 -16.5t18 -4.5q20 0 50.5 10.5t65 27t72 37t72 41t64.5 37.5t50 28zM1260 2065q6 13 17 39.5t25.5 60t31 72.5t33.5 77q39 90 85 194q13 34 39.5 49t55.5 15q26 0 52 -10t46.5 -28t33.5 -43t13 -55 q0 -47 -37 -97q-19 -26 -43.5 -57.5t-51 -66t-54 -68.5t-52.5 -64.5t-45.5 -55.5t-32.5 -40q-17 -20 -34 -28.5t-34 -8.5q-24 0 -41 18.5t-17 48.5q0 11 2.5 23t7.5 25z"/>
<glyph glyph-name="Acircumflex" horiz-adv-x="1632" unicode="Â" d="M1399 1517q-35 10 -72.5 14.5t-72.5 4.5q-81 0 -160 -31t-153.5 -84.5t-142 -126t-126 -156t-105.5 -173.5t-81 -179.5t-52 -174t-18 -155.5q0 -141 56.5 -218.5t175.5 -77.5q74 0 140.5 31t123.5 81.5t104.5 114t83 128.5t58.5 125.5t33 104.5zM1872 224 q-21 -22 -53.5 -50t-73 -56.5t-87.5 -55.5t-96 -48t-98.5 -33.5t-95.5 -12.5q-32 0 -64.5 11t-59 40.5t-43.5 81.5t-17 135q0 35 5 75.5t13 87.5q-56 -113 -126.5 -199.5t-150 -145t-164.5 -88.5t-170 -30q-93 0 -176.5 32.5t-147.5 97t-101.5 160.5t-37.5 224 q0 97 22.5 203t65.5 214t104 214t139 201.5t170.5 177t197.5 141t221 93.5t241 34q34 0 54.5 -5.5t31 -14t13.5 -17.5t3 -16q0 -5 -0.5 -9t-0.5 -6v-5q27 -16 55 -19.5t55 -6t51 -10.5t42 -31.5t28.5 -68.5t10.5 -122q0 -60 -11.5 -135t-30.5 -157t-42.5 -166t-47 -163 t-45.5 -149t-37 -122q-3 -44 -5 -82t-2 -79q0 -32 1.5 -52.5t5.5 -32.5t11 -16.5t18 -4.5q20 0 50.5 10.5t65 27t72 37t72 41t64.5 37.5t50 28zM1382 2419q-31 -81 -59 -154q-12 -31 -24.5 -63.5t-24 -62.5t-22 -56t-17.5 -44q-18 -47 -37.5 -73t-40 -38t-41.5 -14.5 t-42 -2.5q-11 0 -23 6.5t-22 18.5t-17 28.5t-7 37.5q0 19 8 38l164 329q27 52 48.5 92t44.5 67t53 41t75 14q44 0 74 -16.5t51 -48.5t36.5 -78.5t30.5 -106.5q11 -34 18 -55t12 -37t9.5 -30t10.5 -34t15 -48.5t23 -73.5q5 -18 5 -35q0 -47 -29 -80t-86 -33q-19 0 -36.5 6 t-32.5 21t-26.5 40.5t-17.5 64.5q-17 103 -31 175t-23 118q-11 54 -19 87z"/>
<glyph glyph-name="Atilde" horiz-adv-x="1632" unicode="Ã" d="M1399 1517q-35 10 -72.5 14.5t-72.5 4.5q-81 0 -160 -31t-153.5 -84.5t-142 -126t-126 -156t-105.5 -173.5t-81 -179.5t-52 -174t-18 -155.5q0 -141 56.5 -218.5t175.5 -77.5q74 0 140.5 31t123.5 81.5t104.5 114t83 128.5t58.5 125.5t33 104.5zM1872 224 q-21 -22 -53.5 -50t-73 -56.5t-87.5 -55.5t-96 -48t-98.5 -33.5t-95.5 -12.5q-32 0 -64.5 11t-59 40.5t-43.5 81.5t-17 135q0 35 5 75.5t13 87.5q-56 -113 -126.5 -199.5t-150 -145t-164.5 -88.5t-170 -30q-93 0 -176.5 32.5t-147.5 97t-101.5 160.5t-37.5 224 q0 97 22.5 203t65.5 214t104 214t139 201.5t170.5 177t197.5 141t221 93.5t241 34q34 0 54.5 -5.5t31 -14t13.5 -17.5t3 -16q0 -5 -0.5 -9t-0.5 -6v-5q27 -16 55 -19.5t55 -6t51 -10.5t42 -31.5t28.5 -68.5t10.5 -122q0 -60 -11.5 -135t-30.5 -157t-42.5 -166t-47 -163 t-45.5 -149t-37 -122q-3 -44 -5 -82t-2 -79q0 -32 1.5 -52.5t5.5 -32.5t11 -16.5t18 -4.5q20 0 50.5 10.5t65 27t72 37t72 41t64.5 37.5t50 28zM1541 2145q12 13 24 30q11 14 23.5 32t25.5 38q20 32 49.5 47.5t58.5 15.5q34 0 58.5 -19t24.5 -54q0 -25 -14 -53 q-12 -23 -31 -58.5t-47.5 -69t-66.5 -57.5t-87 -24q-31 0 -56.5 8.5t-58.5 30.5t-80.5 60t-122.5 97q-12 -15 -24 -31q-11 -14 -24 -31.5t-25 -37.5q-20 -32 -49.5 -47.5t-58.5 -15.5q-34 0 -58.5 19t-24.5 54q0 25 14 53q12 23 31 58.5t47.5 69t66.5 57.5t87 24 q31 0 56.5 -8.5t58.5 -30.5t80.5 -60t122.5 -97z"/>
<glyph glyph-name="Adieresis" horiz-adv-x="1632" unicode="Ä" d="M1399 1517q-35 10 -72.5 14.5t-72.5 4.5q-81 0 -160 -31t-153.5 -84.5t-142 -126t-126 -156t-105.5 -173.5t-81 -179.5t-52 -174t-18 -155.5q0 -141 56.5 -218.5t175.5 -77.5q74 0 140.5 31t123.5 81.5t104.5 114t83 128.5t58.5 125.5t33 104.5zM1872 224 q-21 -22 -53.5 -50t-73 -56.5t-87.5 -55.5t-96 -48t-98.5 -33.5t-95.5 -12.5q-32 0 -64.5 11t-59 40.5t-43.5 81.5t-17 135q0 35 5 75.5t13 87.5q-56 -113 -126.5 -199.5t-150 -145t-164.5 -88.5t-170 -30q-93 0 -176.5 32.5t-147.5 97t-101.5 160.5t-37.5 224 q0 97 22.5 203t65.5 214t104 214t139 201.5t170.5 177t197.5 141t221 93.5t241 34q34 0 54.5 -5.5t31 -14t13.5 -17.5t3 -16q0 -5 -0.5 -9t-0.5 -6v-5q27 -16 55 -19.5t55 -6t51 -10.5t42 -31.5t28.5 -68.5t10.5 -122q0 -60 -11.5 -135t-30.5 -157t-42.5 -166t-47 -163 t-45.5 -149t-37 -122q-3 -44 -5 -82t-2 -79q0 -32 1.5 -52.5t5.5 -32.5t11 -16.5t18 -4.5q20 0 50.5 10.5t65 27t72 37t72 41t64.5 37.5t50 28zM1278 2150q0 -4 -1 -18.5t-6 -34t-15 -40.5t-28 -39t-45.5 -30t-66.5 -12q-64 0 -102.5 34.5t-38.5 113.5q0 33 9 64.5t28 55.5 t49 39t72 15q70 0 107.5 -38t37.5 -110zM1745 2150q0 -4 -1 -18.5t-5.5 -34t-14.5 -40.5t-28 -39t-45.5 -30t-67.5 -12q-62 0 -101.5 34.5t-39.5 113.5q0 33 9 64.5t28.5 55.5t49 39t71.5 15q71 0 108 -38t37 -110z"/>
<glyph glyph-name="Aring" horiz-adv-x="1632" unicode="Å" d="M1399 1517q-35 10 -72.5 14.5t-72.5 4.5q-81 0 -160 -31t-153.5 -84.5t-142 -126t-126 -156t-105.5 -173.5t-81 -179.5t-52 -174t-18 -155.5q0 -141 56.5 -218.5t175.5 -77.5q74 0 140.5 31t123.5 81.5t104.5 114t83 128.5t58.5 125.5t33 104.5zM1872 224 q-21 -22 -53.5 -50t-73 -56.5t-87.5 -55.5t-96 -48t-98.5 -33.5t-95.5 -12.5q-32 0 -64.5 11t-59 40.5t-43.5 81.5t-17 135q0 35 5 75.5t13 87.5q-56 -113 -126.5 -199.5t-150 -145t-164.5 -88.5t-170 -30q-93 0 -176.5 32.5t-147.5 97t-101.5 160.5t-37.5 224 q0 97 22.5 203t65.5 214t104 214t139 201.5t170.5 177t197.5 141t221 93.5t241 34q34 0 54.5 -5.5t31 -14t13.5 -17.5t3 -16q0 -5 -0.5 -9t-0.5 -6v-5q27 -16 55 -19.5t55 -6t51 -10.5t42 -31.5t28.5 -68.5t10.5 -122q0 -60 -11.5 -135t-30.5 -157t-42.5 -166t-47 -163 t-45.5 -149t-37 -122q-3 -44 -5 -82t-2 -79q0 -32 1.5 -52.5t5.5 -32.5t11 -16.5t18 -4.5q20 0 50.5 10.5t65 27t72 37t72 41t64.5 37.5t50 28zM1454 2385q-45 0 -78 -14.5t-54.5 -37t-32.5 -50t-11 -54.5q0 -20 6 -38.5t18.5 -32.5t30.5 -22.5t42 -8.5q39 0 70 15.5t52 40 t32.5 54t11.5 57.5q0 38 -21 64.5t-66 26.5zM1143 2230q0 46 15 85t41 70.5t59.5 55.5t71 40.5t76 24.5t73.5 8q37 0 74.5 -12.5t66.5 -38.5t47.5 -65t18.5 -91q0 -80 -29 -139t-74 -98t-100.5 -58t-107.5 -19q-37 0 -78 12t-75 39.5t-56.5 73t-22.5 112.5z"/>
<glyph glyph-name="AE" horiz-adv-x="2304" unicode="Æ" d="M1400 1426q-104 0 -218 -36t-222 -102q-110 -66 -208 -155t-174 -197q-74 -108 -118 -230t-44 -250q0 -140 56 -218t176 -78q74 0 144 42t132 110t116 152t95 165q42 82 71 153t42 114zM2568 250q-80 -86 -182 -150t-212 -108t-225 -66q-114 -22 -221 -22q-105 0 -199 26 t-164 80t-111 134t-41 185q0 26 3 55q-56 -92 -132 -174t-160 -143t-170 -96t-163 -35q-93 0 -177 32t-147 98q-63 64 -101 160t-38 224q0 131 43 269q43 137 122 267t189 245t245 201q134 86 288 136t321 50q32 0 66 -7t64 -23q28 -16 46 -41t19 -61q0 -13 -3 -28 q39 67 83 113q45 45 93 73t100 40t105 12q73 0 149 -18t154 -42q76 -26 150 -54t145 -48q17 -10 23 -28t6 -37q0 -23 -7 -47t-19 -45q-12 -20 -28 -33t-31 -13q-12 0 -19 5q-34 24 -92 54t-128 55t-144 42q-75 17 -143 17q-77 0 -135 -34t-102 -86t-72 -116 q-29 -64 -47 -124q-17 -60 -25 -110t-8 -74q100 9 192 16q39 3 80 6t79 5q37 1 71 3t58 2q46 0 68 -26t22 -60q0 -19 -8 -38t-22 -34q-15 -14 -38 -24t-54 -10q-8 0 -44 -2t-86 -6t-106 -8t-106 -8t-89 -6q-38 -2 -49 -2q-18 -50 -31 -110q-11 -51 -21 -120t-9 -148 q-1 -75 21 -125q22 -51 60 -81t88 -43q51 -13 110 -13q71 0 149 14q77 14 155 38t152 58t136 72q63 38 111 82q48 42 74 85z"/>
<glyph glyph-name="Ccedilla" horiz-adv-x="1440" unicode="Ç" d="M1766 338q-49 -21 -95 -55.5t-93 -75.5t-97.5 -86.5t-109 -90t-127.5 -85t-152.5 -71t-184 -48.5t-222.5 -18q-135 0 -243.5 54.5t-185.5 147t-118.5 215t-41.5 257.5q0 92 20 197.5t57.5 215t91.5 218.5t122.5 209t150.5 185.5t175 149t196 99.5t214 36q72 0 146 -25.5 t133 -78.5t96.5 -134t37.5 -191q0 -74 -23.5 -149.5t-64.5 -145t-96.5 -130.5t-119.5 -105.5t-133 -70.5t-138 -26q-91 0 -136 24.5t-45 70.5q0 8 -0.5 19t-0.5 23q0 18 2 37.5t8 35.5t17.5 26t31.5 10q12 0 21 -3.5t20 -7.5t26.5 -7.5t39.5 -3.5q64 0 129.5 28t118 79 t86 121.5t33.5 155.5q0 45 -12 85.5t-39 71t-69.5 49t-103.5 18.5q-72 0 -140.5 -31.5t-131.5 -85.5t-119.5 -128t-104.5 -158.5t-86.5 -176t-65.5 -182.5t-41.5 -176.5t-14.5 -157.5q0 -103 25.5 -179.5t72.5 -127.5t115 -76t153 -25q106 0 197.5 26.5t174.5 69.5t160.5 97 t155 108.5t158 104t170.5 83.5v-215zM782 -198q-10 -103 -16 -165.5t-10 -98t-6.5 -51.5t-4.5 -26.5t-4.5 -23t-6.5 -41.5q-5 -37 -21.5 -65t-39 -47t-49.5 -29t-53 -10q-22 0 -42 7t-35.5 22t-24.5 37.5t-9 52.5q0 42 17 87.5t46 98.5t68 115t83 137q8 20 26 35t38 15 q19 0 32.5 -8t13.5 -27q0 -5 -2 -15z"/>
<glyph glyph-name="Egrave" d="M1477 250q-81 -86 -182.5 -150.5t-212 -108t-224.5 -65.5t-221 -22q-118 0 -222 27.5t-182 84t-123.5 143t-45.5 205.5q0 101 36.5 194t113 165t196 116t286.5 48q-110 0 -192 31.5t-136 85t-81 125t-27 151.5q0 75 26 137t71.5 111.5t107.5 86.5t134.5 61.5t152 37 t160.5 12.5q117 0 229 -25.5t199 -76.5t140 -127.5t53 -178.5q0 -36 -24.5 -71t-58.5 -62.5t-71.5 -44t-62.5 -16.5q-21 0 -21 37q0 33 10.5 85t35.5 130q-27 22 -79 44t-117.5 40t-139.5 29.5t-146 11.5q-67 0 -128 -12t-107.5 -39.5t-74 -72.5t-27.5 -111q0 -54 19.5 -91 t52 -63t74.5 -42.5t87 -29.5t88.5 -25t80 -27.5t61.5 -37.5t33 -55q2 -21 4 -42.5t2 -41.5q0 -56 -21 -81.5t-82 -25.5q-26 0 -64.5 3t-73.5 3q-80 0 -157 -20.5t-138 -61t-98.5 -100t-37.5 -138.5q0 -75 21.5 -125t59 -80.5t88.5 -43.5t110 -13q71 0 149 14t155.5 38.5 t151 58t136.5 72t111 81t74 85.5zM1113 2050q5 -13 7.5 -25t2.5 -23q0 -30 -17 -48.5t-41 -18.5q-17 0 -34.5 8.5t-33.5 28.5q-13 15 -33 40t-45 55.5t-52.5 64.5t-54 68.5t-51 66t-43.5 57.5q-37 52 -37 97q0 30 13 55t33.5 43t46.5 28t52 10q29 0 55.5 -15t39.5 -49 q46 -104 85 -194q16 -38 33 -77t31.5 -72.5t25.5 -60t17 -39.5z" unicode="È"/>
<glyph glyph-name="Eacute" d="M1477 250q-81 -86 -182.5 -150.5t-212 -108t-224.5 -65.5t-221 -22q-118 0 -222 27.5t-182 84t-123.5 143t-45.5 205.5q0 101 36.5 194t113 165t196 116t286.5 48q-110 0 -192 31.5t-136 85t-81 125t-27 151.5q0 75 26 137t71.5 111.5t107.5 86.5t134.5 61.5t152 37 t160.5 12.5q117 0 229 -25.5t199 -76.5t140 -127.5t53 -178.5q0 -36 -24.5 -71t-58.5 -62.5t-71.5 -44t-62.5 -16.5q-21 0 -21 37q0 33 10.5 85t35.5 130q-27 22 -79 44t-117.5 40t-139.5 29.5t-146 11.5q-67 0 -128 -12t-107.5 -39.5t-74 -72.5t-27.5 -111q0 -54 19.5 -91 t52 -63t74.5 -42.5t87 -29.5t88.5 -25t80 -27.5t61.5 -37.5t33 -55q2 -21 4 -42.5t2 -41.5q0 -56 -21 -81.5t-82 -25.5q-26 0 -64.5 3t-73.5 3q-80 0 -157 -20.5t-138 -61t-98.5 -100t-37.5 -138.5q0 -75 21.5 -125t59 -80.5t88.5 -43.5t110 -13q71 0 149 14t155.5 38.5 t151 58t136.5 72t111 81t74 85.5zM946 2040q6 13 17 39.5t25.5 60t31 72.5t33.5 77q39 90 85 194q13 34 39.5 49t55.5 15q26 0 52 -10t46.5 -28t33.5 -43t13 -55q0 -47 -37 -97q-19 -26 -43.5 -57.5t-51 -66t-54 -68.5t-52.5 -64.5t-45.5 -55.5t-32.5 -40q-17 -20 -34 -28.5 t-34 -8.5q-24 0 -41 18.5t-17 48.5q0 11 2.5 23t7.5 25z" unicode="É"/>
<glyph glyph-name="Ecircumflex" d="M1477 250q-81 -86 -182.5 -150.5t-212 -108t-224.5 -65.5t-221 -22q-118 0 -222 27.5t-182 84t-123.5 143t-45.5 205.5q0 101 36.5 194t113 165t196 116t286.5 48q-110 0 -192 31.5t-136 85t-81 125t-27 151.5q0 75 26 137t71.5 111.5t107.5 86.5t134.5 61.5t152 37 t160.5 12.5q117 0 229 -25.5t199 -76.5t140 -127.5t53 -178.5q0 -36 -24.5 -71t-58.5 -62.5t-71.5 -44t-62.5 -16.5q-21 0 -21 37q0 33 10.5 85t35.5 130q-27 22 -79 44t-117.5 40t-139.5 29.5t-146 11.5q-67 0 -128 -12t-107.5 -39.5t-74 -72.5t-27.5 -111q0 -54 19.5 -91 t52 -63t74.5 -42.5t87 -29.5t88.5 -25t80 -27.5t61.5 -37.5t33 -55q2 -21 4 -42.5t2 -41.5q0 -56 -21 -81.5t-82 -25.5q-26 0 -64.5 3t-73.5 3q-80 0 -157 -20.5t-138 -61t-98.5 -100t-37.5 -138.5q0 -75 21.5 -125t59 -80.5t88.5 -43.5t110 -13q71 0 149 14t155.5 38.5 t151 58t136.5 72t111 81t74 85.5zM1043 2429q-31 -81 -59 -154q-12 -31 -24.5 -63.5t-24 -62.5t-22 -56t-17.5 -44q-18 -47 -37.5 -73t-40 -38t-41.5 -14.5t-42 -2.5q-11 0 -23 6.5t-22 18.5t-17 28.5t-7 37.5q0 19 8 38l164 329q27 52 48.5 92t44.5 67t53 41t75 14 q44 0 74 -16.5t51 -48.5t36.5 -78.5t30.5 -106.5q11 -34 18 -55t12 -37t9.5 -30t10.5 -34t15 -48.5t23 -73.5q5 -18 5 -35q0 -47 -29 -80t-86 -33q-19 0 -36.5 6t-32.5 21t-26.5 40.5t-17.5 64.5q-17 103 -31 175t-23 118q-11 54 -19 87z" unicode="Ê"/>
<glyph glyph-name="Edieresis" d="M1477 250q-81 -86 -182.5 -150.5t-212 -108t-224.5 -65.5t-221 -22q-118 0 -222 27.5t-182 84t-123.5 143t-45.5 205.5q0 101 36.5 194t113 165t196 116t286.5 48q-110 0 -192 31.5t-136 85t-81 125t-27 151.5q0 75 26 137t71.5 111.5t107.5 86.5t134.5 61.5t152 37 t160.5 12.5q117 0 229 -25.5t199 -76.5t140 -127.5t53 -178.5q0 -36 -24.5 -71t-58.5 -62.5t-71.5 -44t-62.5 -16.5q-21 0 -21 37q0 33 10.5 85t35.5 130q-27 22 -79 44t-117.5 40t-139.5 29.5t-146 11.5q-67 0 -128 -12t-107.5 -39.5t-74 -72.5t-27.5 -111q0 -54 19.5 -91 t52 -63t74.5 -42.5t87 -29.5t88.5 -25t80 -27.5t61.5 -37.5t33 -55q2 -21 4 -42.5t2 -41.5q0 -56 -21 -81.5t-82 -25.5q-26 0 -64.5 3t-73.5 3q-80 0 -157 -20.5t-138 -61t-98.5 -100t-37.5 -138.5q0 -75 21.5 -125t59 -80.5t88.5 -43.5t110 -13q71 0 149 14t155.5 38.5 t151 58t136.5 72t111 81t74 85.5zM913 2121q0 -4 -1 -18.5t-6 -34t-15 -40.5t-28 -39t-45.5 -30t-66.5 -12q-64 0 -102.5 34.5t-38.5 113.5q0 33 9 64.5t28 55.5t49 39t72 15q70 0 107.5 -38t37.5 -110zM1380 2121q0 -4 -1 -18.5t-5.5 -34t-14.5 -40.5t-28 -39t-45.5 -30 t-67.5 -12q-62 0 -101.5 34.5t-39.5 113.5q0 33 9 64.5t28.5 55.5t49 39t71.5 15q71 0 108 -38t37 -110z" unicode="Ë"/>
<glyph glyph-name="Igrave" d="M660 1404l-4 -2q-3 0 -5.5 35.5t-2.5 95.5q0 12 11 31.5t37 41.5t68.5 44t107 40t152 29t202.5 11q99 0 154.5 -9.5t83.5 -25t34.5 -36t6.5 -41.5q0 -22 -5 -43t-26 -37.5t-63 -26.5t-115 -10q-33 0 -66 3q-28 -109 -49 -195t-38 -158.5t-31 -136.5t-28.5 -129 t-30.5 -136t-36.5 -157t-48 -192.5t-63.5 -242.5q6 0 27.5 -2t49.5 -7t59.5 -13t57.5 -20t43 -28t17 -37q0 -42 -72 -82h-67.5h-109.5h-136h-146h-71h-70q-68 0 -120.5 0.5t-84 1.5t-31.5 3q0 3 9.5 9.5t21.5 18t23 28.5t14 42q2 17 34 32.5t77 28t95.5 20.5t89.5 11 q31 131 62.5 262t62 256.5t60 243t57.5 220.5t54 189t49 150q-37 -4 -65 -8t-50 -9t-41.5 -11t-40.5 -13.5t-45.5 -17t-57.5 -21.5zM1264 2009q5 -13 7.5 -25t2.5 -23q0 -30 -17 -48.5t-41 -18.5q-17 0 -34.5 8.5t-33.5 28.5q-13 15 -33 40t-45 55.5t-52.5 64.5t-54 68.5 t-51 66t-43.5 57.5q-37 52 -37 97q0 30 13 55t33.5 43t46.5 28t52 10q29 0 55.5 -15t39.5 -49q46 -104 85 -194q16 -38 33 -77t31.5 -72.5t25.5 -60t17 -39.5z" unicode="Ì"/>
<glyph glyph-name="Iacute" d="M660 1404l-4 -2q-3 0 -5.5 35.5t-2.5 95.5q0 12 11 31.5t37 41.5t68.5 44t107 40t152 29t202.5 11q99 0 154.5 -9.5t83.5 -25t34.5 -36t6.5 -41.5q0 -22 -5 -43t-26 -37.5t-63 -26.5t-115 -10q-33 0 -66 3q-28 -109 -49 -195t-38 -158.5t-31 -136.5t-28.5 -129 t-30.5 -136t-36.5 -157t-48 -192.5t-63.5 -242.5q6 0 27.5 -2t49.5 -7t59.5 -13t57.5 -20t43 -28t17 -37q0 -42 -72 -82h-67.5h-109.5h-136h-146h-71h-70q-68 0 -120.5 0.5t-84 1.5t-31.5 3q0 3 9.5 9.5t21.5 18t23 28.5t14 42q2 17 34 32.5t77 28t95.5 20.5t89.5 11 q31 131 62.5 262t62 256.5t60 243t57.5 220.5t54 189t49 150q-37 -4 -65 -8t-50 -9t-41.5 -11t-40.5 -13.5t-45.5 -17t-57.5 -21.5zM1048 2031q6 13 17 39.5t25.5 60t31 72.5t33.5 77q39 90 85 194q13 34 39.5 49t55.5 15q26 0 52 -10t46.5 -28t33.5 -43t13 -55 q0 -47 -37 -97q-19 -26 -43.5 -57.5t-51 -66t-54 -68.5t-52.5 -64.5t-45.5 -55.5t-32.5 -40q-17 -20 -34 -28.5t-34 -8.5q-24 0 -41 18.5t-17 48.5q0 11 2.5 23t7.5 25z" unicode="Í"/>
<glyph glyph-name="Icircumflex" d="M660 1404l-4 -2q-3 0 -5.5 35.5t-2.5 95.5q0 12 11 31.5t37 41.5t68.5 44t107 40t152 29t202.5 11q99 0 154.5 -9.5t83.5 -25t34.5 -36t6.5 -41.5q0 -22 -5 -43t-26 -37.5t-63 -26.5t-115 -10q-33 0 -66 3q-28 -109 -49 -195t-38 -158.5t-31 -136.5t-28.5 -129 t-30.5 -136t-36.5 -157t-48 -192.5t-63.5 -242.5q6 0 27.5 -2t49.5 -7t59.5 -13t57.5 -20t43 -28t17 -37q0 -42 -72 -82h-67.5h-109.5h-136h-146h-71h-70q-68 0 -120.5 0.5t-84 1.5t-31.5 3q0 3 9.5 9.5t21.5 18t23 28.5t14 42q2 17 34 32.5t77 28t95.5 20.5t89.5 11 q31 131 62.5 262t62 256.5t60 243t57.5 220.5t54 189t49 150q-37 -4 -65 -8t-50 -9t-41.5 -11t-40.5 -13.5t-45.5 -17t-57.5 -21.5zM1149 2420q-31 -81 -59 -154q-12 -31 -24.5 -63.5t-24 -62.5t-22 -56t-17.5 -44q-18 -47 -37.5 -73t-40 -38t-41.5 -14.5t-42 -2.5 q-11 0 -23 6.5t-22 18.5t-17 28.5t-7 37.5q0 19 8 38l164 329q27 52 48.5 92t44.5 67t53 41t75 14q44 0 74 -16.5t51 -48.5t36.5 -78.5t30.5 -106.5q11 -34 18 -55t12 -37t9.5 -30t10.5 -34t15 -48.5t23 -73.5q5 -18 5 -35q0 -47 -29 -80t-86 -33q-19 0 -36.5 6t-32.5 21 t-26.5 40.5t-17.5 64.5q-17 103 -31 175t-23 118q-11 54 -19 87z" unicode="Î"/>
<glyph glyph-name="Idieresis" d="M660 1404l-4 -2q-3 0 -5.5 35.5t-2.5 95.5q0 12 11 31.5t37 41.5t68.5 44t107 40t152 29t202.5 11q99 0 154.5 -9.5t83.5 -25t34.5 -36t6.5 -41.5q0 -22 -5 -43t-26 -37.5t-63 -26.5t-115 -10q-33 0 -66 3q-28 -109 -49 -195t-38 -158.5t-31 -136.5t-28.5 -129 t-30.5 -136t-36.5 -157t-48 -192.5t-63.5 -242.5q6 0 27.5 -2t49.5 -7t59.5 -13t57.5 -20t43 -28t17 -37q0 -42 -72 -82h-67.5h-109.5h-136h-146h-71h-70q-68 0 -120.5 0.5t-84 1.5t-31.5 3q0 3 9.5 9.5t21.5 18t23 28.5t14 42q2 17 34 32.5t77 28t95.5 20.5t89.5 11 q31 131 62.5 262t62 256.5t60 243t57.5 220.5t54 189t49 150q-37 -4 -65 -8t-50 -9t-41.5 -11t-40.5 -13.5t-45.5 -17t-57.5 -21.5zM1038 2106q0 -4 -1 -18.5t-6 -34t-15 -40.5t-28 -39t-45.5 -30t-66.5 -12q-64 0 -102.5 34.5t-38.5 113.5q0 33 9 64.5t28 55.5t49 39t72 15 q70 0 107.5 -38t37.5 -110zM1505 2106q0 -4 -1 -18.5t-5.5 -34t-14.5 -40.5t-28 -39t-45.5 -30t-67.5 -12q-62 0 -101.5 34.5t-39.5 113.5q0 33 9 64.5t28.5 55.5t49 39t71.5 15q71 0 108 -38t37 -110z" unicode="Ï"/>
<glyph glyph-name="Eth" horiz-adv-x="1272" unicode="Ð" d="M480 128q104 0 196 42t170 114t140 166t107 198q43 104 67 213q24 108 24 208q0 102 -29 183t-77 137q-48 55 -110 85t-129 30q-61 0 -113 -42t-94 -112t-76 -164q-34 -92 -62 -194h252q13 0 28 -2t28 -10t22 -21t9 -33q1 -20 -5 -42t-21 -42q-15 -18 -42 -30t-71 -12 h-244q-18 -87 -30 -170q-12 -82 -20 -154t-12 -128t-4 -90q0 -37 2 -62t12 -40q10 -16 30 -22t52 -6zM219 992q37 136 84 260t103 221t122 160t139 80q19 3 42 7q20 4 46 6t56 2q105 0 189 -26t150 -74q66 -46 116 -112q48 -66 80 -144t46 -164q16 -88 16 -180 q0 -126 -28 -256t-81 -250q-53 -121 -131 -227t-177 -185q-100 -78 -220 -124t-259 -46q-47 0 -96 7t-95 19t-87 27t-72 31q-13 4 -25 10t-21 12q-8 8 -14 19t-6 28q0 77 5 163t15 175q10 90 24 183t34 186h-55q-27 0 -44 8t-27 22t-12 30q-4 16 -4 30q0 12 2 29t12 33 t32 28q21 12 60 12h81z"/>
<glyph glyph-name="Ntilde" horiz-adv-x="1623" unicode="Ñ" d="M458 761q69 204 136 355.5t131.5 259t125 176t118 107.5t111 54t103.5 15q58 0 99 -28t67.5 -72t38.5 -97t12 -104q0 -60 -9.5 -133.5t-23.5 -155.5t-31 -169.5t-31 -174t-23.5 -170t-9.5 -157.5q0 -24 1.5 -53.5t6.5 -60t14.5 -59.5t26 -52t41 -37t58.5 -14 q48 0 101.5 24t105 60.5t98 79t82 79t56 61t20.5 25.5l60 -217q-32 -43 -73 -85.5t-88 -80.5t-99.5 -70.5t-107.5 -56.5t-110.5 -37.5t-109.5 -13.5q-70 0 -123 24t-91.5 65t-64.5 95.5t-41.5 115.5t-22 124t-6.5 122q0 78 12.5 153t30.5 147.5t40 141.5t40 134.5t30.5 127 t12.5 118.5q0 15 -2 40t-8.5 48t-20.5 40t-38 17q-40 0 -82.5 -37.5t-87 -103.5t-89.5 -156.5t-89.5 -195t-88 -220t-84 -232t-78.5 -229.5t-71 -213q-28 -54 -64.5 -76.5t-81.5 -22.5q-26 0 -50.5 11t-43.5 32.5t-30 53t-11 71.5q0 42 4 76t12 69q25 114 46.5 211t39.5 185 t32.5 170.5t26.5 166t21 171.5t16 188v23t-3 26.5t-10.5 21.5t-22.5 9q-20 0 -48.5 -19t-59 -52.5t-62 -78.5t-57.5 -97q-6 -15 -19 -21.5t-29 -6.5q-13 0 -27 8.5t-26 20.5t-20 25.5t-8 24.5q0 6 4 10q33 113 75.5 191.5t90 127t96.5 70.5t96 22q71 0 119.5 -21.5t78.5 -60 t43 -92.5t13 -120t-11 -142t-30 -157.5t-43 -166.5t-49 -169zM1031 2078q12 13 24 30q11 14 23.5 32t25.5 38q20 32 49.5 47.5t58.5 15.5q34 0 58.5 -19t24.5 -54q0 -25 -14 -53q-12 -23 -31 -58.5t-47.5 -69t-66.5 -57.5t-87 -24q-31 0 -56.5 8.5t-58.5 30.5t-80.5 60 t-122.5 97q-12 -15 -24 -31q-11 -14 -24 -31.5t-25 -37.5q-20 -32 -49.5 -47.5t-58.5 -15.5q-34 0 -58.5 19t-24.5 54q0 25 14 53q12 23 31 58.5t47.5 69t66.5 57.5t87 24q31 0 56.5 -8.5t58.5 -30.5t80.5 -60t122.5 -97z"/>
<glyph glyph-name="Ograve" horiz-adv-x="1632" unicode="Ò" d="M766 52q80 0 149 31t126.5 85t105 126.5t84.5 155.5t64.5 172t45.5 176t26.5 167.5t8.5 146.5q0 96 -21 180.5t-63.5 147t-107 98.5t-150.5 36q-92 0 -178 -44.5t-162 -120t-139 -175t-108 -209.5t-70 -224t-25 -218q0 -113 28.5 -210.5t82 -168.5t130 -111.5 t173.5 -40.5zM742 -192q-149 0 -268.5 61t-203.5 170.5t-129 261t-45 332.5q0 96 14 197t42.5 201.5t71 197t99 182.5t126.5 158.5t154.5 125t182 82t209.5 29.5q150 0 268.5 -54t200 -151t125 -231.5t43.5 -296.5q0 -134 -26.5 -279.5t-77.5 -286t-127 -267.5t-175 -223 t-220.5 -152.5t-263.5 -56.5zM1171 2095q5 -13 7.5 -25t2.5 -23q0 -30 -17 -48.5t-41 -18.5q-17 0 -34.5 8.5t-33.5 28.5q-13 15 -33 40t-45 55.5t-52.5 64.5t-54 68.5t-51 66t-43.5 57.5q-37 52 -37 97q0 30 13 55t33.5 43t46.5 28t52 10q29 0 55.5 -15t39.5 -49 q46 -104 85 -194q16 -38 33 -77t31.5 -72.5t25.5 -60t17 -39.5z"/>
<glyph glyph-name="Oacute" horiz-adv-x="1512" unicode="Ó" d="M766 52q80 0 149 31t126.5 85t105 126.5t84.5 155.5t64.5 172t45.5 176t26.5 167.5t8.5 146.5q0 96 -21 180.5t-63.5 147t-107 98.5t-150.5 36q-92 0 -178 -44.5t-162 -120t-139 -175t-108 -209.5t-70 -224t-25 -218q0 -113 28.5 -210.5t82 -168.5t130 -111.5 t173.5 -40.5zM742 -192q-149 0 -268.5 61t-203.5 170.5t-129 261t-45 332.5q0 96 14 197t42.5 201.5t71 197t99 182.5t126.5 158.5t154.5 125t182 82t209.5 29.5q150 0 268.5 -54t200 -151t125 -231.5t43.5 -296.5q0 -134 -26.5 -279.5t-77.5 -286t-127 -267.5t-175 -223 t-220.5 -152.5t-263.5 -56.5zM1069 2096q6 13 17 39.5t25.5 60t31 72.5t33.5 77q39 90 85 194q13 34 39.5 49t55.5 15q26 0 52 -10t46.5 -28t33.5 -43t13 -55q0 -47 -37 -97q-19 -26 -43.5 -57.5t-51 -66t-54 -68.5t-52.5 -64.5t-45.5 -55.5t-32.5 -40q-17 -20 -34 -28.5 t-34 -8.5q-24 0 -41 18.5t-17 48.5q0 11 2.5 23t7.5 25z"/>
<glyph glyph-name="Ocircumflex" horiz-adv-x="1512" unicode="Ô" d="M766 52q80 0 149 31t126.5 85t105 126.5t84.5 155.5t64.5 172t45.5 176t26.5 167.5t8.5 146.5q0 96 -21 180.5t-63.5 147t-107 98.5t-150.5 36q-92 0 -178 -44.5t-162 -120t-139 -175t-108 -209.5t-70 -224t-25 -218q0 -113 28.5 -210.5t82 -168.5t130 -111.5 t173.5 -40.5zM742 -192q-149 0 -268.5 61t-203.5 170.5t-129 261t-45 332.5q0 96 14 197t42.5 201.5t71 197t99 182.5t126.5 158.5t154.5 125t182 82t209.5 29.5q150 0 268.5 -54t200 -151t125 -231.5t43.5 -296.5q0 -134 -26.5 -279.5t-77.5 -286t-127 -267.5t-175 -223 t-220.5 -152.5t-263.5 -56.5zM1123 2504q-31 -81 -59 -154q-12 -31 -24.5 -63.5t-24 -62.5t-22 -56t-17.5 -44q-18 -47 -37.5 -73t-40 -38t-41.5 -14.5t-42 -2.5q-11 0 -23 6.5t-22 18.5t-17 28.5t-7 37.5q0 19 8 38l164 329q27 52 48.5 92t44.5 67t53 41t75 14 q44 0 74 -16.5t51 -48.5t36.5 -78.5t30.5 -106.5q11 -34 18 -55t12 -37t9.5 -30t10.5 -34t15 -48.5t23 -73.5q5 -18 5 -35q0 -47 -29 -80t-86 -33q-19 0 -36.5 6t-32.5 21t-26.5 40.5t-17.5 64.5q-17 103 -31 175t-23 118q-11 54 -19 87z"/>
<glyph glyph-name="Otilde" horiz-adv-x="1512" unicode="Õ" d="M766 52q80 0 149 31t126.5 85t105 126.5t84.5 155.5t64.5 172t45.5 176t26.5 167.5t8.5 146.5q0 96 -21 180.5t-63.5 147t-107 98.5t-150.5 36q-92 0 -178 -44.5t-162 -120t-139 -175t-108 -209.5t-70 -224t-25 -218q0 -113 28.5 -210.5t82 -168.5t130 -111.5 t173.5 -40.5zM742 -192q-149 0 -268.5 61t-203.5 170.5t-129 261t-45 332.5q0 96 14 197t42.5 201.5t71 197t99 182.5t126.5 158.5t154.5 125t182 82t209.5 29.5q150 0 268.5 -54t200 -151t125 -231.5t43.5 -296.5q0 -134 -26.5 -279.5t-77.5 -286t-127 -267.5t-175 -223 t-220.5 -152.5t-263.5 -56.5zM1323 2162q12 13 24 30q11 14 23.5 32t25.5 38q20 32 49.5 47.5t58.5 15.5q34 0 58.5 -19t24.5 -54q0 -25 -14 -53q-12 -23 -31 -58.5t-47.5 -69t-66.5 -57.5t-87 -24q-31 0 -56.5 8.5t-58.5 30.5t-80.5 60t-122.5 97q-12 -15 -24 -31 q-11 -14 -24 -31.5t-25 -37.5q-20 -32 -49.5 -47.5t-58.5 -15.5q-34 0 -58.5 19t-24.5 54q0 25 14 53q12 23 31 58.5t47.5 69t66.5 57.5t87 24q31 0 56.5 -8.5t58.5 -30.5t80.5 -60t122.5 -97z"/>
<glyph glyph-name="Odieresis" horiz-adv-x="1512" unicode="Ö" d="M766 52q80 0 149 31t126.5 85t105 126.5t84.5 155.5t64.5 172t45.5 176t26.5 167.5t8.5 146.5q0 96 -21 180.5t-63.5 147t-107 98.5t-150.5 36q-92 0 -178 -44.5t-162 -120t-139 -175t-108 -209.5t-70 -224t-25 -218q0 -113 28.5 -210.5t82 -168.5t130 -111.5 t173.5 -40.5zM742 -192q-149 0 -268.5 61t-203.5 170.5t-129 261t-45 332.5q0 96 14 197t42.5 201.5t71 197t99 182.5t126.5 158.5t154.5 125t182 82t209.5 29.5q150 0 268.5 -54t200 -151t125 -231.5t43.5 -296.5q0 -134 -26.5 -279.5t-77.5 -286t-127 -267.5t-175 -223 t-220.5 -152.5t-263.5 -56.5zM1072 2208q0 -4 -1 -18.5t-6 -34t-15 -40.5t-28 -39t-45.5 -30t-66.5 -12q-64 0 -102.5 34.5t-38.5 113.5q0 33 9 64.5t28 55.5t49 39t72 15q70 0 107.5 -38t37.5 -110zM1539 2208q0 -4 -1 -18.5t-5.5 -34t-14.5 -40.5t-28 -39t-45.5 -30 t-67.5 -12q-62 0 -101.5 34.5t-39.5 113.5q0 33 9 64.5t28.5 55.5t49 39t71.5 15q71 0 108 -38t37 -110z"/>
<glyph glyph-name="multiply" horiz-adv-x="1280" unicode="×" d="M691 386l-157 -168q-26 -26 -50 -37t-48 -11q-36 0 -60 24t-24 60q0 24 12 50t38 52l155 156l-161 161q-20 20 -28 42t-9 44q1 20 7 38q6 17 18 31t26 22q16 8 34 8q37 0 74 -36l173 -184l167 186q19 20 38 28t36 8q18 0 34 -8t27 -22t17 -32t7 -37q-1 -23 -9 -45 t-28 -41l-153 -163l147 -158q26 -26 38 -52t12 -50q0 -36 -24 -60t-60 -24q-23 0 -48 11t-51 37z"/>
<glyph glyph-name="Oslash" horiz-adv-x="1512" unicode="Ø" d="M563 91q29 99 63 222t73 260t80 282t81 287t78 275t69 246q-89 -7 -172 -59t-155 -136q-72 -82 -134 -190q-60 -108 -103 -226t-67 -238q-24 -121 -24 -231q0 -83 14 -157t41 -138q27 -63 67 -113t89 -84zM766 32q80 0 149 33t127 90t104 134q48 77 85 165t65 182t45 186 q19 92 27 176q8 85 8 154q0 81 -12 155q-12 73 -36 135t-62 109q-37 47 -86 75q-26 -96 -57 -210t-66 -244q-35 -128 -73 -268t-79 -284q-40 -146 -82 -294t-83 -293q6 -1 12 -1h14zM742 -192q-18 0 -34 1t-32 3l-41 -140q-13 -37 -27 -59t-26 -34q-14 -12 -26 -16t-24 -4 q-14 1 -27 3t-23 12t-14 28q-6 20 -6 54q0 33 8 84t28 118q-96 42 -170 116t-126 173q-52 100 -78 223q-28 123 -28 263q0 133 26 275t75 278t125 258t176 212q100 92 224 146t273 54q33 0 65 -3l26 92q10 32 24 62t34 53q20 22 42 36q24 14 52 14q26 0 34 -18t7 -48v-15 t-1 -15q-2 -15 -8 -45q-6 -29 -14 -61t-16 -59t-10 -36q96 -39 171 -109t126 -164q51 -96 78 -214t27 -253q0 -133 -26 -279t-78 -286q-51 -140 -127 -268q-76 -127 -175 -223q-98 -97 -220 -153t-264 -56z"/>
<glyph glyph-name="Ugrave" horiz-adv-x="1382" unicode="Ù" d="M1248 1568q3 51 19 82t40.5 48.5t55 23.5t60.5 6q27 0 48 -6t35.5 -21.5t22 -41.5t7.5 -66q0 -277 -33 -515t-93 -432.5t-144 -345t-185.5 -252.5t-218.5 -155t-242 -53q-150 0 -251 60.5t-161.5 163.5t-86 238.5t-25.5 285.5q0 119 15.5 241t39.5 237.5t54.5 219 t60.5 186.5q19 58 38.5 90t38.5 47.5t38 19t39 3.5q38 0 67.5 -3.5t49.5 -13.5t30 -28.5t10 -49.5v-8q-2 -12 -3 -26t-6 -31q-12 -37 -32.5 -99.5t-44.5 -143t-49 -173.5t-45 -190.5t-32.5 -194t-12.5 -183.5q0 -90 15 -167.5t50.5 -134.5t92.5 -89.5t141 -32.5 q65 0 123.5 35.5t110 100t97 154.5t83.5 198t68.5 230.5t53.5 253t38.5 265.5t22.5 267zM1020 1957q5 -13 7.5 -25t2.5 -23q0 -30 -17 -48.5t-41 -18.5q-17 0 -34.5 8.5t-33.5 28.5q-13 15 -33 40t-45 55.5t-52.5 64.5t-54 68.5t-51 66t-43.5 57.5q-37 52 -37 97q0 30 13 55 t33.5 43t46.5 28t52 10q29 0 55.5 -15t39.5 -49q46 -104 85 -194q16 -38 33 -77t31.5 -72.5t25.5 -60t17 -39.5z"/>
<glyph glyph-name="Uacute" horiz-adv-x="1382" unicode="Ú" d="M1248 1568q3 51 19 82t40.5 48.5t55 23.5t60.5 6q27 0 48 -6t35.5 -21.5t22 -41.5t7.5 -66q0 -277 -33 -515t-93 -432.5t-144 -345t-185.5 -252.5t-218.5 -155t-242 -53q-150 0 -251 60.5t-161.5 163.5t-86 238.5t-25.5 285.5q0 119 15.5 241t39.5 237.5t54.5 219 t60.5 186.5q19 58 38.5 90t38.5 47.5t38 19t39 3.5q38 0 67.5 -3.5t49.5 -13.5t30 -28.5t10 -49.5v-8q-2 -12 -3 -26t-6 -31q-12 -37 -32.5 -99.5t-44.5 -143t-49 -173.5t-45 -190.5t-32.5 -194t-12.5 -183.5q0 -90 15 -167.5t50.5 -134.5t92.5 -89.5t141 -32.5 q65 0 123.5 35.5t110 100t97 154.5t83.5 198t68.5 230.5t53.5 253t38.5 265.5t22.5 267zM931 1957q6 13 17 39.5t25.5 60t31 72.5t33.5 77q39 90 85 194q13 34 39.5 49t55.5 15q26 0 52 -10t46.5 -28t33.5 -43t13 -55q0 -47 -37 -97q-19 -26 -43.5 -57.5t-51 -66t-54 -68.5 t-52.5 -64.5t-45.5 -55.5t-32.5 -40q-17 -20 -34 -28.5t-34 -8.5q-24 0 -41 18.5t-17 48.5q0 11 2.5 23t7.5 25z"/>
<glyph glyph-name="Ucircumflex" horiz-adv-x="1382" unicode="Û" d="M1248 1568q3 51 19 82t40.5 48.5t55 23.5t60.5 6q27 0 48 -6t35.5 -21.5t22 -41.5t7.5 -66q0 -277 -33 -515t-93 -432.5t-144 -345t-185.5 -252.5t-218.5 -155t-242 -53q-150 0 -251 60.5t-161.5 163.5t-86 238.5t-25.5 285.5q0 119 15.5 241t39.5 237.5t54.5 219 t60.5 186.5q19 58 38.5 90t38.5 47.5t38 19t39 3.5q38 0 67.5 -3.5t49.5 -13.5t30 -28.5t10 -49.5v-8q-2 -12 -3 -26t-6 -31q-12 -37 -32.5 -99.5t-44.5 -143t-49 -173.5t-45 -190.5t-32.5 -194t-12.5 -183.5q0 -90 15 -167.5t50.5 -134.5t92.5 -89.5t141 -32.5 q65 0 123.5 35.5t110 100t97 154.5t83.5 198t68.5 230.5t53.5 253t38.5 265.5t22.5 267zM988 2368q-31 -81 -59 -154q-12 -31 -24.5 -63.5t-24 -62.5t-22 -56t-17.5 -44q-18 -47 -37.5 -73t-40 -38t-41.5 -14.5t-42 -2.5q-11 0 -23 6.5t-22 18.5t-17 28.5t-7 37.5q0 19 8 38 l164 329q27 52 48.5 92t44.5 67t53 41t75 14q44 0 74 -16.5t51 -48.5t36.5 -78.5t30.5 -106.5q11 -34 18 -55t12 -37t9.5 -30t10.5 -34t15 -48.5t23 -73.5q5 -18 5 -35q0 -47 -29 -80t-86 -33q-19 0 -36.5 6t-32.5 21t-26.5 40.5t-17.5 64.5q-17 103 -31 175t-23 118 q-11 54 -19 87z"/>
<glyph glyph-name="Udieresis" horiz-adv-x="1382" unicode="Ü" d="M1248 1568q3 51 19 82t40.5 48.5t55 23.5t60.5 6q27 0 48 -6t35.5 -21.5t22 -41.5t7.5 -66q0 -277 -33 -515t-93 -432.5t-144 -345t-185.5 -252.5t-218.5 -155t-242 -53q-150 0 -251 60.5t-161.5 163.5t-86 238.5t-25.5 285.5q0 119 15.5 241t39.5 237.5t54.5 219 t60.5 186.5q19 58 38.5 90t38.5 47.5t38 19t39 3.5q38 0 67.5 -3.5t49.5 -13.5t30 -28.5t10 -49.5v-8q-2 -12 -3 -26t-6 -31q-12 -37 -32.5 -99.5t-44.5 -143t-49 -173.5t-45 -190.5t-32.5 -194t-12.5 -183.5q0 -90 15 -167.5t50.5 -134.5t92.5 -89.5t141 -32.5 q65 0 123.5 35.5t110 100t97 154.5t83.5 198t68.5 230.5t53.5 253t38.5 265.5t22.5 267zM881 2054q0 -4 -1 -18.5t-6 -34t-15 -40.5t-28 -39t-45.5 -30t-66.5 -12q-64 0 -102.5 34.5t-38.5 113.5q0 33 9 64.5t28 55.5t49 39t72 15q70 0 107.5 -38t37.5 -110zM1348 2054 q0 -4 -1 -18.5t-5.5 -34t-14.5 -40.5t-28 -39t-45.5 -30t-67.5 -12q-62 0 -101.5 34.5t-39.5 113.5q0 33 9 64.5t28.5 55.5t49 39t71.5 15q71 0 108 -38t37 -110z"/>
<glyph glyph-name="Yacute" horiz-adv-x="1344" unicode="Ý" d="M1126 506q-82 -112 -148 -195.5t-120.5 -143.5t-100 -99.5t-87.5 -62t-82 -31.5t-84 -9q-40 0 -81 18t-75 42t-57.5 47.5t-27.5 35.5q-6 8 -11 23t-5 31q0 15 7 26.5t24 11.5q6 0 15 -3q31 -20 61 -29t56 -9q75 0 135 26.5t108 68.5t86 95.5t68 107.5t53.5 103.5 t43.5 84.5q-35 88 -72 175t-77 166.5t-81.5 147.5t-85 118.5t-88.5 79t-90 28.5q-24 0 -38.5 -6t-22.5 -16t-11 -23t-3 -26q0 -15 2 -30t2 -26q0 -17 -8.5 -21t-19.5 -4q-20 0 -36 24t-27 64t-17 91.5t-6 106.5q0 17 9 35t28.5 33t49 24.5t71.5 9.5q114 0 208.5 -57.5 t175.5 -157t151 -233t136 -284.5q59 107 113.5 210.5t100.5 193.5t82.5 162.5t60.5 117.5q13 24 47.5 39t74.5 15q21 0 41 -6t35.5 -19t25.5 -34.5t10 -51.5q0 -42 -26 -103q-23 -53 -64.5 -137t-98 -188t-125.5 -221.5t-145 -236.5zM1061 1833q6 13 17 39.5t25.5 60 t31 72.5t33.5 77q39 90 85 194q13 34 39.5 49t55.5 15q26 0 52 -10t46.5 -28t33.5 -43t13 -55q0 -47 -37 -97q-19 -26 -43.5 -57.5t-51 -66t-54 -68.5t-52.5 -64.5t-45.5 -55.5t-32.5 -40q-17 -20 -34 -28.5t-34 -8.5q-24 0 -41 18.5t-17 48.5q0 11 2.5 23t7.5 25z"/>
<glyph glyph-name="Thorn" horiz-adv-x="1216" unicode="Þ" d="M1291 824q1 48 -15 98t-54 94t-99 78q-62 34 -155 50l-55 -516q98 10 169 30q72 20 118 45q46 26 68 57t23 64zM362 483v-95t2 -126t8 -135q5 -67 15 -123q9 -56 25 -90t40 -35q40 0 70 31t53 80q23 50 39 110t26 118t14 107t5 76q-49 21 -77 37t-41 29q-13 14 -17 30 t-4 38q0 17 1 35t5 32t14 22q8 8 23 8q11 0 19 -4t21 -11q15 -2 27 -4t22 -3q11 -2 20 -2l2 24q2 24 6 63t9 91t11 111t11 122q6 63 12 124q-97 -23 -165 -85t-112 -152q-44 -89 -64 -198t-20 -225zM907 393q-29 -207 -63 -350t-88 -231t-132 -128q-78 -39 -194 -39 q-62 -1 -112 37t-87 102t-63 146t-43 172q-15 90 -23 182t-8 173q0 196 46 358q46 161 132 281t206 194t268 93q6 45 8 73t2 33q1 33 6 79q6 46 16 98t27 104t43 92t60 66q36 26 84 26q14 0 30 -4t28 -12q12 -10 22 -26q8 -16 8 -41v-9t-1 -7l-71 -340l-15 -135 q133 -18 233 -69t166 -123t100 -160t34 -181q0 -77 -38 -150t-114 -135t-194 -106q-116 -44 -273 -63z"/>
<glyph glyph-name="germandbls" horiz-adv-x="1281" unicode="ß" d="M332 -39q0 -31 -12 -53t-33 -37q-20 -15 -45 -22t-51 -7q-24 0 -46 6q-21 6 -39 17t-30 28t-12 39q2 145 9 294q7 150 23 294t42 280t67 256t98 220t133 170q76 72 176 112q98 40 222 40q112 0 198 -31t143 -82q58 -51 88 -115t30 -130q-1 -71 -27 -140q-26 -68 -83 -124 t-146 -92t-213 -38q109 0 191 -32q83 -32 137 -87q54 -54 82 -125t27 -148q0 -78 -36 -158t-108 -146q-72 -65 -180 -106t-252 -41q-57 0 -119 13t-124 36l26 182q40 -12 82 -18t83 -5q79 -1 151 15t128 49t91 86q34 53 34 128q0 61 -19 100q-20 39 -50 63t-70 38 q-40 12 -80 20l-80 16q-40 6 -70 20t-49 36t-19 62q0 32 2 54t14 36q10 14 30 20t57 7q79 1 146 19t116 53t77 85t27 114q0 42 -18 74t-49 54t-74 33t-92 11q-90 0 -159 -34t-121 -96t-90 -144q-37 -82 -62 -177t-40 -199q-14 -104 -22 -208t-10 -202q-2 -99 -2 -185v-107 q0 -7 -1 -14q0 -41 3 -77z"/>
<glyph glyph-name="agrave" horiz-adv-x="928" unicode="à" d="M320 324q0 -25 3.5 -48.5t12.5 -42t24 -30t38 -11.5q37 0 67 32t52 77t35.5 93t17.5 80l61 294q-41 0 -80 -20.5t-73.5 -55.5t-63.5 -80t-50 -94.5t-32.5 -99.5t-11.5 -94zM1174 245q-23 -32 -61.5 -75t-86.5 -82t-103 -66t-110 -27q-66 0 -110 42.5t-76 123.5 q-24 -28 -59 -57t-76.5 -52.5t-86.5 -38.5t-90 -15q-48 0 -93.5 19.5t-80.5 56t-56 89t-21 118.5q0 75 21 154t58 154.5t87.5 142.5t110.5 117t126.5 79.5t135.5 29.5q23 0 36 -9t21.5 -20.5t16.5 -22.5t20 -16t24.5 -6.5t25.5 -1.5q11 0 22.5 0.5t22.5 0.5q15 0 28 -3 t23 -13t15.5 -28t5.5 -49q0 -48 -10 -106.5t-22 -120t-22 -123t-10 -116.5q0 -47 8.5 -73.5t36.5 -26.5q21 0 44 10.5t46.5 27.5t47 38.5t44.5 44.5q49 54 99 122zM749 1263q5 -13 7.5 -25t2.5 -23q0 -30 -17 -48.5t-41 -18.5q-17 0 -34.5 8.5t-33.5 28.5q-13 15 -33 40 t-45 55.5t-52.5 64.5t-54 68.5t-51 66t-43.5 57.5q-37 52 -37 97q0 30 13 55t33.5 43t46.5 28t52 10q29 0 55.5 -15t39.5 -49q46 -104 85 -194q16 -38 33 -77t31.5 -72.5t25.5 -60t17 -39.5z"/>
<glyph glyph-name="aacute" horiz-adv-x="928" unicode="á" d="M320 324q0 -25 3.5 -48.5t12.5 -42t24 -30t38 -11.5q37 0 67 32t52 77t35.5 93t17.5 80l61 294q-41 0 -80 -20.5t-73.5 -55.5t-63.5 -80t-50 -94.5t-32.5 -99.5t-11.5 -94zM1174 245q-23 -32 -61.5 -75t-86.5 -82t-103 -66t-110 -27q-66 0 -110 42.5t-76 123.5 q-24 -28 -59 -57t-76.5 -52.5t-86.5 -38.5t-90 -15q-48 0 -93.5 19.5t-80.5 56t-56 89t-21 118.5q0 75 21 154t58 154.5t87.5 142.5t110.5 117t126.5 79.5t135.5 29.5q23 0 36 -9t21.5 -20.5t16.5 -22.5t20 -16t24.5 -6.5t25.5 -1.5q11 0 22.5 0.5t22.5 0.5q15 0 28 -3 t23 -13t15.5 -28t5.5 -49q0 -48 -10 -106.5t-22 -120t-22 -123t-10 -116.5q0 -47 8.5 -73.5t36.5 -26.5q21 0 44 10.5t46.5 27.5t47 38.5t44.5 44.5q49 54 99 122zM657 1211q6 13 17 39.5t25.5 60t31 72.5t33.5 77q39 90 85 194q13 34 39.5 49t55.5 15q26 0 52 -10t46.5 -28 t33.5 -43t13 -55q0 -47 -37 -97q-19 -26 -43.5 -57.5t-51 -66t-54 -68.5t-52.5 -64.5t-45.5 -55.5t-32.5 -40q-17 -20 -34 -28.5t-34 -8.5q-24 0 -41 18.5t-17 48.5q0 11 2.5 23t7.5 25z"/>
<glyph glyph-name="acircumflex" horiz-adv-x="928" unicode="â" d="M320 324q0 -25 3.5 -48.5t12.5 -42t24 -30t38 -11.5q37 0 67 32t52 77t35.5 93t17.5 80l61 294q-41 0 -80 -20.5t-73.5 -55.5t-63.5 -80t-50 -94.5t-32.5 -99.5t-11.5 -94zM1174 245q-23 -32 -61.5 -75t-86.5 -82t-103 -66t-110 -27q-66 0 -110 42.5t-76 123.5 q-24 -28 -59 -57t-76.5 -52.5t-86.5 -38.5t-90 -15q-48 0 -93.5 19.5t-80.5 56t-56 89t-21 118.5q0 75 21 154t58 154.5t87.5 142.5t110.5 117t126.5 79.5t135.5 29.5q23 0 36 -9t21.5 -20.5t16.5 -22.5t20 -16t24.5 -6.5t25.5 -1.5q11 0 22.5 0.5t22.5 0.5q15 0 28 -3 t23 -13t15.5 -28t5.5 -49q0 -48 -10 -106.5t-22 -120t-22 -123t-10 -116.5q0 -47 8.5 -73.5t36.5 -26.5q21 0 44 10.5t46.5 27.5t47 38.5t44.5 44.5q49 54 99 122zM696 1585q-31 -81 -59 -154q-12 -31 -24.5 -63.5t-24 -62.5t-22 -56t-17.5 -44q-18 -47 -37.5 -73t-40 -38 t-41.5 -14.5t-42 -2.5q-11 0 -23 6.5t-22 18.5t-17 28.5t-7 37.5q0 19 8 38l164 329q27 52 48.5 92t44.5 67t53 41t75 14q44 0 74 -16.5t51 -48.5t36.5 -78.5t30.5 -106.5q11 -34 18 -55t12 -37t9.5 -30t10.5 -34t15 -48.5t23 -73.5q5 -18 5 -35q0 -47 -29 -80t-86 -33 q-19 0 -36.5 6t-32.5 21t-26.5 40.5t-17.5 64.5q-17 103 -31 175t-23 118q-11 54 -19 87z"/>
<glyph glyph-name="atilde" horiz-adv-x="928" unicode="ã" d="M320 324q0 -25 3.5 -48.5t12.5 -42t24 -30t38 -11.5q37 0 67 32t52 77t35.5 93t17.5 80l61 294q-41 0 -80 -20.5t-73.5 -55.5t-63.5 -80t-50 -94.5t-32.5 -99.5t-11.5 -94zM1174 245q-23 -32 -61.5 -75t-86.5 -82t-103 -66t-110 -27q-66 0 -110 42.5t-76 123.5 q-24 -28 -59 -57t-76.5 -52.5t-86.5 -38.5t-90 -15q-48 0 -93.5 19.5t-80.5 56t-56 89t-21 118.5q0 75 21 154t58 154.5t87.5 142.5t110.5 117t126.5 79.5t135.5 29.5q23 0 36 -9t21.5 -20.5t16.5 -22.5t20 -16t24.5 -6.5t25.5 -1.5q11 0 22.5 0.5t22.5 0.5q15 0 28 -3 t23 -13t15.5 -28t5.5 -49q0 -48 -10 -106.5t-22 -120t-22 -123t-10 -116.5q0 -47 8.5 -73.5t36.5 -26.5q21 0 44 10.5t46.5 27.5t47 38.5t44.5 44.5q49 54 99 122zM821 1264q12 13 24 30q11 14 23.5 32t25.5 38q20 32 49.5 47.5t58.5 15.5q34 0 58.5 -19t24.5 -54 q0 -25 -14 -53q-12 -23 -31 -58.5t-47.5 -69t-66.5 -57.5t-87 -24q-31 0 -56.5 8.5t-58.5 30.5t-80.5 60t-122.5 97q-12 -15 -24 -31q-11 -14 -24 -31.5t-25 -37.5q-20 -32 -49.5 -47.5t-58.5 -15.5q-34 0 -58.5 19t-24.5 54q0 25 14 53q12 23 31 58.5t47.5 69t66.5 57.5 t87 24q31 0 56.5 -8.5t58.5 -30.5t80.5 -60t122.5 -97z"/>
<glyph glyph-name="adieresis" horiz-adv-x="928" unicode="ä" d="M320 324q0 -25 3.5 -48.5t12.5 -42t24 -30t38 -11.5q37 0 67 32t52 77t35.5 93t17.5 80l61 294q-41 0 -80 -20.5t-73.5 -55.5t-63.5 -80t-50 -94.5t-32.5 -99.5t-11.5 -94zM1174 245q-23 -32 -61.5 -75t-86.5 -82t-103 -66t-110 -27q-66 0 -110 42.5t-76 123.5 q-24 -28 -59 -57t-76.5 -52.5t-86.5 -38.5t-90 -15q-48 0 -93.5 19.5t-80.5 56t-56 89t-21 118.5q0 75 21 154t58 154.5t87.5 142.5t110.5 117t126.5 79.5t135.5 29.5q23 0 36 -9t21.5 -20.5t16.5 -22.5t20 -16t24.5 -6.5t25.5 -1.5q11 0 22.5 0.5t22.5 0.5q15 0 28 -3 t23 -13t15.5 -28t5.5 -49q0 -48 -10 -106.5t-22 -120t-22 -123t-10 -116.5q0 -47 8.5 -73.5t36.5 -26.5q21 0 44 10.5t46.5 27.5t47 38.5t44.5 44.5q49 54 99 122zM615 1280q0 -4 -1 -18.5t-6 -34t-15 -40.5t-28 -39t-45.5 -30t-66.5 -12q-64 0 -102.5 34.5t-38.5 113.5 q0 33 9 64.5t28 55.5t49 39t72 15q70 0 107.5 -38t37.5 -110zM1082 1280q0 -4 -1 -18.5t-5.5 -34t-14.5 -40.5t-28 -39t-45.5 -30t-67.5 -12q-62 0 -101.5 34.5t-39.5 113.5q0 33 9 64.5t28.5 55.5t49 39t71.5 15q71 0 108 -38t37 -110z"/>
<glyph glyph-name="aring" horiz-adv-x="928" unicode="å" d="M320 324q0 -25 3.5 -48.5t12.5 -42t24 -30t38 -11.5q37 0 67 32t52 77t35.5 93t17.5 80l61 294q-41 0 -80 -20.5t-73.5 -55.5t-63.5 -80t-50 -94.5t-32.5 -99.5t-11.5 -94zM1174 245q-23 -32 -61.5 -75t-86.5 -82t-103 -66t-110 -27q-66 0 -110 42.5t-76 123.5 q-24 -28 -59 -57t-76.5 -52.5t-86.5 -38.5t-90 -15q-48 0 -93.5 19.5t-80.5 56t-56 89t-21 118.5q0 75 21 154t58 154.5t87.5 142.5t110.5 117t126.5 79.5t135.5 29.5q23 0 36 -9t21.5 -20.5t16.5 -22.5t20 -16t24.5 -6.5t25.5 -1.5q11 0 22.5 0.5t22.5 0.5q15 0 28 -3 t23 -13t15.5 -28t5.5 -49q0 -48 -10 -106.5t-22 -120t-22 -123t-10 -116.5q0 -47 8.5 -73.5t36.5 -26.5q21 0 44 10.5t46.5 27.5t47 38.5t44.5 44.5q49 54 99 122zM757 1489q-45 0 -78 -14.5t-54.5 -37t-32.5 -50t-11 -54.5q0 -20 6 -38.5t18.5 -32.5t30.5 -22.5t42 -8.5 q39 0 70 15.5t52 40t32.5 54t11.5 57.5q0 38 -21 64.5t-66 26.5zM446 1334q0 46 15 85t41 70.5t59.5 55.5t71 40.5t76 24.5t73.5 8q37 0 74.5 -12.5t66.5 -38.5t47.5 -65t18.5 -91q0 -80 -29 -139t-74 -98t-100.5 -58t-107.5 -19q-37 0 -78 12t-75 39.5t-56.5 73 t-22.5 112.5z"/>
<glyph glyph-name="ae" horiz-adv-x="1715" unicode="æ" d="M320 324q0 -25 3.5 -48.5t12.5 -42t24 -30t38 -11.5q37 0 67 32t52 77t35.5 93t17.5 80l61 294q-41 0 -80 -20.5t-73.5 -55.5t-63.5 -80t-50 -94.5t-32.5 -99.5t-11.5 -94zM1174 245q-23 -32 -61.5 -75t-86.5 -82t-103 -66t-110 -27q-66 0 -110 42.5t-76 123.5 q-24 -28 -59 -57t-76.5 -52.5t-86.5 -38.5t-90 -15q-48 0 -93.5 19.5t-80.5 56t-56 89t-21 118.5q0 75 21 154t58 154.5t87.5 142.5t110.5 117t126.5 79.5t135.5 29.5q23 0 36 -9t21.5 -20.5t16.5 -22.5t20 -16t24.5 -6.5t25.5 -1.5q11 0 22.5 0.5t22.5 0.5q15 0 28 -3 t23 -13t15.5 -28t5.5 -49q0 -48 -10 -106.5t-22 -120t-22 -123t-10 -116.5q0 -47 8.5 -73.5t36.5 -26.5q21 0 44 10.5t46.5 27.5t47 38.5t44.5 44.5q49 54 99 122zM1261 470q36 0 78.5 18.5t79 47.5t61.5 63t25 66q0 45 -16.5 74t-40.5 29q-43 0 -73.5 -16t-51 -41.5 t-33 -58t-19 -65.5t-8.5 -64t-2 -53zM1394 0q-94 0 -164.5 34t-117.5 91.5t-70.5 133t-23.5 158.5q0 56 11 118.5t33.5 122.5t56.5 114.5t79.5 96t102 66t125.5 24.5q56 0 104 -18t83.5 -50.5t55.5 -78.5t20 -103q0 -62 -30.5 -124t-84.5 -117t-128.5 -98t-161.5 -67 q15 -27 29.5 -45t29.5 -28t31.5 -14t35.5 -4q60 0 126.5 24t129.5 60t119 78.5t95 80.5l129 -134q-88 -91 -187 -161q-43 -30 -92.5 -59t-104 -51.5t-113 -36t-118.5 -13.5z"/>
<glyph glyph-name="ccedilla" horiz-adv-x="736" unicode="ç" d="M437 0q-92 0 -161.5 34t-116.5 91t-71 132t-24 156q0 58 12 121t35.5 123.5t58 115.5t80 96.5t101.5 66t123 24.5q57 0 105.5 -17.5t83 -48.5t54 -73.5t19.5 -91.5q0 -34 -9 -67t-26.5 -59.5t-42.5 -42.5t-56 -16q-47 0 -61.5 25t-14.5 69q0 18 1.5 38t1.5 36q0 24 -5 40 t-22 16q-41 0 -70 -19.5t-49.5 -51t-32.5 -71t-19 -78.5t-9 -74.5t-2 -59.5q0 -36 6.5 -75t24.5 -71.5t49 -54t80 -21.5q48 0 106 29.5t116.5 74.5t111.5 99t91 102l69 -116q-75 -107 -162 -191q-37 -36 -80.5 -70t-91 -60.5t-99 -43t-104.5 -16.5zM541 46 q-10 -103 -16 -165.5t-10 -98t-6.5 -51.5t-4.5 -26.5t-4.5 -23t-6.5 -41.5q-5 -37 -21.5 -65t-39 -47t-49.5 -29t-53 -10q-22 0 -42 7t-35.5 22t-24.5 37.5t-9 52.5q0 42 17 87.5t46 98.5t68 115t83 137q8 20 26 35t38 15q19 0 32.5 -8t13.5 -27q0 -5 -2 -15z"/>
<glyph glyph-name="egrave" horiz-adv-x="787" unicode="è" d="M333 470q36 0 78.5 18.5t79 47.5t61.5 63t25 66q0 45 -16.5 74t-40.5 29q-43 0 -73.5 -16t-51 -41.5t-33 -58t-19 -65.5t-8.5 -64t-2 -53zM466 0q-94 0 -164.5 34t-117.5 91.5t-70.5 133t-23.5 158.5q0 56 11 118.5t33.5 122.5t56.5 114.5t79.5 96t102 66t125.5 24.5 q56 0 104 -18t83.5 -50.5t55.5 -78.5t20 -103q0 -62 -30.5 -124t-84.5 -117t-128.5 -98t-161.5 -67q15 -27 29.5 -45t29.5 -28t31.5 -14t35.5 -4q60 0 126.5 24t129.5 60t119 78.5t95 80.5l129 -134q-88 -91 -187 -161q-43 -30 -92.5 -59t-104 -51.5t-113 -36t-118.5 -13.5z M604 1203q5 -13 7.5 -25t2.5 -23q0 -30 -17 -48.5t-41 -18.5q-17 0 -34.5 8.5t-33.5 28.5q-13 15 -33 40t-45 55.5t-52.5 64.5t-54 68.5t-51 66t-43.5 57.5q-37 52 -37 97q0 30 13 55t33.5 43t46.5 28t52 10q29 0 55.5 -15t39.5 -49q46 -104 85 -194q16 -38 33 -77 t31.5 -72.5t25.5 -60t17 -39.5z"/>
<glyph glyph-name="eacute" horiz-adv-x="787" unicode="é" d="M333 470q36 0 78.5 18.5t79 47.5t61.5 63t25 66q0 45 -16.5 74t-40.5 29q-43 0 -73.5 -16t-51 -41.5t-33 -58t-19 -65.5t-8.5 -64t-2 -53zM466 0q-94 0 -164.5 34t-117.5 91.5t-70.5 133t-23.5 158.5q0 56 11 118.5t33.5 122.5t56.5 114.5t79.5 96t102 66t125.5 24.5 q56 0 104 -18t83.5 -50.5t55.5 -78.5t20 -103q0 -62 -30.5 -124t-84.5 -117t-128.5 -98t-161.5 -67q15 -27 29.5 -45t29.5 -28t31.5 -14t35.5 -4q60 0 126.5 24t129.5 60t119 78.5t95 80.5l129 -134q-88 -91 -187 -161q-43 -30 -92.5 -59t-104 -51.5t-113 -36t-118.5 -13.5z M472 1236q6 13 17 39.5t25.5 60t31 72.5t33.5 77q39 90 85 194q13 34 39.5 49t55.5 15q26 0 52 -10t46.5 -28t33.5 -43t13 -55q0 -47 -37 -97q-19 -26 -43.5 -57.5t-51 -66t-54 -68.5t-52.5 -64.5t-45.5 -55.5t-32.5 -40q-17 -20 -34 -28.5t-34 -8.5q-24 0 -41 18.5 t-17 48.5q0 11 2.5 23t7.5 25z"/>
<glyph glyph-name="ecircumflex" horiz-adv-x="787" unicode="ê" d="M333 470q36 0 78.5 18.5t79 47.5t61.5 63t25 66q0 45 -16.5 74t-40.5 29q-43 0 -73.5 -16t-51 -41.5t-33 -58t-19 -65.5t-8.5 -64t-2 -53zM466 0q-94 0 -164.5 34t-117.5 91.5t-70.5 133t-23.5 158.5q0 56 11 118.5t33.5 122.5t56.5 114.5t79.5 96t102 66t125.5 24.5 q56 0 104 -18t83.5 -50.5t55.5 -78.5t20 -103q0 -62 -30.5 -124t-84.5 -117t-128.5 -98t-161.5 -67q15 -27 29.5 -45t29.5 -28t31.5 -14t35.5 -4q60 0 126.5 24t129.5 60t119 78.5t95 80.5l129 -134q-88 -91 -187 -161q-43 -30 -92.5 -59t-104 -51.5t-113 -36t-118.5 -13.5z M581 1620q-31 -81 -59 -154q-12 -31 -24.5 -63.5t-24 -62.5t-22 -56t-17.5 -44q-18 -47 -37.5 -73t-40 -38t-41.5 -14.5t-42 -2.5q-11 0 -23 6.5t-22 18.5t-17 28.5t-7 37.5q0 19 8 38l164 329q27 52 48.5 92t44.5 67t53 41t75 14q44 0 74 -16.5t51 -48.5t36.5 -78.5 t30.5 -106.5q11 -34 18 -55t12 -37t9.5 -30t10.5 -34t15 -48.5t23 -73.5q5 -18 5 -35q0 -47 -29 -80t-86 -33q-19 0 -36.5 6t-32.5 21t-26.5 40.5t-17.5 64.5q-17 103 -31 175t-23 118q-11 54 -19 87z"/>
<glyph glyph-name="edieresis" horiz-adv-x="787" unicode="ë" d="M333 470q36 0 78.5 18.5t79 47.5t61.5 63t25 66q0 45 -16.5 74t-40.5 29q-43 0 -73.5 -16t-51 -41.5t-33 -58t-19 -65.5t-8.5 -64t-2 -53zM466 0q-94 0 -164.5 34t-117.5 91.5t-70.5 133t-23.5 158.5q0 56 11 118.5t33.5 122.5t56.5 114.5t79.5 96t102 66t125.5 24.5 q56 0 104 -18t83.5 -50.5t55.5 -78.5t20 -103q0 -62 -30.5 -124t-84.5 -117t-128.5 -98t-161.5 -67q15 -27 29.5 -45t29.5 -28t31.5 -14t35.5 -4q60 0 126.5 24t129.5 60t119 78.5t95 80.5l129 -134q-88 -91 -187 -161q-43 -30 -92.5 -59t-104 -51.5t-113 -36t-118.5 -13.5z M430 1306q0 -4 -1 -18.5t-6 -34t-15 -40.5t-28 -39t-45.5 -30t-66.5 -12q-64 0 -102.5 34.5t-38.5 113.5q0 33 9 64.5t28 55.5t49 39t72 15q70 0 107.5 -38t37.5 -110zM897 1306q0 -4 -1 -18.5t-5.5 -34t-14.5 -40.5t-28 -39t-45.5 -30t-67.5 -12q-62 0 -101.5 34.5 t-39.5 113.5q0 33 9 64.5t28.5 55.5t49 39t71.5 15q71 0 108 -38t37 -110z"/>
<glyph glyph-name="igrave" horiz-adv-x="537" unicode="ì" d="M736 213q-36 -33 -89.5 -70.5t-115.5 -69t-126.5 -52.5t-122.5 -21q-52 0 -87.5 14.5t-57.5 40.5t-31.5 63.5t-9.5 82.5q0 63 14.5 146.5t35.5 173t44.5 178.5t41.5 164q7 26 28 44.5t47.5 30t55 17t51.5 5.5q42 0 57 -15.5t15 -41.5q0 -22 -10 -63.5t-25 -94t-32 -113 t-32 -121t-25 -118t-10 -103.5q0 -45 10 -71.5t41 -26.5q36 0 80 25t89 60.5t88 73.5t76 65v-203zM500 1245q5 -13 7.5 -25t2.5 -23q0 -30 -17 -48.5t-41 -18.5q-17 0 -34.5 8.5t-33.5 28.5q-13 15 -33 40t-45 55.5t-52.5 64.5t-54 68.5t-51 66t-43.5 57.5q-37 52 -37 97 q0 30 13 55t33.5 43t46.5 28t52 10q29 0 55.5 -15t39.5 -49q46 -104 85 -194q16 -38 33 -77t31.5 -72.5t25.5 -60t17 -39.5z"/>
<glyph glyph-name="iacute" horiz-adv-x="537" unicode="í" d="M736 213q-36 -33 -89.5 -70.5t-115.5 -69t-126.5 -52.5t-122.5 -21q-52 0 -87.5 14.5t-57.5 40.5t-31.5 63.5t-9.5 82.5q0 63 14.5 146.5t35.5 173t44.5 178.5t41.5 164q7 26 28 44.5t47.5 30t55 17t51.5 5.5q42 0 57 -15.5t15 -41.5q0 -22 -10 -63.5t-25 -94t-32 -113 t-32 -121t-25 -118t-10 -103.5q0 -45 10 -71.5t41 -26.5q36 0 80 25t89 60.5t88 73.5t76 65v-203zM360 1231q6 13 17 39.5t25.5 60t31 72.5t33.5 77q39 90 85 194q13 34 39.5 49t55.5 15q26 0 52 -10t46.5 -28t33.5 -43t13 -55q0 -47 -37 -97q-19 -26 -43.5 -57.5t-51 -66 t-54 -68.5t-52.5 -64.5t-45.5 -55.5t-32.5 -40q-17 -20 -34 -28.5t-34 -8.5q-24 0 -41 18.5t-17 48.5q0 11 2.5 23t7.5 25z"/>
<glyph glyph-name="icircumflex" horiz-adv-x="537" unicode="î" d="M736 213q-36 -33 -89.5 -70.5t-115.5 -69t-126.5 -52.5t-122.5 -21q-52 0 -87.5 14.5t-57.5 40.5t-31.5 63.5t-9.5 82.5q0 63 14.5 146.5t35.5 173t44.5 178.5t41.5 164q7 26 28 44.5t47.5 30t55 17t51.5 5.5q42 0 57 -15.5t15 -41.5q0 -22 -10 -63.5t-25 -94t-32 -113 t-32 -121t-25 -118t-10 -103.5q0 -45 10 -71.5t41 -26.5q36 0 80 25t89 60.5t88 73.5t76 65v-203zM449 1638q-31 -81 -59 -154q-12 -31 -24.5 -63.5t-24 -62.5t-22 -56t-17.5 -44q-18 -47 -37.5 -73t-40 -38t-41.5 -14.5t-42 -2.5q-11 0 -23 6.5t-22 18.5t-17 28.5t-7 37.5 q0 19 8 38l164 329q27 52 48.5 92t44.5 67t53 41t75 14q44 0 74 -16.5t51 -48.5t36.5 -78.5t30.5 -106.5q11 -34 18 -55t12 -37t9.5 -30t10.5 -34t15 -48.5t23 -73.5q5 -18 5 -35q0 -47 -29 -80t-86 -33q-19 0 -36.5 6t-32.5 21t-26.5 40.5t-17.5 64.5q-17 103 -31 175 t-23 118q-11 54 -19 87z"/>
<glyph glyph-name="idieresis" horiz-adv-x="537" unicode="ï" d="M736 213q-36 -33 -89.5 -70.5t-115.5 -69t-126.5 -52.5t-122.5 -21q-52 0 -87.5 14.5t-57.5 40.5t-31.5 63.5t-9.5 82.5q0 63 14.5 146.5t35.5 173t44.5 178.5t41.5 164q7 26 28 44.5t47.5 30t55 17t51.5 5.5q42 0 57 -15.5t15 -41.5q0 -22 -10 -63.5t-25 -94t-32 -113 t-32 -121t-25 -118t-10 -103.5q0 -45 10 -71.5t41 -26.5q36 0 80 25t89 60.5t88 73.5t76 65v-203zM310 1339q0 -4 -1 -18.5t-6 -34t-15 -40.5t-28 -39t-45.5 -30t-66.5 -12q-64 0 -102.5 34.5t-38.5 113.5q0 33 9 64.5t28 55.5t49 39t72 15q70 0 107.5 -38t37.5 -110z M777 1339q0 -4 -1 -18.5t-5.5 -34t-14.5 -40.5t-28 -39t-45.5 -30t-67.5 -12q-62 0 -101.5 34.5t-39.5 113.5q0 33 9 64.5t28.5 55.5t49 39t71.5 15q71 0 108 -38t37 -110z"/>
<glyph glyph-name="eth" horiz-adv-x="1089" unicode="ð" d="M542 192q52 0 100 48t88 125t69 173q30 96 48 191q-33 16 -77 27t-109 11q-64 0 -130 -28q-65 -28 -119 -76t-88 -112t-34 -135q0 -46 14 -86t43 -70q30 -30 78 -50q48 -18 117 -18zM426 1506q-16 0 -30 10t-26 25q-12 16 -18 36t-6 41q0 20 8 40t24 36q18 16 46 26t67 9 q79 1 149 -17t129 -50q61 -32 111 -78t91 -101l165 72q11 5 24 9t27 3q13 0 27 -6q14 -7 26 -19t20 -31t7 -45q0 -26 -18 -52t-67 -48l-120 -52q32 -81 48 -171t16 -185q0 -132 -20 -254t-59 -228t-93 -194t-122 -150t-150 -98q-81 -34 -172 -34q-78 0 -158 24t-143 74 q-65 50 -105 129t-40 189q0 68 24 136t66 132t98 120t120 98t134 65q70 24 139 24t125 -8t102 -22v7q0 72 -9 134t-26 114q-45 -19 -91 -39t-93 -41q-23 -10 -44 -10q-27 0 -45 14t-31 32q-12 18 -17 37q-5 18 -5 27q0 20 14 40t52 37l166 71q-57 62 -137 92t-180 30z"/>
<glyph glyph-name="ntilde" horiz-adv-x="927" unicode="ñ" d="M128 209q0 66 8 152.5t20 176t27 172.5t29 142q11 46 42.5 77t85.5 31t75 -33t21 -88q0 -15 -3 -40.5t-7.5 -56t-9.5 -63t-9.5 -60t-7.5 -48t-3 -27.5h20q6 11 19 35.5t30 56.5t36.5 67.5t36.5 68t31 57.5t21 37q32 54 73 74t91 20t79.5 -42t29.5 -116q0 -11 -4.5 -37 t-11.5 -62t-15.5 -79t-15.5 -88t-11.5 -89t-4.5 -81q0 -62 15.5 -102t48.5 -40q15 0 34.5 9t42 23.5t46 33.5t46.5 39q53 47 111 106l17 -224l-50 -38q-41 -31 -83.5 -62t-88.5 -55.5t-96 -40t-105 -15.5t-92.5 79.5t-37.5 232.5q0 60 8 129.5t20 149.5h-16l-262 -520 q-20 -41 -45 -56t-58 -15q-41 0 -66 17.5t-38.5 47t-18 67t-4.5 77.5zM748 1306q12 13 24 30q11 14 23.5 32t25.5 38q20 32 49.5 47.5t58.5 15.5q34 0 58.5 -19t24.5 -54q0 -25 -14 -53q-12 -23 -31 -58.5t-47.5 -69t-66.5 -57.5t-87 -24q-31 0 -56.5 8.5t-58.5 30.5 t-80.5 60t-122.5 97q-12 -15 -24 -31q-11 -14 -24 -31.5t-25 -37.5q-20 -32 -49.5 -47.5t-58.5 -15.5q-34 0 -58.5 19t-24.5 54q0 25 14 53q12 23 31 58.5t47.5 69t66.5 57.5t87 24q31 0 56.5 -8.5t58.5 -30.5t80.5 -60t122.5 -97z"/>
<glyph glyph-name="ograve" horiz-adv-x="873" unicode="ò" d="M433 192q34 0 66 34.5t56 87t38.5 116t14.5 121.5q0 46 -7 85.5t-21 68.5t-36 46t-53 17q-41 0 -78 -35t-65 -89.5t-44 -120.5t-16 -127q0 -42 8 -79t25 -64.5t45 -44t67 -16.5zM742 749q29 -58 43.5 -122.5t14.5 -123.5t-13 -119t-37.5 -116t-60 -105t-81 -85t-99.5 -57 t-115 -21q-88 0 -150.5 38.5t-102.5 100.5t-58.5 140t-18.5 158q0 110 33 205.5t94.5 166t150.5 111t200 40.5q95 0 178 -29.5t155.5 -79t135 -113.5t116.5 -132l-19 -141q-27 36 -73 78t-97.5 82t-101.5 75.5t-86 59.5zM633 1259q5 -13 7.5 -25t2.5 -23q0 -30 -17 -48.5 t-41 -18.5q-17 0 -34.5 8.5t-33.5 28.5q-13 15 -33 40t-45 55.5t-52.5 64.5t-54 68.5t-51 66t-43.5 57.5q-37 52 -37 97q0 30 13 55t33.5 43t46.5 28t52 10q29 0 55.5 -15t39.5 -49q46 -104 85 -194q16 -38 33 -77t31.5 -72.5t25.5 -60t17 -39.5z"/>
<glyph glyph-name="oacute" horiz-adv-x="873" unicode="ó" d="M433 192q34 0 66 34.5t56 87t38.5 116t14.5 121.5q0 46 -7 85.5t-21 68.5t-36 46t-53 17q-41 0 -78 -35t-65 -89.5t-44 -120.5t-16 -127q0 -42 8 -79t25 -64.5t45 -44t67 -16.5zM742 749q29 -58 43.5 -122.5t14.5 -123.5t-13 -119t-37.5 -116t-60 -105t-81 -85t-99.5 -57 t-115 -21q-88 0 -150.5 38.5t-102.5 100.5t-58.5 140t-18.5 158q0 110 33 205.5t94.5 166t150.5 111t200 40.5q95 0 178 -29.5t155.5 -79t135 -113.5t116.5 -132l-19 -141q-27 36 -73 78t-97.5 82t-101.5 75.5t-86 59.5zM475 1240q6 13 17 39.5t25.5 60t31 72.5t33.5 77 q39 90 85 194q13 34 39.5 49t55.5 15q26 0 52 -10t46.5 -28t33.5 -43t13 -55q0 -47 -37 -97q-19 -26 -43.5 -57.5t-51 -66t-54 -68.5t-52.5 -64.5t-45.5 -55.5t-32.5 -40q-17 -20 -34 -28.5t-34 -8.5q-24 0 -41 18.5t-17 48.5q0 11 2.5 23t7.5 25z"/>
<glyph glyph-name="ocircumflex" horiz-adv-x="873" unicode="ô" d="M433 192q34 0 66 34.5t56 87t38.5 116t14.5 121.5q0 46 -7 85.5t-21 68.5t-36 46t-53 17q-41 0 -78 -35t-65 -89.5t-44 -120.5t-16 -127q0 -42 8 -79t25 -64.5t45 -44t67 -16.5zM742 749q29 -58 43.5 -122.5t14.5 -123.5t-13 -119t-37.5 -116t-60 -105t-81 -85t-99.5 -57 t-115 -21q-88 0 -150.5 38.5t-102.5 100.5t-58.5 140t-18.5 158q0 110 33 205.5t94.5 166t150.5 111t200 40.5q95 0 178 -29.5t155.5 -79t135 -113.5t116.5 -132l-19 -141q-27 36 -73 78t-97.5 82t-101.5 75.5t-86 59.5zM602 1629q-31 -81 -59 -154q-12 -31 -24.5 -63.5 t-24 -62.5t-22 -56t-17.5 -44q-18 -47 -37.5 -73t-40 -38t-41.5 -14.5t-42 -2.5q-11 0 -23 6.5t-22 18.5t-17 28.5t-7 37.5q0 19 8 38l164 329q27 52 48.5 92t44.5 67t53 41t75 14q44 0 74 -16.5t51 -48.5t36.5 -78.5t30.5 -106.5q11 -34 18 -55t12 -37t9.5 -30t10.5 -34 t15 -48.5t23 -73.5q5 -18 5 -35q0 -47 -29 -80t-86 -33q-19 0 -36.5 6t-32.5 21t-26.5 40.5t-17.5 64.5q-17 103 -31 175t-23 118q-11 54 -19 87z"/>
<glyph glyph-name="otilde" horiz-adv-x="873" unicode="õ" d="M433 192q34 0 66 34.5t56 87t38.5 116t14.5 121.5q0 46 -7 85.5t-21 68.5t-36 46t-53 17q-41 0 -78 -35t-65 -89.5t-44 -120.5t-16 -127q0 -42 8 -79t25 -64.5t45 -44t67 -16.5zM742 749q29 -58 43.5 -122.5t14.5 -123.5t-13 -119t-37.5 -116t-60 -105t-81 -85t-99.5 -57 t-115 -21q-88 0 -150.5 38.5t-102.5 100.5t-58.5 140t-18.5 158q0 110 33 205.5t94.5 166t150.5 111t200 40.5q95 0 178 -29.5t155.5 -79t135 -113.5t116.5 -132l-19 -141q-27 36 -73 78t-97.5 82t-101.5 75.5t-86 59.5zM690 1278q12 13 24 30q11 14 23.5 32t25.5 38 q20 32 49.5 47.5t58.5 15.5q34 0 58.5 -19t24.5 -54q0 -25 -14 -53q-12 -23 -31 -58.5t-47.5 -69t-66.5 -57.5t-87 -24q-31 0 -56.5 8.5t-58.5 30.5t-80.5 60t-122.5 97q-12 -15 -24 -31q-11 -14 -24 -31.5t-25 -37.5q-20 -32 -49.5 -47.5t-58.5 -15.5q-34 0 -58.5 19 t-24.5 54q0 25 14 53q12 23 31 58.5t47.5 69t66.5 57.5t87 24q31 0 56.5 -8.5t58.5 -30.5t80.5 -60t122.5 -97z"/>
<glyph glyph-name="odieresis" horiz-adv-x="873" unicode="ö" d="M433 192q34 0 66 34.5t56 87t38.5 116t14.5 121.5q0 46 -7 85.5t-21 68.5t-36 46t-53 17q-41 0 -78 -35t-65 -89.5t-44 -120.5t-16 -127q0 -42 8 -79t25 -64.5t45 -44t67 -16.5zM742 749q29 -58 43.5 -122.5t14.5 -123.5t-13 -119t-37.5 -116t-60 -105t-81 -85t-99.5 -57 t-115 -21q-88 0 -150.5 38.5t-102.5 100.5t-58.5 140t-18.5 158q0 110 33 205.5t94.5 166t150.5 111t200 40.5q95 0 178 -29.5t155.5 -79t135 -113.5t116.5 -132l-19 -141q-27 36 -73 78t-97.5 82t-101.5 75.5t-86 59.5zM481 1310q0 -4 -1 -18.5t-6 -34t-15 -40.5t-28 -39 t-45.5 -30t-66.5 -12q-64 0 -102.5 34.5t-38.5 113.5q0 33 9 64.5t28 55.5t49 39t72 15q70 0 107.5 -38t37.5 -110zM948 1310q0 -4 -1 -18.5t-5.5 -34t-14.5 -40.5t-28 -39t-45.5 -30t-67.5 -12q-62 0 -101.5 34.5t-39.5 113.5q0 33 9 64.5t28.5 55.5t49 39t71.5 15 q71 0 108 -38t37 -110z"/>
<glyph glyph-name="divide" horiz-adv-x="1025" unicode="÷" d="M667 312q0 -4 -1 -20t-6.5 -37t-17 -44.5t-32.5 -43.5t-53 -33t-78 -13q-37 0 -67 9.5t-51.5 29t-33.5 50t-12 73.5q0 36 10.5 70.5t32.5 61.5t57 43t83 16q83 0 126 -42t43 -120zM727 984q0 -4 -1 -20t-6.5 -37t-17 -44.5t-32.5 -43.5t-53 -33t-78 -13q-37 0 -67 9.5 t-51.5 29t-33.5 50t-12 73.5q0 36 10.5 70.5t32.5 61.5t57 43t83 16q83 0 126 -42t43 -120zM219 546q-31 0 -54 7.5t-38.5 20t-23 29t-7.5 33.5q0 18 9 36.5t26 33t43 23.5t61 9h598q50 0 72.5 -23t22.5 -54q0 -35 -10 -57.5t-26 -35.5t-34.5 -17.5t-36.5 -4.5h-602z"/>
<glyph glyph-name="oslash" horiz-adv-x="873" unicode="ø" d="M593 719q-29 -114 -65 -246t-78 -279q38 8 72 44t60 87t40 111q16 60 16 115q0 51 -11 95t-34 73zM459 763q-43 -11 -79 -49t-63 -90t-43 -112t-16 -116q0 -48 12 -89t41 -70zM742 749q30 -59 44 -123t14 -123t-13 -119t-37 -116t-60 -105t-82 -85t-99 -57 q-54 -21 -115 -21l-34 -108q-10 -24 -20 -38t-20 -22t-21 -10q-10 -2 -20 -2t-20 2q-9 2 -17 8q-8 7 -13 20t-5 36q0 25 6 59t24 88q-50 25 -86 69t-59 98t-34 114t-11 123q0 106 31 199t89 163q58 71 142 113t188 47q10 41 22 87t29 83q17 39 43 63t66 24q11 0 17 -7t9 -17 q4 -10 4 -24v-23q0 -7 -2 -19t-7 -27q-4 -15 -8 -31t-7 -25l-27 -95q75 -15 141 -49q66 -33 124 -79t111 -101q52 -55 98 -113l-19 -141q-27 36 -73 78q-45 42 -97 82q-52 39 -102 75t-86 60z"/>
<glyph glyph-name="ugrave" horiz-adv-x="962" unicode="ù" d="M876 895q0 -27 -6 -73.5t-15.5 -102t-20.5 -114.5t-20.5 -110t-15.5 -89.5t-6 -53.5q0 -28 1 -51.5t6 -41t15.5 -27t30.5 -9.5q22 0 53.5 11t67 29.5t72.5 42t70.5 49.5t61 51.5t44.5 47.5q0 -33 0.5 -60t0.5 -51.5t0.5 -50.5t0.5 -58q-22 -22 -54.5 -47t-72 -50t-84 -48 t-89.5 -40.5t-89 -28t-82 -10.5t-65 15t-46.5 42t-33 64.5t-23.5 83.5q-36 -47 -76 -86.5t-81.5 -68.5t-84 -45.5t-82.5 -16.5q-33 0 -62 11t-51.5 37t-35.5 68.5t-13 105.5q0 77 18.5 196t45.5 272q2 15 7.5 40.5t15 55.5t23.5 61t33 56t44.5 41t57.5 17q53 -2 76 -13.5 t23 -28.5q-9 -53 -19.5 -118t-21.5 -131t-21 -128.5t-18 -111.5t-12.5 -79t-4.5 -31q0 -18 3.5 -34.5t10.5 -29.5t18 -21t26 -8q22 0 45 11.5t43.5 33t36.5 53t24 71.5l99 508q5 24 40.5 40.5t80.5 16.5q51 0 81 -18t30 -46zM655 1240q5 -13 7.5 -25t2.5 -23 q0 -30 -17 -48.5t-41 -18.5q-17 0 -34.5 8.5t-33.5 28.5q-13 15 -33 40t-45 55.5t-52.5 64.5t-54 68.5t-51 66t-43.5 57.5q-37 52 -37 97q0 30 13 55t33.5 43t46.5 28t52 10q29 0 55.5 -15t39.5 -49q46 -104 85 -194q16 -38 33 -77t31.5 -72.5t25.5 -60t17 -39.5z"/>
<glyph glyph-name="uacute" horiz-adv-x="962" unicode="ú" d="M876 895q0 -27 -6 -73.5t-15.5 -102t-20.5 -114.5t-20.5 -110t-15.5 -89.5t-6 -53.5q0 -28 1 -51.5t6 -41t15.5 -27t30.5 -9.5q22 0 53.5 11t67 29.5t72.5 42t70.5 49.5t61 51.5t44.5 47.5q0 -33 0.5 -60t0.5 -51.5t0.5 -50.5t0.5 -58q-22 -22 -54.5 -47t-72 -50t-84 -48 t-89.5 -40.5t-89 -28t-82 -10.5t-65 15t-46.5 42t-33 64.5t-23.5 83.5q-36 -47 -76 -86.5t-81.5 -68.5t-84 -45.5t-82.5 -16.5q-33 0 -62 11t-51.5 37t-35.5 68.5t-13 105.5q0 77 18.5 196t45.5 272q2 15 7.5 40.5t15 55.5t23.5 61t33 56t44.5 41t57.5 17q53 -2 76 -13.5 t23 -28.5q-9 -53 -19.5 -118t-21.5 -131t-21 -128.5t-18 -111.5t-12.5 -79t-4.5 -31q0 -18 3.5 -34.5t10.5 -29.5t18 -21t26 -8q22 0 45 11.5t43.5 33t36.5 53t24 71.5l99 508q5 24 40.5 40.5t80.5 16.5q51 0 81 -18t30 -46zM506 1240q6 13 17 39.5t25.5 60t31 72.5t33.5 77 q39 90 85 194q13 34 39.5 49t55.5 15q26 0 52 -10t46.5 -28t33.5 -43t13 -55q0 -47 -37 -97q-19 -26 -43.5 -57.5t-51 -66t-54 -68.5t-52.5 -64.5t-45.5 -55.5t-32.5 -40q-17 -20 -34 -28.5t-34 -8.5q-24 0 -41 18.5t-17 48.5q0 11 2.5 23t7.5 25z"/>
<glyph glyph-name="ucircumflex" horiz-adv-x="962" unicode="û" d="M876 895q0 -27 -6 -73.5t-15.5 -102t-20.5 -114.5t-20.5 -110t-15.5 -89.5t-6 -53.5q0 -28 1 -51.5t6 -41t15.5 -27t30.5 -9.5q22 0 53.5 11t67 29.5t72.5 42t70.5 49.5t61 51.5t44.5 47.5q0 -33 0.5 -60t0.5 -51.5t0.5 -50.5t0.5 -58q-22 -22 -54.5 -47t-72 -50t-84 -48 t-89.5 -40.5t-89 -28t-82 -10.5t-65 15t-46.5 42t-33 64.5t-23.5 83.5q-36 -47 -76 -86.5t-81.5 -68.5t-84 -45.5t-82.5 -16.5q-33 0 -62 11t-51.5 37t-35.5 68.5t-13 105.5q0 77 18.5 196t45.5 272q2 15 7.5 40.5t15 55.5t23.5 61t33 56t44.5 41t57.5 17q53 -2 76 -13.5 t23 -28.5q-9 -53 -19.5 -118t-21.5 -131t-21 -128.5t-18 -111.5t-12.5 -79t-4.5 -31q0 -18 3.5 -34.5t10.5 -29.5t18 -21t26 -8q22 0 45 11.5t43.5 33t36.5 53t24 71.5l99 508q5 24 40.5 40.5t80.5 16.5q51 0 81 -18t30 -46zM631 1630q-31 -81 -59 -154q-12 -31 -24.5 -63.5 t-24 -62.5t-22 -56t-17.5 -44q-18 -47 -37.5 -73t-40 -38t-41.5 -14.5t-42 -2.5q-11 0 -23 6.5t-22 18.5t-17 28.5t-7 37.5q0 19 8 38l164 329q27 52 48.5 92t44.5 67t53 41t75 14q44 0 74 -16.5t51 -48.5t36.5 -78.5t30.5 -106.5q11 -34 18 -55t12 -37t9.5 -30t10.5 -34 t15 -48.5t23 -73.5q5 -18 5 -35q0 -47 -29 -80t-86 -33q-19 0 -36.5 6t-32.5 21t-26.5 40.5t-17.5 64.5q-17 103 -31 175t-23 118q-11 54 -19 87z"/>
<glyph glyph-name="udieresis" horiz-adv-x="962" unicode="ü" d="M876 895q0 -27 -6 -73.5t-15.5 -102t-20.5 -114.5t-20.5 -110t-15.5 -89.5t-6 -53.5q0 -28 1 -51.5t6 -41t15.5 -27t30.5 -9.5q22 0 53.5 11t67 29.5t72.5 42t70.5 49.5t61 51.5t44.5 47.5q0 -33 0.5 -60t0.5 -51.5t0.5 -50.5t0.5 -58q-22 -22 -54.5 -47t-72 -50t-84 -48 t-89.5 -40.5t-89 -28t-82 -10.5t-65 15t-46.5 42t-33 64.5t-23.5 83.5q-36 -47 -76 -86.5t-81.5 -68.5t-84 -45.5t-82.5 -16.5q-33 0 -62 11t-51.5 37t-35.5 68.5t-13 105.5q0 77 18.5 196t45.5 272q2 15 7.5 40.5t15 55.5t23.5 61t33 56t44.5 41t57.5 17q53 -2 76 -13.5 t23 -28.5q-9 -53 -19.5 -118t-21.5 -131t-21 -128.5t-18 -111.5t-12.5 -79t-4.5 -31q0 -18 3.5 -34.5t10.5 -29.5t18 -21t26 -8q22 0 45 11.5t43.5 33t36.5 53t24 71.5l99 508q5 24 40.5 40.5t80.5 16.5q51 0 81 -18t30 -46zM525 1329q0 -4 -1 -18.5t-6 -34t-15 -40.5 t-28 -39t-45.5 -30t-66.5 -12q-64 0 -102.5 34.5t-38.5 113.5q0 33 9 64.5t28 55.5t49 39t72 15q70 0 107.5 -38t37.5 -110zM992 1329q0 -4 -1 -18.5t-5.5 -34t-14.5 -40.5t-28 -39t-45.5 -30t-67.5 -12q-62 0 -101.5 34.5t-39.5 113.5q0 33 9 64.5t28.5 55.5t49 39t71.5 15 q71 0 108 -38t37 -110z"/>
<glyph glyph-name="yacute" horiz-adv-x="928" unicode="ý" d="M172 -736q42 0 79.5 24.5t69 64.5t57.5 91t46 104.5t34 104.5t22 91q-39 -26 -79.5 -62t-79 -77.5t-73 -85.5t-60.5 -84.5t-41 -75.5t-15 -58q0 -37 40 -37zM640 768q8 34 28.5 60.5t47 44.5t55.5 27t55 9q31 0 52 -13.5t21 -42.5q0 -9 -3 -21q-6 -26 -15 -71t-19.5 -102 t-21.5 -120.5t-21 -126.5q-25 -148 -51 -318q30 17 65 42t78 67t96 105.5t119 158.5l48 -222q-18 -31 -46.5 -63.5t-63 -65t-72 -63t-73.5 -57.5q-85 -64 -183 -124q-19 -107 -45 -208.5t-61.5 -190t-81 -162.5t-103 -127t-128.5 -82.5t-157 -29.5q-34 0 -73.5 7t-73 28 t-55.5 60t-22 104q0 45 23 101.5t63 119t95 130t119.5 134.5t135 132t142.5 124l27 93q-54 -48 -112.5 -77.5t-113.5 -29.5q-48 0 -93.5 19.5t-80.5 56t-56 89t-21 118.5q0 87 8.5 160t24.5 139t40 127.5t55 124.5q23 45 66 68.5t84 23.5q35 0 60 -17.5t25 -54.5 q0 -11 -2.5 -24t-8.5 -28q-18 -46 -35.5 -108.5t-31 -128t-21.5 -128.5t-8 -111q0 -25 3.5 -48.5t12.5 -42t24 -30t38 -11.5q37 0 67 32t52 77t35.5 93t17.5 80zM549 1231q6 13 17 39.5t25.5 60t31 72.5t33.5 77q39 90 85 194q13 34 39.5 49t55.5 15q26 0 52 -10t46.5 -28 t33.5 -43t13 -55q0 -47 -37 -97q-19 -26 -43.5 -57.5t-51 -66t-54 -68.5t-52.5 -64.5t-45.5 -55.5t-32.5 -40q-17 -20 -34 -28.5t-34 -8.5q-24 0 -41 18.5t-17 48.5q0 11 2.5 23t7.5 25z"/>
<glyph glyph-name="thorn" horiz-adv-x="1023" unicode="þ" d="M561 732q-35 0 -70 -14t-65 -46q-30 -30 -53 -78t-34 -114q-9 -54 -15 -100t-10 -80q-4 -40 -7 -75q33 -10 66 -17q29 -6 61 -11t61 -5q34 0 62 20t50 54t38 76q16 44 26 90t15 92t5 83q1 25 -5 47t-20 40t-40 28t-65 10zM391 805q79 71 145 113t130 42q59 0 105 -26 t78 -69t49 -99t17 -117q0 -51 -4 -97q-5 -46 -15 -88q-10 -44 -28 -87t-49 -89q36 21 73 41q36 20 74 44q38 23 76 53t78 70l77 -165q-55 -50 -109 -87q-54 -36 -112 -64t-120 -48t-133 -36q-17 -17 -47 -34t-58 -31q-33 -16 -71 -31h-25q-65 0 -130 14t-124 36l-124 -665 q-6 -25 -16 -41t-22 -24t-26 -10t-27 -3q-9 1 -17 1h-16q-19 0 -35 10t-27 28q-12 18 -18 42t-6 49q0 12 1 26t3 29q16 116 29 204t23 158t20 128q9 58 19 118q10 58 21 122t26 148q16 84 34 190t43 249l5 27q6 28 16 75t22 111q14 64 29 136q15 74 31 154l32 160 q10 50 32 70t47 19q15 0 37 -7q22 -6 44 -18q23 -12 46 -27t41 -32q17 -17 29 -35t12 -34q0 -4 -14 -8t-30 -9q-16 -4 -30 -8t-16 -7z"/>
<glyph glyph-name="ydieresis" horiz-adv-x="928" unicode="ÿ" d="M172 -736q42 0 79.5 24.5t69 64.5t57.5 91t46 104.5t34 104.5t22 91q-39 -26 -79.5 -62t-79 -77.5t-73 -85.5t-60.5 -84.5t-41 -75.5t-15 -58q0 -37 40 -37zM640 768q8 34 28.5 60.5t47 44.5t55.5 27t55 9q31 0 52 -13.5t21 -42.5q0 -9 -3 -21q-6 -26 -15 -71t-19.5 -102 t-21.5 -120.5t-21 -126.5q-25 -148 -51 -318q30 17 65 42t78 67t96 105.5t119 158.5l48 -222q-18 -31 -46.5 -63.5t-63 -65t-72 -63t-73.5 -57.5q-85 -64 -183 -124q-19 -107 -45 -208.5t-61.5 -190t-81 -162.5t-103 -127t-128.5 -82.5t-157 -29.5q-34 0 -73.5 7t-73 28 t-55.5 60t-22 104q0 45 23 101.5t63 119t95 130t119.5 134.5t135 132t142.5 124l27 93q-54 -48 -112.5 -77.5t-113.5 -29.5q-48 0 -93.5 19.5t-80.5 56t-56 89t-21 118.5q0 87 8.5 160t24.5 139t40 127.5t55 124.5q23 45 66 68.5t84 23.5q35 0 60 -17.5t25 -54.5 q0 -11 -2.5 -24t-8.5 -28q-18 -46 -35.5 -108.5t-31 -128t-21.5 -128.5t-8 -111q0 -25 3.5 -48.5t12.5 -42t24 -30t38 -11.5q37 0 67 32t52 77t35.5 93t17.5 80zM508 1306q0 -4 -1 -18.5t-6 -34t-15 -40.5t-28 -39t-45.5 -30t-66.5 -12q-64 0 -102.5 34.5t-38.5 113.5 q0 33 9 64.5t28 55.5t49 39t72 15q70 0 107.5 -38t37.5 -110zM975 1306q0 -4 -1 -18.5t-5.5 -34t-14.5 -40.5t-28 -39t-45.5 -30t-67.5 -12q-62 0 -101.5 34.5t-39.5 113.5q0 33 9 64.5t28.5 55.5t49 39t71.5 15q71 0 108 -38t37 -110z"/>
<glyph glyph-name="dotlessi" horiz-adv-x="537" unicode="ı" d="M736 213q-36 -33 -89.5 -70.5t-115.5 -69t-126.5 -52.5t-122.5 -21q-52 0 -87.5 14.5t-57.5 40.5t-31.5 63.5t-9.5 82.5q0 63 14.5 146.5t35.5 173t44.5 178.5t41.5 164q7 26 28 44.5t47.5 30t55 17t51.5 5.5q42 0 57 -15.5t15 -41.5q0 -22 -10 -63.5t-25 -94t-32 -113 t-32 -121t-25 -118t-10 -103.5q0 -45 10 -71.5t41 -26.5q36 0 80 25t89 60.5t88 73.5t76 65v-203z"/>
<glyph glyph-name="Lslash" horiz-adv-x="992" unicode="Ł" d="M412 678q50 54 106 116t110 130l1 2q-42 -10 -85 -19q-53 -12 -103 -22q-20 -100 -29 -207zM652 1126q72 16 143 32q15 24 29 49q40 71 68 138t36 127q3 20 4 38t1 35q1 57 -15 83t-43 26q-32 0 -75 -34t-90 -95q-47 -62 -95 -150t-89 -196q-16 -42 -31 -87q77 17 157 34 zM-156 327q13 9 44 29t73 49q43 27 91 61t95 68l8 68q12 119 33 227q-12 -3 -23 -5q-76 -17 -119 -26q-15 -3 -27 -3q-29 0 -47 14q-18 15 -28 33t-15 37q-4 19 -4 29q-1 10 3 22t13 22t25 20q16 8 39 14q19 4 79 17t148 32l8 2q44 146 101 267q67 142 145 248t160 178 t162 106q80 36 148 36q50 0 92 -19t72 -57t47 -95t17 -133q0 -93 -28 -195q-20 -74 -53 -148q97 21 174 38q80 18 124 28q7 2 15 3t17 1q15 -1 29 -5t26 -14t19 -30q7 -19 7 -47q0 -15 -4 -31t-16 -28q-12 -14 -32 -26t-52 -18q-24 -5 -86 -19t-150 -33q-87 -19 -192 -42 q-14 -21 -29 -43q-71 -103 -159 -199t-190 -182t-210 -152q-2 -60 -4 -96t-2 -54v-26v-11q0 -9 4 -17t14 -12t28 -6t48 -3q45 0 121 22l335 96q8 2 16 3t15 1q25 1 43 -9t30 -26t18 -37t6 -43q0 -20 -6 -39t-18 -35t-30 -29q-18 -12 -42 -16q-98 -39 -200 -70 q-44 -13 -92 -25t-100 -22q-50 -10 -102 -16t-99 -6q-73 0 -121 26t-76 68q-28 44 -38 101q-11 57 -11 121q-86 -63 -146 -100t-77 -37q-16 -1 -32 11t-29 31t-21 43t-7 46q1 20 5 38t20 29z"/>
<glyph glyph-name="lslash" horiz-adv-x="575" unicode="ł" d="M352 800q45 80 95 180q40 79 77 162q-70 -15 -139 -30q-11 -56 -19 -115q-14 -101 -14 -197zM608 1356q6 21 13 41q33 106 42 197q1 30 -1 50t-10 20q-28 0 -62 -38t-68 -101q-34 -64 -64 -149q-10 -28 -19 -57q85 19 169 37zM351 0q-55 0 -101 48t-80 127t-54 185 t-20 222q0 90 13 194t38 215q8 37 17 73h-2q-83 -18 -140 -30q-15 -3 -27 -3q-29 0 -47 14q-18 15 -28 33t-15 37q-4 19 -4 29q-1 10 3 22t13 22t25 20q16 8 39 14q25 5 90 19t153 32l1 1q28 80 59 155q44 103 95 193t107 156t117 104t124 38q43 0 71 -20t44 -51 q16 -33 22 -73t7 -82q0 -94 -22 -192q-11 -49 -26 -99q73 15 124 27q7 2 15 3t17 1q15 0 29 -4t26 -16q12 -10 19 -29t7 -47q0 -14 -4 -30t-16 -30t-32 -24q-20 -12 -52 -19t-98 -22q-52 -11 -114 -24q-18 -40 -37 -80q-48 -99 -100 -197q-53 -98 -105 -192t-98 -184 q-4 -10 -10 -26t-11 -34t-10 -40q-5 -21 -8 -41v-14q-1 -27 5 -51t14 -44t17 -30q9 -12 17 -12q20 0 44 8t52 22t56 30q29 18 56 36q63 42 132 97l82 -210q-89 -64 -176 -114q-38 -21 -78 -41t-82 -37q-41 -15 -80 -25t-73 -10z"/>
<glyph glyph-name="OE" horiz-adv-x="2306" unicode="Œ" d="M766 32q67 0 127 24q61 24 113 68q52 42 96 100t82 128l192 928q-10 87 -36 158t-70 121q-43 49 -102 77t-134 28q-92 0 -178 -48t-162 -132q-76 -82 -139 -191t-108 -229t-70 -244t-25 -237q0 -119 28 -219t82 -174t130 -116t174 -42zM2590 250q-80 -86 -182 -150 t-212 -108t-225 -66q-114 -22 -221 -22q-73 0 -142 12t-130 36q-62 24 -112 60t-86 84q-36 -60 -94 -112t-130 -92t-152 -62t-162 -22q-148 0 -268 61t-204 171t-129 260q-45 152 -45 333q0 133 26 275t75 278t125 258t176 212q100 92 224 146t273 54q84 0 166 -23t153 -65 q70 -42 128 -101t94 -131q88 122 203 178t246 56q133 0 271 -52t272 -150l-96 -192q-44 44 -96 78t-108 57t-115 35q-58 12 -115 11q-66 -1 -126 -17t-110 -50q-49 -34 -83 -86t-47 -124l-64 -352h512q18 0 32 -8t24 -21t16 -29t6 -34q0 -19 -7 -37t-22 -32q-15 -15 -39 -23 t-56 -8h-498q-20 -81 -36 -151q-7 -30 -13 -60q-6 -31 -11 -57t-8 -46t-3 -32q-1 -75 21 -125q22 -51 60 -81t88 -43q51 -13 110 -13q71 0 149 14q77 14 155 38t152 58t136 72q63 38 111 82q48 42 74 85z"/>
<glyph glyph-name="oe" horiz-adv-x="1301" unicode="œ" d="M847 470q37 0 79 18t78 48q36 29 62 63q25 34 25 66q-1 45 -17 74t-40 29q-44 0 -74 -16t-50 -42t-34 -58q-12 -32 -18 -65t-9 -64q-2 -31 -2 -53zM433 192q34 0 66 34t56 88q25 52 39 116t14 121q0 45 -7 85t-21 69t-36 46t-53 17q-41 0 -78 -35t-65 -89t-44 -121 q-16 -66 -16 -127q0 -42 8 -79t25 -65t45 -44t67 -16zM980 0q-52 0 -97 17t-81 47t-61 71t-37 89q-24 -48 -59 -89t-76 -71t-86 -47t-89 -17q-88 0 -150 38t-103 101q-41 62 -59 140t-18 158q0 63 16 126t46 121t70 108t86 87t97 58t102 21q70 0 136 -44t119 -146 q95 191 276 191q56 0 104 -18q48 -19 84 -51t55 -78q20 -46 20 -103q-1 -62 -31 -124t-84 -117t-128 -98t-162 -67q16 -27 30 -45t29 -28t31 -14t36 -4q60 0 126 24t130 60q63 36 119 78t95 81l129 -134q-88 -91 -187 -161q-42 -30 -92 -59t-104 -51t-114 -36 q-58 -14 -118 -14z"/>
<glyph glyph-name="Scaron" horiz-adv-x="1695" unicode="Š" d="M733 1312q0 -66 38.5 -118t102 -96.5t144 -84.5t165 -82.5t165 -91t144 -109.5t102 -138t38.5 -176q0 -90 -29 -165.5t-79.5 -135.5t-119.5 -106t-149 -76t-168 -45.5t-177 -15.5q-125 0 -243 30.5t-210 92t-147.5 154t-55.5 216.5q0 64 20.5 112.5t51 81t66.5 49 t67 16.5q32 0 53.5 -17.5t21.5 -54.5q0 -17 -4 -36t-8.5 -41.5t-8.5 -49.5t-4 -59q0 -70 32 -121t85 -84t122 -49t143 -16q87 0 174 21t156 62t112 100.5t43 136.5q0 71 -38.5 127t-102 103.5t-144.5 89.5t-165 85t-165 90.5t-144.5 104.5t-102 127.5t-38.5 160.5 q0 84 40.5 165.5t122 146t203.5 104.5t286 40q104 0 203.5 -31t177.5 -88t125.5 -136t47.5 -175q0 -57 -19.5 -117t-62.5 -125q-42 -63 -91.5 -93.5t-89.5 -30.5q-30 0 -49 17.5t-19 52.5q0 26 12 61.5t41 81.5q27 44 40 82.5t13 71.5q0 51 -27.5 89.5t-76 64.5t-116.5 39 t-149 13q-90 0 -156.5 -20.5t-111 -53t-66 -72.5t-21.5 -79zM1277 2090q30 81 58 154q12 31 24.5 63.5t24.5 62.5t22 56t18 44q18 47 37.5 73t40 38t41.5 14.5t42 2.5q10 0 22 -6.5t22 -18.5t17 -28.5t7 -37.5q0 -18 -7 -38l-164 -329q-27 -53 -48.5 -93t-44.5 -67 t-53 -40.5t-75 -13.5q-44 0 -74 16.5t-51 48.5t-36.5 78.5t-30.5 106.5q-11 33 -18 54.5t-12 37.5t-9.5 30t-10.5 34t-15 48.5t-23 73.5q-3 8 -4 17t-1 18q0 23 7.5 43.5t21.5 36t35.5 24.5t49.5 9q19 0 36.5 -6t32.5 -21t26.5 -40.5t18.5 -64.5q17 -103 30.5 -175 t23.5 -118q11 -54 19 -87z"/>
<glyph glyph-name="scaron" horiz-adv-x="865" unicode="š" d="M224 256q12 0 26.5 -15t33.5 -33t44 -33t57 -15q39 0 64.5 13t40.5 34.5t21 50t6 59.5q0 27 -3.5 55t-9 53.5t-12 48t-11.5 38.5zM96 384q56 48 91 80t60 58.5t45.5 53.5t48.5 64t68 90.5t104 133.5q13 18 29 35t35.5 30.5t43 22t52.5 8.5q48 0 74 -10.5t38 -25.5 t14 -31.5t2 -28.5q0 -24 -19 -53t-42 -56t-43.5 -49.5t-23.5 -33.5q0 -31 4.5 -56.5t12 -50t15.5 -52t15.5 -63.5t12 -83t4.5 -111q36 24 77.5 43.5t86.5 40.5t92.5 46.5t95.5 61.5l1 -224q-62 -48 -143.5 -90t-171 -74t-181 -50.5t-173.5 -18.5q-59 0 -110 11t-89.5 34.5 t-62.5 61.5t-29 92q-14 -3 -27.5 -4t-26.5 -1q-16 0 -30 1t-24 7.5t-16 21t-6 41.5q0 24 12 44.5t28 36.5t32 28t24 19zM695 1273q30 81 58 154q12 31 24.5 63.5t24.5 62.5t22 56t18 44q18 47 37.5 73t40 38t41.5 14.5t42 2.5q10 0 22 -6.5t22 -18.5t17 -28.5t7 -37.5 q0 -18 -7 -38l-164 -329q-27 -53 -48.5 -93t-44.5 -67t-53 -40.5t-75 -13.5q-44 0 -74 16.5t-51 48.5t-36.5 78.5t-30.5 106.5q-11 33 -18 54.5t-12 37.5t-9.5 30t-10.5 34t-15 48.5t-23 73.5q-3 8 -4 17t-1 18q0 23 7.5 43.5t21.5 36t35.5 24.5t49.5 9q19 0 36.5 -6 t32.5 -21t26.5 -40.5t18.5 -64.5q17 -103 30.5 -175t23.5 -118q11 -54 19 -87z"/>
<glyph glyph-name="Ydieresis" horiz-adv-x="1344" unicode="Ÿ" d="M1126 506q-82 -112 -148 -195.5t-120.5 -143.5t-100 -99.5t-87.5 -62t-82 -31.5t-84 -9q-40 0 -81 18t-75 42t-57.5 47.5t-27.5 35.5q-6 8 -11 23t-5 31q0 15 7 26.5t24 11.5q6 0 15 -3q31 -20 61 -29t56 -9q75 0 135 26.5t108 68.5t86 95.5t68 107.5t53.5 103.5 t43.5 84.5q-35 88 -72 175t-77 166.5t-81.5 147.5t-85 118.5t-88.5 79t-90 28.5q-24 0 -38.5 -6t-22.5 -16t-11 -23t-3 -26q0 -15 2 -30t2 -26q0 -17 -8.5 -21t-19.5 -4q-20 0 -36 24t-27 64t-17 91.5t-6 106.5q0 17 9 35t28.5 33t49 24.5t71.5 9.5q114 0 208.5 -57.5 t175.5 -157t151 -233t136 -284.5q59 107 113.5 210.5t100.5 193.5t82.5 162.5t60.5 117.5q13 24 47.5 39t74.5 15q21 0 41 -6t35.5 -19t25.5 -34.5t10 -51.5q0 -42 -26 -103q-23 -53 -64.5 -137t-98 -188t-125.5 -221.5t-145 -236.5zM1011 1953q0 -4 -1 -18.5t-6 -34 t-15 -40.5t-28 -39t-45.5 -30t-66.5 -12q-64 0 -102.5 34.5t-38.5 113.5q0 33 9 64.5t28 55.5t49 39t72 15q70 0 107.5 -38t37.5 -110zM1478 1953q0 -4 -1 -18.5t-5.5 -34t-14.5 -40.5t-28 -39t-45.5 -30t-67.5 -12q-62 0 -101.5 34.5t-39.5 113.5q0 33 9 64.5t28.5 55.5 t49 39t71.5 15q71 0 108 -38t37 -110z"/>
<glyph glyph-name="Zcaron" horiz-adv-x="1025" unicode="Ž" d="M635 1313q-53 6 -94 17.5t-73 23t-57.5 20t-47.5 8.5q-18 0 -35 -8t-34.5 -27.5t-36.5 -52t-41 -81.5q-28 -61 -57 -83.5t-50 -22.5q-19 0 -27 16.5t-8 44.5q0 11 1.5 24t3.5 27q17 129 50.5 210t75 126.5t85.5 61.5t83 16q44 0 87 -13t87.5 -29t91 -29.5t96.5 -14.5 q37 -1 69.5 -1h61.5q91 0 144.5 2t82 4t38.5 4t14 2q42 0 60.5 -28t18.5 -76q0 -15 -2 -31.5t-5 -34.5q-2 -5 -14.5 -18.5t-41.5 -29.5q-116 -113 -213.5 -226.5t-177 -219.5t-141.5 -200t-107 -167.5t-73.5 -121.5t-40.5 -63l-5 -23q1 0 16.5 -8t41 -19.5t57 -25.5 t64.5 -25.5t64 -19.5t55 -8q81 0 145 17t116.5 41.5t95 52t79.5 48.5q22 16 44 16t42.5 -12t36.5 -31t25.5 -42.5t9.5 -45.5q0 -34 -18 -55q-36 -30 -96.5 -70t-135.5 -76t-160 -61t-172 -25q-14 0 -47 8t-88 27.5t-132 51t-178 78.5q-51 -45 -101.5 -64.5t-92.5 -19.5 q-54 0 -87.5 28t-33.5 77q0 38 25.5 88t85.5 108l734 960q-23 0 -47.5 -1t-50.5 -1q-32 0 -65 3zM787 1906q30 81 58 154q12 31 24.5 63.5t24.5 62.5t22 56t18 44q18 47 37.5 73t40 38t41.5 14.5t42 2.5q10 0 22 -6.5t22 -18.5t17 -28.5t7 -37.5q0 -18 -7 -38l-164 -329 q-27 -53 -48.5 -93t-44.5 -67t-53 -40.5t-75 -13.5q-44 0 -74 16.5t-51 48.5t-36.5 78.5t-30.5 106.5q-11 33 -18 54.5t-12 37.5t-9.5 30t-10.5 34t-15 48.5t-23 73.5q-3 8 -4 17t-1 18q0 23 7.5 43.5t21.5 36t35.5 24.5t49.5 9q19 0 36.5 -6t32.5 -21t26.5 -40.5 t18.5 -64.5q17 -103 30.5 -175t23.5 -118q11 -54 19 -87z"/>
<glyph glyph-name="zcaron" horiz-adv-x="737" unicode="ž" d="M27 187q0 22 8 36.5t21 27.5t30 26.5t35 33.5l311 418q-18 8 -31 15t-23.5 12.5t-21.5 8.5t-24 3q-32 0 -53 -1t-35.5 -7t-26 -18t-25.5 -34q-31 -48 -52 -70.5t-38 -22.5q-16 0 -22.5 14.5t-6.5 38.5q0 10 1 21.5t3 23.5q15 87 43 141t62.5 83.5t72 40t69.5 10.5 q24 0 48 -11.5t47.5 -25.5t48 -25.5t50.5 -12.5q20 -1 36.5 -1h30.5q40 0 64 1.5t36.5 3.5t17.5 3.5t8 1.5q35 0 50.5 -24.5t15.5 -66.5q0 -27 -6 -58q-2 -8 -20 -20.5t-60 -23.5q-12 -22 -40 -62t-64.5 -89t-76 -101t-75 -97.5t-62 -79t-35.5 -45.5l-5 -20q1 0 18 -7 t40 -15.5t48.5 -15.5t44.5 -7q42 0 76.5 12.5t64 31.5t55 40.5t49 40.5t46.5 31.5t48 12.5q19 0 34.5 -9t26 -23t16 -31.5t5.5 -34.5q0 -29 -22 -60.5t-59 -61.5t-86 -57t-102.5 -47.5t-109 -32.5t-104.5 -12q-4 0 -21 4t-45 13.5t-65 24.5t-81 38q-38 -12 -66 -12 q-30 0 -52 10.5t-36.5 28.5t-21.5 41t-7 49zM580 1253q30 81 58 154q12 31 24.5 63.5t24.5 62.5t22 56t18 44q18 47 37.5 73t40 38t41.5 14.5t42 2.5q10 0 22 -6.5t22 -18.5t17 -28.5t7 -37.5q0 -18 -7 -38l-164 -329q-27 -53 -48.5 -93t-44.5 -67t-53 -40.5t-75 -13.5 q-44 0 -74 16.5t-51 48.5t-36.5 78.5t-30.5 106.5q-11 33 -18 54.5t-12 37.5t-9.5 30t-10.5 34t-15 48.5t-23 73.5q-3 8 -4 17t-1 18q0 23 7.5 43.5t21.5 36t35.5 24.5t49.5 9q19 0 36.5 -6t32.5 -21t26.5 -40.5t18.5 -64.5q17 -103 30.5 -175t23.5 -118q11 -54 19 -87z"/>
<glyph glyph-name="florin" horiz-adv-x="1314" unicode="ƒ" d="M566 1056q15 106 36 206t51 186t71 158q42 72 98 123t130 79t171 29q27 0 71 -7q44 -6 84 -24t70 -47t29 -73q-1 -16 -7 -40t-20 -47t-34 -40q-21 -17 -49 -17q-17 0 -39 11t-45 25t-47 24q-24 11 -47 11q-49 1 -90 -29t-76 -96t-65 -172t-57 -260h267q44 0 70 -24 t26 -72t-29 -72t-67 -24h-297q-31 -138 -57 -266t-56 -237q-30 -111 -67 -201t-89 -154t-122 -99t-166 -35q-22 0 -56 7t-68 25q-32 18 -56 46q-24 29 -24 73q0 15 6 39t20 48q14 23 34 40t50 17q10 0 23 -11q13 -10 27 -24t29 -25t29 -11q34 0 65 14t59 46q28 34 52 90 q26 56 48 142t43 202q21 118 41 274h-172q-52 0 -74 24t-22 72q0 42 9 62t39 28q29 7 83 7q4 -1 7 -1h160z"/>
<glyph glyph-name="circumflex" horiz-adv-x="864" unicode="ˆ" d="M485 1532q-31 -81 -59 -154q-12 -31 -24.5 -63.5t-24 -62.5t-22 -56t-17.5 -44q-18 -47 -37.5 -73t-40 -38t-41.5 -14.5t-42 -2.5q-11 0 -23 6.5t-22 18.5t-17 28.5t-7 37.5q0 19 8 38l164 329q27 52 48.5 92t44.5 67t53 41t75 14q44 0 74 -16.5t51 -48.5t36.5 -78.5 t30.5 -106.5q11 -34 18 -55t12 -37t9.5 -30t10.5 -34t15 -48.5t23 -73.5q5 -18 5 -35q0 -47 -29 -80t-86 -33q-19 0 -36.5 6t-32.5 21t-26.5 40.5t-17.5 64.5q-17 103 -31 175t-23 118q-11 54 -19 87z"/>
<glyph glyph-name="caron" horiz-adv-x="864" unicode="ˇ" d="M410 1183q30 81 58 154q12 31 24.5 63.5t24.5 62.5t22 56t18 44q18 47 37.5 73t40 38t41.5 14.5t42 2.5q10 0 22 -6.5t22 -18.5t17 -28.5t7 -37.5q0 -18 -7 -38l-164 -329q-27 -53 -48.5 -93t-44.5 -67t-53 -40.5t-75 -13.5q-44 0 -74 16.5t-51 48.5t-36.5 78.5 t-30.5 106.5q-11 33 -18 54.5t-12 37.5t-9.5 30t-10.5 34t-15 48.5t-23 73.5q-3 8 -4 17t-1 18q0 23 7.5 43.5t21.5 36t35.5 24.5t49.5 9q19 0 36.5 -6t32.5 -21t26.5 -40.5t18.5 -64.5q17 -103 30.5 -175t23.5 -118q11 -54 19 -87z"/>
<glyph glyph-name="dotaccent" horiz-adv-x="704" unicode="˙" d="M500 1279q0 -4 -1 -20t-6.5 -37t-17 -44.5t-32.5 -43.5t-53 -33t-78 -13q-37 0 -67 9.5t-51.5 29t-33.5 50t-12 73.5q0 36 10.5 70.5t32.5 61.5t57 43t83 16q83 0 126 -42t43 -120z"/>
<glyph glyph-name="ring" horiz-adv-x="737" unicode="˚" d="M406 1480q-45 0 -78 -14.5t-54.5 -37t-32.5 -50t-11 -54.5q0 -20 6 -38.5t18.5 -32.5t30.5 -22.5t42 -8.5q39 0 70 15.5t52 40t32.5 54t11.5 57.5q0 38 -21 64.5t-66 26.5zM95 1325q0 46 15 85t41 70.5t59.5 55.5t71 40.5t76 24.5t73.5 8q37 0 74.5 -12.5t66.5 -38.5 t47.5 -65t18.5 -91q0 -80 -29 -139t-74 -98t-100.5 -58t-107.5 -19q-37 0 -78 12t-75 39.5t-56.5 73t-22.5 112.5z"/>
<glyph glyph-name="ogonek" horiz-adv-x="537" unicode="˛" d="M512 -224q10 6 19 6q19 0 31 -21t11 -47q0 -19 -7 -37t-22 -29q-24 -14 -54 -30t-64 -32q-34 -14 -69 -24t-69 -10q-43 0 -73 12q-29 12 -49 34t-29 50t-9 60q0 24 10 56t24 68t32 70q16 36 30 66q6 22 20 34t31 19q18 7 38 9t39 2q34 0 48 -13t14 -34q0 -5 -12 -29 t-28 -58t-28 -70t-12 -64q0 -24 11 -38t39 -14q33 0 63 20t65 44z"/>
<glyph glyph-name="tilde" horiz-adv-x="960" unicode="˜" d="M628 1227q12 13 24 30q11 14 23.5 32t25.5 38q20 32 49.5 47.5t58.5 15.5q34 0 58.5 -19t24.5 -54q0 -25 -14 -53q-12 -23 -31 -58.5t-47.5 -69t-66.5 -57.5t-87 -24q-31 0 -56.5 8.5t-58.5 30.5t-80.5 60t-122.5 97q-12 -15 -24 -31q-11 -14 -24 -31.5t-25 -37.5 q-20 -32 -49.5 -47.5t-58.5 -15.5q-34 0 -58.5 19t-24.5 54q0 25 14 53q12 23 31 58.5t47.5 69t66.5 57.5t87 24q31 0 56.5 -8.5t58.5 -30.5t80.5 -60t122.5 -97z"/>
<glyph glyph-name="hungarumlaut" horiz-adv-x="1024" unicode="˝" d="M112 1203q6 13 17 39t25 60t32 73q16 39 33 77q39 90 85 194q14 34 40 49t55 15q26 0 52 -10q27 -10 47 -28t33 -43t13 -55q0 -47 -37 -97q-19 -25 -43 -57t-52 -66q-26 -34 -54 -69l-52 -65q-26 -30 -46 -55l-32 -40q-17 -21 -34 -29t-34 -8q-24 0 -41 18t-17 49 q0 11 2 23t8 25zM444 1203l21 39t32 59q18 35 39 73l42 76q49 90 108 196q16 34 48 49t67 15q23 0 45 -10t40 -28t29 -43t11 -55q0 -45 -37 -97q-23 -25 -52 -57t-61 -66l-64 -68t-61 -64t-53 -56q-24 -25 -38 -41q-34 -37 -68 -37q-24 0 -41 18t-17 49q0 13 2 25t8 23z"/>
<glyph glyph-name="endash" horiz-adv-x="991" unicode="–" d="M159 384q-17 0 -33 6t-30 19t-22 33t-9 50q-1 38 9 61t26 35t40 16q22 4 47 4h620q37 0 61 -8t36 -20q14 -12 19 -28t5 -34q0 -28 -6 -52t-22 -43q-14 -19 -38 -29t-59 -10h-644z"/>
<glyph glyph-name="emdash" horiz-adv-x="1120" unicode="—" d="M157 384q-17 0 -33 6t-30 19t-22 33t-9 50q-1 38 9 61t26 35t40 16q22 4 47 4h750q37 0 61 -8t36 -20q14 -12 19 -28t5 -34q0 -28 -6 -52t-22 -43q-14 -19 -38 -29t-59 -10h-774z"/>
<glyph glyph-name="quoteleft" horiz-adv-x="704" unicode="‘" d="M488 1757q0 -18 -2 -47q-2 -30 -3 -64q-2 -34 -5 -72l-6 -76q-7 -87 -16 -186q0 -30 -15 -54t-39 -40t-54 -26q-30 -8 -60 -8q-25 0 -48 6t-41 20q-19 14 -29 34t-10 49q0 13 2 25t6 26q13 48 30 106q16 58 34 114t34 108t30 88q16 48 48 72t64 23t56 -25t24 -73z"/>
<glyph glyph-name="quoteright" horiz-adv-x="640" unicode="’" d="M160 1283q0 19 2 47t3 62q2 34 5 74q3 38 6 75q7 87 16 187q0 30 15 54t39 40t54 25t60 9q25 0 48 -6t41 -20q19 -13 29 -34t10 -49q0 -13 -2 -25t-6 -26q-14 -48 -30 -106t-34 -114t-34 -108t-30 -88q-16 -48 -48 -72t-64 -23t-56 25t-24 73z"/>
<glyph glyph-name="quotesinglbase" horiz-adv-x="609" unicode="‚" d="M293 -72q3 14 8 34l11 44t14 50t15 53q17 60 36 128q5 21 19 37t32 26t41 16q22 5 45 5q28 1 56 -7t50 -23t37 -37q14 -22 14 -49q0 -20 -7 -39t-19 -41q-19 -31 -41 -65t-46 -68q-22 -34 -44 -66t-37 -55q-24 -33 -53 -47t-56 -15q-33 -1 -57 21t-24 61q0 16 6 37z"/>
<glyph glyph-name="quotedblleft" horiz-adv-x="1184" unicode="“" d="M488 1757q0 -18 -2 -47q-2 -30 -3 -64q-2 -34 -5 -72l-6 -76q-7 -87 -16 -186q0 -30 -15 -54t-39 -40t-54 -26q-30 -8 -60 -8q-25 0 -48 6t-41 20q-19 14 -29 34t-10 49q0 13 2 25t6 26q13 48 30 106q16 58 34 114t34 108t30 88q16 48 48 72t64 23t56 -25t24 -73z M872 1757q0 -18 -2 -47q-2 -30 -3 -64q-2 -34 -5 -72l-6 -76q-7 -87 -16 -186q0 -30 -15 -54t-39 -40t-54 -26q-30 -8 -60 -8q-25 0 -48 6t-41 20q-19 14 -29 34t-10 49q0 13 2 25t6 26q13 48 30 106q16 58 34 114t34 108t30 88q16 48 48 72t64 23t56 -25t24 -73z"/>
<glyph glyph-name="quotedblright" horiz-adv-x="1184" unicode="”" d="M544 1283q0 19 2 47t3 62q2 34 5 74q3 38 6 75q7 87 16 187q0 30 15 54t39 40t54 25t60 9q25 0 48 -6t41 -20q19 -13 29 -34t10 -49q0 -13 -2 -25t-6 -26q-14 -48 -30 -106t-34 -114t-34 -108t-30 -88q-16 -48 -48 -72t-64 -23t-56 25t-24 73zM160 1283q0 19 2 47t3 62 q2 34 5 74q3 38 6 75q7 87 16 187q0 30 15 54t39 40t54 25t60 9q25 0 48 -6t41 -20q19 -13 29 -34t10 -49q0 -13 -2 -25t-6 -26q-14 -48 -30 -106t-34 -114t-34 -108t-30 -88q-16 -48 -48 -72t-64 -23t-56 25t-24 73z"/>
<glyph glyph-name="quotedblbase" horiz-adv-x="1025" unicode="„" d="M293 -72q3 14 8 34l11 44t14 50t15 53q17 60 36 128q5 21 19 37t32 26t41 16q22 5 45 5q28 1 56 -7t50 -23t37 -37q14 -22 14 -49q0 -20 -7 -39t-19 -41q-19 -31 -41 -65t-46 -68q-22 -34 -44 -66t-37 -55q-24 -33 -53 -47t-56 -15q-33 -1 -57 21t-24 61q0 16 6 37z M684 -72q3 14 8 34q6 20 12 44t14 50t14 53q17 60 36 128q6 21 20 37t32 26t40 16q22 5 45 5q28 1 56 -7q29 -8 51 -23t36 -37t14 -49q0 -20 -7 -39t-19 -41q-20 -31 -42 -65l-44 -68t-44 -66t-38 -55q-24 -33 -53 -47t-56 -15q-33 -1 -57 21t-24 61q0 16 6 37z"/>
<glyph glyph-name="dagger" horiz-adv-x="1152" unicode="†" d="M939 1216q37 0 61 -20t24 -59q0 -29 -10 -45t-24 -25q-16 -8 -34 -10t-36 -2h-260q-21 -101 -44 -205t-44 -197q-20 -93 -38 -168t-28 -117t-30 -64t-41 -34q-23 -11 -45 -13t-38 -2q-21 0 -35 10t-22 26q-7 17 -11 37t-4 41q0 15 2 29t3 26q7 30 21 94t34 150t45 186 q24 100 48 201h-209q-34 0 -54 7q-20 8 -29 18t-11 23t-2 26q0 24 10 41t25 27q15 11 34 15t37 4h236q19 80 34 150t26 121q4 21 16 42t32 38t46 28q28 11 63 11q19 0 31 -6t19 -18t10 -26t3 -31q0 -24 -4 -49t-8 -44l-19 -95t-25 -121h245z"/>
<glyph glyph-name="daggerdbl" horiz-adv-x="1152" unicode="‡" d="M843 769q37 1 61 -19t24 -60q0 -30 -10 -46t-24 -24q-16 -8 -34 -10t-36 -2h-262q-18 -78 -32 -140t-24 -100q-10 -42 -30 -64t-41 -34q-23 -11 -45 -13t-38 -2q-21 0 -35 10t-22 26q-7 17 -11 37t-4 41q0 15 2 29t3 26q5 23 15 71t26 113h-198q-34 0 -54 7t-29 17 t-11 24q-2 13 -2 26q0 24 10 41t25 27t34 14t37 5h226l69 286h-209q-34 0 -54 7q-20 8 -29 18t-11 23t-2 26q0 24 10 41t25 27q15 11 34 15t37 4h236q19 80 34 150t26 121q4 21 16 42t32 38t46 28q28 11 63 11q19 0 31 -6t19 -18t10 -26t3 -31q0 -24 -4 -49t-8 -44l-19 -95 t-25 -121h245q37 0 61 -20t24 -59q0 -29 -10 -45t-24 -25q-16 -8 -34 -10t-36 -2h-260q-14 -71 -30 -143t-32 -143h245z"/>
<glyph glyph-name="bullet" horiz-adv-x="1120" unicode="•" d="M256 544q0 85 36 151q36 67 91 111q56 44 124 67t133 23q46 0 87 -11t71 -37t48 -68q18 -44 18 -108q0 -99 -31 -177t-81 -132t-112 -83q-64 -29 -128 -29q-46 0 -92 15t-82 49t-60 90q-22 56 -22 139z"/>
<glyph glyph-name="ellipsis" horiz-adv-x="1567" unicode="…" d="M672 191q0 -4 -1 -20t-7 -37q-6 -20 -16 -44q-12 -24 -33 -44t-53 -33t-78 -13q-37 0 -67 10q-29 10 -51 28q-22 20 -34 50t-12 74q0 36 10 70t33 62q22 27 57 43t83 16q83 0 126 -42t43 -120zM1504 191q0 -4 -1 -20t-7 -37q-6 -20 -16 -44q-12 -24 -33 -44t-53 -33 t-78 -13q-37 0 -67 10q-29 10 -51 28q-22 20 -34 50t-12 74q0 36 10 70t33 62q22 27 57 43t83 16q83 0 126 -42t43 -120zM1088 191q0 -4 -1 -20t-7 -37q-6 -20 -16 -44q-12 -24 -33 -44t-53 -33t-78 -13q-37 0 -67 10q-29 10 -51 28q-22 20 -34 50t-12 74q0 36 10 70t33 62 q22 27 57 43t83 16q83 0 126 -42t43 -120z"/>
<glyph glyph-name="perthousand" horiz-adv-x="3169" unicode="‰" d="M2615 256q42 0 81 37t68 95q28 58 46 130q18 70 18 138q0 55 -6 104q-6 48 -21 86t-37 60t-54 22q-53 0 -93 -38t-67 -98q-26 -62 -40 -140t-14 -158q0 -46 7 -89t21 -76t38 -53q22 -20 53 -20zM2597 64q-89 0 -155 34t-112 92t-68 133q-22 76 -22 159q0 76 14 153 t40 148q28 71 69 133t96 106q55 46 124 72t153 26q88 0 152 -36t106 -97t60 -142q20 -81 20 -171q0 -69 -16 -141t-44 -140q-29 -67 -71 -127t-95 -105t-116 -71t-135 -26zM1687 256q42 0 81 37t68 95q28 58 46 130q18 70 18 138q0 55 -6 104q-6 48 -21 86t-37 60t-54 22 q-53 0 -93 -38t-67 -98q-26 -62 -40 -140t-14 -158q0 -46 7 -89t21 -76t38 -53q22 -20 53 -20zM1669 64q-89 0 -155 34t-112 92t-68 133q-22 76 -22 159q0 76 14 153t40 148q28 71 69 133t96 106q55 46 124 72t153 26q88 0 152 -36t106 -97t60 -142q20 -81 20 -171 q0 -69 -16 -141t-44 -140q-29 -67 -71 -127t-95 -105t-116 -71t-135 -26zM1372 1696q10 18 26 35t40 31t56 22t74 8q26 0 36 -18t9 -44q1 -18 -3 -38t-9 -39t-11 -35t-10 -26q-38 -76 -90 -188t-113 -242q-61 -132 -127 -276t-134 -285t-132 -271t-120 -234q-16 -30 -41 -48 t-52 -30q-27 -10 -53 -14t-46 -4q-26 0 -44 8t-28 20t-16 30q-4 18 -4 38q0 35 10 73t25 68q16 31 49 95t78 152q46 88 100 194t112 218t118 226q59 114 114 220t103 197t83 157zM473 864q46 0 88 42q43 42 75 108t51 146t19 154q0 46 -8 86t-24 70t-42 48t-64 18 q-53 0 -94 -35q-40 -35 -68 -91t-42 -128q-14 -70 -14 -141q0 -55 8 -105t22 -88q16 -38 39 -62q23 -22 54 -22zM455 672q-89 0 -156 36t-113 99q-46 62 -69 143t-23 170q0 73 14 146q14 72 42 140t68 126q42 58 98 102t124 69q70 25 154 25q94 0 161 -33t111 -90t64 -133 t20 -160q0 -72 -16 -148t-46 -147t-74 -134t-98 -110t-120 -74t-141 -27z"/>
<glyph glyph-name="guilsinglleft" horiz-adv-x="1089" unicode="‹" d="M738 87q-80 29 -144 57t-114 54q-52 26 -94 49q-42 24 -78 47q-36 24 -70 46t-70 45q-41 29 -64 69t-23 86q-1 30 11 62t36 64t63 60q38 28 91 52l498 210q14 6 28 8t25 3q25 0 45 -8q20 -9 35 -23t23 -32t9 -40q-1 -30 -23 -64t-76 -59l-526 -229l469 -231q15 -5 37 -19 t40 -34q20 -20 34 -46t14 -56q0 -13 -8 -28q-8 -16 -22 -28t-36 -20q-20 -8 -46 -9q-30 0 -64 14z"/>
<glyph glyph-name="guilsinglright" horiz-adv-x="1089" unicode="›" d="M382 87q-34 -14 -64 -14q-26 1 -46 9t-36 20q-14 12 -22 28q-8 15 -8 28q0 30 14 56t34 46t40 34q22 14 37 19l469 231l-526 229q-54 25 -76 59t-23 64q1 22 9 40t23 32t35 23q20 8 45 8q11 -1 25 -3t28 -8l498 -210q106 -41 154 -97t47 -111q0 -26 -5 -54t-20 -56 t-43 -54q-28 -27 -75 -54q-112 -62 -240 -132t-274 -133z"/>
<glyph glyph-name="fraction" d="M928 1696q12 28 36 56t57 52t74 38t89 14q24 0 37 -10t19 -24t7 -30t1 -32q0 -8 -6 -26t-14 -37q-8 -21 -17 -41t-15 -34q-53 -116 -120 -280t-151 -366q-84 -201 -186 -432t-225 -480q-20 -33 -42 -52t-44 -29t-44 -13t-43 -3t-42 2q-21 3 -38 11t-28 26t-11 49 q0 26 10 61t29 81q13 31 43 98t70 157t89 200q47 109 99 225t104 234t101 226q47 109 89 201t72 158z" unicode="⁄"/>
<glyph glyph-name="foursuperior" horiz-adv-x="927" unicode="⁴" d="M770 -38q-43 0 -87.5 -3.5t-85.5 -3.5q-32 0 -56 4.5t-41 17.5t-25.5 35.5t-8.5 58.5q0 40 10 92t25 110q-62 0 -114 -12.5t-98 -28t-87.5 -28t-81.5 -12.5q-18 0 -26 13t-8 32q0 26 16 61t42 74q21 55 38.5 102.5t31.5 92t26 89.5t23.5 95.5t23.5 109t26 131.5 q6 16 24.5 27t44.5 18.5t56.5 11t60.5 3.5q25 0 47.5 -2.5t39 -6.5t26.5 -10.5t10 -13.5q-11 -77 -31.5 -153t-48 -153t-61 -156.5t-70.5 -162.5q38 -2 64 -2.5t47 -0.5h13q20 65 40 126.5t37 115.5q6 26 22.5 44.5t37.5 30t43.5 17t40.5 5.5q47 0 63.5 -15t16.5 -41 q0 -16 -6.5 -43t-17.5 -61t-25 -74t-28 -82q50 8 90 15.5t68 7.5q13 0 18.5 -11t5.5 -29q0 -43 -7.5 -69t-17.5 -40.5t-20 -19t-15 -4.5q-38 0 -79.5 1.5t-86.5 3.5q-8 -32 -14 -62.5t-8 -57.5v-19q0 -18 14.5 -41t31.5 -45.5t31.5 -41.5t14.5 -30q0 -5 -2.5 -7.5 t-12.5 -2.5z"/>
<glyph glyph-name="Euro" horiz-adv-x="1857" unicode="€" d="M801 704q13 0 30 -3t31 -11t24 -24q10 -14 10 -38q0 -20 -4 -40t-18 -38q-14 -16 -39 -27t-67 -11h-383q-1 -10 -1 -20v-20q0 -113 29 -191q29 -79 79 -127t116 -70q67 -22 144 -22q75 0 156 19q82 19 160 51t152 78q74 44 133 95q25 16 52 16q19 0 37 -8q18 -7 32 -21 t22 -32t8 -39t-12 -45t-37 -45q-73 -65 -161 -123t-186 -102t-200 -72q-104 -26 -208 -26q-77 0 -152 16t-142 48q-67 34 -124 87q-56 53 -98 128t-65 173t-23 222v15t1 15h-65q-32 0 -51 12t-29 28t-14 35q-3 19 -3 34q0 13 3 27t13 28q9 12 29 20t52 8h89q6 32 14 64 t18 64h-56q-32 0 -51 12q-20 12 -30 28t-13 35t-3 34q0 13 3 27t13 28q10 12 30 20t51 8h126q43 98 99 194t122 180q66 86 143 158t163 124t179 82q94 30 194 30q131 0 217 -34t138 -88t72 -124q22 -70 22 -141t-16 -139t-41 -122q-24 -54 -52 -86t-51 -32q-14 0 -38 4 t-48 14q-23 10 -40 24t-17 34v6t1 6q6 25 16 58q10 34 20 70t19 74q8 38 8 74t-11 68t-39 58q-27 24 -75 38t-120 14q-87 0 -168 -44q-82 -44 -154 -120t-134 -174t-111 -206h345q13 0 30 -3t31 -11t24 -24q10 -14 10 -38q-1 -20 -5 -40t-18 -38q-14 -16 -38 -27 q-25 -11 -67 -11h-385q-12 -32 -20 -64t-15 -64h388z"/>
<glyph glyph-name="trademark" horiz-adv-x="2302" unicode="™" d="M1306 1078q-20 0 -46 -30t-54 -80t-58 -114t-59 -134t-55 -138q-26 -70 -48 -129q-22 -39 -52 -56t-61 -17q-45 0 -78 30t-33 83q0 67 20 143t44 152t46 150t25 138q-41 8 -89 20t-94 18q-58 -189 -96 -346t-68 -263q-6 -25 -18 -46t-28 -37q-15 -16 -31 -24t-30 -8 q-32 0 -54 20t-22 64q1 50 21 126t51 163t69 178t70 173q-44 -6 -90 -12t-82 -20q-37 -14 -61 -40t-24 -68q0 -1 -2 -16t-13 -32q-10 -18 -34 -32t-68 -14q-33 0 -51 14t-26 33q-10 20 -11 47q0 93 46 150q46 56 126 88t186 43t226 11q64 0 134 -10t144 -38q1 -1 4 -1 q8 2 13 2q16 0 31 -7q16 -7 26 -18t16 -26t7 -30q0 -6 -1 -10t-2 -9q-38 -127 -74 -245t-69 -219l18 -8q41 127 81 223t78 164t72 113t66 71t60 38q28 10 52 10q65 0 105 -55t40 -161v-18t-1 -18l-8 -150q28 94 62 168t76 127q40 51 86 79t98 28q51 0 85 -16q35 -16 55 -46 q20 -28 29 -66t9 -82q0 -79 -13 -158t-28 -146q-15 -66 -28 -114t-13 -64q0 -34 23 -34q12 0 30 10q17 10 37 25q20 16 41 36t39 41t34 41t25 36q1 0 6 -15q5 -12 13 -42t26 -87q-72 -101 -146 -143t-145 -42q-29 0 -55 12t-46 33q-20 23 -32 55t-12 75q0 31 14 79t29 104 t29 117t14 118q0 37 -12 61t-45 24q-35 0 -67 -30t-62 -78q-30 -50 -56 -114t-49 -134t-43 -138q-20 -70 -36 -129q-7 -21 -20 -35q-14 -14 -30 -23t-34 -13t-36 -4q-38 0 -56 27t-18 61v8t1 9q3 12 11 43q8 30 16 72t18 91t18 98t13 94t5 79q0 56 -10 86t-36 30z"/>
<glyph glyph-name="minus" horiz-adv-x="1216" unicode="−" d="M315 576q-31 0 -54 7.5t-38.5 20t-23 29t-7.5 33.5q0 18 9 36.5t26 33t43 23.5t61 9h598q50 0 72.5 -23t22.5 -54q0 -35 -10 -57.5t-26 -35.5t-34.5 -17.5t-36.5 -4.5h-602z"/>
<glyph glyph-name="fi" horiz-adv-x="1260" unicode="ﬁ" d="M1012 1241q0 23 10 52t32 55t60 42q38 18 94 18q35 0 66 -8t54 -24q22 -16 36 -44q14 -27 14 -64q0 -34 -11 -66t-35 -57t-60 -41t-88 -15q-88 -1 -130 41t-42 111zM578 1533q-58 -143 -91 -253t-50 -195t-24 -149t-14 -120q61 114 123 226t112 208t82 168q32 73 31 111 q0 53 -15 77t-41 25q-46 -1 -70 -25t-43 -73zM335 442q-4 0 -9 -22q-6 -22 -10 -58t-8 -80t-7 -86t-5 -80q-2 -36 -2 -57q0 -147 6 -234t14 -132t18 -59t22 -13q34 0 54 31q20 30 32 78q10 48 14 104t3 109q1 35 -5 86t-16 107t-22 110t-26 98t-27 71q-14 27 -26 27z M1459 213q-35 -33 -89 -71t-116 -68q-62 -32 -126 -53t-123 -21q-51 0 -87 14t-58 41q-22 25 -32 63t-9 83q0 51 10 117t25 137q-59 -21 -116 -33t-102 -17q-53 -7 -101 -8q36 -66 65 -137q26 -60 46 -136t20 -153q0 -9 -2 -38t-9 -71q-6 -42 -17 -93q-10 -51 -28 -103 t-43 -100t-59 -86t-76 -61q-44 -23 -99 -23t-96 25t-70 67t-49 100q-20 56 -30 119q-12 63 -16 129t-4 126q0 5 2 61t10 149q7 92 19 214q11 122 31 258t46 278t64 277q36 135 83 255t105 208q58 90 131 142q72 52 158 52q33 0 71 -12t69 -39t51 -71t21 -110 q-1 -60 -19 -136t-52 -163t-78 -181q-46 -94 -100 -188t-114 -184t-121 -169l-2 -16q20 10 30 13t21 3q13 -1 21 -3q9 -2 15 -5t13 -5t17 -3q62 1 116 11t98 26t79 34q35 19 59 36l43 169q7 27 28 45t47 30t56 16q28 6 51 6q42 0 57 -16t15 -41q0 -21 -10 -63t-25 -94 t-32 -114q-17 -60 -32 -120t-25 -118t-10 -104t10 -72t41 -26q36 0 80 25t89 61t88 73q43 38 76 65v-203z"/>
<glyph glyph-name="fl" horiz-adv-x="1298" unicode="ﬂ" d="M578 1533q-58 -143 -91 -253t-50 -195t-24 -149t-14 -120q61 114 123 226t112 208t82 168q32 73 31 111q0 53 -15 77t-41 25q-46 -1 -70 -25t-43 -73zM335 442q-4 0 -9 -22q-6 -22 -10 -58t-8 -80t-7 -86t-5 -80q-2 -36 -2 -57q0 -147 6 -234t14 -132t18 -59t22 -13 q34 0 54 31q20 30 32 78q10 48 14 104t3 109q1 35 -5 86t-16 107t-22 110t-26 98t-27 71q-14 27 -26 27zM1091 795q45 81 93 181t90 208t72 213q30 106 40 197q0 30 -2 50t-9 20q-33 0 -75 -48t-84 -136q-40 -88 -74 -214q-34 -125 -50 -280q-2 -10 -2 -34v-53v-71 q0 -18 1 -33zM1074 0q-46 0 -86 34t-74 95q-32 59 -55 141t-33 176q-55 -18 -107 -28t-93 -14q-48 -5 -91 -7q36 -66 65 -137q26 -60 46 -136t20 -153q0 -9 -2 -38t-9 -71q-6 -42 -17 -93q-10 -51 -28 -103t-43 -100t-59 -86t-76 -61q-44 -23 -99 -23t-96 25t-70 67t-49 100 q-20 56 -30 119q-12 63 -16 129t-4 126q0 5 2 61t10 149q7 92 19 214q11 122 31 258t46 278t64 277q36 135 83 255t105 208q58 90 131 142q72 52 158 52q33 0 71 -12t69 -39t51 -71t21 -110q-1 -60 -19 -136t-52 -163t-78 -181q-46 -94 -100 -188t-114 -184t-121 -169 l-2 -16q20 10 30 13t21 3q13 -1 21 -3q9 -2 15 -5t13 -5t17 -3q82 0 146 16t114 39q4 72 20 164t40 196q26 104 61 211q35 108 77 210q42 103 92 193t104 158t114 106q60 40 122 40q43 0 71 -20t44 -51q17 -33 23 -73t6 -82q0 -94 -22 -192t-58 -196t-84 -197t-100 -197 t-104 -192t-99 -184q-5 -10 -11 -26t-10 -34q-5 -18 -10 -40q-5 -21 -8 -41v-14q0 -27 6 -51t13 -44q8 -20 17 -30q9 -12 17 -12q19 0 43 8t52 22t57 30q29 18 56 36q63 42 132 97l82 -210q-89 -64 -176 -114q-39 -21 -79 -41t-81 -37q-41 -15 -80 -25t-73 -10z"/>
<glyph glyph-name="NULL" horiz-adv-x="0"/>
</font>
</defs>
</svg>
