<?xml version="1.0" encoding="utf-8"?>
<!-- Generator: Adobe Illustrator 18.1.1, SVG Export Plug-In . SVG Version: 6.00 Build 0)  -->
<svg version="1.1" id="Layer_1" xmlns="http://www.w3.org/2000/svg" xmlns:xlink="http://www.w3.org/1999/xlink" x="0px" y="0px"
	 viewBox="-696.7 284.4 163.3 111.6" enable-background="new -696.7 284.4 163.3 111.6" xml:space="preserve">
<g id="logo-bubbles">
	<path fill="#EE3D96" d="M-644.3,306c-29,0-52.5,17.4-52.5,39c0,11.3,6.5,21.6,17,28.5c-1,16.3-13.9,22.5-13.9,22.5
		c17.4,0.3,26.6-7.6,31.4-14.6c5.7,1.6,11.7,2.4,18.1,2.4c29,0,52.5-17.4,52.5-39C-591.8,323.4-615.4,306-644.3,306z"/>
	<path fill="#F7941E" d="M-548.7,348.3c9.4-6.8,15.2-16.2,15.2-26.6c0-20.6-22.5-37.2-50.2-37.2c-18.9,0-35.2,7.8-43.7,19.2
		c23.3,5.5,40.3,22,40.3,41.5c0,4.8-1,9.4-2.9,13.5c2.1,0.2,4.3,0.3,6.5,0.3c6.8,0,13.2-1,19-2.9c4.1,6.5,12.4,14.1,28.5,13.8
		C-536.2,369.8-548.5,363.8-548.7,348.3z"/>
</g>
</svg>
