<?xml version="1.0" encoding="utf-8"?>
<!-- Generator: Adobe Illustrator 18.1.1, SVG Export Plug-In . SVG Version: 6.00 Build 0)  -->
<svg version="1.1" id="Layer_1" xmlns="http://www.w3.org/2000/svg" xmlns:xlink="http://www.w3.org/1999/xlink" x="0px" y="0px"
	 viewBox="-271 369.2 386.1 128.5" enable-background="new -271 369.2 386.1 128.5" xml:space="preserve">
<g>
	<g id="logo-text">
		<path fill="#FFFFFF" d="M-248.2,435.1c-3.1,0-5.6,0.9-7.6,2.6c-2,1.7-2.9,3.7-2.9,6c0,2.4,0.8,4.3,2.3,5.8s3.4,2.9,5.7,4.1
			c2.3,1.2,4.8,2.4,7.4,3.5c2.6,1.1,5.1,2.5,7.4,4.1c2.3,1.6,4.2,3.6,5.7,6c1.5,2.3,2.3,5.3,2.3,9c0,3.2-0.6,6.1-1.9,8.8
			c-1.3,2.7-3.1,4.9-5.5,6.8c-2.4,1.9-5.2,3.3-8.4,4.3c-3.3,1-6.9,1.5-11,1.5c-3.6,0-6.9-0.4-9.8-1.1c-2.9-0.7-5-1.6-6.5-2.7
			c0.7-2.2,1.2-4.3,1.7-6.1c0.5-1.9,0.9-3.9,1.2-6.1h1.9c0.3,1.4,0.8,2.7,1.5,4c0.7,1.2,1.7,2.4,2.8,3.3c1.1,1,2.5,1.7,4.1,2.3
			c1.6,0.5,3.4,0.8,5.5,0.8c4,0,7-1,8.9-2.9c1.9-1.9,2.9-4.2,2.9-6.9c0-2.4-0.7-4.4-2.2-6c-1.5-1.5-3.3-2.9-5.6-4.1
			c-2.2-1.2-4.6-2.3-7.3-3.5c-2.6-1.1-5.1-2.5-7.3-4.1c-2.2-1.6-4.1-3.6-5.6-5.9c-1.5-2.3-2.2-5.3-2.2-9c0-3.3,0.6-6.3,1.9-8.8
			c1.2-2.6,2.9-4.7,5-6.4c2.1-1.7,4.5-3,7.2-3.9c2.7-0.9,5.6-1.3,8.6-1.3c3.6,0,6.8,0.4,9.6,1.2s5.1,2,7,3.5
			c-0.6,1.5-1.1,2.9-1.6,4.3c-0.4,1.4-1,3.1-1.7,5.2h-1.5C-238.1,437.9-242.2,435.1-248.2,435.1z"/>
		<path fill="#FFFFFF" d="M-218.8,463.4c1.4-3.2,3.2-5.9,5.5-8c2.3-2.1,4.9-3.7,7.9-4.8s6.1-1.6,9.2-1.6c7.9,0,14,2.1,18.3,6.3
			c4.3,4.2,6.5,10,6.5,17.2c0,3.9-0.6,7.4-1.8,10.6c-1.2,3.1-2.9,5.8-5.1,8c-2.2,2.2-4.8,3.9-7.8,4.9c-3,1.1-6.4,1.6-10,1.6
			c-3,0-6-0.4-8.9-1.2c-2.9-0.8-5.6-2.1-7.9-3.9c-2.4-1.8-4.3-4.2-5.7-7.2c-1.5-2.9-2.2-6.6-2.2-10.8
			C-220.9,470.3-220.2,466.6-218.8,463.4z M-188.5,457.9c-1.5-3.1-3.9-4.7-7.4-4.7c-3.1,0-5.5,1.7-7.3,5.2s-2.7,8.9-2.7,16.2
			c0,2.7,0.2,5.2,0.5,7.5s0.9,4.3,1.7,6s1.8,3,3,4s2.8,1.4,4.7,1.4c6.5,0,9.7-7.5,9.7-22.6C-186.3,465.4-187,461.1-188.5,457.9z"/>
		<path fill="#FFFFFF" d="M-129,456.5c-1.6-1.8-3.9-2.6-7-2.6c-4,0-7.1,1.7-9.1,5.2c-2,3.5-3,8.3-3,14.5c0,5.8,1.3,10.3,3.8,13.4
			c2.6,3.1,6.3,4.7,11.2,4.7c2.1,0,4.1-0.5,6.1-1.4s3.4-2,4.3-3.1l1.2,1c-0.5,0.9-0.9,1.8-1.2,2.8s-0.7,1.9-1,2.9
			c-1.5,1.1-3.4,2-5.6,2.7c-2.3,0.7-4.9,1.1-8,1.1c-4.9,0-9.1-0.7-12.4-2c-3.4-1.3-6.1-3.2-8.1-5.5c-2.1-2.3-3.5-4.9-4.4-7.8
			c-0.9-2.9-1.3-5.8-1.3-8.8c0-3.5,0.6-6.8,1.9-9.8c1.2-3,3-5.6,5.4-7.8c2.3-2.2,5.1-3.9,8.4-5.1c3.3-1.2,7-1.9,11-1.9
			c3.8,0,7.1,0.4,9.8,1.3c2.7,0.8,5.2,1.9,7.6,3.3c-0.8,1.3-1.6,2.8-2.3,4.7s-1.2,3.6-1.6,5.3h-2.4
			C-126.4,460.6-127.5,458.3-129,456.5z"/>
		<path fill="#FFFFFF" d="M-109.1,426.7c1.5-1.5,3.4-2.2,5.7-2.2s4.1,0.7,5.7,2.2c1.5,1.5,2.3,3.3,2.3,5.4s-0.8,3.9-2.3,5.4
			c-1.6,1.5-3.4,2.2-5.7,2.2s-4.1-0.7-5.7-2.2c-1.6-1.5-2.3-3.3-2.3-5.4C-111.4,430-110.6,428.2-109.1,426.7z M-111,497.6
			c0.3-3.2,0.6-7.8,0.7-11.2c0.1-3.5,0.2-7.1,0.2-11v-3.8c0-3.9-0.1-7.6-0.2-11c-0.1-3.4-0.3-6.9-0.7-10.3h15.2
			c-0.3,3.5-0.6,6.9-0.7,10.3c-0.1,3.4-0.2,7.1-0.2,11v3.8c0,3.9,0,7.6,0.2,11c0.1,3.5,0.3,8,0.7,11.2H-111z"/>
		<path fill="#FFFFFF" d="M-74.4,450.7c3.3-1.2,6.5-1.7,9.8-1.7c2.7,0,5.2,0.3,7.4,0.9c2.3,0.6,4.2,1.5,5.9,2.7
			c1.7,1.2,2.9,2.9,3.8,4.8c0.9,2,1.4,4.4,1.4,7.2c0,4.1,0,7.9-0.2,11.4c-0.1,3.5-0.2,7-0.2,10.4c0,1.5,0.1,2.7,0.4,3.6
			c0.2,0.9,0.6,1.5,1.1,2c0.5,0.4,1.1,0.7,1.9,0.9c0.8,0.1,1.7,0.2,2.7,0.2v2.3c-2,0.8-3.6,1.3-5,1.7c-1.3,0.4-2.8,0.6-4.3,0.6
			c-2.5,0-4.5-0.6-6.1-1.7c-1.6-1.2-2.7-2.8-3.5-5c-1.6,2-3.4,3.7-5.4,4.9c-2.1,1.2-4.6,1.8-7.7,1.8c-2.6,0-4.8-0.3-6.6-1
			c-1.8-0.6-3.3-1.6-4.5-2.7s-2-2.5-2.6-4c-0.5-1.5-0.8-3-0.8-4.6c0-2.1,0.4-3.9,1.1-5.5c0.7-1.5,1.7-2.8,3-3.9s2.9-2,4.7-2.7
			c1.8-0.7,3.9-1.4,6.2-1.9c2.8-0.6,5.1-1.2,6.7-1.7c1.7-0.5,2.9-1,3.7-1.4c0.8-0.4,1.3-1,1.6-1.6c0.2-0.6,0.4-1.3,0.4-2.1
			c0-2.3-0.9-4.3-2.6-5.9c-1.7-1.6-4.1-2.4-7.1-2.4c-1.1,0-2.3,0.1-3.5,0.4c-1.2,0.3-2.4,0.7-3.5,1.2s-2.1,1.1-3,1.7
			c-0.9,0.6-1.6,1.3-2.1,2H-82l-1.3-5.8C-80.7,453.5-77.6,451.9-74.4,450.7z M-59.5,475.5c0-1.4,0.1-2.7,0.1-3.8
			c-1.4,0.8-2.9,1.4-4.5,1.9c-1.6,0.5-3,1.1-4.3,1.8s-2.4,1.7-3.2,3c-0.8,1.3-1.3,3.1-1.3,5.6c0,2.4,0.5,4.2,1.6,5.4
			c1,1.2,2.4,1.9,4.2,1.9c2.2,0,4-0.8,5.4-2.4c1.4-1.6,2.1-4,2.1-7.1C-59.6,479.1-59.5,477-59.5,475.5z"/>
		<path fill="#FFFFFF" d="M-32.4,497.6c0.3-5.2,0.5-11.6,0.6-16.9c0.1-5.2,0.2-11,0.2-17.3v-6.2c0-6.3-0.1-12-0.2-17.3
			c-0.1-5.2-0.3-10.6-0.6-15.9h15.2c-0.3,5.4-0.5,10.7-0.6,15.9C-18,445.2-18,451-18,457.2v6.2c0,6.3,0.1,12,0.2,17.3
			c0.1,5.3,0.3,11.7,0.6,16.9H-32.4z"/>
		<path fill="#FFFFFF" d="M-2.4,426.7c1.5-1.5,3.4-2.2,5.7-2.2s4.1,0.7,5.7,2.2c1.5,1.5,2.3,3.3,2.3,5.4s-0.8,3.9-2.3,5.4
			c-1.6,1.5-3.4,2.2-5.7,2.2s-4.1-0.7-5.7-2.2s-2.3-3.3-2.3-5.4C-4.7,430-3.9,428.2-2.4,426.7z M-4.3,497.6
			c0.3-3.2,0.6-7.8,0.7-11.2c0.1-3.5,0.2-7.1,0.2-11v-3.8c0-3.9-0.1-7.6-0.2-11s-0.3-8.3-0.7-11.8h15.2c-0.3,3.5-0.6,8.4-0.7,11.8
			s-0.2,7.1-0.2,11v3.8c0,3.9,0,7.6,0.2,11c0.1,3.5,0.3,8,0.7,11.2H-4.3z"/>
		<path fill="#FFFFFF" d="M20.4,497.6v-4.9c4.6-6.2,9.1-12.4,13.5-18.4c4.3-6.1,8.7-12.3,13.2-18.6l-23.5,1.2c0.3-1,0.4-2.1,0.4-3.4
			c0-1.2-0.1-3.8-0.4-4.7h41.3v5.3c-4.7,6.2-9.3,12.4-13.8,18.5s-8.8,12.4-12.9,18.7l26-1.2c-0.2,1.2-0.3,2.2-0.3,3.3
			c0,1.2,0.1,3.5,0.3,4.3H20.4V497.6z"/>
		<path fill="#FFFFFF" d="M87,480.7c0.5,2.2,1.4,4.2,2.5,5.8c1.1,1.6,2.5,2.9,4.2,3.8s3.7,1.4,6,1.4c4.6,0,8.8-1.4,12.4-4.3l1.2,0.9
			l-2.2,5.4c-1.7,1.2-3.7,2.2-6.1,2.9c-2.4,0.7-5.5,1.1-9.3,1.1c-3.3,0-6.4-0.4-9.4-1.3c-3-0.9-5.6-2.3-7.8-4.3
			c-2.3-2-4-4.5-5.4-7.5c-1.3-3-2-6.7-2-10.9c0-4.2,0.6-7.8,1.8-10.8c1.2-3.1,2.8-5.6,4.9-7.7c2.1-2,4.6-3.6,7.4-4.6
			c2.9-1,6-1.5,9.3-1.5c6.7,0,11.8,1.9,15.3,5.6c3.5,3.7,5.3,9,5.3,15.7v2c0,0.6,0,1-0.1,1.2H86C86.2,476,86.4,478.4,87,480.7z
			 M99.9,457.6c-1.1-2.9-3-4.3-5.6-4.3c-1.5,0-2.7,0.5-3.7,1.4c-1,1-1.8,2.2-2.4,3.7s-1.1,3.2-1.4,5.1c-0.3,1.9-0.5,3.8-0.6,5.6
			h15.6C101.6,464.3,101,460.5,99.9,457.6z"/>
	</g>
	<g id="logo-bubbles">
		<path fill="#EE3D96" d="M-189.5,382.8c-18.3,0-33.1,11-33.1,24.6c0,7.1,4.1,13.6,10.7,18c-0.6,10.3-8.8,14.2-8.8,14.2
			c11,0.2,16.8-4.8,19.8-9.2c3.6,1,7.4,1.5,11.4,1.5c18.3,0,33.1-11,33.1-24.6C-156.4,393.8-171.3,382.8-189.5,382.8z"/>
		<path fill="#F7941E" d="M-129.2,409.5c5.9-4.3,9.6-10.2,9.6-16.8c0-13-14.2-23.5-31.7-23.5c-11.9,0-22.2,4.9-27.6,12.1
			c14.7,3.5,25.4,13.9,25.4,26.2c0,3-0.6,5.9-1.8,8.5c1.3,0.1,2.7,0.2,4.1,0.2c4.3,0,8.3-0.6,12-1.8c2.6,4.1,7.8,8.9,18,8.7
			C-121.3,423.1-129.1,419.3-129.2,409.5z"/>
	</g>
</g>
</svg>
